<svg width="273" height="282" viewBox="0 0 273 282" fill="none" xmlns="http://www.w3.org/2000/svg">
<path d="M187.938 35.8929C192.094 36.6631 196.217 37.5403 200.238 38.7405C246.636 52.5895 285.778 115.276 253.178 161.973C245.409 173.102 234.25 179.522 224.365 188.413C201.881 208.635 192.442 236.624 172.396 258.421C156.857 275.318 132.893 280.894 111.406 280.536C88.0572 280.147 69.9096 272.563 53.5533 256.622C35.2162 238.75 32.9348 214.425 31.4955 189.58C30.8483 178.407 30.1595 166.894 26.6705 156.319C22.3026 143.08 15.0652 130.889 9.80221 118.033C4.32892 104.663 0.219901 90.3196 1.10457 75.5893C3.93541 28.4162 65.4383 -1.0513 106.598 5.62044C121.167 7.98207 133.864 15.5916 146.517 22.3986C160.175 29.7464 172.562 33.043 187.938 35.8929Z" fill="#F3F5F6"/>
<path d="M247.373 252.781L250.328 258.768L256.935 259.728L252.154 264.388L253.283 270.968L247.373 267.861L241.464 270.968L242.593 264.388L237.812 259.728L244.419 258.768L247.373 252.781Z" fill="#3DC98A" stroke="#3B4A51" stroke-miterlimit="10"/>
<path d="M56.0492 198.117L59.0043 204.104L65.6107 205.064L60.8303 209.724L61.9588 216.304L56.0492 213.197L50.1402 216.304L51.2687 209.724L46.4883 205.064L53.0947 204.104L56.0492 198.117Z" fill="#3DC98A" stroke="#3B4A51" stroke-miterlimit="10"/>
<path d="M192.77 13.4512L192.46 15.6909L194.129 17.2158L191.903 17.6128L190.968 19.671L189.903 17.6769L187.656 17.4238L189.224 15.7943L188.77 13.5795L190.804 14.567L192.77 13.4512Z" fill="#FFD262" stroke="#3B4A51" stroke-miterlimit="10"/>
<path d="M220.106 269.156L219.796 271.395L221.465 272.921L219.239 273.317L218.304 275.376L217.239 273.382L214.992 273.128L216.559 271.499L216.106 269.285L218.14 270.272L220.106 269.156Z" fill="#3B4A51" stroke="#3B4A51" stroke-miterlimit="10"/>
<path d="M272.002 97.1804L270.028 100.486L271.631 103.986L267.877 103.13L265.044 105.736L264.699 101.902L261.344 100.012L264.884 98.4991L265.644 94.7246L268.177 97.6242L272.002 97.1804Z" fill="#3DC98A" stroke="#3B4A51" stroke-miterlimit="10"/>
<path d="M34.8546 234.537L36.6274 238.13L40.5919 238.706L37.7229 241.502L38.4002 245.45L34.8546 243.586L31.3084 245.45L31.9856 241.502L29.1172 238.706L33.0812 238.13L34.8546 234.537Z" fill="#3DC98A" stroke="#3B4A51" stroke-miterlimit="10"/>
<path d="M8.79279 137.777L13.9489 142.942L21.1262 141.623L17.8077 148.122L21.2805 154.541L14.0737 153.393L9.04184 158.68L7.90639 151.47L1.32422 148.319L7.82953 145.011L8.79279 137.777Z" fill="#FFD262" stroke="#3B4A51" stroke-miterlimit="10"/>
<path d="M258.203 185.52L261.369 188.691L265.776 187.881L263.738 191.872L265.871 195.813L261.445 195.108L258.356 198.354L257.659 193.928L253.617 191.992L257.611 189.961L258.203 185.52Z" fill="#FFD262" stroke="#3B4A51" stroke-miterlimit="10"/>
<path d="M225.35 246.595L137.845 280.316C130.19 283.266 121.593 279.452 118.644 271.798L35.0678 54.9201C32.118 47.2654 35.9323 38.6689 43.5863 35.7191L131.092 1.99751C138.747 -0.952355 147.343 2.86196 150.293 10.5166L233.869 227.394C236.819 235.048 233.005 243.645 225.35 246.595Z" fill="#3B4A51" stroke="#3B4A51" stroke-miterlimit="10"/>
<path d="M147.492 15.2223L228.634 225.781C231.446 233.079 227.811 241.272 220.513 244.085L139.749 275.208C139.137 275.444 138.521 275.634 137.901 275.777C131.116 277.389 124.015 273.776 121.439 267.09L40.2981 56.5308C37.4857 49.2327 41.1267 41.0372 48.4248 38.2249L50.7702 37.3211C58.0325 34.5227 65.3653 31.8536 72.5669 28.9147C72.597 28.9575 72.5721 29.0696 72.6172 29.1337C74.4813 28.0607 77.8986 27.7255 79.8812 28.6056C83.0403 30.0069 86.9077 32.0969 90.5267 31.1186C94.311 30.0901 96.0619 26.0325 97.5296 22.7798C99.1758 19.1238 102.574 17.358 106.172 15.9711L129.188 7.10188C136.487 4.28896 144.681 7.92415 147.492 15.2223Z" fill="white"/>
<path d="M159.357 223.076C185.185 213.122 201.962 189.747 204.813 163.966L201.424 155.172C201.818 182.776 185.21 209.021 157.984 219.513C138.929 226.856 118.554 224.986 101.789 216.099L103.811 221.346C120.745 229.086 140.653 230.283 159.357 223.076Z" fill="#3DC98A"/>
<path d="M127.117 97.9037C98.5221 108.923 83.9323 140.72 93.9208 169.452L93.8879 169.465L94.5743 171.246C102.865 192.759 127.111 203.517 148.624 195.227C169.54 187.167 180.288 164.023 173.251 142.974L173.295 142.957L172.608 141.176C167.277 127.341 151.683 120.423 137.849 125.754C124.613 130.855 117.709 145.348 121.804 158.707L121.739 158.733L122.425 160.514C124.797 166.671 131.736 169.749 137.892 167.377C144.048 165.005 147.127 158.066 144.754 151.91C144.375 150.926 143.271 150.436 142.287 150.815C141.302 151.194 140.812 152.299 141.192 153.283C142.807 157.474 140.711 162.199 136.519 163.814C132.405 165.399 127.778 163.409 126.081 159.372L125.991 159.14C121.417 147.27 127.353 133.891 139.222 129.317C150.952 124.797 164.154 130.539 168.879 142.129L169.041 142.55C176.574 162.099 166.8 184.131 147.251 191.664C127.87 199.133 106.047 189.59 98.3338 170.375L98.1402 169.873C87.6478 142.646 101.263 111.96 128.489 101.467C148.909 93.5982 171.268 99.2951 185.601 114.118L182.571 106.255C167.356 94.3332 146.426 90.4628 127.117 97.9037Z" fill="#3DC98A"/>
<path d="M65.7344 122.538L67.9348 128.248C74.8255 104.09 92.5646 83.3252 117.758 73.6163C134.749 67.0683 152.6 66.5274 168.965 70.9421L167.284 66.5811C150.904 62.7137 133.24 63.5585 116.385 70.054C91.6661 79.5785 73.8051 99.2776 65.7344 122.538Z" fill="#3DC98A"/>
<path d="M221.406 207.026L219.62 202.391C208.952 222.297 191.394 238.625 168.717 247.364C151.207 254.112 132.922 255.452 115.707 252.215L117.31 256.375C134.52 259.201 152.673 257.639 170.09 250.927C192.568 242.264 210.207 226.424 221.406 207.026Z" fill="#3DC98A"/>
<path d="M105.653 42.2025C82.7483 51.029 64.228 66.3551 51.3711 85.2643L53.0549 89.6333C65.5299 70.326 83.9838 54.6457 107.026 45.7661C123.309 39.4913 140.173 37.2684 156.502 38.6014L154.986 34.6687C138.673 33.5945 121.884 35.948 105.653 42.2025Z" fill="#3DC98A"/>
<path d="M148.293 17.2993L147.492 15.2225C144.68 7.92441 136.487 4.28923 129.189 7.10157L106.173 15.9708C102.575 17.3576 99.177 19.1235 97.5302 22.7795C96.0624 26.0322 94.3116 30.0898 90.5273 31.1183C86.9077 32.0972 83.0403 30.0071 79.8812 28.6053C77.8986 27.7258 74.4813 28.0604 72.6172 29.1334C72.5721 29.0693 72.597 28.9572 72.5669 28.9138C65.3653 31.8527 58.0325 34.5218 50.7702 37.3203L48.4248 38.224C41.1267 41.0363 37.4857 49.2318 40.2981 56.5299L41.0984 58.6067L148.293 17.2993Z" fill="white" stroke="#3B4A51" stroke-miterlimit="10"/>
<path opacity="0.3" d="M147.493 15.2225L157.839 42.0684C151.651 60.4321 130.432 89.1848 104.901 118.235C91.0842 133.967 83.2227 146.803 78.752 156.315L53.75 91.4349C54.203 89.6373 54.7277 87.7778 55.324 85.8564C62.5112 62.8111 92.0775 38.4118 110.313 14.376L129.19 7.10157C136.488 4.28923 144.682 7.92441 147.493 15.2225Z" fill="#E6EAEC"/>
<path opacity="0.3" d="M177.627 93.4219L209.238 175.451C203.049 193.815 181.831 222.567 156.3 251.618C148.364 260.65 142.392 268.727 137.901 275.778C131.116 277.39 124.015 273.777 121.438 267.091L105.148 224.817C105.601 223.02 106.126 221.16 106.722 219.239C116.795 186.939 170.842 151.967 176.009 119.081C177.4 110.246 177.688 100.73 177.627 93.4219Z" fill="#E6EAEC"/>
<path d="M91.5595 24.9056C91.0637 23.6194 89.6196 22.9785 88.3334 23.4743C87.0471 23.9701 86.4063 25.4141 86.9021 26.7004C87.3979 27.9867 88.8419 28.6275 90.1281 28.1317C91.4138 27.6365 92.0547 26.1919 91.5595 24.9056Z" fill="#7D7D7D" stroke="white" stroke-miterlimit="10"/>
<path d="M172.028 67.0357L160.297 36.5934C161.449 36.1496 162.743 36.7234 163.187 37.8756L173.31 64.146C173.755 65.2982 173.18 66.5919 172.028 67.0357Z" fill="#3B4A51" stroke="#3B4A51" stroke-miterlimit="10"/>
<path d="M182.139 93.2708L176.285 78.0817C177.437 77.6379 178.731 78.2117 179.175 79.3639L183.42 90.381C183.865 91.5326 183.291 92.8264 182.139 93.2708Z" fill="#3B4A51" stroke="#3B4A51" stroke-miterlimit="10"/>
<path d="M133.442 11.1099L123.348 15L125.481 20.5352L135.575 16.6452L133.442 11.1099Z" stroke="#3B4A51" stroke-width="0.8211" stroke-miterlimit="10" stroke-linecap="round" stroke-linejoin="round"/>
<path d="M131.22 11.9663L123.348 15L125.481 20.5352L133.353 17.5015L131.22 11.9663Z" fill="#3B4A51" stroke="#3B4A51" stroke-width="0.7251" stroke-miterlimit="10" stroke-linecap="round" stroke-linejoin="round"/>
<path d="M135.437 12.12L134.016 12.668L134.955 15.1056L136.377 14.5577L135.437 12.12Z" fill="#3B4A51" stroke="#3B4A51" stroke-width="0.7251" stroke-miterlimit="10" stroke-linecap="round" stroke-linejoin="round"/>
<path d="M46.6278 46.5388L44.7773 47.252L46 50.4245L47.8505 49.7114L46.6278 46.5388Z" fill="#3B4A51" stroke="#3B4A51" stroke-width="0.8831" stroke-miterlimit="10" stroke-linecap="round" stroke-linejoin="round"/>
<path d="M49.1083 44.3025L47.2578 45.0156L48.9098 49.3021L50.7602 48.589L49.1083 44.3025Z" fill="#3B4A51" stroke="#3B4A51" stroke-width="0.8831" stroke-miterlimit="10" stroke-linecap="round" stroke-linejoin="round"/>
<path d="M51.5106 41.865L49.6602 42.5781L51.8193 48.1808L53.6698 47.4676L51.5106 41.865Z" fill="#3B4A51" stroke="#3B4A51" stroke-width="0.8831" stroke-miterlimit="10" stroke-linecap="round" stroke-linejoin="round"/>
<path d="M97.9336 215.182C97.9336 215.182 98.7096 216.431 98.991 216.396C99.2724 216.361 101.726 215.268 101.543 214.602C101.36 213.935 99.8636 214.07 99.8636 214.07L97.9336 215.182Z" fill="white" stroke="#3B4A51" stroke-miterlimit="10" stroke-linejoin="round"/>
<path d="M95.6641 69.2848L105.676 96.2872C106.211 97.7301 105.47 99.3284 104.035 99.8606L77.0247 109.875C75.5899 110.407 73.9864 109.678 73.4514 108.235L63.4397 81.2322C62.9046 79.7893 63.6454 78.1905 65.0802 77.6589L92.0907 67.6443C93.5255 67.1127 95.129 67.8419 95.6641 69.2848Z" fill="white" stroke="#3B4A51" stroke-miterlimit="10" stroke-linecap="round" stroke-linejoin="round"/>
<path d="M91.2884 80.6051L87.2857 93.1269L82.4677 91.9111C81.2629 91.6072 80.0315 92.3034 79.6715 93.4926L73.7227 108.875C74.2572 109.927 75.4984 110.442 76.6321 110.021L78.8718 109.191L104.433 99.7137C105.653 99.2612 106.275 97.905 105.823 96.6846L99.7399 80.2775L93.9944 79.0386C92.8243 78.7872 91.653 79.4644 91.2884 80.6051Z" fill="#E6EAEC" stroke="#3B4A51" stroke-miterlimit="10" stroke-linecap="round" stroke-linejoin="round"/>
<path d="M80.9988 80.6589C82.0303 83.4418 80.6111 86.5338 77.8288 87.5652C75.0465 88.5967 71.9539 87.1775 70.9225 84.3952C69.891 81.6129 71.3102 78.5203 74.0925 77.4889C76.8748 76.4574 79.9668 77.8766 80.9988 80.6589Z" fill="#E6EAEC" stroke="#3B4A51" stroke-miterlimit="10" stroke-linecap="round" stroke-linejoin="round"/>
<path d="M95.6646 69.2848L105.117 94.7791L83.6311 102.745C82.1963 103.277 80.5894 102.539 80.0578 101.105L70.6055 75.6104L92.0913 67.6443C93.526 67.1127 95.1295 67.8419 95.6646 69.2848Z" fill="#3B4A51" stroke="#3B4A51" stroke-miterlimit="10" stroke-linecap="round" stroke-linejoin="round"/>
<path d="M112.423 90.3641L83.6486 101.033C82.6975 101.385 81.64 100.9 81.287 99.9487L70.6189 71.1746C70.2664 70.2235 70.7512 69.166 71.7029 68.813L100.477 58.1443C101.428 57.7918 102.486 58.2766 102.839 59.2283L113.507 88.0024C113.86 88.9541 113.374 90.0116 112.423 90.3641Z" fill="white" stroke="#3B4A51" stroke-miterlimit="10" stroke-linecap="round" stroke-linejoin="round"/>
<path d="M98.7923 71.435L94.7896 83.9568L89.9716 82.741C88.7668 82.437 87.5354 83.1333 87.1754 84.3231L81.2266 99.7052C81.7611 100.757 83.0023 101.272 84.136 100.852L86.3757 100.021L111.936 90.5441C113.157 90.0917 113.779 88.7355 113.327 87.5151L107.244 71.1079L101.498 69.869C100.328 69.6165 99.1569 70.2943 98.7923 71.435Z" fill="#E6EAEC" stroke="#3B4A51" stroke-miterlimit="10" stroke-linecap="round" stroke-linejoin="round"/>
<path d="M83.4632 78.731C86.4308 78.731 88.8365 76.3253 88.8365 73.3577C88.8365 70.3901 86.4308 67.9844 83.4632 67.9844C80.4956 67.9844 78.0898 70.3901 78.0898 73.3577C78.0898 76.3253 80.4956 78.731 83.4632 78.731Z" fill="#E6EAEC" stroke="#3B4A51" stroke-miterlimit="10" stroke-linecap="round" stroke-linejoin="round"/>
<path d="M197.523 197.882L207.535 224.885C208.07 226.328 207.329 227.926 205.895 228.458L178.884 238.473C177.449 239.004 175.846 238.275 175.311 236.832L165.299 209.83C164.764 208.387 165.505 206.788 166.94 206.257L193.95 196.242C195.385 195.71 196.988 196.44 197.523 197.882Z" fill="white" stroke="#3B4A51" stroke-miterlimit="10" stroke-linecap="round" stroke-linejoin="round"/>
<path d="M193.148 209.203L189.145 221.725L184.327 220.509C183.122 220.205 181.891 220.901 181.531 222.09L175.582 237.472C176.117 238.525 177.358 239.039 178.491 238.619L180.731 237.788L206.292 228.311C207.512 227.859 208.135 226.503 207.682 225.282L201.599 208.875L195.854 207.636C194.684 207.385 193.512 208.062 193.148 209.203Z" fill="#E6EAEC" stroke="#3B4A51" stroke-miterlimit="10" stroke-linecap="round" stroke-linejoin="round"/>
<path d="M182.858 209.257C183.89 212.039 182.47 215.131 179.688 216.163C176.906 217.194 173.813 215.775 172.782 212.993C171.75 210.211 173.17 207.118 175.952 206.087C178.734 205.055 181.826 206.474 182.858 209.257Z" fill="#E6EAEC" stroke="#3B4A51" stroke-miterlimit="10" stroke-linecap="round" stroke-linejoin="round"/>
<path d="M197.524 197.882L206.976 223.377L185.49 231.343C184.056 231.874 182.449 231.137 181.917 229.702L172.465 204.208L193.951 196.242C195.385 195.71 196.989 196.44 197.524 197.882Z" fill="#3B4A51" stroke="#3B4A51" stroke-miterlimit="10" stroke-linecap="round" stroke-linejoin="round"/>
<path d="M214.282 218.962L185.508 229.63C184.557 229.983 183.499 229.498 183.146 228.546L172.478 199.772C172.126 198.821 172.611 197.764 173.562 197.411L202.336 186.742C203.288 186.389 204.345 186.874 204.698 187.826L215.366 216.6C215.719 217.552 215.234 218.609 214.282 218.962Z" fill="white" stroke="#3B4A51" stroke-miterlimit="10" stroke-linecap="round" stroke-linejoin="round"/>
<path d="M200.652 200.033L196.649 212.554L191.831 211.339C190.626 211.035 189.395 211.731 189.035 212.921L183.086 228.303C183.62 229.355 184.862 229.87 185.995 229.449L188.235 228.619L213.796 219.142C215.016 218.689 215.639 217.333 215.186 216.113L209.103 199.706L203.358 198.467C202.188 198.214 201.016 198.892 200.652 200.033Z" fill="#E6EAEC" stroke="#3B4A51" stroke-miterlimit="10" stroke-linecap="round" stroke-linejoin="round"/>
<path d="M185.326 207.327C188.294 207.327 190.7 204.921 190.7 201.953C190.7 198.986 188.294 196.58 185.326 196.58C182.359 196.58 179.953 198.986 179.953 201.953C179.953 204.921 182.359 207.327 185.326 207.327Z" fill="#E6EAEC" stroke="#3B4A51" stroke-miterlimit="10" stroke-linecap="round" stroke-linejoin="round"/>
<path d="M181.378 172.378L121.04 194.75C119.046 195.489 116.828 194.472 116.088 192.477L93.7177 132.139C92.9786 130.145 93.9952 127.927 95.9909 127.187L156.328 104.815C158.323 104.076 160.54 105.093 161.281 107.089L183.651 167.426C184.391 169.422 183.373 171.639 181.378 172.378Z" fill="white" stroke="#3B4A51" stroke-miterlimit="10" stroke-linecap="round" stroke-linejoin="round"/>
<g clip-path="url(#clip0_6169_3573)">
<path d="M134.096 133.696C134.923 133.388 135.844 133.809 136.153 134.636L141.505 149L143.19 145.312C143.557 144.509 144.506 144.155 145.309 144.522C146.112 144.89 146.466 145.838 146.099 146.641L142.809 153.84C142.442 154.643 141.493 154.997 140.69 154.63L133.491 151.34C132.688 150.972 132.334 150.024 132.701 149.22C133.068 148.417 134.017 148.064 134.82 148.431L138.508 150.116L133.156 135.753C132.847 134.925 133.268 134.004 134.096 133.696ZM123.858 152.016C124.685 151.708 125.606 152.129 125.914 152.956L130.66 165.693C130.969 166.52 131.89 166.941 132.717 166.633L156.692 157.699C157.519 157.391 157.94 156.47 157.632 155.642L152.886 142.906C152.577 142.078 152.998 141.157 153.826 140.849C154.653 140.541 155.574 140.962 155.883 141.789L160.629 154.526C161.554 157.008 160.291 159.771 157.808 160.696L133.834 169.629C131.351 170.555 128.589 169.292 127.664 166.809L122.918 154.073C122.609 153.245 123.03 152.324 123.858 152.016Z" fill="#3DC98A"/>
</g>
<defs>
<clipPath id="clip0_6169_3573">
<rect width="38.3773" height="38.3773" fill="white" transform="translate(115 137.4) rotate(-20.4367)"/>
</clipPath>
</defs>
</svg>
