<svg width="46" height="45" viewBox="0 0 46 45" fill="none" xmlns="http://www.w3.org/2000/svg">
<g clip-path="url(#clip0_36053_8596)">
<path d="M40.0625 24.4634V25.2248C40.0625 35.1734 31.8987 42.3222 23 44.9998H22.9737C14.0488 41.9547 5.9375 34.911 5.9375 25.2248V24.4634L6.59375 24.096C8.32616 23.0985 10.1638 22.2322 12.0275 21.5234H33.9725C35.8362 22.2323 37.6738 23.0985 39.4062 24.096L40.0625 24.4634Z" fill="#596C76"/>
<path d="M40.0625 24.4634V25.2248C40.0625 35.1734 31.8987 42.3222 23 44.9998V21.5234H33.9725C35.8362 22.2323 37.6738 23.0985 39.4062 24.096L40.0625 24.4634Z" fill="#465A61"/>
<path d="M34.8125 14.7246V28.742C32.0037 29.7133 27.9613 31.682 23 31.682C18.065 31.682 14.4688 29.8708 11.1875 28.742V14.7246H34.8125Z" fill="#F4F7F9"/>
<path d="M34.8125 14.7246V28.742C32.0037 29.7133 27.9612 31.682 23 31.682V14.7246H34.8125Z" fill="#D3DADF"/>
<path d="M32.1875 14.7246H23H14.0176L11.1875 16.0371L13.8125 21.2871H21.1863L23 17.6598L24.8137 21.2871H32.1875L34.8125 16.0371L32.1875 14.7246Z" fill="#465A61"/>
<path d="M32.1875 21.2871L34.8125 16.0371L32.1875 14.7246H23V17.6598L24.8137 21.2871H32.1875Z" fill="#3B4A51"/>
<path d="M34.7854 14.4636H11.2129L14.048 0.201172H31.9503L34.7854 14.4636Z" fill="#465A61"/>
<path d="M34.7863 14.4636H23V0.201172H31.9512L34.7863 14.4636Z" fill="#3B4A51"/>
<path d="M40.0625 10.7871V16.0371H5.9375V10.7871H8.5625V13.4121H37.4375V10.7871H40.0625Z" fill="#596C76"/>
<path d="M40.0625 10.7871V16.0371H23V13.4121H37.4375V10.7871H40.0625Z" fill="#465A61"/>
</g>
<defs>
<clipPath id="clip0_36053_8596">
<rect width="44.8" height="44.8" fill="white" transform="translate(0.599609 0.201172)"/>
</clipPath>
</defs>
</svg>
