<svg width="52" height="52" viewBox="0 0 52 52" fill="none" xmlns="http://www.w3.org/2000/svg">
<rect width="52" height="52" rx="26" fill="#3DC98A"/>
<g clip-path="url(#clip0_6287_11095)">
<path d="M39.7109 27.4992V28.111C39.7109 36.1055 33.1508 41.85 26 44.0016H25.9789C18.8071 41.5547 12.2891 35.8946 12.2891 28.111V27.4992L12.8164 27.204C14.2085 26.4024 15.6852 25.7062 17.1828 25.1367H34.8172C36.3148 25.7063 37.7915 26.4024 39.1836 27.204L39.7109 27.4992Z" fill="#596C76"/>
<path d="M39.7109 27.4992V28.111C39.7109 36.1055 33.1508 41.85 26 44.0016V25.1367H34.8172C36.3148 25.7063 37.7915 26.4024 39.1836 27.204L39.7109 27.4992Z" fill="#465A61"/>
<path d="M35.4922 19.6719V30.9359C33.2352 31.7163 29.9867 33.2984 26 33.2984C22.0344 33.2984 19.1445 31.8429 16.5078 30.9359V19.6719H35.4922Z" fill="#F4F7F9"/>
<path d="M35.4922 19.6719V30.9359C33.2352 31.7163 29.9867 33.2984 26 33.2984V19.6719H35.4922Z" fill="#D3DADF"/>
<path d="M33.3828 19.6719H26H18.782L16.5078 20.7266L18.6172 24.9453H24.5426L26 22.0305L27.4574 24.9453H33.3828L35.4922 20.7266L33.3828 19.6719Z" fill="#465A61"/>
<path d="M33.3828 24.9453L35.4922 20.7266L33.3828 19.6719H26V22.0305L27.4574 24.9453H33.3828Z" fill="#3B4A51"/>
<path d="M35.4695 19.4609H16.5273L18.8055 8H33.1913L35.4695 19.4609Z" fill="#465A61"/>
<path d="M35.4711 19.4609H26V8H33.1929L35.4711 19.4609Z" fill="#3B4A51"/>
<path d="M39.7109 16.5078V20.7266H12.2891V16.5078H14.3984V18.6172H37.6016V16.5078H39.7109Z" fill="#596C76"/>
<path d="M39.7109 16.5078V20.7266H26V18.6172H37.6016V16.5078H39.7109Z" fill="#465A61"/>
</g>
<defs>
<clipPath id="clip0_6287_11095">
<rect width="36" height="36" fill="white" transform="translate(8 8)"/>
</clipPath>
</defs>
</svg>
