<svg width="34" height="43" viewBox="0 0 34 43" fill="none" xmlns="http://www.w3.org/2000/svg">
<path d="M27.3711 41.9688L29.082 39.8359L26.5977 39.1328L27.0664 37.7578L29.5039 38.7266L29.3555 36H30.8711L30.707 38.7812L33.0977 37.8203L33.5586 39.2188L31.0352 39.9219L32.6914 42.0078L31.4648 42.8672L30.0273 40.5859L28.5977 42.7969L27.3711 41.9688Z" fill="#1EAA7D"/>
<path d="M18.5039 41.9688L20.2148 39.8359L17.7305 39.1328L18.1992 37.7578L20.6367 38.7266L20.4883 36H22.0039L21.8398 38.7812L24.2305 37.8203L24.6914 39.2188L22.168 39.9219L23.8242 42.0078L22.5977 42.8672L21.1602 40.5859L19.7305 42.7969L18.5039 41.9688Z" fill="#1EAA7D"/>
<path d="M9.64062 41.9688L11.3516 39.8359L8.86719 39.1328L9.33594 37.7578L11.7734 38.7266L11.625 36H13.1406L12.9766 38.7812L15.3672 37.8203L15.8281 39.2188L13.3047 39.9219L14.9609 42.0078L13.7344 42.8672L12.2969 40.5859L10.8672 42.7969L9.64062 41.9688Z" fill="#1EAA7D"/>
<path d="M0.773438 41.9688L2.48438 39.8359L0 39.1328L0.46875 37.7578L2.90625 38.7266L2.75781 36H4.27344L4.10938 38.7812L6.5 37.8203L6.96094 39.2188L4.4375 39.9219L6.09375 42.0078L4.86719 42.8672L3.42969 40.5859L2 42.7969L0.773438 41.9688Z" fill="#1EAA7D"/>
<path d="M8.6 5.45455C8.6 2.44208 11.1072 0 14.2 0H19.8C22.8928 0 25.4 2.44208 25.4 5.45455V8.18182H26.8C29.1196 8.18182 31 10.0134 31 12.2727V25.9091C31 28.1684 29.1196 30 26.8 30H7.2C4.8804 30 3 28.1684 3 25.9091V12.2727C3 10.0134 4.8804 8.18182 7.2 8.18182H8.6V5.45455ZM22.6 5.45455C22.6 3.94831 21.3464 2.72727 19.8 2.72727H14.2C12.6536 2.72727 11.4 3.94831 11.4 5.45455V8.18182H22.6V5.45455ZM7.2 10.9091C6.4268 10.9091 5.8 11.5196 5.8 12.2727V25.9091C5.8 26.6622 6.4268 27.2727 7.2 27.2727H26.8C27.5732 27.2727 28.2 26.6622 28.2 25.9091V12.2727C28.2 11.5196 27.5732 10.9091 26.8 10.9091H7.2ZM17 21.8182C18.933 21.8182 20.5 20.2919 20.5 18.4091C20.5 16.5263 18.933 15 17 15C15.067 15 13.5 16.5263 13.5 18.4091C13.5 20.2919 15.067 21.8182 17 21.8182Z" fill="#3B4A51"/>
</svg>
