<svg width="28" height="20" viewBox="0 0 28 20" fill="none" xmlns="http://www.w3.org/2000/svg">
<rect width="28" height="20" rx="2" fill="white"/>
<mask id="mask0_14715_6036" style="mask-type:luminance" maskUnits="userSpaceOnUse" x="0" y="0" width="28" height="20">
<rect width="28" height="20" rx="2" fill="white"/>
</mask>
<g mask="url(#mask0_14715_6036)">
<rect width="28" height="20" fill="#E81B26"/>
<path fill-rule="evenodd" clip-rule="evenodd" d="M14 13.3337C15.841 13.3337 17.3334 11.8413 17.3334 10.0003C17.3334 8.15938 15.841 6.66699 14 6.66699C12.1591 6.66699 10.6667 8.15938 10.6667 10.0003C10.6667 11.8413 12.1591 13.3337 14 13.3337Z" fill="#FFE94F"/>
<path fill-rule="evenodd" clip-rule="evenodd" d="M10.2081 7.27963C10.4094 6.99956 10.641 6.7427 10.898 6.51384L1.96168 -3.53027L-0.714844 -0.557695L10.2081 7.27963ZM10.898 13.4869C10.641 13.258 10.4094 13.0012 10.2081 12.7211L-0.714844 20.5584L1.96168 23.531L10.898 13.4869ZM13.0846 14.5773L12 20.0004H16L14.9154 14.5773C14.6194 14.6362 14.3133 14.667 14 14.667C13.6867 14.667 13.3806 14.6362 13.0846 14.5773ZM17.7919 12.7211C17.5906 13.0012 17.3591 13.258 17.102 13.4869L26.0384 23.531L28.7149 20.5584L17.7919 12.7211ZM9.37968 10.6604C9.34915 10.4448 9.33336 10.2244 9.33336 10.0004C9.33336 9.77631 9.34915 9.55594 9.37967 9.34032L2.43187e-05 8.00037V12.0004L9.37968 10.6604ZM13.0846 5.42344L12 0.000367165H16L14.9154 5.42344C14.6194 5.36457 14.3133 5.3337 14 5.3337C13.6867 5.3337 13.3806 5.36457 13.0846 5.42344ZM18.6204 9.34032C18.6509 9.55594 18.6667 9.77631 18.6667 10.0004C18.6667 10.2244 18.6509 10.4448 18.6204 10.6604L28 12.0004V8.00037L18.6204 9.34032ZM17.7919 7.27963C17.5906 6.99956 17.3591 6.7427 17.102 6.51384L26.0384 -3.53027L28.7149 -0.557695L17.7919 7.27963Z" fill="#FFE94F"/>
</g>
</svg>
