<svg width="28" height="20" viewBox="0 0 28 20" fill="none" xmlns="http://www.w3.org/2000/svg">
<rect x="0.25" y="0.25" width="27.5" height="19.5" rx="1.75" fill="white" stroke="#F5F5F5" stroke-width="0.5"/>
<mask id="mask0_14715_6206" style="mask-type:luminance" maskUnits="userSpaceOnUse" x="0" y="0" width="28" height="20">
<rect x="0.25" y="0.25" width="27.5" height="19.5" rx="1.75" fill="white" stroke="white" stroke-width="0.5"/>
</mask>
<g mask="url(#mask0_14715_6206)">
<path fill-rule="evenodd" clip-rule="evenodd" d="M0 19.9997H28V9.33301H12.4444L13.3333 9.99967L0 19.9997Z" fill="#DD1C34"/>
<path fill-rule="evenodd" clip-rule="evenodd" d="M28 9.33333H12.4444L0 0H28V9.33333Z" fill="#0D4BC3"/>
<path fill-rule="evenodd" clip-rule="evenodd" d="M2.00001 4.00033C2.3682 4.00033 2.66668 3.70185 2.66668 3.33366C2.66668 2.96547 2.3682 2.66699 2.00001 2.66699C1.63182 2.66699 1.33334 2.96547 1.33334 3.33366C1.33334 3.70185 1.63182 4.00033 2.00001 4.00033ZM10 10.667C10.3682 10.667 10.6667 10.3685 10.6667 10.0003C10.6667 9.63214 10.3682 9.33366 10 9.33366C9.63182 9.33366 9.33334 9.63214 9.33334 10.0003C9.33334 10.3685 9.63182 10.667 10 10.667ZM2.66668 16.667C2.66668 17.0352 2.3682 17.3337 2.00001 17.3337C1.63182 17.3337 1.33334 17.0352 1.33334 16.667C1.33334 16.2988 1.63182 16.0003 2.00001 16.0003C2.3682 16.0003 2.66668 16.2988 2.66668 16.667ZM4.53209 11.327L3.39107 13.0799L3.8238 11.0335C3.75416 10.9766 3.69038 10.9128 3.63351 10.8432L1.58708 11.2759L3.34005 10.1349C3.33562 10.0907 3.33334 10.0458 3.33334 10.0003C3.33334 9.9549 3.33562 9.91 3.34005 9.86573L1.58708 8.72471L3.63351 9.15744C3.69038 9.08781 3.75416 9.02403 3.8238 8.96716L3.39107 6.92073L4.53209 8.6737C4.57635 8.66926 4.62125 8.66699 4.66668 8.66699C4.71211 8.66699 4.75701 8.66926 4.80127 8.6737L5.94229 6.92073L5.50956 8.96716C5.57919 9.02403 5.64297 9.08781 5.69985 9.15744L7.74628 8.72471L5.9933 9.86573C5.99774 9.91 6.00001 9.9549 6.00001 10.0003C6.00001 10.0458 5.99774 10.0907 5.9933 10.1349L7.74628 11.2759L5.69985 10.8432C5.64297 10.9128 5.57919 10.9766 5.50956 11.0335L5.94229 13.0799L4.80127 11.327C4.75701 11.3314 4.71211 11.3337 4.66668 11.3337C4.62125 11.3337 4.57635 11.3314 4.53209 11.327Z" fill="#FDD64D"/>
</g>
</svg>
