<svg width="22" height="22" viewBox="0 0 22 22" fill="none" xmlns="http://www.w3.org/2000/svg">
<g clip-path="url(#clip0_35700_3523)">
<path d="M22 11C22 4.92422 17.0758 0 11 0C4.92422 0 0 4.92422 0 11C0 16.4914 4.02187 21.0418 9.28125 21.8668V14.1797H6.48828V11H9.28125V8.57656C9.28125 5.82012 10.9227 4.29688 13.4363 4.29688C14.6395 4.29688 15.8984 4.51172 15.8984 4.51172V7.21875H14.5105C13.1441 7.21875 12.7188 8.06738 12.7188 8.9375V11H15.7695L15.2818 14.1797H12.7188V21.8668C17.9781 21.0418 22 16.4914 22 11Z" fill="#1877F2"/>
<path d="M15.2818 14.1797L15.7695 11H12.7188V8.9375C12.7188 8.06738 13.1441 7.21875 14.5105 7.21875H15.8984V4.51172C15.8984 4.51172 14.6395 4.29688 13.4363 4.29688C10.9227 4.29688 9.28125 5.82012 9.28125 8.57656V11H6.48828V14.1797H9.28125V21.8668C9.84199 21.9549 10.4156 22 11 22C11.5844 22 12.158 21.9549 12.7188 21.8668V14.1797H15.2818Z" fill="white"/>
</g>
<defs>
<clipPath id="clip0_35700_3523">
<rect width="22" height="22" fill="white"/>
</clipPath>
</defs>
</svg>
