<svg width="142" height="36" viewBox="0 0 142 36" fill="none" xmlns="http://www.w3.org/2000/svg">
<g clip-path="url(#clip0_35382_4581)">
<path d="M31.7109 19.4973V20.1091C31.7109 28.1035 25.1508 33.848 18 35.9997H17.9789C10.8071 33.5527 4.28906 27.8926 4.28906 20.1091V19.4973L4.81641 19.202C6.20852 18.4005 7.68516 17.7043 9.18281 17.1348H26.8172C28.3148 17.7044 29.7915 18.4005 31.1836 19.202L31.7109 19.4973Z" fill="#596C76"/>
<path d="M31.7109 19.4973V20.1091C31.7109 28.1035 25.1508 33.848 18 35.9997V17.1348H26.8172C28.3148 17.7044 29.7915 18.4005 31.1836 19.202L31.7109 19.4973Z" fill="#465A61"/>
<path d="M27.4922 11.6719V22.9359C25.2352 23.7163 21.9867 25.2984 18 25.2984C14.0344 25.2984 11.1445 23.8429 8.50781 22.9359V11.6719H27.4922Z" fill="#F4F7F9"/>
<path d="M27.4922 11.6719V22.9359C25.2352 23.7163 21.9867 25.2984 18 25.2984V11.6719H27.4922Z" fill="#D3DADF"/>
<path d="M25.3828 11.6719H18H10.782L8.50781 12.7266L10.6172 16.9453H16.5426L18 14.0305L19.4574 16.9453H25.3828L27.4922 12.7266L25.3828 11.6719Z" fill="#465A61"/>
<path d="M25.3828 16.9453L27.4922 12.7266L25.3828 11.6719H18V14.0305L19.4574 16.9453H25.3828Z" fill="#3B4A51"/>
<path d="M27.4715 11.4609H8.5293L10.8075 0H25.1933L27.4715 11.4609Z" fill="#465A61"/>
<path d="M27.4711 11.4609H18V0H25.1929L27.4711 11.4609Z" fill="#3B4A51"/>
<path d="M31.7109 8.50781V12.7266H4.28906V8.50781H6.39844V10.6172H29.6016V8.50781H31.7109Z" fill="#596C76"/>
<path d="M31.7109 8.50781V12.7266H18V10.6172H29.6016V8.50781H31.7109Z" fill="#465A61"/>
</g>
<path d="M130.662 26.3343V10.1445H134.539V26.3343H130.662ZM131.815 26.3343V23.0279H142V26.3343H131.815ZM132.93 19.7089V16.5292H141.696V19.7089H132.93ZM131.802 13.4129V10.1445H141.886V13.4129H131.802Z" fill="white"/>
<path d="M122.233 26.6359L122.232 26.6359L122.242 26.6385C122.806 26.7971 123.422 26.9236 124.09 27.0191C124.776 27.1245 125.506 27.1765 126.279 27.1765C128.479 27.1765 130.215 26.765 131.397 25.857L131.399 25.8554C132.604 24.9206 133.176 23.5334 133.176 21.7867V21.584C133.176 20.5408 132.981 19.6494 132.544 18.9525C132.124 18.2608 131.495 17.7176 130.686 17.3126C129.914 16.9138 128.954 16.5489 127.813 16.2143L127.813 16.2143C126.987 15.9724 126.369 15.7527 125.946 15.5571C125.531 15.3612 125.302 15.1847 125.195 15.0489C125.097 14.9143 125.043 14.7558 125.043 14.5532V14.5026C125.043 14.2965 125.094 14.1574 125.171 14.0552L125.171 14.0552L125.177 14.0473C125.239 13.9609 125.383 13.8467 125.697 13.7537C126.012 13.663 126.477 13.6091 127.115 13.6091C128.013 13.6091 128.847 13.7143 129.62 13.9214L129.62 13.9214L129.626 13.9229C130.427 14.1273 131.134 14.3787 131.75 14.6745L132.553 15.0606L132.464 14.1738L132.122 10.7787L132.094 10.4972L131.838 10.3766C131.207 10.0792 130.45 9.82858 129.574 9.62045C128.681 9.40616 127.635 9.30273 126.443 9.30273C124.446 9.30273 122.844 9.70045 121.716 10.5726L121.716 10.5726L121.715 10.5739C120.576 11.4617 120.027 12.7426 120.027 14.3379V14.5026C120.027 15.5194 120.225 16.4042 120.655 17.127L120.655 17.127L120.657 17.1296C121.082 17.8348 121.715 18.4069 122.528 18.855L122.531 18.8561C123.33 19.2913 124.31 19.6791 125.464 20.0236L125.467 20.0244C126.209 20.2411 126.781 20.4409 127.191 20.6224L127.191 20.6226L127.202 20.627C127.617 20.7993 127.846 20.9666 127.956 21.1017L127.962 21.1096L127.969 21.1172C128.066 21.2271 128.135 21.3878 128.135 21.6473V21.736C128.135 22.1089 128.002 22.3301 127.746 22.4846C127.455 22.6561 126.872 22.7815 125.899 22.7815C124.921 22.7815 124.001 22.6564 123.138 22.4088C122.244 22.1439 121.479 21.861 120.841 21.5619L120.049 21.1912L120.131 22.0614L120.473 25.7098L120.501 26.009L120.778 26.1246C121.203 26.3015 121.688 26.4717 122.233 26.6359Z" fill="white" stroke="#243034"/>
<path d="M110.43 25.4057L110.43 25.4057L110.433 25.4083C111.678 26.6531 113.545 27.227 115.93 27.227C118.329 27.227 120.2 26.654 121.429 25.4056C122.657 24.1586 123.232 22.3705 123.232 20.1269V10.1445V9.64453H122.732H118.755H118.255V10.1445V20.2029C118.255 21.1877 118.043 21.848 117.699 22.264C117.382 22.6409 116.834 22.8826 115.93 22.8826C115.038 22.8826 114.487 22.6428 114.158 22.2623C113.816 21.8462 113.605 21.1864 113.605 20.2029V10.1445V9.64453H113.105H109.127H108.627V10.1445V20.1269C108.627 22.3705 109.202 24.1586 110.43 25.4057Z" fill="white" stroke="#243034"/>
<path d="M97.865 25.3059L97.8663 25.3072C99.1752 26.6161 101.094 27.2272 103.528 27.2272C105.954 27.2272 107.868 26.6158 109.177 25.3072C110.48 24.0034 111.096 22.1571 111.096 19.8484V16.7701C111.096 14.4527 110.476 12.5922 109.168 11.2644C107.86 9.92025 105.949 9.29004 103.528 9.29004C101.106 9.29004 99.1909 9.92075 97.8752 11.2644L97.8752 11.2644C96.5751 12.5924 95.959 14.4529 95.959 16.7701V19.8484C95.959 22.1562 96.5704 24.002 97.865 25.3059ZM105.423 22.2398C105.048 22.6919 104.45 22.9588 103.528 22.9588C102.605 22.9588 102.008 22.6919 101.632 22.2398C101.233 21.7593 101 21.0475 101 20.0385V16.5674C101 15.5017 101.235 14.7614 101.634 14.2747C102.011 13.8154 102.607 13.5457 103.528 13.5457C104.448 13.5457 105.045 13.8154 105.421 14.2747C105.82 14.7614 106.055 15.5017 106.055 16.5674V20.0385C106.055 21.0475 105.823 21.7593 105.423 22.2398Z" fill="white" stroke="#243034"/>
<path d="M87.7551 26.8343H88.2551V26.3343V20.2089H92.9304V26.3343V26.8343H93.4304H97.4082H97.9082V26.3343V10.1445V9.64453H97.4082H93.4304H92.9304V10.1445V15.9025H88.2551V10.1445V9.64453H87.7551H83.79H83.29V10.1445V26.3343V26.8343H83.79H87.7551Z" fill="white" stroke="#243034"/>
<path d="M78.305 26.6771C77.5787 26.6771 77.0424 26.4913 76.6962 26.1197C76.3584 25.7481 76.1895 25.2287 76.1895 24.5615V24.4222C76.1895 23.7634 76.3584 23.244 76.6962 22.864C77.0424 22.484 77.5787 22.2939 78.305 22.2939C79.0144 22.2939 79.5423 22.484 79.8885 22.864C80.2348 23.244 80.4079 23.7634 80.4079 24.4222V24.5615C80.4079 25.2287 80.2348 25.7481 79.8885 26.1197C79.5423 26.4913 79.0144 26.6771 78.305 26.6771Z" fill="#3DC98A"/>
<path d="M70.325 22.1031L64.7891 10.1445H68.9315L70.9837 15.0217L71.9972 17.6693H72.1999L73.2006 15.0217L75.2402 10.1445H79.3826L73.872 22.1031H70.325ZM70.1476 26.3343V18.5434H74.0494V26.3343H70.1476Z" fill="#3DC98A"/>
<path d="M60.3226 26.3343V22.2358H62.7363C64.8472 22.2358 66.5023 21.7732 67.5899 20.7434L67.59 20.7433C68.679 19.7116 69.1903 18.255 69.1903 16.4532V15.4271C69.1903 13.6333 68.6788 12.1816 67.5908 11.1504C66.5029 10.1113 64.8427 9.64453 62.7236 9.64453H60.2973H59.7973H58.5685H58.0685H55.9209H55.4209V10.1445V26.3343V26.8343H55.9209H59.8226H60.3226V26.3343ZM60.2973 18.0308V13.8369H62.4323C63.2051 13.8369 63.639 14.0093 63.8649 14.2352C64.0993 14.4695 64.2632 14.8711 64.2632 15.5411V16.3265C64.2632 16.9823 64.098 17.3868 63.8522 17.6325C63.6264 17.8584 63.1924 18.0308 62.4196 18.0308H60.2973Z" fill="#3DC98A" stroke="#243034"/>
<path d="M45.7052 26.6359L45.7051 26.6359L45.7142 26.6385C46.2783 26.7971 46.8948 26.9236 47.5622 27.0191C48.2483 27.1245 48.9783 27.1765 49.7513 27.1765C51.9521 27.1765 53.6873 26.765 54.8697 25.857L54.8717 25.8554C56.0764 24.9206 56.6486 23.5334 56.6486 21.7867V21.584C56.6486 20.5408 56.4536 19.6494 56.0168 18.9525C55.5968 18.2608 54.9673 17.7176 54.1584 17.3126C53.3867 16.9138 52.4264 16.5489 51.2855 16.2143L51.2853 16.2143C50.4596 15.9724 49.8413 15.7528 49.4183 15.5571C49.0033 15.3612 48.7749 15.1847 48.6673 15.0489C48.5692 14.9143 48.5158 14.7558 48.5158 14.5532V14.5026C48.5158 14.2965 48.5671 14.1574 48.6438 14.0552L48.6439 14.0552L48.6496 14.0473C48.7117 13.9609 48.8554 13.8467 49.1694 13.7537C49.4843 13.663 49.9498 13.6091 50.5874 13.6091C51.4856 13.6091 52.3201 13.7143 53.0929 13.9214L53.0929 13.9214L53.0987 13.9229C53.9 14.1273 54.607 14.3787 55.2227 14.6745L56.026 15.0606L55.9367 14.1738L55.5947 10.7787L55.5663 10.4972L55.3104 10.3766C54.6796 10.0792 53.9229 9.82858 53.0471 9.62045C52.154 9.40616 51.108 9.30273 49.916 9.30273C47.9183 9.30273 46.3171 9.70045 45.189 10.5726L45.189 10.5726L45.1874 10.5739C44.0486 11.4617 43.5 12.7426 43.5 14.3379V14.5026C43.5 15.5194 43.6978 16.4042 44.1276 17.127L44.1276 17.127L44.1292 17.1296C44.5542 17.8348 45.1872 18.4069 46.0011 18.855L46.0032 18.8561C46.8025 19.2913 47.783 19.6791 48.9369 20.0236L48.9397 20.0244C49.6815 20.2411 50.2533 20.4409 50.6638 20.6224L50.6638 20.6226L50.6744 20.627C51.0894 20.7993 51.3184 20.9666 51.4286 21.1017L51.435 21.1096L51.4417 21.1172C51.5389 21.2271 51.6075 21.3878 51.6075 21.6473V21.736C51.6075 22.1089 51.4749 22.3301 51.2182 22.4846C50.9274 22.6561 50.3446 22.7815 49.3712 22.7815C48.3932 22.7815 47.4736 22.6564 46.6102 22.4088C45.7165 22.1439 44.952 21.861 44.3134 21.5619L43.522 21.1912L43.6035 22.0614L43.9456 25.7098L43.9736 26.009L44.2511 26.1246C44.6756 26.3015 45.1609 26.4717 45.7052 26.6359Z" fill="#3DC98A" stroke="#243034"/>
<defs>
<clipPath id="clip0_35382_4581">
<rect width="36" height="36" fill="white"/>
</clipPath>
</defs>
</svg>
