<svg width="23" height="29" viewBox="0 0 23 29" fill="none" xmlns="http://www.w3.org/2000/svg">
<path d="M22.5449 15.7064V16.1992C22.5449 22.6392 17.2604 27.2668 11.5 29H11.483C5.70572 27.0289 0.455078 22.4694 0.455078 16.1992V15.7064L0.879883 15.4686C2.00131 14.8229 3.19082 14.2621 4.39727 13.8033H18.6027C19.8092 14.2621 20.9987 14.8229 22.1201 15.4686L22.5449 15.7064Z" fill="#596C76"/>
<path d="M22.5449 15.7064V16.1992C22.5449 22.6392 17.2604 27.2668 11.5 29V13.8033H18.6027C19.8092 14.2621 20.9987 14.8229 22.1201 15.4686L22.5449 15.7064Z" fill="#465A61"/>
<path d="M19.1465 9.40234V18.4761C17.3283 19.1048 14.7115 20.3792 11.5 20.3792C8.30547 20.3792 5.97754 19.2068 3.85352 18.4761V9.40234H19.1465Z" fill="#FED2A4"/>
<path d="M19.1465 9.40234V18.4761C17.3283 19.1048 14.7115 20.3792 11.5 20.3792V9.40234H19.1465Z" fill="#FFBD86"/>
<path d="M17.4473 9.40234H11.5H5.6855L3.85352 10.252L5.55273 13.6504H10.326L11.5 11.3024L12.674 13.6504H17.4473L19.1465 10.252L17.4473 9.40234Z" fill="#465A61"/>
<path d="M17.4473 13.6504L19.1465 10.252L17.4473 9.40234H11.5V11.3024L12.674 13.6504H17.4473Z" fill="#3B4A51"/>
<path d="M19.1293 9.23237H3.87036L5.70557 0H17.2941L19.1293 9.23237Z" fill="#465A61"/>
<path d="M19.1295 9.23237H11.5V0H17.2943L19.1295 9.23237Z" fill="#3B4A51"/>
<path d="M22.5449 6.85352V10.252H0.455078V6.85352H2.1543V8.55273H20.8457V6.85352H22.5449Z" fill="#596C76"/>
<path d="M22.5449 6.85352V10.252H11.5V8.55273H20.8457V6.85352H22.5449Z" fill="#465A61"/>
</svg>
