<svg width="107" height="86" viewBox="0 0 107 86" fill="none" xmlns="http://www.w3.org/2000/svg">
<path d="M51.0176 0V23.9172C51.0176 31.0414 49.7051 38.4484 47.08 46.1381C44.5691 53.7147 41.0309 61.0085 36.4656 68.0197C31.9003 74.9178 26.6501 80.9112 20.7152 86L0 73.1085C4.67947 66.0973 8.44587 58.6903 11.2992 50.8876C14.2667 42.9717 15.7504 34.0947 15.7504 24.2564V0H51.0176ZM107 0V23.9172C107 31.0414 105.687 38.4484 103.062 46.1381C100.551 53.7147 97.0133 61.0085 92.448 68.0197C87.8827 74.9178 82.6325 80.9112 76.6976 86L55.9824 73.1085C60.6619 66.0973 64.4283 58.6903 67.2816 50.8876C70.2491 42.9717 71.7328 34.0947 71.7328 24.2564V0H107Z" fill="white"/>
</svg>
