<svg width="85" height="93" viewBox="0 0 85 93" fill="none" xmlns="http://www.w3.org/2000/svg">
<path d="M62.8188 74.9512L61.2969 75.9658L63.3261 82.3706L67.5748 87.7607L62.8188 74.9512Z" fill="#C2EDFF" fill-opacity="0.25"/>
<path d="M63.3247 87.7612V82.3711L60.8516 85.6686L61.5491 87.7612H63.3247Z" fill="#DEF0FF" fill-opacity="0.6"/>
<path d="M20.0152 82.3711L15.7031 88.0783H21.4738L21.8542 86.1759L20.0152 82.3711Z" fill="#CDE9FF" fill-opacity="0.55"/>
<path d="M60.8524 85.6699L21.8531 86.1772L21.4727 88.0162L61.55 87.7626L60.8524 85.6699Z" fill="white" fill-opacity="0.4"/>
<path d="M20.0156 82.4358L21.7912 75.7773H61.3612L63.327 82.3723L20.0156 82.4358Z" fill="#B8B8B8" fill-opacity="0.29"/>
<path d="M19.3811 75.2067L20.7762 74.8262L21.7274 75.7774L20.0152 82.4358L15.7031 88.0796L19.3811 75.2067Z" fill="white" fill-opacity="0.25"/>
<path d="M63.3261 82.3711L20.0781 82.4345L21.8537 86.1759L60.853 85.6686L63.3261 82.3711Z" fill="white" fill-opacity="0.45"/>
<path d="M67.5754 87.6973L15.7031 88.0831V92.263L67.5754 91.8772V87.6973Z" fill="white" fill-opacity="0.45"/>
<path d="M12.3934 65.4061L20.2032 72.0981L41.9635 80.3243L62.0765 72.9984L72.3926 63.9812L83.1094 44.9572L74.3584 15.2796L12.3934 65.4061Z" fill="white" fill-opacity="0.15"/>
<path fill-rule="evenodd" clip-rule="evenodd" d="M43.9615 0.804688L12.34 13.6943L0.671875 43.3084L12.3934 65.4061L74.3584 15.2796L43.9615 0.804688Z" fill="white" fill-opacity="0.17"/>
<path d="M23.7102 40.2988L21.6492 32.9962H23.072L24.3877 38.3626H24.4555L25.8604 32.9962H27.1547L28.5632 38.3662H28.6274L29.9432 32.9962H31.3659L29.3049 40.2988H27.9998L26.5379 35.1749H26.4808L25.0153 40.2988H23.7102ZM33.9073 32.9962V40.2988H32.5844V32.9962H33.9073ZM41.6422 32.9962V40.2988H40.4655L37.0246 35.3246H36.964V40.2988H35.6411V32.9962H36.8249L40.2623 37.974H40.3265V32.9962H41.6422ZM49.3861 32.9962V40.2988H48.2094L44.7684 35.3246H44.7078V40.2988H43.3849V32.9962H44.5687L48.0061 37.974H48.0703V32.9962H49.3861ZM51.1287 40.2988V32.9962H55.8783V34.1051H52.4516V36.0877H55.6323V37.1966H52.4516V39.1899H55.9068V40.2988H51.1287ZM57.5292 40.2988V32.9962H60.2677C60.8287 32.9962 61.2994 33.0936 61.6797 33.2886C62.0624 33.4835 62.3512 33.7569 62.5462 34.1087C62.7435 34.4581 62.8421 34.8658 62.8421 35.3317C62.8421 35.8 62.7423 36.2065 62.5426 36.5512C62.3453 36.8935 62.0541 37.1586 61.669 37.3464C61.2839 37.5318 60.8108 37.6245 60.2498 37.6245H58.2994V36.5263H60.0716C60.3996 36.5263 60.6682 36.4811 60.8774 36.3908C61.0866 36.2981 61.2411 36.1638 61.341 35.9878C61.4432 35.8096 61.4943 35.5909 61.4943 35.3317C61.4943 35.0726 61.4432 34.8516 61.341 34.6685C61.2387 34.4831 61.083 34.3428 60.8738 34.2478C60.6647 34.1503 60.3948 34.1016 60.0644 34.1016H58.8521V40.2988H57.5292ZM61.3017 36.9898L63.1096 40.2988H61.6333L59.8576 36.9898H61.3017Z" fill="white" fill-opacity="0.7"/>
<path d="M33.8156 63.7383V63.0352L35.681 61.2065C35.8594 61.0263 36.008 60.8663 36.127 60.7264C36.2459 60.5864 36.3351 60.4509 36.3946 60.3197C36.4541 60.1885 36.4838 60.0486 36.4838 59.8999C36.4838 59.7303 36.4453 59.5851 36.3684 59.4644C36.2914 59.342 36.1856 59.2475 36.0509 59.1811C35.9162 59.1146 35.7632 59.0814 35.5918 59.0814C35.4151 59.0814 35.2603 59.1181 35.1274 59.1916C34.9945 59.2633 34.8913 59.3656 34.8178 59.4985C34.7461 59.6315 34.7102 59.7897 34.7102 59.9734H33.7841C33.7841 59.6323 33.8619 59.3359 34.0176 59.084C34.1733 58.8321 34.3875 58.6371 34.6604 58.4989C34.935 58.3608 35.2498 58.2917 35.6049 58.2917C35.9652 58.2917 36.2818 58.359 36.5546 58.4937C36.8275 58.6284 37.0391 58.8129 37.1895 59.0473C37.3417 59.2816 37.4178 59.5492 37.4178 59.8501C37.4178 60.0512 37.3793 60.2489 37.3024 60.443C37.2254 60.6372 37.0898 60.8523 36.8957 61.0884C36.7033 61.3246 36.4331 61.6105 36.085 61.9464L35.1589 62.8882V62.925H37.4991V63.7383H33.8156ZM40.612 63.8406C40.18 63.8406 39.8092 63.7313 39.4996 63.5127C39.1917 63.2923 38.9547 62.9748 38.7886 62.5603C38.6242 62.144 38.542 61.6429 38.542 61.057C38.5437 60.471 38.6268 59.9725 38.7912 59.5615C38.9574 59.1487 39.1944 58.8339 39.5022 58.617C39.8118 58.4001 40.1817 58.2917 40.612 58.2917C41.0423 58.2917 41.4122 58.4001 41.7218 58.617C42.0314 58.8339 42.2684 59.1487 42.4328 59.5615C42.5989 59.9743 42.682 60.4728 42.682 61.057C42.682 61.6446 42.5989 62.1466 42.4328 62.5629C42.2684 62.9774 42.0314 63.294 41.7218 63.5127C41.4139 63.7313 41.044 63.8406 40.612 63.8406ZM40.612 63.0194C40.9478 63.0194 41.2128 62.8541 41.4069 62.5235C41.6028 62.1912 41.7008 61.7024 41.7008 61.057C41.7008 60.6302 41.6562 60.2716 41.567 59.9813C41.4778 59.6909 41.3518 59.4723 41.1892 59.3254C41.0265 59.1767 40.8341 59.1024 40.612 59.1024C40.2779 59.1024 40.0138 59.2685 39.8197 59.6008C39.6255 59.9314 39.5276 60.4168 39.5258 61.057C39.5241 61.4855 39.5669 61.8458 39.6544 62.1379C39.7436 62.43 39.8695 62.6504 40.0322 62.799C40.1948 62.946 40.3881 63.0194 40.612 63.0194ZM43.7754 63.7383V63.0352L45.6407 61.2065C45.8192 61.0263 45.9678 60.8663 46.0868 60.7264C46.2057 60.5864 46.2949 60.4509 46.3544 60.3197C46.4138 60.1885 46.4436 60.0486 46.4436 59.8999C46.4436 59.7303 46.4051 59.5851 46.3281 59.4644C46.2512 59.342 46.1454 59.2475 46.0107 59.1811C45.876 59.1146 45.723 59.0814 45.5515 59.0814C45.3749 59.0814 45.2201 59.1181 45.0872 59.1916C44.9542 59.2633 44.851 59.3656 44.7776 59.4985C44.7059 59.6315 44.67 59.7897 44.67 59.9734H43.7439C43.7439 59.6323 43.8217 59.3359 43.9774 59.084C44.133 58.8321 44.3473 58.6371 44.6202 58.4989C44.8948 58.3608 45.2096 58.2917 45.5647 58.2917C45.925 58.2917 46.2416 58.359 46.5144 58.4937C46.7873 58.6284 46.9989 58.8129 47.1493 59.0473C47.3015 59.2816 47.3776 59.5492 47.3776 59.8501C47.3776 60.0512 47.3391 60.2489 47.2621 60.443C47.1852 60.6372 47.0496 60.8523 46.8555 61.0884C46.6631 61.3246 46.3928 61.6105 46.0448 61.9464L45.1186 62.8882V62.925H47.4589V63.7383H43.7754ZM50.7712 58.3651V63.7383H49.7978V59.3122H49.7663L48.5096 60.1151V59.223L49.845 58.3651H50.7712Z" fill="white" fill-opacity="0.7"/>
<path d="M61.6787 1.39236L74.298 15.3433L43.9229 0.804622L12.4064 13.6946L0.738281 43.3087L12.4064 65.3766L20.1428 72.035L42.0205 80.2787L62.0795 72.9986L72.3955 63.9815L83.1758 44.9574L74.4882 15.6604V15.3433L84.1905 27.3919L83.1758 44.9574L80.6393 59.2889L68.7176 71.0204L56.7324 79.0105L42.0205 80.2787L26.2305 79.0105L2.89434 57.767L0.738281 43.3087V26.1236L12.4064 13.6946L25.2793 0.1875L43.9229 0.804622L61.6787 1.39236Z" fill="white" fill-opacity="0.25"/>
<path d="M13.9265 69.7526L2.9375 57.8145L14.5258 68.3372L26.1019 79.011L13.9265 69.7526Z" fill="#3CD7C3" fill-opacity="0.45"/>
<path d="M67.5134 87.6978L63.3281 82.3711V87.6978H67.5134Z" fill="white" fill-opacity="0.45"/>
<line x1="17.7578" y1="49.6527" x2="67.8931" y2="49.6527" stroke="white" stroke-opacity="0.25" stroke-width="0.24924"/>
<path d="M43.0311 14.8398L44.2273 18.5214L48.0983 18.5214L44.9666 20.7967L46.1628 24.4782L43.0311 22.2029L39.8994 24.4782L41.0956 20.7967L37.9639 18.5214L41.8349 18.5214L43.0311 14.8398Z" fill="white" fill-opacity="0.64"/>
<path d="M30.7764 19.6348L31.6138 22.2118L34.3235 22.2118L32.1313 23.8045L32.9686 26.3816L30.7764 24.7889L28.5843 26.3816L29.4216 23.8045L27.2294 22.2118L29.9391 22.2118L30.7764 19.6348Z" fill="white" fill-opacity="0.64"/>
<path d="M55.2843 19.6348L56.1216 22.2118L58.8313 22.2118L56.6391 23.8045L57.4764 26.3816L55.2843 24.7889L53.0921 26.3816L53.9294 23.8045L51.7372 22.2118L54.4469 22.2118L55.2843 19.6348Z" fill="white" fill-opacity="0.64"/>
</svg>
