<svg width="28" height="20" viewBox="0 0 28 20" fill="none" xmlns="http://www.w3.org/2000/svg">
<rect width="28" height="20" rx="2" fill="white"/>
<mask id="mask0_14715_5050" style="mask-type:luminance" maskUnits="userSpaceOnUse" x="0" y="0" width="28" height="20">
<rect width="28" height="20" rx="2" fill="white"/>
</mask>
<g mask="url(#mask0_14715_5050)">
<rect width="28" height="20" fill="#0B36B2"/>
<g filter="url(#filter0_d_14715_5050)">
<path fill-rule="evenodd" clip-rule="evenodd" d="M22.6667 20V0H8.66666L22.6667 20Z" fill="#FFD045"/>
</g>
<path fill-rule="evenodd" clip-rule="evenodd" d="M17.3333 18.667L16.3905 18.9431L16.6667 18.0003L16.3905 17.0575L17.3333 17.3337L18.2761 17.0575L18 18.0003L18.2761 18.9431L17.3333 18.667Z" fill="white"/>
<path fill-rule="evenodd" clip-rule="evenodd" d="M14.6666 14.667L13.7238 14.9431L14 14.0003L13.7238 13.0575L14.6666 13.3337L15.6095 13.0575L15.3333 14.0003L15.6095 14.9431L14.6666 14.667Z" fill="white"/>
<path fill-rule="evenodd" clip-rule="evenodd" d="M12 10.667L11.0572 10.9431L11.3333 10.0003L11.0572 9.05752L12 9.33366L12.9428 9.05752L12.6667 10.0003L12.9428 10.9431L12 10.667Z" fill="white"/>
<path fill-rule="evenodd" clip-rule="evenodd" d="M9.33333 6.66699L8.39052 6.94313L8.66667 6.00033L8.39052 5.05752L9.33333 5.33366L10.2761 5.05752L10 6.00033L10.2761 6.94313L9.33333 6.66699Z" fill="white"/>
<path fill-rule="evenodd" clip-rule="evenodd" d="M6.66668 2.66699L5.72387 2.94313L6.00001 2.00033L5.72387 1.05752L6.66668 1.33366L7.60949 1.05752L7.33334 2.00033L7.60949 2.94313L6.66668 2.66699Z" fill="white"/>
</g>
<defs>
<filter id="filter0_d_14715_5050" x="8.66666" y="0" width="14" height="20" filterUnits="userSpaceOnUse" color-interpolation-filters="sRGB">
<feFlood flood-opacity="0" result="BackgroundImageFix"/>
<feColorMatrix in="SourceAlpha" type="matrix" values="0 0 0 0 0 0 0 0 0 0 0 0 0 0 0 0 0 0 127 0" result="hardAlpha"/>
<feOffset/>
<feColorMatrix type="matrix" values="0 0 0 0 0 0 0 0 0 0 0 0 0 0 0 0 0 0 0.06 0"/>
<feBlend mode="normal" in2="BackgroundImageFix" result="effect1_dropShadow_14715_5050"/>
<feBlend mode="normal" in="SourceGraphic" in2="effect1_dropShadow_14715_5050" result="shape"/>
</filter>
</defs>
</svg>
