<svg width="28" height="20" viewBox="0 0 28 20" fill="none" xmlns="http://www.w3.org/2000/svg">
<rect width="28" height="20" rx="2" fill="white"/>
<mask id="mask0_14715_5019" style="mask-type:luminance" maskUnits="userSpaceOnUse" x="0" y="0" width="28" height="20">
<rect width="28" height="20" rx="2" fill="white"/>
</mask>
<g mask="url(#mask0_14715_5019)">
<rect width="28" height="20" fill="#E4233B"/>
<path fill-rule="evenodd" clip-rule="evenodd" d="M0 0L12 10L0 20V0Z" fill="#34CD4E"/>
<path fill-rule="evenodd" clip-rule="evenodd" d="M28 0L16 10L28 20V0Z" fill="#34CD4E"/>
<path fill-rule="evenodd" clip-rule="evenodd" d="M16.9621 6.39418C16.1563 5.73159 15.1246 5.33376 14 5.33376C12.8754 5.33376 11.8437 5.73159 11.0379 6.39418L-1.28247 -1.91602L-2.77365 0.294751L9.54576 8.6043C9.40773 9.04513 9.33333 9.51409 9.33333 10.0004C9.33333 10.4868 9.40773 10.9557 9.54576 11.3966L-2.77365 19.7061L-1.28247 21.9169L11.0379 13.6067C11.8437 14.2693 12.8754 14.6671 14 14.6671C15.1246 14.6671 16.1563 14.2693 16.9621 13.6067L29.2825 21.9169L30.7737 19.7061L18.4542 11.3966C18.5923 10.9557 18.6667 10.4868 18.6667 10.0004C18.6667 9.51409 18.5923 9.04513 18.4542 8.6043L30.7737 0.294751L29.2825 -1.91602L16.9621 6.39418Z" fill="white"/>
<path fill-rule="evenodd" clip-rule="evenodd" d="M14 8.66709L13.0572 8.94324L13.3333 8.00043L13.0572 7.05762L14 7.33376L14.9428 7.05762L14.6667 8.00043L14.9428 8.94324L14 8.66709ZM12 12.0004L11.0572 12.2766L11.3333 11.3338L11.0572 10.391L12 10.6671L12.9428 10.391L12.6667 11.3338L12.9428 12.2766L12 12.0004ZM15.0572 12.2766L16 12.0004L16.9428 12.2766L16.6667 11.3338L16.9428 10.391L16 10.6671L15.0572 10.391L15.3333 11.3338L15.0572 12.2766Z" fill="#DF2239"/>
</g>
</svg>
