<svg width="28" height="20" viewBox="0 0 28 20" fill="none" xmlns="http://www.w3.org/2000/svg">
<rect x="0.25" y="0.25" width="27.5" height="19.5" rx="1.75" fill="white" stroke="#F5F5F5" stroke-width="0.5"/>
<mask id="mask0_14715_5161" style="mask-type:luminance" maskUnits="userSpaceOnUse" x="0" y="0" width="28" height="20">
<rect x="0.25" y="0.25" width="27.5" height="19.5" rx="1.75" fill="white" stroke="white" stroke-width="0.5"/>
</mask>
<g mask="url(#mask0_14715_5161)">
<rect x="20" width="8" height="20" fill="#FF3131"/>
<path fill-rule="evenodd" clip-rule="evenodd" d="M0 20H8V0H0V20Z" fill="#FF3131"/>
<path fill-rule="evenodd" clip-rule="evenodd" d="M16.1118 9.2212C15.8786 9.45441 15.4846 9.24353 15.5492 8.92013L16 6.66634L14.6667 7.33301L14 5.33301L13.3333 7.33301L12 6.66634L12.4508 8.92013C12.5154 9.24353 12.1214 9.45441 11.8882 9.2212L11.569 8.90204C11.4389 8.77187 11.2278 8.77187 11.0976 8.90204L10.6667 9.33301L9.33333 8.66634L9.99999 9.99967L9.56903 10.4306C9.43886 10.5608 9.43886 10.7719 9.56903 10.902L11.3333 12.6663H13.3333L13.6667 14.6663H14.3333L14.6667 12.6663H16.6667L18.431 10.902C18.5611 10.7719 18.5611 10.5608 18.431 10.4306L18 9.99967L18.6667 8.66634L17.3333 9.33301L16.9024 8.90204C16.7722 8.77187 16.5611 8.77187 16.431 8.90204L16.1118 9.2212Z" fill="#FF3131"/>
</g>
</svg>
