<svg width="28" height="20" viewBox="0 0 28 20" fill="none" xmlns="http://www.w3.org/2000/svg">
<rect x="0.25" y="0.25" width="27.5" height="19.5" rx="1.75" fill="white" stroke="#F5F5F5" stroke-width="0.5"/>
<mask id="mask0_14715_5256" style="mask-type:luminance" maskUnits="userSpaceOnUse" x="0" y="0" width="28" height="20">
<rect x="0.25" y="0.25" width="27.5" height="19.5" rx="1.75" fill="white" stroke="white" stroke-width="0.5"/>
</mask>
<g mask="url(#mask0_14715_5256)">
<path fill-rule="evenodd" clip-rule="evenodd" d="M20 3.33366C20.3631 3.15211 20.7316 3.56956 20.5064 3.90734L20.0672 4.56612C20.0228 4.63271 19.9657 4.68985 19.8991 4.73424L18.0549 5.96371C18.0184 5.98806 17.9843 6.01596 17.9533 6.047L17.8047 6.19559C17.5444 6.45594 17.5444 6.87805 17.8047 7.1384L18.1952 7.52892C18.4556 7.78927 18.4556 8.21138 18.1952 8.47173L17.6731 8.99389C17.4702 9.1968 17.1602 9.2471 16.9035 9.11877L16.5963 8.96513C16.2669 8.80048 15.8665 8.93396 15.7018 9.26328L15.4568 9.75334C15.3777 9.91148 15.2391 10.0317 15.0713 10.0876L13.4359 10.6328C13.368 10.6554 13.2968 10.667 13.2251 10.667H12.412C12.1595 10.667 11.9286 10.8097 11.8157 11.0355L11.6315 11.404C11.4668 11.7334 11.0663 11.8668 10.737 11.7022L8.76341 10.7154C8.69932 10.6833 8.64082 10.6412 8.59015 10.5905L7.52857 9.52892C7.40355 9.4039 7.33331 9.23433 7.33331 9.05752V8.47173C7.33331 8.21138 7.54437 8.00033 7.80472 8.00033C7.92974 8.00033 8.04965 7.95066 8.13805 7.86225L9.13805 6.86225C9.26307 6.73723 9.43264 6.66699 9.60946 6.66699H10.1861C10.4731 6.66699 10.7279 6.48337 10.8186 6.21114L11.1472 5.22531C11.2535 4.90635 11.5807 4.71647 11.9104 4.78241L14.5196 5.30426C14.6164 5.32362 14.7163 5.32124 14.8121 5.2973L17.2623 4.68474C17.3095 4.67294 17.3553 4.65602 17.3988 4.63426L18.6666 4.00033L20 3.33366Z" fill="#E7832C"/>
<path fill-rule="evenodd" clip-rule="evenodd" d="M14 16.0003C14.3682 16.0003 14.6666 15.7018 14.6666 15.3337C14.6666 14.9655 14.3682 14.667 14 14.667C13.6318 14.667 13.3333 14.9655 13.3333 15.3337C13.3333 15.7018 13.6318 16.0003 14 16.0003Z" fill="#445128"/>
<path opacity="0.75" d="M16 14.667C16 14.667 18 14.0003 18.6667 12.667" stroke="#445128" stroke-width="1.33333" stroke-linecap="round"/>
<path opacity="0.75" d="M12 14.667C12 14.667 10 14.0003 9.33333 12.667" stroke="#445128" stroke-width="1.33333" stroke-linecap="round"/>
</g>
</svg>
