<svg width="36" height="26" viewBox="0 0 36 26" fill="none" xmlns="http://www.w3.org/2000/svg">
<rect width="36" height="26" rx="2" fill="white"/>
<mask id="mask0_17607_2866" style="mask-type:luminance" maskUnits="userSpaceOnUse" x="0" y="0" width="36" height="26">
<rect width="36" height="26" rx="2" fill="white"/>
</mask>
<g mask="url(#mask0_17607_2866)">
<rect width="36" height="26" fill="#043CAE"/>
<path fill-rule="evenodd" clip-rule="evenodd" d="M16.7877 5.56068L17.9999 5.20169L19.2121 5.56068L18.8571 4.33503L19.2121 3.10938L17.9999 3.46836L16.7877 3.10938L17.1428 4.33503L16.7877 5.56068ZM16.7877 22.894L17.9999 22.535L19.2121 22.894L18.8571 21.6684L19.2121 20.4427L17.9999 20.8017L16.7877 20.4427L17.1428 21.6684L16.7877 22.894ZM26.5713 13.8684L25.3592 14.2273L25.7142 13.0017L25.3592 11.776L26.5713 12.135L27.7835 11.776L27.4285 13.0017L27.7835 14.2273L26.5713 13.8684ZM8.21631 14.2273L9.42849 13.8684L10.6407 14.2273L10.2856 13.0017L10.6407 11.776L9.42849 12.135L8.21631 11.776L8.57135 13.0017L8.21631 14.2273ZM25.423 9.53503L24.2108 9.89401L24.5659 8.66836L24.2108 7.44271L25.423 7.80169L26.6352 7.44271L26.2801 8.66836L26.6352 9.89401L25.423 9.53503ZM9.36466 18.5607L10.5768 18.2017L11.789 18.5607L11.434 17.335L11.789 16.1094L10.5768 16.4684L9.36466 16.1094L9.7197 17.335L9.36466 18.5607ZM22.2856 6.36281L21.0735 6.72179L21.4285 5.49614L21.0735 4.27049L22.2856 4.62947L23.4978 4.27049L23.1428 5.49614L23.4978 6.72179L22.2856 6.36281ZM12.502 21.7329L13.7142 21.3739L14.9264 21.7329L14.5713 20.5072L14.9264 19.2816L13.7142 19.6406L12.502 19.2816L12.8571 20.5072L12.502 21.7329ZM25.423 18.2017L24.2108 18.5607L24.5659 17.335L24.2108 16.1094L25.423 16.4684L26.6352 16.1094L26.2801 17.335L26.6352 18.5607L25.423 18.2017ZM9.36466 9.89401L10.5768 9.53503L11.789 9.89401L11.434 8.66836L11.789 7.44271L10.5768 7.80169L9.36466 7.44271L9.7197 8.66836L9.36466 9.89401ZM22.2856 21.3739L21.0735 21.7329L21.4285 20.5072L21.0735 19.2816L22.2856 19.6406L23.4978 19.2816L23.1428 20.5072L23.4978 21.7329L22.2856 21.3739ZM12.502 6.72179L13.7142 6.36281L14.9264 6.72179L14.5713 5.49614L14.9264 4.27049L13.7142 4.62947L12.502 4.27049L12.8571 5.49614L12.502 6.72179Z" fill="#FFD429"/>
</g>
</svg>
