<svg width="28" height="20" viewBox="0 0 28 20" fill="none" xmlns="http://www.w3.org/2000/svg">
<rect width="28" height="20" rx="2" fill="white"/>
<mask id="mask0_14715_6823" style="mask-type:luminance" maskUnits="userSpaceOnUse" x="0" y="0" width="28" height="20">
<rect width="28" height="20" rx="2" fill="white"/>
</mask>
<g mask="url(#mask0_14715_6823)">
<rect width="28" height="20" fill="#07319C"/>
<path fill-rule="evenodd" clip-rule="evenodd" d="M17.3333 9.99967C17.3333 8.90594 17.3333 7.61282 17.3333 6.66549C17.3333 5.92911 17.9303 5.33301 18.6667 5.33301H22.6667C23.4031 5.33301 24 5.92911 24 6.66549C24 7.61282 24 8.90594 24 9.99967C24 13.333 20.6667 14.6663 20.6667 14.6663C20.6667 14.6663 17.3333 13.333 17.3333 9.99967Z" fill="#0072C4"/>
<mask id="mask1_14715_6823" style="mask-type:luminance" maskUnits="userSpaceOnUse" x="17" y="5" width="7" height="10">
<path fill-rule="evenodd" clip-rule="evenodd" d="M17.3333 9.99967C17.3333 8.90594 17.3333 7.61282 17.3333 6.66549C17.3333 5.92911 17.9303 5.33301 18.6667 5.33301H22.6667C23.4031 5.33301 24 5.92911 24 6.66549C24 7.61282 24 8.90594 24 9.99967C24 13.333 20.6667 14.6663 20.6667 14.6663C20.6667 14.6663 17.3333 13.333 17.3333 9.99967Z" fill="white"/>
</mask>
<g mask="url(#mask1_14715_6823)">
<path fill-rule="evenodd" clip-rule="evenodd" d="M18.8691 9.26738C18.186 9.95745 19.5249 9.86992 19.5249 9.86992L20.4785 9.5646C20.4785 9.5646 20.9072 9.61647 21.1966 9.70371C21.3883 9.7615 21.9218 9.99969 21.9218 9.99969C21.9218 9.99969 23.0485 9.77476 22.6524 9.26738C22.2562 8.76 19.5523 8.57731 18.8691 9.26738Z" fill="#005121"/>
<path fill-rule="evenodd" clip-rule="evenodd" d="M21.7099 8.55015C21.7374 8.54393 21.8014 8.54533 21.8252 8.57441C21.8627 8.61987 21.9394 8.60476 21.9769 8.64857C22.0142 8.6925 22.0577 8.73301 22.0577 8.79549C22.0577 8.85796 22.0504 9.01288 22.0517 9.04692C22.0537 9.09936 22.0627 9.10749 22.1166 9.10609C22.1817 9.10444 22.2714 9.09936 22.2742 8.98291C22.2762 8.90177 22.1954 8.85111 22.1719 8.56247C22.2073 8.53212 22.2388 8.50507 22.227 8.46469C22.2151 8.42418 22.2939 8.40387 22.2861 8.34304C22.2781 8.28234 22.3648 8.24514 22.3294 8.17771C22.2939 8.11015 22.3726 8.10685 22.3412 8.05276C22.3097 7.99879 22.3923 7.95142 22.3569 7.90431C22.3215 7.85695 22.4042 7.81314 22.3609 7.75574C22.3175 7.69834 22.3845 7.66457 22.3412 7.62063C22.3688 7.57682 22.3451 7.45187 22.2584 7.38101C22.1719 7.31003 22.0498 7.27295 21.9788 7.2459C21.8468 7.19561 21.6008 7.21885 21.4274 7.23917C21.2541 7.25936 20.9311 7.27968 20.8326 7.26622C20.7342 7.25276 20.5019 7.23917 20.3187 7.26952C20.256 7.27993 20.1848 7.26114 20.1474 7.22571C20.1175 7.19739 20.1002 7.20044 20.0726 7.20209C20.0451 7.20374 20.0292 7.19523 20.0154 7.16145C19.9911 7.10203 19.9368 7.14291 19.9111 7.06863C19.8939 7.01898 19.8046 7.0619 19.7772 7.01974C19.7495 6.97758 19.7162 6.9725 19.6412 6.97758C19.6374 6.95218 19.596 6.93365 19.5585 6.94038C19.5645 6.89822 19.5231 6.86444 19.4542 6.86609C19.4621 6.81377 19.3657 6.77326 19.3163 6.80539C19.2849 6.76653 19.2218 6.77491 19.2061 6.80539C19.1726 6.76653 19.0662 6.77834 19.0406 6.8205C18.9954 6.79523 18.9074 6.85733 18.9147 6.95561C18.9166 6.98266 18.9184 7.01072 18.8732 7.01974C18.7886 7.03663 18.7394 7.13111 18.6664 7.14457C18.5937 7.15815 18.5208 7.18177 18.507 7.22228C18.4932 7.26279 18.5188 7.30507 18.4913 7.32526C18.4637 7.34558 18.5089 7.36412 18.5227 7.37415C18.5365 7.38431 18.5581 7.4012 18.5621 7.42482C18.5677 7.45834 18.623 7.46838 18.6803 7.43155C18.7039 7.41644 18.7452 7.46203 18.8122 7.4299C18.8791 7.3979 18.9742 7.41479 18.9579 7.46711C18.9501 7.49238 18.9677 7.51942 18.9895 7.54469C19.0111 7.56996 19.0436 7.64628 19.0249 7.68984C18.9974 7.75396 19.0525 7.78952 19.0387 7.84679C19.0249 7.90431 19.0465 7.95663 19.0171 8.03422C18.9874 8.1118 18.987 8.20895 19.0308 8.23676C19.0919 8.27561 19.055 8.35257 19.1076 8.38533C19.1508 8.41225 19.1254 8.47815 19.2061 8.49834C19.2868 8.51866 19.2396 8.57263 19.3242 8.58444C19.4089 8.59625 19.4384 8.65707 19.527 8.64349C19.5923 8.63358 19.6267 8.64945 19.6648 8.66444C19.6726 8.71853 19.6551 8.91701 19.6511 8.96768C19.6476 9.0125 19.6236 9.08399 19.6236 9.12806C19.6236 9.15498 19.6787 9.16171 19.7418 9.16171C19.8046 9.16171 19.8323 9.13644 19.8165 9.06558C19.8008 8.9946 19.7969 8.82177 19.8009 8.71371C19.8556 8.73999 19.9076 8.77682 19.9052 8.81745C19.9012 8.88323 19.9022 9.00133 19.8913 9.06215C19.8836 9.10609 19.8953 9.1753 19.8993 9.22088C19.9033 9.23765 20.0095 9.23599 20.0529 9.22088C20.0962 9.20565 20.0962 9.16514 20.0922 8.98114C20.0902 8.89009 19.9937 8.79701 20.1159 8.75155C20.175 8.72958 20.2577 8.67892 20.2892 8.6318C20.3206 8.58444 20.3897 8.60298 20.4388 8.62672C20.488 8.65034 20.5668 8.68641 20.6162 8.67053C20.6791 8.65034 20.7461 8.70088 20.8012 8.67053C20.8563 8.64018 20.9273 8.6925 20.9725 8.65542C21.0178 8.61822 21.0966 8.65365 21.1301 8.61822C21.1636 8.58279 21.3014 8.63853 21.3507 8.5913C21.3999 8.54393 21.4668 8.60476 21.5122 8.56933C21.524 8.55993 21.5381 8.5579 21.5535 8.55904C21.5517 8.63891 21.5368 8.76603 21.5338 8.80565C21.5302 8.8506 21.5062 8.92196 21.5062 8.9659C21.5062 8.99295 21.5614 8.99968 21.6243 8.99968C21.6874 8.99968 21.715 8.97441 21.6993 8.90355C21.6834 8.83269 21.7061 8.65834 21.7099 8.55015Z" fill="#A3A3A3"/>
<path fill-rule="evenodd" clip-rule="evenodd" d="M18.5233 7.31963C18.5496 7.30045 18.5252 7.26058 18.5384 7.22223C18.5516 7.18401 18.6213 7.16166 18.6911 7.14896C18.7609 7.13614 18.808 7.04687 18.8892 7.03087C18.9325 7.02236 18.9307 6.99582 18.9288 6.97029C18.9219 6.87747 19.0061 6.8188 19.0495 6.8428C19.0739 6.8028 19.1759 6.79163 19.2079 6.82833C19.223 6.79963 19.2833 6.79163 19.3135 6.82833C19.3606 6.7981 19.4531 6.83633 19.4455 6.88572C19.5116 6.8842 19.5511 6.91607 19.5455 6.95594C19.5813 6.9496 19.6209 6.96712 19.6248 6.99099C19.6187 7.03023 19.7083 7.04026 19.6668 7.06566C19.6305 7.08788 19.596 7.07912 19.5547 7.04877C19.5133 7.01829 19.3754 7.04534 19.3557 7.06058C19.336 7.07582 19.3144 7.08255 19.2985 7.07074C19.2828 7.05893 19.2455 7.04026 19.2277 7.04204C19.2099 7.04369 19.1726 7.04369 19.1508 7.00826C19.1292 6.97283 19.0741 6.96775 19.0643 6.98121C19.0545 6.99468 19.0859 7.04369 19.1175 7.06223C19.1489 7.0809 19.1332 7.11633 19.1707 7.13652C19.1951 7.14985 19.1726 7.19556 19.1588 7.22261C19.1451 7.24966 19.0919 7.24115 19.0879 7.22096C19.084 7.20077 19.0701 7.18718 19.0387 7.21753C19.0071 7.24801 18.9403 7.2395 18.9245 7.23112C18.9088 7.22261 18.8653 7.2075 18.8359 7.21588C18.8062 7.22439 18.8496 7.23785 18.8536 7.24966C18.8575 7.26147 18.8062 7.26655 18.7768 7.26655C18.7473 7.26655 18.7373 7.28331 18.7551 7.28674C18.7729 7.29017 18.8416 7.2936 18.8693 7.28001C18.8969 7.26655 18.9815 7.28001 18.9895 7.30541C18.9973 7.33068 18.9403 7.34083 18.9067 7.33741C18.8572 7.33245 18.7846 7.35937 18.7492 7.36775C18.7138 7.37626 18.6193 7.35429 18.5818 7.36445C18.5445 7.37448 18.5076 7.33474 18.5233 7.31963Z" fill="#A3A3A3"/>
<path fill-rule="evenodd" clip-rule="evenodd" d="M19.1568 7.52644C19.1214 7.5399 19.1332 7.58041 19.1648 7.5973C19.1963 7.61418 19.2671 7.62092 19.3125 7.61253C19.3577 7.60403 19.3676 7.61761 19.3381 7.6345C19.3085 7.65126 19.3833 7.65469 19.3774 7.68174C19.3716 7.70866 19.4049 7.70358 19.4365 7.70193C19.468 7.70028 19.5094 7.67996 19.5448 7.66142C19.5802 7.64288 19.6058 7.65634 19.5723 7.68847C19.539 7.72047 19.4267 7.76111 19.3381 7.75603C19.2494 7.75095 19.2021 7.77114 19.2218 7.79984C19.2415 7.82853 19.336 7.83361 19.3852 7.81838C19.4345 7.80326 19.4267 7.83031 19.3892 7.84872C19.3517 7.86739 19.2985 7.86904 19.2534 7.86739C19.208 7.86574 19.1686 7.9046 19.2277 7.92644C19.2868 7.94841 19.3657 7.93495 19.3951 7.95349C19.4248 7.97203 19.5153 7.94333 19.5172 7.97545C19.5191 8.00745 19.4916 8.01926 19.4384 8.01596C19.3852 8.01253 19.4009 8.03653 19.4405 8.04961C19.4759 8.06155 19.539 8.06155 19.5723 8.05812C19.6058 8.05482 19.596 8.08847 19.5625 8.10028C19.5291 8.11209 19.4208 8.12898 19.3676 8.12733C19.3144 8.12568 19.3399 8.15945 19.4089 8.15945C19.6196 8.15945 19.6905 8.05977 19.7437 7.99057C19.7698 7.95666 19.8205 7.93825 19.8323 7.95857C19.8442 7.97876 19.8461 7.98384 19.8225 8.00072C19.7988 8.01761 19.8046 8.02777 19.848 8.02942C19.8913 8.03107 19.9544 8.01926 19.9919 8.00923C20.0292 7.99907 20.1394 8.06295 20.0489 8.06485C19.8894 8.06828 19.6925 8.12568 19.6276 8.1493C19.5625 8.17291 19.4541 8.21736 19.3873 8.21507C19.3381 8.21342 19.3183 8.23196 19.3381 8.25393C19.3577 8.2759 19.4208 8.2759 19.4562 8.26574C19.4916 8.25558 19.4994 8.26574 19.4759 8.28593C19.4523 8.30625 19.3932 8.31463 19.3517 8.32149C19.3105 8.32822 19.2901 8.35463 19.3223 8.3653C19.3833 8.38561 19.3282 8.40415 19.3716 8.41431C19.4148 8.42447 19.3676 8.45647 19.4148 8.46663C19.4621 8.47679 19.4897 8.47171 19.5251 8.44809C19.5606 8.42447 19.5802 8.41088 19.6177 8.41431C19.6551 8.41774 19.6808 8.40072 19.7024 8.37545C19.724 8.35018 19.7969 8.3046 19.8205 8.32657C19.8442 8.34853 19.8934 8.3079 19.9033 8.32987C19.9131 8.35184 19.9544 8.33838 19.9643 8.36872C19.9751 8.4025 20.0214 8.40923 20.0529 8.39742C20.0843 8.38561 20.11 8.35691 20.11 8.31463C20.11 8.27247 20.1218 8.25558 20.1337 8.30117C20.1454 8.34676 20.1888 8.36022 20.2104 8.33838C20.232 8.31641 20.2399 8.24047 20.2242 8.20504C20.2085 8.16949 20.2064 8.1239 20.2223 8.11552C20.238 8.10714 20.2754 8.18472 20.2911 8.2185C20.307 8.25228 20.3482 8.24212 20.3503 8.20834C20.3522 8.17457 20.3897 8.15768 20.4172 8.18307C20.4448 8.20834 20.4291 8.29279 20.4369 8.3333C20.4448 8.3738 20.5215 8.32314 20.5295 8.3366C20.5374 8.35018 20.5668 8.35349 20.5787 8.32479C20.5905 8.29609 20.6181 8.27082 20.6338 8.28771C20.6497 8.3046 20.6732 8.3333 20.683 8.3653C20.6929 8.39742 20.7283 8.41431 20.75 8.38053C20.7716 8.34676 20.7874 8.28098 20.7796 8.23526C20.7716 8.1898 20.7855 8.16111 20.8051 8.18472C20.8248 8.20834 20.8228 8.27247 20.8248 8.32479C20.8268 8.37711 20.8917 8.37215 20.8917 8.29444C20.8917 8.25901 20.9114 8.25228 20.9174 8.27247C20.9233 8.29279 20.9233 8.32657 20.9292 8.34168C20.9437 8.37914 20.9943 8.35857 21 8.3333C21.006 8.3079 20.9962 8.21672 20.9843 8.17634C20.9725 8.13571 20.9962 8.10714 21.0159 8.12898C21.0356 8.15095 21.0394 8.20834 21.0434 8.27247C21.0473 8.3366 21.0886 8.34003 21.1104 8.32149C21.132 8.30282 21.132 8.24885 21.1223 8.20999C21.1123 8.17126 21.1439 8.17126 21.1577 8.19488C21.1714 8.2185 21.1951 8.20326 21.1911 8.18472C21.1873 8.16618 21.2068 8.1493 21.2265 8.17457C21.2463 8.19996 21.2403 8.25736 21.2305 8.30282C21.2206 8.34853 21.2797 8.34333 21.3073 8.3046C21.3348 8.26574 21.3211 8.15945 21.2975 8.12568C21.2738 8.0919 21.2759 8.04796 21.2895 8.00923C21.3034 7.97038 21.3291 7.9686 21.331 7.98561C21.3329 8.00238 21.3448 8.03107 21.3664 8.05304C21.388 8.07501 21.3999 8.07844 21.4037 8.04453C21.4077 8.01088 21.4274 8.01926 21.4353 8.04453C21.4433 8.06993 21.4569 8.09012 21.4766 8.06828C21.4963 8.04631 21.522 8.0632 21.5063 8.09698C21.4904 8.13076 21.4904 8.16111 21.5023 8.19488C21.5141 8.22866 21.5554 8.22358 21.5594 8.18472C21.5676 8.10396 21.5791 8.15768 21.5889 8.19311C21.5987 8.22866 21.6283 8.22688 21.6343 8.20669C21.6402 8.18638 21.6461 8.18142 21.6461 8.20326C21.6461 8.22523 21.6559 8.24377 21.6815 8.24377C21.7071 8.24377 21.7012 8.19996 21.7129 8.17291C21.7248 8.14587 21.7464 8.18307 21.776 8.24542C21.8055 8.3079 21.8271 8.24885 21.8962 8.39069C21.9243 8.44847 21.9651 8.39907 21.9631 8.37888C21.9611 8.35857 21.967 8.34511 22.0005 8.34511C22.034 8.34511 22.0615 8.33838 22.0498 8.31641C22.038 8.29444 22.0458 8.25393 22.0439 8.20834C22.042 8.16276 22.0477 8.13749 22.0537 8.16276C22.0596 8.18803 22.0793 8.22358 22.1107 8.24212C22.1423 8.26066 22.1639 8.20999 22.1383 8.17799C22.1128 8.14587 22.0774 8.06993 22.0793 8.0058C22.0808 7.95857 22.1028 7.97368 22.1028 8.00745C22.1028 8.04123 22.1225 8.10206 22.1522 8.11552C22.1817 8.12898 22.1935 8.0665 22.1797 8.0345C22.166 8.00238 22.1581 7.95857 22.1876 7.95006C22.2171 7.94168 22.1797 7.90625 22.1541 7.88085C22.1285 7.85558 22.1128 7.83031 22.1581 7.83196C22.2033 7.83361 22.166 7.80492 22.1442 7.78638C22.1225 7.76784 22.0852 7.73063 22.1442 7.73571C22.2033 7.74079 22.1837 7.71044 22.16 7.69355C22.1363 7.67666 22.1225 7.64453 22.1639 7.64631C22.2054 7.64796 22.2308 7.62765 22.227 7.61253C22.2119 7.55399 22.1128 7.48593 22.0517 7.43361C21.9907 7.3813 21.8922 7.32898 21.839 7.32047C21.7858 7.31196 21.7839 7.34587 21.7977 7.36606C21.8114 7.38625 21.839 7.39984 21.843 7.37952C21.8468 7.35933 21.8882 7.3813 21.9079 7.40822C21.9276 7.43526 21.9945 7.46904 22.036 7.49939C22.0774 7.52974 21.9808 7.51463 21.9335 7.47412C21.9065 7.45088 21.9098 7.47907 21.9454 7.5112C21.9808 7.54333 21.9354 7.55679 21.8981 7.52974C21.8606 7.50282 21.7642 7.42688 21.7031 7.37787C21.6421 7.32898 21.6322 7.34079 21.6303 7.37279C21.6283 7.40492 21.65 7.42688 21.6894 7.4538C21.7288 7.48085 21.778 7.52301 21.8154 7.55171C21.8528 7.58041 21.8214 7.59895 21.7977 7.57863C21.774 7.55844 21.6934 7.50282 21.6461 7.46396C21.5987 7.42511 21.5554 7.40657 21.526 7.41165C21.4963 7.41672 21.4984 7.44542 21.5338 7.47577C21.5692 7.50612 21.6126 7.56352 21.6126 7.5973C21.6126 7.63107 21.5811 7.65469 21.5652 7.59399C21.5495 7.53317 21.4747 7.46231 21.4196 7.40822C21.3645 7.35425 21.3092 7.34409 21.2679 7.34752C21.2265 7.35082 21.2285 7.39133 21.2285 7.42345C21.2285 7.45545 21.2009 7.43692 21.199 7.4133C21.1971 7.38968 21.1655 7.36949 21.1477 7.37114C21.1301 7.37279 21.136 7.4218 21.1301 7.44377C21.1242 7.46561 21.0966 7.48593 21.0966 7.43526C21.0966 7.3846 21.0316 7.35933 21.004 7.35755C20.9765 7.3559 20.9508 7.36606 20.9646 7.38803C20.9784 7.40987 20.9725 7.46904 20.9627 7.50282C20.9528 7.53647 20.9233 7.47742 20.9174 7.41495C20.9114 7.3526 20.819 7.30866 20.754 7.3272C20.6889 7.34587 20.7383 7.38625 20.7264 7.42511C20.7145 7.46396 20.6968 7.42853 20.6908 7.38803C20.6851 7.34752 20.6535 7.32212 20.6103 7.33228C20.5668 7.34244 20.5374 7.36263 20.5393 7.38968C20.5412 7.41672 20.5412 7.44034 20.5314 7.48415C20.5215 7.52809 20.5039 7.50612 20.5058 7.47742C20.5079 7.44872 20.498 7.40149 20.488 7.37444C20.4783 7.34752 20.4624 7.37279 20.4664 7.40657C20.4704 7.44034 20.4605 7.51793 20.4448 7.5653C20.4291 7.61253 20.4054 7.61418 20.4172 7.55006C20.4291 7.48593 20.3994 7.39133 20.37 7.34752C20.3488 7.31615 20.3011 7.30536 20.3011 7.34917C20.3011 7.39311 20.3148 7.42511 20.3503 7.45723C20.3857 7.48923 20.3581 7.5686 20.3227 7.61088C20.2871 7.65304 20.2892 7.59222 20.3011 7.54663C20.3128 7.50104 20.2479 7.48593 20.2223 7.47742C20.1966 7.46904 20.2498 7.42345 20.2617 7.36263C20.2674 7.33266 20.2596 7.31374 20.236 7.31196C20.2123 7.31031 20.1494 7.36771 20.1218 7.40987C20.1297 7.36606 20.1218 7.3272 20.0981 7.3272C20.0745 7.3272 20.0489 7.36949 20.0313 7.39984C20.0135 7.43018 19.9957 7.4133 20.0135 7.3813C20.0313 7.34917 20.0587 7.26307 20.0233 7.24453C19.9879 7.22599 19.9563 7.30193 19.919 7.28834C19.8978 7.28072 19.9268 7.23272 19.9387 7.21076C19.9504 7.18879 19.9268 7.1719 19.8737 7.21241C19.8205 7.25304 19.7969 7.31882 19.783 7.35933C19.7694 7.39984 19.6748 7.46561 19.6236 7.50104C19.5723 7.53647 19.5507 7.52301 19.5763 7.50777C19.602 7.49266 19.6531 7.44542 19.6787 7.42688C19.7043 7.40822 19.6925 7.3973 19.6433 7.4293C19.5941 7.46142 19.5045 7.51971 19.4128 7.5399C19.359 7.55184 19.3517 7.54168 19.4049 7.52644C19.4581 7.5112 19.5802 7.43857 19.6098 7.40492C19.6283 7.38371 19.5802 7.40149 19.5566 7.40657C19.5331 7.41165 19.5134 7.40492 19.5606 7.38803C19.6077 7.37114 19.7575 7.2378 19.7891 7.18879C19.8205 7.1399 19.7929 7.12123 19.7732 7.12301C19.7535 7.12466 19.726 7.13647 19.7319 7.11628C19.7378 7.09596 19.724 7.06892 19.6984 7.07742C19.6728 7.0858 19.6748 7.13482 19.6649 7.16174C19.6551 7.18879 19.5999 7.22434 19.5645 7.22434C19.5291 7.22434 19.4799 7.23107 19.4424 7.25634C19.4049 7.28161 19.3873 7.25799 19.4049 7.2378C19.4227 7.21749 19.4621 7.21241 19.5015 7.21076C19.5409 7.20911 19.5842 7.20403 19.6177 7.1719C19.6511 7.1399 19.6531 7.1145 19.6276 7.11285C19.602 7.1112 19.5585 7.0825 19.5448 7.07069C19.4748 7.01063 19.3467 7.09431 19.2966 7.1432C19.2691 7.17025 19.1745 7.24796 19.1451 7.26815C19.1154 7.28834 19.1273 7.31704 19.1765 7.27831C19.2258 7.23945 19.2415 7.2665 19.1963 7.2952C19.1508 7.3239 19.1175 7.36606 19.1332 7.3813C19.1489 7.39641 19.21 7.37787 19.2434 7.35933C19.2769 7.34079 19.2928 7.38625 19.21 7.40149C19.1544 7.41177 19.135 7.43133 19.1785 7.43361C19.212 7.43526 19.2631 7.4218 19.3105 7.39818C19.3577 7.37444 19.3951 7.38803 19.3557 7.41165C19.3163 7.43526 19.2297 7.46739 19.1864 7.46739C19.1501 7.46739 19.1923 7.51298 19.1568 7.52644Z" fill="white"/>
<path fill-rule="evenodd" clip-rule="evenodd" d="M19.3852 7.14871C19.4326 7.09937 19.4739 7.07777 19.5172 7.11324C19.5565 7.14537 19.5606 7.15937 19.5113 7.14871C19.4621 7.13804 19.4286 7.14871 19.3991 7.18057C19.3695 7.21257 19.336 7.20004 19.3852 7.14871Z" fill="#A3A3A3"/>
<path fill-rule="evenodd" clip-rule="evenodd" d="M18.6055 7.27441C18.6409 7.23895 18.6979 7.23895 18.7236 7.20001C18.7492 7.16095 18.7768 7.17521 18.7452 7.21241C18.7138 7.24961 18.6528 7.25681 18.6271 7.28335C18.6015 7.30988 18.5877 7.29215 18.6055 7.27441Z" fill="#A3A3A3"/>
<path fill-rule="evenodd" clip-rule="evenodd" d="M18.8261 7.13889C18.8474 7.13596 18.8891 7.11049 18.9147 7.08036C18.9403 7.05023 18.9954 7.03956 19.0288 7.07503C19.0623 7.11049 19.08 7.12289 19.0978 7.13009C19.1154 7.13716 19.1154 7.16023 19.0879 7.16716C19.0603 7.17436 19.023 7.17969 19.0033 7.17076C18.9836 7.16196 18.954 7.15489 18.9304 7.16023C18.9067 7.16543 18.8969 7.15489 18.9166 7.14596C18.9363 7.13716 18.9599 7.11049 18.9717 7.09983C18.9836 7.08929 19.015 7.09809 18.9974 7.10876C18.9796 7.11943 18.9874 7.14236 19.0052 7.15129C19.023 7.16023 19.0584 7.16023 19.0741 7.14423C19.0506 7.12116 19.0111 7.09103 18.9954 7.08223C18.9796 7.07329 18.9658 7.06969 18.9461 7.09103C18.9264 7.11236 18.8791 7.16369 18.834 7.16196C18.7886 7.16023 18.8005 7.14236 18.8261 7.13889Z" fill="#A3A3A3"/>
<path fill-rule="evenodd" clip-rule="evenodd" d="M20.0705 7.45684C20.053 7.48124 20.037 7.5127 20.0351 7.5375C20.0332 7.5623 20.0559 7.57924 20.0587 7.54817C20.0616 7.5171 20.0646 7.49857 20.0892 7.4755C20.1139 7.45244 20.0902 7.42937 20.0705 7.45684Z" fill="#A3A3A3"/>
<path fill-rule="evenodd" clip-rule="evenodd" d="M19.8294 7.45625C19.8498 7.44798 19.8845 7.42878 19.9012 7.41105C19.918 7.39345 19.9288 7.40491 19.912 7.42438C19.8953 7.44385 19.8569 7.46691 19.8391 7.47225C19.8215 7.47758 19.8077 7.46518 19.8294 7.45625Z" fill="#A3A3A3"/>
<path fill-rule="evenodd" clip-rule="evenodd" d="M19.8599 7.55465C19.8316 7.58868 19.72 7.66957 19.6865 7.68468C19.653 7.69992 19.6649 7.72189 19.7024 7.71008C19.6748 7.73192 19.6136 7.76747 19.5744 7.77751C19.535 7.78766 19.527 7.81801 19.5861 7.79947C19.6452 7.78093 19.7279 7.73192 19.7495 7.71008C19.7713 7.68811 19.7437 7.67795 19.7772 7.65433C19.8107 7.63071 19.8726 7.58754 19.8815 7.56989C19.8953 7.54297 19.8796 7.53103 19.8599 7.55465Z" fill="#A3A3A3"/>
<path fill-rule="evenodd" clip-rule="evenodd" d="M19.7378 7.83002C19.78 7.80945 19.8588 7.73669 19.8815 7.69491C19.8953 7.66964 19.9228 7.67295 19.9012 7.7118C19.8796 7.75066 19.7988 7.81987 19.7713 7.83841C19.7437 7.85695 19.6925 7.85187 19.7378 7.83002Z" fill="#A3A3A3"/>
<path fill-rule="evenodd" clip-rule="evenodd" d="M20.6338 7.42984C20.6223 7.45358 20.62 7.5092 20.624 7.53612C20.6279 7.56317 20.6516 7.58349 20.6476 7.54298C20.6437 7.50247 20.6437 7.46197 20.6574 7.45016C20.6713 7.43822 20.6535 7.38933 20.6338 7.42984Z" fill="#A3A3A3"/>
<path fill-rule="evenodd" clip-rule="evenodd" d="M20.8741 7.52988C20.8941 7.54829 20.9036 7.63464 20.9016 7.66664C20.8997 7.69877 20.9332 7.69877 20.9311 7.65318C20.9292 7.60759 20.9252 7.55019 20.9076 7.51985C20.8898 7.48937 20.8465 7.50461 20.8741 7.52988Z" fill="#A3A3A3"/>
<path fill-rule="evenodd" clip-rule="evenodd" d="M21.0848 7.58484C21.0969 7.60694 21.1123 7.64897 21.1123 7.67932C21.1123 7.7098 21.138 7.69621 21.1399 7.66078C21.1418 7.62535 21.136 7.595 21.1223 7.57138C21.1085 7.54777 21.067 7.55272 21.0848 7.58484Z" fill="#A3A3A3"/>
<path fill-rule="evenodd" clip-rule="evenodd" d="M21.2148 7.55896C21.204 7.53176 21.1873 7.5075 21.1753 7.5111C21.1636 7.5147 21.1714 7.5395 21.1873 7.56603C21.2028 7.5927 21.2266 7.5891 21.2148 7.55896Z" fill="#A3A3A3"/>
<path fill-rule="evenodd" clip-rule="evenodd" d="M20.3916 7.74719C20.3857 7.81792 20.3482 7.88053 20.303 7.9025C20.2577 7.92446 20.2655 7.95989 20.3206 7.92446C20.3759 7.88903 20.4172 7.82821 20.4291 7.77424C20.4408 7.72015 20.3956 7.69996 20.3916 7.74719Z" fill="#A3A3A3"/>
<path fill-rule="evenodd" clip-rule="evenodd" d="M20.2931 7.71506C20.2695 7.73868 20.2557 7.78934 20.2557 7.82807C20.2557 7.86693 20.2714 7.83823 20.2754 7.81626C20.2794 7.7943 20.2871 7.76395 20.307 7.75379C20.3266 7.74363 20.3168 7.69144 20.2931 7.71506Z" fill="#A3A3A3"/>
<path fill-rule="evenodd" clip-rule="evenodd" d="M21.9985 7.7644C22.0193 7.79856 22.0498 7.85393 22.0596 7.88593C22.0695 7.91805 22.0458 7.92643 22.038 7.89774C22.03 7.86904 21.9926 7.80491 21.9788 7.78294C21.9651 7.7611 21.9748 7.72555 21.9985 7.7644Z" fill="#A3A3A3"/>
<path d="M16 9.33333C16 9.33333 18.2679 10.0071 18.6507 10.0071C18.7583 10.0071 20.2273 9.67023 20.6677 9.67023C20.8324 9.67023 22.353 9.90101 22.75 10.0071C23.1471 10.1132 25.3354 9.33333 25.3354 9.33333" stroke="white" stroke-width="0.666667" stroke-linecap="round" stroke-linejoin="round"/>
<path d="M16 10.6663C16 10.6663 18.2679 11.3401 18.6507 11.3401C18.7583 11.3401 20.2273 11.0032 20.6677 11.0032C20.8324 11.0032 22.353 11.234 22.75 11.3401C23.1471 11.4463 25.3354 10.6663 25.3354 10.6663" stroke="white" stroke-width="0.666667" stroke-linecap="round" stroke-linejoin="round"/>
<path d="M16 13.3333C16 13.3333 18.2679 14.0071 18.6507 14.0071C18.7583 14.0071 19.634 13.4619 20.6677 13.4619C21.7014 13.4619 22.353 13.901 22.75 14.0071C23.1471 14.1132 25.3354 13.3333 25.3354 13.3333L32.5128 14.4813" stroke="white" stroke-width="1.33333" stroke-linecap="round" stroke-linejoin="round"/>
</g>
<path d="M17.6667 9.99967V9.94826V9.89657V9.84461V9.7924V9.73994V9.68725V9.63435V9.58124V9.52794V9.47446V9.42081V9.36701V9.31307V9.28605V9.27929V9.27252V9.25899V9.2048V9.15051V9.09612V9.04165V8.98711V8.93252V8.87789V8.82322V8.76854V8.7412V8.73436V8.72753V8.72069V8.71386V8.70702V8.70018V8.69335V8.68651V8.67968V8.67284V8.66601V8.65918V8.65234V8.64551V8.63868V8.63184V8.62501V8.61818V8.61135V8.60452V8.59769V8.59086V8.58403V8.5772V8.57037V8.56354V8.55672V8.54989V8.54307V8.53624V8.52942V8.52259V8.51577V8.50895V8.50213V8.49531V8.48849V8.48167V8.47485V8.46804V8.46122V8.45441V8.4476V8.44078V8.43397V8.42716V8.42035V8.41355V8.40674V8.39994V8.39313V8.38633V8.37953V8.37273V8.36593V8.35913V8.35234V8.34554V8.33875V8.33196V8.32517V8.31838V8.31159V8.30481V8.29802V8.29124V8.28446V8.27768V8.2709V8.26413V8.25735V8.25058V8.24381V8.23704V8.23027V8.22351V8.21675V8.20998V8.20323V8.19647V8.18971V8.18296V8.17621V8.16946V8.16271V8.15597V8.14922V8.14248V8.13574V8.12901V8.12227V8.11554V8.10881V8.10208V8.09536V8.08863V8.08191V8.07519V8.06848V8.06177V8.05505V8.04835V8.04164V8.03494V8.02824V8.02154V8.01484V8.00815V8.00146V7.99477V7.98809V7.9814V7.97472V7.96805V7.96137V7.9547V7.94803V7.94137V7.93471V7.92805V7.92139V7.91474V7.90808V7.90144V7.89479V7.88815V7.87488V7.84837V7.7955V7.74286V7.69045V7.63828V7.58637V7.53473V7.48337V7.43231V7.38155V7.33111V7.281V7.23124V7.18184V7.1328V7.08414V7.03588V6.9406V6.84704V6.7553V6.66549C17.6667 6.11348 18.1141 5.66634 18.6667 5.66634H22.6667C23.2192 5.66634 23.6667 6.11349 23.6667 6.66549V6.67105V6.67661V6.68218V6.68776V6.69335V6.69894V6.70454V6.71015V6.71577V6.72139V6.72703V6.73267V6.73831V6.74397V6.74963V6.7553V6.76098V6.76667V6.77236V6.77806V6.78377V6.78948V6.79521V6.80094V6.80667V6.81242V6.81817V6.82393V6.82969V6.83547V6.84125V6.84704V6.85283V6.85863V6.86444V6.87026V6.87608V6.88191V6.88775V6.8936V6.89945V6.9053V6.91117V6.91704V6.92292V6.92881V6.9347V6.9406V6.9465V6.95242V6.95834V6.96426V6.97019V6.97613V6.98208V6.98803V6.99399V6.99996V7.00593V7.01191V7.01789V7.02388V7.02988V7.03589V7.0419V7.04791V7.05394V7.05997V7.066V7.07204V7.07809V7.08415V7.09021V7.09627V7.10235V7.10842V7.11451V7.1206V7.1267V7.1328V7.13891V7.14502V7.15114V7.15727V7.1634V7.16954V7.17569V7.18184V7.18799V7.19415V7.20032V7.20649V7.21267V7.21886V7.22505V7.23124V7.23744V7.24365V7.24986V7.25608V7.2623V7.26853V7.27476V7.281V7.28725V7.2935V7.29975V7.30601V7.31228V7.31855V7.32483V7.33111V7.3374V7.34369V7.34999V7.35629V7.3626V7.36891V7.37523V7.38155V7.38788V7.39421V7.40055V7.40689V7.41324V7.41959V7.42594V7.43231V7.43867V7.44504V7.45142V7.4578V7.46419V7.47058V7.47697V7.48337V7.48977V7.49618V7.5026V7.50901V7.51544V7.52186V7.52829V7.53473V7.54117V7.54761V7.55406V7.56052V7.56697V7.57343V7.5799V7.58637V7.59284V7.59932V7.60581V7.61229V7.61878V7.62528V7.63178V7.63828V7.64479V7.6513V7.65781V7.66433V7.67086V7.67738V7.68391V7.69045V7.69699V7.70353V7.71007V7.71662V7.72318V7.72973V7.7363V7.74286V7.74943V7.756V7.76257V7.76915V7.77574V7.78232V7.78891V7.7955V7.8021V7.8087V7.8153V7.82191V7.82852V7.83513V7.84175V7.84837V7.85499V7.86162V7.86824V7.87488V7.88151V7.88815V7.89479V7.90144V7.90809V7.91474V7.92139V7.92805V7.93471V7.94137V7.94803V7.9547V7.96137V7.96805V7.97472V7.9814V7.98809V7.99477V8.00146V8.00815V8.01484V8.02154V8.02824V8.03494V8.04164V8.04835V8.05506V8.06177V8.06848V8.0752V8.08191V8.08863V8.09536V8.10208V8.10881V8.11554V8.12227V8.12901V8.13574V8.14248V8.14922V8.15597V8.16271V8.16946V8.17621V8.18296V8.18971V8.19647V8.20323V8.20999V8.21675V8.22351V8.23027V8.23704V8.24381V8.25058V8.25735V8.26413V8.2709V8.27768V8.28446V8.29124V8.29802V8.30481V8.31159V8.31838V8.32517V8.33196V8.33875V8.34554V8.35234V8.35913V8.36593V8.37273V8.37953V8.38633V8.39313V8.39994V8.40674V8.41355V8.42036V8.42716V8.43397V8.44078V8.4476V8.45441V8.46122V8.46804V8.47485V8.48167V8.48849V8.49531V8.50213V8.50895V8.51577V8.52259V8.52942V8.53624V8.54307V8.54989V8.55672V8.56354V8.57037V8.5772V8.58403V8.59086V8.59769V8.60452V8.61135V8.61818V8.62501V8.63184V8.63868V8.64551V8.65234V8.65918V8.66601V8.67284V8.67968V8.68651V8.69335V8.70018V8.70702V8.71386V8.72069V8.72753V8.73436V8.7412V8.74803V8.75487V8.76171V8.76854V8.77538V8.78221V8.78905V8.79588V8.80272V8.80955V8.81639V8.82322V8.83006V8.83689V8.84372V8.85056V8.85739V8.86422V8.87106V8.87789V8.88472V8.89155V8.89838V8.90521V8.91204V8.91887V8.92569V8.93252V8.93935V8.94617V8.953V8.95982V8.96665V8.97347V8.98029V8.98711V8.99393V9.00075V9.00757V9.01439V9.0212V9.02802V9.03483V9.04165V9.04846V9.05527V9.06208V9.06889V9.0757V9.08251V9.08931V9.09612V9.10292V9.10972V9.11652V9.12332V9.13012V9.13692V9.14371V9.15051V9.1573V9.16409V9.17088V9.17767V9.18445V9.19124V9.19802V9.2048V9.21158V9.21836V9.22514V9.23191V9.23868V9.24546V9.25223V9.25899V9.26576V9.27252V9.27929V9.28605V9.2928V9.29956V9.30632V9.31307V9.31982V9.32657V9.33331V9.34006V9.3468V9.35354V9.36028V9.36701V9.37375V9.38048V9.38721V9.39393V9.40066V9.40738V9.4141V9.42081V9.42753V9.43424V9.44095V9.44766V9.45436V9.46106V9.46776V9.47446V9.48116V9.48785V9.49454V9.50122V9.50791V9.51459V9.52127V9.52794V9.53461V9.54128V9.54795V9.55461V9.56128V9.56793V9.57459V9.58124V9.58789V9.59454V9.60118V9.60782V9.61446V9.62109V9.62772V9.63435V9.64097V9.64759V9.65421V9.66083V9.66744V9.67405V9.68065V9.68725V9.69385V9.70045V9.70704V9.71362V9.72021V9.72679V9.73337V9.73994V9.74651V9.75307V9.75964V9.7662V9.77275V9.7793V9.78585V9.7924V9.79894V9.80547V9.812V9.81853V9.82506V9.83158V9.8381V9.84461V9.85112V9.85762V9.86412V9.87062V9.87711V9.8836V9.89009V9.89657V9.90305V9.90952V9.91599V9.92245V9.92891V9.93536V9.94181V9.94826V9.9547V9.96114V9.96757V9.974V9.98043V9.98685V9.99326V9.99967C23.6667 11.5423 22.8989 12.6256 22.1104 13.3352C21.7158 13.6903 21.3202 13.9476 21.0232 14.1159C20.875 14.1999 20.7523 14.2612 20.6678 14.301C20.6674 14.3012 20.667 14.3014 20.6667 14.3015C20.6663 14.3014 20.666 14.3012 20.6656 14.301C20.5811 14.2612 20.4584 14.1999 20.3102 14.1159C20.0131 13.9476 19.6175 13.6903 19.223 13.3352C18.4345 12.6256 17.6667 11.5423 17.6667 9.99967Z" stroke="white" stroke-width="0.666667"/>
<mask id="mask2_14715_6823" style="mask-type:luminance" maskUnits="userSpaceOnUse" x="17" y="5" width="7" height="10">
<path d="M17.6667 9.99967V9.94826V9.89657V9.84461V9.7924V9.73994V9.68725V9.63435V9.58124V9.52794V9.47446V9.42081V9.36701V9.31307V9.28605V9.27929V9.27252V9.25899V9.2048V9.15051V9.09612V9.04165V8.98711V8.93252V8.87789V8.82322V8.76854V8.7412V8.73436V8.72753V8.72069V8.71386V8.70702V8.70018V8.69335V8.68651V8.67968V8.67284V8.66601V8.65918V8.65234V8.64551V8.63868V8.63184V8.62501V8.61818V8.61135V8.60452V8.59769V8.59086V8.58403V8.5772V8.57037V8.56354V8.55672V8.54989V8.54307V8.53624V8.52942V8.52259V8.51577V8.50895V8.50213V8.49531V8.48849V8.48167V8.47485V8.46804V8.46122V8.45441V8.4476V8.44078V8.43397V8.42716V8.42035V8.41355V8.40674V8.39994V8.39313V8.38633V8.37953V8.37273V8.36593V8.35913V8.35234V8.34554V8.33875V8.33196V8.32517V8.31838V8.31159V8.30481V8.29802V8.29124V8.28446V8.27768V8.2709V8.26413V8.25735V8.25058V8.24381V8.23704V8.23027V8.22351V8.21675V8.20998V8.20323V8.19647V8.18971V8.18296V8.17621V8.16946V8.16271V8.15597V8.14922V8.14248V8.13574V8.12901V8.12227V8.11554V8.10881V8.10208V8.09536V8.08863V8.08191V8.07519V8.06848V8.06177V8.05505V8.04835V8.04164V8.03494V8.02824V8.02154V8.01484V8.00815V8.00146V7.99477V7.98809V7.9814V7.97472V7.96805V7.96137V7.9547V7.94803V7.94137V7.93471V7.92805V7.92139V7.91474V7.90808V7.90144V7.89479V7.88815V7.87488V7.84837V7.7955V7.74286V7.69045V7.63828V7.58637V7.53473V7.48337V7.43231V7.38155V7.33111V7.281V7.23124V7.18184V7.1328V7.08414V7.03588V6.9406V6.84704V6.7553V6.66549C17.6667 6.11348 18.1141 5.66634 18.6667 5.66634H22.6667C23.2192 5.66634 23.6667 6.11349 23.6667 6.66549V6.67105V6.67661V6.68218V6.68776V6.69335V6.69894V6.70454V6.71015V6.71577V6.72139V6.72703V6.73267V6.73831V6.74397V6.74963V6.7553V6.76098V6.76667V6.77236V6.77806V6.78377V6.78948V6.79521V6.80094V6.80667V6.81242V6.81817V6.82393V6.82969V6.83547V6.84125V6.84704V6.85283V6.85863V6.86444V6.87026V6.87608V6.88191V6.88775V6.8936V6.89945V6.9053V6.91117V6.91704V6.92292V6.92881V6.9347V6.9406V6.9465V6.95242V6.95834V6.96426V6.97019V6.97613V6.98208V6.98803V6.99399V6.99996V7.00593V7.01191V7.01789V7.02388V7.02988V7.03589V7.0419V7.04791V7.05394V7.05997V7.066V7.07204V7.07809V7.08415V7.09021V7.09627V7.10235V7.10842V7.11451V7.1206V7.1267V7.1328V7.13891V7.14502V7.15114V7.15727V7.1634V7.16954V7.17569V7.18184V7.18799V7.19415V7.20032V7.20649V7.21267V7.21886V7.22505V7.23124V7.23744V7.24365V7.24986V7.25608V7.2623V7.26853V7.27476V7.281V7.28725V7.2935V7.29975V7.30601V7.31228V7.31855V7.32483V7.33111V7.3374V7.34369V7.34999V7.35629V7.3626V7.36891V7.37523V7.38155V7.38788V7.39421V7.40055V7.40689V7.41324V7.41959V7.42594V7.43231V7.43867V7.44504V7.45142V7.4578V7.46419V7.47058V7.47697V7.48337V7.48977V7.49618V7.5026V7.50901V7.51544V7.52186V7.52829V7.53473V7.54117V7.54761V7.55406V7.56052V7.56697V7.57343V7.5799V7.58637V7.59284V7.59932V7.60581V7.61229V7.61878V7.62528V7.63178V7.63828V7.64479V7.6513V7.65781V7.66433V7.67086V7.67738V7.68391V7.69045V7.69699V7.70353V7.71007V7.71662V7.72318V7.72973V7.7363V7.74286V7.74943V7.756V7.76257V7.76915V7.77574V7.78232V7.78891V7.7955V7.8021V7.8087V7.8153V7.82191V7.82852V7.83513V7.84175V7.84837V7.85499V7.86162V7.86824V7.87488V7.88151V7.88815V7.89479V7.90144V7.90809V7.91474V7.92139V7.92805V7.93471V7.94137V7.94803V7.9547V7.96137V7.96805V7.97472V7.9814V7.98809V7.99477V8.00146V8.00815V8.01484V8.02154V8.02824V8.03494V8.04164V8.04835V8.05506V8.06177V8.06848V8.0752V8.08191V8.08863V8.09536V8.10208V8.10881V8.11554V8.12227V8.12901V8.13574V8.14248V8.14922V8.15597V8.16271V8.16946V8.17621V8.18296V8.18971V8.19647V8.20323V8.20999V8.21675V8.22351V8.23027V8.23704V8.24381V8.25058V8.25735V8.26413V8.2709V8.27768V8.28446V8.29124V8.29802V8.30481V8.31159V8.31838V8.32517V8.33196V8.33875V8.34554V8.35234V8.35913V8.36593V8.37273V8.37953V8.38633V8.39313V8.39994V8.40674V8.41355V8.42036V8.42716V8.43397V8.44078V8.4476V8.45441V8.46122V8.46804V8.47485V8.48167V8.48849V8.49531V8.50213V8.50895V8.51577V8.52259V8.52942V8.53624V8.54307V8.54989V8.55672V8.56354V8.57037V8.5772V8.58403V8.59086V8.59769V8.60452V8.61135V8.61818V8.62501V8.63184V8.63868V8.64551V8.65234V8.65918V8.66601V8.67284V8.67968V8.68651V8.69335V8.70018V8.70702V8.71386V8.72069V8.72753V8.73436V8.7412V8.74803V8.75487V8.76171V8.76854V8.77538V8.78221V8.78905V8.79588V8.80272V8.80955V8.81639V8.82322V8.83006V8.83689V8.84372V8.85056V8.85739V8.86422V8.87106V8.87789V8.88472V8.89155V8.89838V8.90521V8.91204V8.91887V8.92569V8.93252V8.93935V8.94617V8.953V8.95982V8.96665V8.97347V8.98029V8.98711V8.99393V9.00075V9.00757V9.01439V9.0212V9.02802V9.03483V9.04165V9.04846V9.05527V9.06208V9.06889V9.0757V9.08251V9.08931V9.09612V9.10292V9.10972V9.11652V9.12332V9.13012V9.13692V9.14371V9.15051V9.1573V9.16409V9.17088V9.17767V9.18445V9.19124V9.19802V9.2048V9.21158V9.21836V9.22514V9.23191V9.23868V9.24546V9.25223V9.25899V9.26576V9.27252V9.27929V9.28605V9.2928V9.29956V9.30632V9.31307V9.31982V9.32657V9.33331V9.34006V9.3468V9.35354V9.36028V9.36701V9.37375V9.38048V9.38721V9.39393V9.40066V9.40738V9.4141V9.42081V9.42753V9.43424V9.44095V9.44766V9.45436V9.46106V9.46776V9.47446V9.48116V9.48785V9.49454V9.50122V9.50791V9.51459V9.52127V9.52794V9.53461V9.54128V9.54795V9.55461V9.56128V9.56793V9.57459V9.58124V9.58789V9.59454V9.60118V9.60782V9.61446V9.62109V9.62772V9.63435V9.64097V9.64759V9.65421V9.66083V9.66744V9.67405V9.68065V9.68725V9.69385V9.70045V9.70704V9.71362V9.72021V9.72679V9.73337V9.73994V9.74651V9.75307V9.75964V9.7662V9.77275V9.7793V9.78585V9.7924V9.79894V9.80547V9.812V9.81853V9.82506V9.83158V9.8381V9.84461V9.85112V9.85762V9.86412V9.87062V9.87711V9.8836V9.89009V9.89657V9.90305V9.90952V9.91599V9.92245V9.92891V9.93536V9.94181V9.94826V9.9547V9.96114V9.96757V9.974V9.98043V9.98685V9.99326V9.99967C23.6667 11.5423 22.8989 12.6256 22.1104 13.3352C21.7158 13.6903 21.3202 13.9476 21.0232 14.1159C20.875 14.1999 20.7523 14.2612 20.6678 14.301C20.6674 14.3012 20.667 14.3014 20.6667 14.3015C20.6663 14.3014 20.666 14.3012 20.6656 14.301C20.5811 14.2612 20.4584 14.1999 20.3102 14.1159C20.0131 13.9476 19.6175 13.6903 19.223 13.3352C18.4345 12.6256 17.6667 11.5423 17.6667 9.99967Z" fill="white" stroke="white" stroke-width="0.666667"/>
</mask>
<g mask="url(#mask2_14715_6823)">
</g>
<path d="M0 -0.333333H-0.901086L-0.21693 0.253086L4.33333 4.15331V5.16179L-0.193746 8.39542L-0.333333 8.49513V8.66667V9.33333V9.93475L0.176666 9.616L5.42893 6.33333H6.55984L11.0821 9.56351C11.176 9.6306 11.2886 9.66667 11.404 9.66667C11.9182 9.66667 12.1548 9.02698 11.7644 8.69237L7.66667 5.18002V4.17154L12.0542 1.03762C12.2294 0.912475 12.3333 0.710428 12.3333 0.495127V0V-0.601416L11.8233 -0.282666L6.57107 3H5.44016L0.860413 -0.271244L0.773488 -0.333333H0.666667H0Z" fill="#DB1E36" stroke="white" stroke-width="0.666667"/>
<path fill-rule="evenodd" clip-rule="evenodd" d="M0 3.33333V6H4.66667V9.33333C4.66667 9.70152 4.96514 10 5.33333 10H6.66667C7.03486 10 7.33333 9.70152 7.33333 9.33333V6H12C12.3682 6 12.6667 5.70152 12.6667 5.33333V4C12.6667 3.63181 12.3682 3.33333 12 3.33333H7.33333V0H4.66667V3.33333H0Z" fill="white"/>
<path fill-rule="evenodd" clip-rule="evenodd" d="M0 4H5.33333V3.33333V0H6.66667V3.33333V4H12V5.33333H6.66667V6V9.33333H5.33333V6V5.33333H0V4Z" fill="#DB1E36"/>
</g>
</svg>
