<svg width="28" height="20" viewBox="0 0 28 20" fill="none" xmlns="http://www.w3.org/2000/svg">
<rect width="28" height="20" rx="2" fill="white"/>
<mask id="mask0_14715_5612" style="mask-type:luminance" maskUnits="userSpaceOnUse" x="0" y="0" width="28" height="20">
<rect width="28" height="20" rx="2" fill="white"/>
</mask>
<g mask="url(#mask0_14715_5612)">
<path fill-rule="evenodd" clip-rule="evenodd" d="M0 20H28V0H0V20Z" fill="#F0371D"/>
<path fill-rule="evenodd" clip-rule="evenodd" d="M13.984 8.14565C14.9468 7.33977 15.0054 7.15955 15.2361 6.44955C15.3131 6.21257 15.2588 6.01792 15.1946 5.78806C15.1021 5.4566 14.9892 5.05191 15.2201 4.34143C14.1696 4.00009 12.949 4.85886 12.4939 6.25954C12.0388 7.66022 12.5215 9.0724 13.572 9.41373C13.76 9.47483 13.7389 9.43065 13.6819 9.31102C13.5817 9.10113 13.3707 8.65896 13.984 8.14565ZM11.9901 9.61755C11.5212 8.45282 11.3679 8.34144 10.7639 7.90263C10.5623 7.75617 10.3604 7.74767 10.122 7.73764C9.77819 7.72318 9.35841 7.70551 8.75404 7.26641C8.10479 8.16002 8.54436 9.5862 9.73584 10.4519C10.9273 11.3175 12.4195 11.2949 13.0688 10.4013C13.185 10.2413 13.1365 10.2477 13.0051 10.265C12.7745 10.2954 12.2888 10.3594 11.9901 9.61755ZM18 10.2538C17.2535 10.2538 17.064 10.2538 16 9.58711C15.3223 9.16247 14.967 9.49977 14.7983 9.65988C14.7022 9.75114 14.6667 9.78485 14.6667 9.58711C14.6667 8.48254 15.8606 7.58711 17.3333 7.58711C18.8061 7.58711 20 8.48254 20 9.58711C19.2529 9.58711 18.903 9.81956 18.6163 10.0099C18.4175 10.142 18.2492 10.2538 18 10.2538ZM18 8.99994C18 9.18403 17.8508 9.33327 17.6667 9.33327C17.4826 9.33327 17.3333 9.18403 17.3333 8.99994C17.3333 8.81584 17.4826 8.6666 17.6667 8.6666C17.8508 8.6666 18 8.81584 18 8.99994ZM15.2521 11.9499C14.9468 13.1678 15.0054 13.348 15.2361 14.058C15.3131 14.295 15.4714 14.4205 15.6584 14.5688C15.9281 14.7826 16.2573 15.0436 16.4881 15.7541C17.5386 15.4128 18.0213 14.0006 17.5662 12.5999C17.1111 11.1992 15.8906 10.3405 14.84 10.6818C14.652 10.7429 14.695 10.7663 14.8115 10.8295C15.0159 10.9404 15.4465 11.1741 15.2521 11.9499ZM16.4285 13.6705C16.2535 13.7274 16.0654 13.6316 16.0085 13.4565C15.9516 13.2814 16.0474 13.0934 16.2225 13.0365C16.3976 12.9796 16.5857 13.0754 16.6425 13.2505C16.6994 13.4256 16.6036 13.6137 16.4285 13.6705ZM12.7738 11.9687C11.5212 12.0547 11.3679 12.1661 10.7639 12.6049C10.5623 12.7514 10.4919 12.9408 10.4086 13.1644C10.2886 13.487 10.1421 13.8807 9.53775 14.3198C10.187 15.2134 11.6792 15.2361 12.8707 14.3704C14.0622 13.5048 14.5018 12.0786 13.8525 11.185C13.7363 11.025 13.7274 11.0731 13.7032 11.2035C13.6609 11.4322 13.5717 11.9139 12.7738 11.9687ZM11.5009 13.6193C11.3927 13.4704 11.4257 13.2619 11.5747 13.1537C11.7236 13.0455 11.9321 13.0785 12.0403 13.2274C12.1485 13.3764 12.1155 13.5848 11.9665 13.693C11.8176 13.8012 11.6091 13.7682 11.5009 13.6193ZM10.0269 8.91701C10.1351 8.76808 10.3436 8.73506 10.4925 8.84327C10.6415 8.95148 10.6745 9.15993 10.5663 9.30887C10.4581 9.45781 10.2496 9.49082 10.1007 9.38261C9.95175 9.27441 9.91873 9.06595 10.0269 8.91701ZM14.0436 6.06209C14.2187 6.11898 14.3145 6.30703 14.2576 6.48212C14.2007 6.6572 14.0127 6.75302 13.8376 6.69613C13.6625 6.63924 13.5667 6.45119 13.6236 6.2761C13.6805 6.10102 13.8685 6.0052 14.0436 6.06209Z" fill="white"/>
</g>
</svg>
