<svg width="28" height="20" viewBox="0 0 28 20" fill="none" xmlns="http://www.w3.org/2000/svg">
<rect width="28" height="20" rx="2" fill="#D01129"/>
<mask id="mask0_14715_6859" style="mask-type:luminance" maskUnits="userSpaceOnUse" x="0" y="0" width="28" height="20">
<rect width="28" height="20" rx="2" fill="white"/>
</mask>
<g mask="url(#mask0_14715_6859)">
<path fill-rule="evenodd" clip-rule="evenodd" d="M13.8881 10.0412C14.5491 10.0412 15.0849 9.47866 15.0849 8.78483C15.0849 8.09089 14.5491 7.52832 13.8881 7.52832C13.2272 7.52832 12.6915 8.09089 12.6915 8.78483C12.6915 9.47866 13.2272 10.0412 13.8881 10.0412Z" fill="#FFF101"/>
<path fill-rule="evenodd" clip-rule="evenodd" d="M12.7973 8.27913C13.1362 8.16561 13.5759 8.29772 13.8652 8.58922C14.1723 8.5305 14.4802 8.12561 14.5756 7.76512C14.4708 6.5672 13.7244 5.65968 13.4975 5.03693C13.4257 4.84011 13.093 4.53063 12.747 4.67472C12.4625 4.79326 12.3186 4.70102 11.363 5.20145C10.8463 5.47203 10.4114 5.74995 10.1822 5.79839C9.95294 5.84683 9.71108 5.89001 9.5277 5.73919C9.27546 5.53173 8.99259 5.47436 8.82599 5.31803C8.62187 5.12647 8.49092 4.98188 8.35286 4.92329C8.2148 4.86457 7.9811 4.99497 8.07977 5.30531C8.30242 6.00622 8.82727 6.11974 9.05259 6.77491C9.15896 7.08463 9.31018 7.31742 9.64816 7.08268C9.98614 6.84794 10.4638 6.53613 11.2782 6.50335C11.8251 6.48121 12.3902 6.27008 12.6499 5.92365C12.6473 6.22335 12.748 6.46898 12.7214 6.85882C12.695 7.24879 12.6992 7.73381 12.7973 8.27913Z" fill="white"/>
<path fill-rule="evenodd" clip-rule="evenodd" d="M13.4379 8.31265C13.3375 7.72293 13.5196 7.63791 13.3022 6.94666C13.1715 6.531 13.0879 6.01002 13.0859 5.76758L12.9985 5.79424C13.0006 6.03669 13.0842 6.55779 13.2148 6.97345C13.4251 7.64183 13.2617 7.74336 13.3416 8.28269C13.3663 8.28795 13.4181 8.30532 13.4379 8.31265Z" fill="#FFF101"/>
<path fill-rule="evenodd" clip-rule="evenodd" d="M12.9234 8.2475C12.9241 8.17251 12.9196 8.09423 12.9085 8.02695C13.0622 7.98817 13.3254 8.13728 13.318 8.02646C13.3158 7.99135 13.3192 7.87783 13.3213 7.81765C13.3179 7.91172 12.952 7.75294 12.889 7.79392C12.8213 7.4508 12.9052 7.09777 12.8514 6.88236C12.9737 6.84725 13.1983 6.92383 13.1708 6.82328C13.1552 6.77178 13.1253 6.64371 13.1057 6.56358C13.1249 6.6475 12.9465 6.57802 12.8862 6.62597C12.8548 6.43991 12.809 6.08689 12.81 5.92554L12.6499 5.92383C12.6473 6.22352 12.748 6.46915 12.7214 6.859C12.695 7.24897 12.6992 7.73398 12.7973 8.2793C12.8323 8.26854 12.8901 8.25471 12.9234 8.2475Z" fill="#FFF101"/>
<path fill-rule="evenodd" clip-rule="evenodd" d="M12.5192 5.50845C12.2806 5.87016 11.7106 6.11983 11.1837 6.17499C10.5669 6.23958 10.1529 6.45512 9.84797 6.66613C9.82176 6.61659 9.77445 6.58992 9.73263 6.55726C9.28653 6.21035 9.46991 5.74025 9.63884 5.80741C9.57511 5.78148 9.53807 5.74649 9.50323 5.72019C9.44428 5.67432 9.27418 5.8501 9.2955 6.12925C9.30459 6.24814 9.40152 6.42356 9.4804 6.51652C9.3364 6.489 9.26743 6.45035 9.18284 6.34307C9.23038 6.312 9.29189 6.29438 9.34152 6.29035C9.32463 6.24778 9.3011 6.20056 9.2955 6.12925C9.22502 6.12863 9.13904 6.15444 9.06529 6.20704C8.88832 6.02197 8.70611 5.87432 8.60044 5.65585C8.43139 5.30588 8.60335 5.08496 8.82599 5.3186C8.62187 5.12704 8.49092 4.98246 8.35286 4.92386C8.2148 4.86515 7.9811 4.99555 8.07977 5.30588C8.30242 6.0068 8.82727 6.12032 9.05259 6.77548C9.15896 7.08521 9.31577 7.32655 9.64816 7.08325C9.69197 7.0512 9.70362 7.04362 9.74172 7.01524C9.84715 6.95126 10.0142 7.05866 9.9964 7.29218C10.0818 7.07775 10.0273 7.01206 9.9548 6.8835C9.90121 6.91347 9.90552 6.73793 9.87244 6.71481C10.0621 6.59102 10.2928 6.46686 10.5838 6.37842C10.5945 6.48325 10.622 6.59457 10.7139 6.57842C10.7632 6.56692 10.8132 6.55652 10.8658 6.54735C10.7738 6.5635 10.748 6.44166 10.7374 6.33695C10.8753 6.30368 11.0261 6.27848 11.1913 6.26429C11.3816 6.2479 11.5784 6.20729 11.7632 6.14429C11.7907 6.24484 11.8475 6.41426 11.9423 6.38099C12.0263 6.35273 12.1079 6.32081 12.1846 6.28374C12.0528 6.34967 12.001 6.16142 11.9693 6.06184C12.2101 5.95188 12.4153 5.80191 12.5379 5.62295L12.5192 5.50845Z" fill="#FFF101"/>
<path fill-rule="evenodd" clip-rule="evenodd" d="M13.5731 5.68771C13.6894 5.59304 13.7892 5.54826 13.6889 5.34778C13.5249 5.01995 13.6268 5.01882 13.2676 4.81026C12.9018 4.59815 12.948 4.58151 12.464 4.76072C12.3449 4.80475 12.3715 4.84977 12.3923 5.03105C12.4372 5.42176 12.5224 5.73639 12.6004 6.05786C12.9047 6.01614 13.3728 5.85102 13.5731 5.68771Z" fill="#FFF101"/>
<path fill-rule="evenodd" clip-rule="evenodd" d="M12.4375 5.59881C12.3737 5.407 12.3908 5.43306 12.6222 5.49153C12.6979 5.23869 12.8025 5.02528 12.8611 4.82063C12.9266 4.59152 12.9471 4.5503 13.0435 4.60644C13.1667 4.67813 13.3021 4.75384 13.3903 4.79935C13.5443 4.87861 13.5216 4.90638 13.4481 5.03238C13.3746 5.15837 13.1341 5.41373 12.9858 5.68015C13.1814 5.82474 13.2442 5.83783 13.1052 5.90009C12.9497 5.9697 12.6913 6.05593 12.5825 6.07636C12.5626 5.95049 12.4982 5.78071 12.4375 5.59881Z" fill="#FFF101"/>
<path fill-rule="evenodd" clip-rule="evenodd" d="M10.1409 7.40238L10.1255 7.59969L9.98695 7.46758L9.832 7.57804L9.84225 7.3811L9.66388 7.32446L9.81627 7.20972L9.74904 7.02673L9.92788 7.08153L10.0224 6.91211L10.0941 7.09303L10.2787 7.06379L10.1883 7.23639L10.3243 7.36972L10.1409 7.40238Z" fill="#FFF101"/>
<path fill-rule="evenodd" clip-rule="evenodd" d="M14.017 10.0292C13.7538 9.77774 13.6429 9.31193 13.7388 8.90312C13.5368 8.65334 13.0488 8.57566 12.7038 8.66912C11.7681 9.36355 11.3927 10.4959 10.9925 11.0137C10.866 11.1774 10.7771 11.6345 11.0691 11.8772C11.3091 12.0766 11.305 12.2535 12.1954 12.8722C12.677 13.2067 13.1236 13.4632 13.2782 13.6475C13.433 13.8317 13.5894 14.0301 13.5567 14.2722C13.5117 14.6053 13.6057 14.8913 13.5602 15.1207C13.5041 15.4021 13.4504 15.5935 13.4711 15.7484C13.4918 15.9032 13.7161 16.0505 13.9227 15.8056C14.3895 15.2527 14.2208 14.7188 14.6486 14.1863C14.8507 13.9347 14.9672 13.6807 14.6047 13.4908C14.242 13.3009 13.746 13.0224 13.3117 12.2985C13.0201 11.8122 12.5634 11.4038 12.1477 11.3409C12.3962 11.1935 12.5486 10.9791 12.8834 10.8082C13.2182 10.6373 13.6162 10.3912 14.017 10.0292Z" fill="white"/>
<path fill-rule="evenodd" clip-rule="evenodd" d="M13.7236 9.43066C13.2875 9.81684 13.1263 9.69366 12.6648 10.237C12.3874 10.5638 11.9995 10.9003 11.8005 11.0233L11.8662 11.0894C12.0652 10.9663 12.4531 10.6298 12.7307 10.3031C13.1769 9.7777 13.3423 9.87556 13.7473 9.53317C13.7392 9.50822 13.7275 9.45232 13.7236 9.43066Z" fill="#FFF101"/>
<path fill-rule="evenodd" clip-rule="evenodd" d="M13.9275 9.93011C13.8654 9.96693 13.8031 10.0102 13.7531 10.0539C13.6443 9.93354 13.6357 9.61965 13.5481 9.68192C13.5201 9.70124 13.4248 9.75507 13.374 9.7832C13.4535 9.73929 13.5053 10.1514 13.5707 10.1882C13.3215 10.4214 12.9884 10.5215 12.8376 10.6781C12.7476 10.5844 12.6984 10.3421 12.6292 10.4173C12.5946 10.4572 12.5038 10.5483 12.4476 10.6063C12.5072 10.5469 12.539 10.7438 12.6087 10.7746C12.471 10.8962 12.2027 11.1143 12.069 11.1942L12.1477 11.3406C12.3962 11.1932 12.5486 10.9788 12.8834 10.8079C13.2182 10.637 13.6162 10.3909 14.017 10.0289C13.9905 10.0024 13.9501 9.95678 13.9275 9.93011Z" fill="#FFF101"/>
<path fill-rule="evenodd" clip-rule="evenodd" d="M11.8701 11.6673C12.2878 11.7034 12.7786 12.0968 13.0876 12.5484C13.4492 13.077 13.8342 13.3456 14.1606 13.5173C14.1329 13.566 14.1345 13.6223 14.1286 13.6767C14.0654 14.2558 13.586 14.324 13.5569 14.1369C13.5674 14.2078 13.557 14.259 13.5528 14.3039C13.5444 14.3804 13.7745 14.4471 13.994 14.2882C14.0876 14.2204 14.1837 14.0447 14.2211 13.9265C14.2702 14.0711 14.2728 14.1532 14.2268 14.2837C14.1773 14.256 14.1321 14.2088 14.1039 14.1659C14.0772 14.2025 14.05 14.2475 13.994 14.2882C14.0287 14.3527 14.093 14.4179 14.1733 14.4586C14.1091 14.7121 14.0785 14.9516 13.951 15.1568C13.747 15.4855 13.4787 15.4396 13.5601 15.1204C13.5041 15.4017 13.4504 15.5932 13.471 15.748C13.4917 15.9029 13.716 16.0502 13.9227 15.8053C14.3894 15.2524 14.2207 14.7184 14.6485 14.1859C14.8507 13.9343 14.9715 13.6711 14.6046 13.4904C14.5561 13.4667 14.5441 13.4599 14.5017 13.4394C14.3962 13.3755 14.4013 13.1699 14.6027 13.0694C14.3832 13.099 14.3563 13.1814 14.2865 13.3116C14.3379 13.3452 14.191 13.4291 14.1884 13.4708C13.9916 13.3603 13.7739 13.2126 13.5554 12.9921C13.6366 12.93 13.7146 12.8493 13.6552 12.7738C13.6211 12.7348 13.5875 12.6944 13.5536 12.6513C13.613 12.7269 13.5255 12.8111 13.4443 12.8733C13.348 12.7645 13.2519 12.64 13.1575 12.4969C13.0488 12.3319 12.9169 12.1733 12.7726 12.0368C12.8418 11.9615 12.953 11.8252 12.8782 11.7556C12.813 11.6933 12.7458 11.635 12.6769 11.584C12.7971 11.6708 12.6677 11.8121 12.6015 11.8907C12.3903 11.7267 12.1641 11.6151 11.9552 11.5932L11.8701 11.6673Z" fill="#FFF101"/>
<path fill-rule="evenodd" clip-rule="evenodd" d="M11.3218 10.6976C11.1854 10.6393 11.2527 10.5604 11.1375 10.7519C10.9491 11.0649 10.9127 10.9928 10.9204 11.4238C10.9282 11.8623 11.0093 11.7923 11.3992 12.1429C11.699 11.9069 12.0568 11.5502 12.2829 11.3186C12.0964 11.0628 11.5565 10.7983 11.3218 10.6976Z" fill="#FFF101"/>
<path fill-rule="evenodd" clip-rule="evenodd" d="M11.9858 11.6966C11.8595 11.8506 11.8725 11.8221 11.805 11.5824C11.5586 11.6399 11.3685 11.7063 11.1706 11.7553C10.9488 11.8103 10.9046 11.8122 10.9026 11.6966C10.9002 11.5486 10.8951 11.3878 10.8884 11.2848C10.8769 11.1052 10.911 11.1118 11.0518 11.1157C11.1925 11.1195 11.4849 11.1558 11.7788 11.1574C11.8002 10.9073 11.7796 10.8437 11.9006 10.939C12.0356 11.0455 12.236 11.2374 12.3073 11.3261C12.2134 11.4071 12.1056 11.5506 11.9858 11.6966Z" fill="#FFF101"/>
<path fill-rule="evenodd" clip-rule="evenodd" d="M14.6219 12.883L14.7923 12.7982L14.7526 12.9902L14.9213 13.0759L14.7536 13.165L14.796 13.3555L14.6251 13.2743L14.5078 13.427L14.4636 13.2369L14.2766 13.2357L14.3901 13.0801L14.2736 12.9269L14.4613 12.9228L14.5033 12.7324L14.6219 12.883Z" fill="#FFF101"/>
<path fill-rule="evenodd" clip-rule="evenodd" d="M14.8502 8.04551C14.7745 8.4104 14.4456 8.74422 14.0605 8.86153C13.9555 9.17003 14.1353 9.65236 14.385 9.91963C15.4255 10.4231 16.5473 10.1983 17.1745 10.3032C17.3728 10.3364 17.7943 10.1886 17.8485 9.80196C17.893 9.48404 18.0408 9.39939 18.1059 8.28025C18.1411 7.67511 18.1294 7.14067 18.204 6.90801C18.2787 6.67535 18.3641 6.43376 18.5801 6.34251C18.8773 6.21688 19.0662 5.98826 19.2784 5.91499C19.5384 5.8252 19.7231 5.77835 19.8405 5.6822C19.9579 5.58606 19.9672 5.30838 19.662 5.24294C18.9725 5.09492 18.6165 5.51535 17.9633 5.39254C17.6547 5.33456 17.387 5.35548 17.4117 5.78031C17.4364 6.20502 17.4547 6.79523 17.0746 7.55205C16.8194 8.06043 16.7109 8.67988 16.8668 9.0893C16.621 8.937 16.3679 8.90569 16.0597 8.68673C15.7513 8.46765 15.3492 8.22899 14.8502 8.04551Z" fill="white"/>
<path fill-rule="evenodd" clip-rule="evenodd" d="M14.5028 8.61185C15.0394 8.81527 15.0185 9.02347 15.6973 9.17148C16.1056 9.26041 16.5771 9.44487 16.7781 9.56426L16.7997 9.47142C16.5987 9.35203 16.1271 9.16769 15.719 9.07863C15.0625 8.93552 15.0605 8.73613 14.5756 8.53906C14.5591 8.559 14.5188 8.59753 14.5028 8.61185Z" fill="#FFF101"/>
<path fill-rule="evenodd" clip-rule="evenodd" d="M14.8134 8.17654C14.8749 8.21458 14.9418 8.24957 15.0027 8.2733C14.958 8.43232 14.7033 8.59721 14.7985 8.64578C14.8284 8.66156 14.9203 8.72125 14.9689 8.7533C14.8931 8.70302 15.2069 8.44981 15.2047 8.37189C15.5217 8.48198 15.7708 8.73483 15.9754 8.79367C15.9432 8.92235 15.7678 9.08822 15.8645 9.11354C15.9147 9.12504 16.0353 9.16198 16.1112 9.18412C16.0324 9.15966 16.1789 9.0322 16.1695 8.95354C16.3387 9.01789 16.6526 9.15281 16.7853 9.2344L16.8668 9.08969C16.621 8.9374 16.3679 8.90608 16.0596 8.68712C15.7512 8.46804 15.3492 8.22938 14.8502 8.0459C14.8416 8.08308 14.8241 8.14266 14.8134 8.17654Z" fill="#FFF101"/>
<path fill-rule="evenodd" clip-rule="evenodd" d="M17.2751 9.17823C17.096 8.78043 17.1751 8.13737 17.3932 7.63058C17.6483 7.03743 17.6775 6.55315 17.6558 6.17052C17.7099 6.1715 17.7554 6.14177 17.8034 6.12C18.3125 5.88795 18.6086 6.28966 18.4686 6.40966C18.522 6.36465 18.5694 6.34862 18.6085 6.33003C18.6758 6.29921 18.6158 6.05676 18.375 5.93664C18.2723 5.88538 18.0793 5.88587 17.963 5.91095C18.0579 5.79388 18.1241 5.75058 18.2549 5.72722C18.2568 5.78606 18.2405 5.85077 18.2191 5.89786C18.2627 5.90373 18.3133 5.90593 18.375 5.93664C18.4107 5.87278 18.4324 5.78177 18.4259 5.68832C18.6671 5.62006 18.8799 5.5282 19.1129 5.54141C19.4861 5.56257 19.5824 5.82948 19.2785 5.91499C19.5384 5.8252 19.7232 5.77835 19.8405 5.6822C19.9579 5.58606 19.9673 5.30838 19.662 5.24294C18.9725 5.09492 18.6165 5.51535 17.9634 5.39254C17.6547 5.33456 17.3772 5.35633 17.4117 5.78031C17.4163 5.83621 17.4167 5.85052 17.421 5.89933C17.421 6.02728 17.249 6.12538 17.0653 5.99242C17.1994 6.17737 17.2809 6.16061 17.4231 6.15902C17.4252 6.09529 17.5678 6.18691 17.6035 6.16844C17.6108 6.40281 17.5978 6.67462 17.5252 6.98349C17.4334 6.9408 17.3279 6.91009 17.2952 7.00184C17.2801 7.05236 17.2636 7.103 17.245 7.15535C17.2776 7.06361 17.391 7.10116 17.4827 7.14385C17.4412 7.28587 17.3866 7.4356 17.3157 7.59291C17.2339 7.77419 17.1692 7.97333 17.1287 8.17297C17.032 8.14765 16.8639 8.11462 16.8439 8.21749C16.8252 8.30789 16.8107 8.39817 16.803 8.48636C16.8145 8.33358 16.9957 8.38055 17.0937 8.40147C17.0641 8.67548 17.085 8.937 17.1714 9.13811L17.2751 9.17823Z" fill="#FFF101"/>
<path fill-rule="evenodd" clip-rule="evenodd" d="M16.5585 10.0094C16.5785 10.1626 16.5655 10.2757 16.781 10.2847C17.1335 10.2995 17.1048 10.3451 17.4564 10.1227C17.8142 9.8963 17.8237 9.94101 17.918 9.41122C17.9412 9.28095 17.8907 9.28254 17.7308 9.21085C17.3863 9.05624 17.0851 9.0668 16.781 8.97689C16.6632 9.2745 16.524 9.74572 16.5585 10.0094Z" fill="#FFF101"/>
<path fill-rule="evenodd" clip-rule="evenodd" d="M17.241 9.05821C17.4313 9.09588 17.4012 9.09845 17.2373 9.27973C17.4079 9.47496 17.5386 9.61232 17.6782 9.76792C17.8344 9.94211 17.8581 9.98125 17.7637 10.0408C17.6429 10.117 17.5129 10.2022 17.4312 10.2598C17.2887 10.3601 17.2772 10.3256 17.2099 10.1957C17.1427 10.0659 17.0454 9.78395 16.8999 9.51606C16.6827 9.62151 16.6405 9.67215 16.6587 9.5146C16.6791 9.33845 16.7372 9.06029 16.7747 8.95117C16.8885 8.99594 17.0606 9.02224 17.241 9.05821Z" fill="#FFF101"/>
<path fill-rule="evenodd" clip-rule="evenodd" d="M16.9018 6.06857L16.7467 5.95591L16.925 5.89597L16.9112 5.69976L17.0685 5.80765L17.2046 5.67383L17.223 5.86979L17.4075 5.90013L17.2728 6.03542L17.3653 6.20594L17.1802 6.18062L17.1121 6.36312L17.0149 6.19456L16.8369 6.25169L16.9018 6.06857Z" fill="#FFF101"/>
<path fill-rule="evenodd" clip-rule="evenodd" d="M13.8601 8.59551C13.5705 8.30365 13.1333 8.1754 12.7995 8.28719L12.7901 8.28132C12.7025 7.79399 12.6827 7.32331 12.7142 6.85905C12.7264 6.67946 12.7159 6.54801 12.6807 6.31362C12.6661 6.21641 12.6641 6.2028 12.659 6.16256C12.6486 6.08184 12.6431 6.01349 12.6426 5.94608C12.3863 6.27104 11.8442 6.48886 11.2785 6.51176C10.6092 6.5387 10.1913 6.71541 9.65219 7.08983C9.3527 7.29784 9.18167 7.17404 9.04575 6.77828C8.95576 6.51659 8.84601 6.36553 8.58278 6.08746L8.56253 6.06607C8.28684 5.77473 8.167 5.60479 8.07288 5.3085C7.98499 5.0321 8.17487 4.84011 8.3556 4.91697C8.36791 4.92219 8.38026 4.92813 8.39274 4.93481C8.45094 4.96594 8.51066 5.01196 8.5897 5.08409C8.61677 5.10879 8.69609 5.18456 8.75751 5.24323L8.75753 5.24325L8.75753 5.24326C8.79121 5.27542 8.8195 5.30245 8.83085 5.3131C8.83985 5.32155 8.84915 5.32971 8.85888 5.33771C8.84507 5.3286 8.8307 5.32265 8.81599 5.31964L8.74751 5.25436C8.68613 5.19573 8.60707 5.1202 8.58015 5.09563C8.50193 5.02425 8.44305 4.97888 8.38613 4.94843C8.37402 4.94195 8.36205 4.9362 8.35014 4.93115C8.18103 4.85923 8.00271 5.03953 8.0867 5.30366C8.17993 5.59718 8.29863 5.76549 8.57286 6.05529L8.59311 6.07668C8.85773 6.35622 8.96854 6.50875 9.05945 6.77309C9.19264 7.16089 9.35464 7.27815 9.64416 7.07707C10.1853 6.70125 10.6056 6.52355 11.2779 6.49648C11.8495 6.47334 12.3966 6.24996 12.6442 5.9197L12.6572 5.9245C12.6566 5.99826 12.662 6.07179 12.6734 6.16052C12.6785 6.2006 12.6805 6.21417 12.6951 6.31124C12.7304 6.54669 12.7411 6.67912 12.7287 6.86014C12.6975 7.32046 12.7168 7.78708 12.8029 8.27004L12.7951 8.27262L12.8045 8.27848L12.8029 8.27004C13.141 8.16106 13.5791 8.29117 13.8639 8.58247C14.1515 8.52749 14.4674 8.14622 14.5684 7.7666C14.5185 7.19684 14.3345 6.68164 14.0037 6.04877C13.9526 5.95112 13.8132 5.69487 13.7456 5.57054L13.7084 5.5022C13.603 5.30494 13.5364 5.16592 13.4907 5.04043C13.396 4.78061 13.0417 4.56097 12.7497 4.6826C12.7099 4.69916 12.6713 4.71235 12.6289 4.72419C12.6018 4.73178 12.5742 4.7386 12.5365 4.74724C12.1476 4.83627 11.9323 4.91263 11.3663 5.20907L11.3185 5.23422C11.2097 5.29183 10.9476 5.43652 10.7844 5.52657L10.7842 5.52667C10.7151 5.56486 10.6637 5.59321 10.6494 5.60089C10.4253 5.72165 10.285 5.78525 10.1837 5.80666C9.84871 5.87743 9.67936 5.8744 9.52322 5.74598C9.47405 5.70554 9.42149 5.66897 9.3636 5.63412C9.34866 5.62512 9.3335 5.61631 9.31786 5.60753L9.3225 5.6018L9.32047 5.59166C9.33775 5.60131 9.35442 5.61096 9.37085 5.62085C9.42932 5.65605 9.48245 5.69302 9.5322 5.73394C9.68378 5.85861 9.84989 5.86158 10.1808 5.79167C10.2803 5.77064 10.4199 5.70739 10.6428 5.58728C10.657 5.57964 10.7082 5.55136 10.7773 5.51324L10.7774 5.51316L10.7775 5.51314C10.9406 5.42311 11.203 5.27826 11.3119 5.22057L11.3598 5.19538C11.9269 4.89835 12.1433 4.82158 12.5334 4.7323C12.5709 4.72371 12.5983 4.71694 12.6252 4.70942C12.667 4.69772 12.7051 4.68471 12.7443 4.66839C13.0447 4.54328 13.4069 4.76785 13.5043 5.03497C13.5497 5.1596 13.616 5.29806 13.7211 5.49471L13.7581 5.56277C13.8257 5.68699 13.9653 5.94358 14.0164 6.04142C14.3481 6.67596 14.5328 7.19296 14.5826 7.76794C14.4801 8.15546 14.1603 8.54134 13.8601 8.59551ZM9.30487 5.58305L9.32047 5.59166L9.32013 5.58997C9.31505 5.58737 9.30996 5.58507 9.30487 5.58305ZM9.25218 5.57216C9.26966 5.57245 9.28726 5.57605 9.30487 5.58305C9.27818 5.56846 9.24985 5.55373 9.2186 5.53808C9.20343 5.53048 9.16978 5.51402 9.13845 5.49872L9.13809 5.49557C9.1257 5.48968 9.1136 5.48474 9.10174 5.48078L9.07357 5.46699C8.98199 5.42155 8.91944 5.38547 8.86892 5.34577L8.86894 5.34498C8.86562 5.34237 8.86227 5.33994 8.85888 5.33771L8.86892 5.34577L8.8686 5.35746L8.86379 5.36082C8.85961 5.35759 8.85552 5.35434 8.85149 5.35105L8.85159 5.35098C8.85449 5.3529 8.85736 5.35497 8.86019 5.35721L8.86053 5.34473L8.85159 5.35098C8.85127 5.35077 8.85096 5.35056 8.85064 5.35035C8.8404 5.34197 8.83062 5.33339 8.82115 5.3245L8.81599 5.31964C8.72243 5.30046 8.61544 5.40002 8.55465 5.56025L8.56545 5.56945L8.86379 5.36082C8.91023 5.39678 8.96648 5.42987 9.04478 5.46951C8.93087 5.46397 8.83518 5.57029 8.71293 5.84239L8.72402 5.85166L9.13381 5.51331C9.16468 5.52839 9.19745 5.54443 9.21233 5.55188C9.22615 5.5588 9.2394 5.56554 9.25218 5.57216ZM9.29911 5.59713C9.28407 5.5889 9.2685 5.58063 9.25218 5.57216C9.12229 5.57001 8.99869 5.75013 8.92459 6.07076L8.93722 6.07752L9.31786 5.60753L9.30468 5.6002L9.30514 5.59963L9.31377 5.60372L9.31141 5.59189L9.30514 5.59963L9.29911 5.59713ZM8.94636 6.04263C9.02941 5.70857 9.16614 5.5454 9.29911 5.59713L9.30468 5.6002L8.94636 6.04263ZM8.94636 6.04263L8.93875 6.07437L8.92612 6.06761L8.94636 6.04263ZM9.119 5.50609L9.13381 5.51331L9.13959 5.50854L9.13845 5.49872L9.11904 5.48924L9.10174 5.48078C9.08215 5.47424 9.06323 5.47041 9.04478 5.46951L9.06734 5.48082L9.09667 5.49516C8.96901 5.45322 8.87155 5.53412 8.73957 5.81937L8.71501 5.83964L8.7261 5.84891L8.73957 5.81937L9.119 5.50609ZM9.12098 5.50445C9.11275 5.50089 9.10465 5.49779 9.09667 5.49516L9.11302 5.50317L9.119 5.50609L9.12098 5.50445ZM9.12098 5.50445L9.13209 5.5095L9.13059 5.49652L9.12098 5.50445ZM8.57753 5.54263L8.85149 5.35105C8.85121 5.35082 8.85092 5.35059 8.85064 5.35035C8.763 5.29358 8.64645 5.38008 8.57753 5.54263ZM8.57753 5.54263L8.55738 5.55672L8.56818 5.56591C8.57119 5.55799 8.57431 5.55023 8.57753 5.54263Z" fill="black"/>
<path fill-rule="evenodd" clip-rule="evenodd" d="M13.4174 7.76107C13.407 7.98711 13.4106 8.10874 13.4451 8.31138L13.4355 8.31993C13.4245 8.31586 13.4103 8.31098 13.3955 8.3059C13.3735 8.29833 13.3501 8.29033 13.3344 8.28393C13.3081 8.10623 13.3059 7.99559 13.3155 7.78695L13.3174 7.74361C13.329 7.47553 13.3086 7.29598 13.2079 6.97591C13.0866 6.58964 12.9935 6.06239 12.9965 5.78697L13.0932 5.76758C13.0955 6.03411 13.1882 6.55967 13.3091 6.94433C13.4104 7.26635 13.431 7.44778 13.4193 7.71766L13.4174 7.76107ZM13.4404 8.30551L13.4308 8.31407C13.4301 8.30977 13.4293 8.30551 13.4286 8.30128C13.4328 8.30275 13.4368 8.30417 13.4404 8.30551ZM13.3431 8.27526C13.3616 8.27921 13.4004 8.29136 13.4286 8.30128C13.3959 8.10488 13.3926 7.98264 13.4028 7.76034L13.4048 7.71697C13.4163 7.44886 13.396 7.26928 13.2953 6.94913C13.1739 6.56304 13.0809 6.03594 13.0879 5.77499L13.0058 5.79424C13.0081 6.06055 13.1008 6.58627 13.2218 6.97112C13.3231 7.29305 13.3436 7.47444 13.332 7.7443L13.33 7.78768C13.3205 7.99538 13.3226 8.10511 13.3431 8.27526Z" fill="black"/>
<path fill-rule="evenodd" clip-rule="evenodd" d="M11.7186 5.01074C11.637 5.04748 11.6376 5.17771 11.7036 5.38056C11.7563 5.54278 11.8498 5.74658 11.9621 5.95475L11.9755 5.94893L11.7285 5.01572L11.7186 5.01074ZM12.9157 8.02576C12.9264 8.09075 12.9315 8.16855 12.9307 8.24769L12.9249 8.2551L12.9 8.26063C12.8635 8.26879 12.8222 8.27805 12.7901 8.28084C12.7025 7.79351 12.6827 7.32283 12.7142 6.85857C12.7264 6.67897 12.7159 6.54753 12.6807 6.31314C12.6661 6.21592 12.6641 6.20232 12.6589 6.16208C12.6475 6.07268 12.642 5.99846 12.65 5.9163L12.8173 5.9257C12.8165 6.06403 12.853 6.3821 12.8915 6.61352C12.9122 6.60201 12.9413 6.59887 12.987 6.59975L13.0057 6.60023C13.0484 6.60145 13.0648 6.60101 13.0798 6.59685C13.0969 6.59207 13.1027 6.58339 13.0986 6.56549L13.1127 6.56179C13.1178 6.58253 13.1401 6.67504 13.1388 6.66936L13.1408 6.67781C13.1584 6.75013 13.1698 6.79505 13.1778 6.82129C13.187 6.85498 13.1716 6.87463 13.1366 6.88176C13.1118 6.8868 13.0877 6.88656 13.0183 6.88279C12.998 6.88168 12.9867 6.88113 12.9742 6.88069C12.9415 6.87954 12.9145 6.88 12.8928 6.88036C12.8795 6.88058 12.8681 6.88078 12.8585 6.88054C12.8801 6.96718 12.8814 7.04596 12.8731 7.26786C12.865 7.48341 12.8661 7.59356 12.8845 7.72369C12.8873 7.74378 12.8906 7.76351 12.8942 7.78293C12.9216 7.77256 12.9702 7.7811 13.0938 7.81014L13.1021 7.8121C13.1778 7.82982 13.2173 7.83758 13.2517 7.83987C13.2933 7.84265 13.3133 7.83518 13.314 7.81755L13.3131 7.84619C13.3 7.8544 13.2789 7.85701 13.2508 7.85513C13.2153 7.85277 13.1754 7.84493 13.099 7.82702L13.0906 7.82506C12.96 7.79437 12.9133 7.78722 12.8928 7.80054L12.8818 7.79559C12.8773 7.77281 12.8734 7.74961 12.8701 7.72594C12.8515 7.59457 12.8504 7.48373 12.8585 7.26725C12.8668 7.04712 12.8655 6.96897 12.8495 6.8751C12.8816 6.8659 12.9205 6.86351 12.9747 6.86541C12.9873 6.86585 12.9987 6.86641 13.019 6.86752C13.0869 6.87121 13.1107 6.87145 13.1338 6.86675C13.1612 6.86117 13.1704 6.84951 13.1638 6.82571C13.1558 6.79929 13.1443 6.75423 13.1267 6.68159L13.1247 6.67313C13.1256 6.67708 13.1148 6.63229 13.1066 6.59828C13.114 6.58957 13.1163 6.57747 13.1127 6.56191L13.0986 6.56561L13.1066 6.59828C13.1013 6.60438 13.0936 6.60883 13.0835 6.61163C13.0666 6.61633 13.0497 6.61679 13.0053 6.61551L12.9867 6.61504C12.9367 6.61408 12.9082 6.61821 12.8906 6.63218L12.879 6.62742C12.8397 6.39432 12.8019 6.06735 12.8099 5.9333L12.6572 5.92401C12.6565 5.99778 12.662 6.07131 12.6734 6.16004C12.6785 6.20012 12.6805 6.21369 12.6951 6.31076C12.7304 6.54621 12.741 6.67864 12.7287 6.85966C12.6973 7.32267 12.717 7.79204 12.7952 8.27208C12.8248 8.26301 12.8755 8.25036 12.9162 8.24139L12.9162 8.24754L12.922 8.24013L12.9162 8.24139C12.9166 8.16524 12.9118 8.09047 12.9068 8.01963C12.9477 8.00931 12.9972 8.01101 13.0608 8.02209C13.0821 8.02581 13.1033 8.03023 13.1332 8.03693C13.225 8.05749 13.2385 8.06015 13.2655 8.06069C13.2989 8.06135 13.3124 8.05178 13.3108 8.02708C13.3091 8.00073 13.3103 7.9307 13.3131 7.84619C13.3228 7.84007 13.3281 7.83085 13.3286 7.81806L13.314 7.81749L13.314 7.81748L13.3286 7.81805C13.3252 7.91434 13.3235 7.99757 13.3253 8.02605C13.3277 8.06151 13.3061 8.07679 13.2652 8.07598C13.2368 8.07541 13.2234 8.07278 13.1302 8.05188C13.1005 8.04522 13.0794 8.04085 13.0584 8.03718C12.9966 8.0264 12.9488 8.02476 12.9157 8.02576ZM11.7168 5.02869L11.7145 5.01982L11.7243 5.02479C11.7217 5.02597 11.7192 5.02727 11.7168 5.02869ZM11.9452 5.89162C11.8465 5.70377 11.7651 5.52235 11.7174 5.37562C11.6562 5.18732 11.6533 5.06597 11.7168 5.02869L11.9452 5.89162ZM11.9452 5.89162C11.9549 5.9101 11.9648 5.92864 11.9748 5.94721L11.9614 5.95303L11.9452 5.89162ZM11.761 6.14856L11.7609 6.14861L11.7609 6.14862L11.7606 6.14877L11.7654 6.16527C11.8343 6.13831 11.9032 6.10666 11.9722 6.07062L11.9667 6.05442L11.9664 6.05456L11.9664 6.05455L11.9662 6.05462L11.761 6.14856ZM11.761 6.14856C11.8294 6.12181 11.8978 6.0904 11.9662 6.05462L11.9664 6.05456L11.9719 6.07075L11.7658 6.1651L11.7609 6.14862L11.761 6.14856ZM10.582 6.37672C10.5819 6.37675 10.5819 6.37677 10.5818 6.37679L10.5856 6.39368L10.7392 6.34622L10.7357 6.32921C10.7357 6.32923 10.7356 6.32925 10.7355 6.32927L10.7355 6.32926L10.7354 6.3293C10.683 6.3437 10.632 6.35947 10.5821 6.37669L10.582 6.37672L10.582 6.37672ZM10.582 6.37672L10.5858 6.3936C10.6357 6.3764 10.6866 6.36065 10.739 6.34627L10.7355 6.32927C10.7355 6.32928 10.7355 6.32929 10.7354 6.3293L10.5821 6.37669C10.582 6.3767 10.582 6.37671 10.582 6.37672Z" fill="black"/>
<path fill-rule="evenodd" clip-rule="evenodd" d="M11.183 6.16807C11.7404 6.10971 12.2878 5.84651 12.5132 5.50478L12.5264 5.50783L12.5439 5.62809C12.4248 5.80186 12.2242 5.95444 11.9762 6.0601C11.9756 6.05827 11.9863 6.09216 11.9896 6.1024C11.9953 6.11976 12.0004 6.13465 12.0057 6.14884C12.0495 6.26508 12.1011 6.31475 12.1769 6.27972C12.1584 6.28861 12.1394 6.29729 12.1198 6.30579C12.0667 6.29921 12.0263 6.24506 11.9922 6.15446C11.9868 6.14002 11.9816 6.12491 11.9758 6.10733C11.9725 6.09702 11.9618 6.06305 11.9664 6.05551C12.2162 5.94143 12.4146 5.79044 12.5308 5.62492L12.515 5.52857C12.5185 5.52356 12.5219 5.51853 12.5252 5.51348L12.512 5.51043L12.515 5.52857C12.2809 5.86715 11.7375 6.12537 11.1844 6.18328C10.6497 6.23928 10.2398 6.40482 9.84162 6.67052C9.82502 6.63916 9.8051 6.62068 9.755 6.58404L9.75481 6.5839C9.74154 6.57419 9.73557 6.56975 9.72831 6.56408C9.52668 6.40729 9.43443 6.20987 9.44785 6.02715C9.45723 5.89947 9.52054 5.8042 9.59346 5.79466C9.60703 5.80227 9.62109 5.80906 9.63622 5.81522L9.64143 5.80094C9.62529 5.79452 9.60915 5.79261 9.59346 5.79466C9.58029 5.78727 9.56758 5.77911 9.55479 5.77C9.54274 5.76141 9.51081 5.73635 9.50148 5.72903C9.49996 5.72784 9.49904 5.72712 9.49891 5.72702C9.42848 5.67221 9.28484 5.89454 9.30277 6.12931C9.3109 6.2356 9.39686 6.40723 9.48585 6.51212L9.4791 6.52473C9.33185 6.49658 9.26205 6.45619 9.17901 6.33726C9.22178 6.3093 9.27856 6.29029 9.3309 6.28438L9.33481 6.29397L9.33505 6.29356L9.34097 6.2834C9.3377 6.28367 9.33441 6.28399 9.3311 6.28436C9.33103 6.28437 9.33097 6.28438 9.3309 6.28438L9.32017 6.2581C9.30976 6.23221 9.30209 6.20947 9.29802 6.18766C9.29486 6.17075 9.29387 6.15439 9.29546 6.13757C9.29328 6.13755 9.29109 6.13756 9.28889 6.13759C9.21791 6.13861 9.13651 6.16596 9.06016 6.21314C9.04928 6.20176 9.03802 6.19015 9.02615 6.17805C9.00574 6.15724 8.95277 6.10452 8.91568 6.06759C8.89739 6.04938 8.88296 6.03502 8.87819 6.03021C8.73546 5.88639 8.65453 5.78524 8.59395 5.65999C8.51389 5.49424 8.50439 5.34328 8.56051 5.26448C8.59792 5.21195 8.6571 5.20108 8.72402 5.2324C8.73204 5.24005 8.73991 5.24758 8.74751 5.25484C8.76102 5.26774 8.77367 5.27982 8.78472 5.29037C8.69643 5.21526 8.61642 5.2115 8.57217 5.27363C8.51999 5.3469 8.52912 5.49197 8.60694 5.65307C8.66661 5.77643 8.74663 5.87645 8.88827 6.01918C8.89301 6.02395 8.90737 6.03825 8.9256 6.0564C8.9627 6.09332 9.0158 6.14618 9.0363 6.16708C9.04821 6.17922 9.05951 6.19088 9.06121 6.2014C9.12886 6.15315 9.20986 6.12507 9.28809 6.12831C9.27045 5.88385 9.42274 5.64872 9.50749 5.71467C9.50767 5.71479 9.50878 5.71567 9.51059 5.71709C9.52051 5.72487 9.5514 5.7491 9.56297 5.75735C9.58806 5.77523 9.61276 5.78927 9.64149 5.80096L9.63628 5.81524C9.55655 5.78354 9.47313 5.88187 9.46237 6.02833C9.44935 6.20564 9.53926 6.39804 9.73699 6.5518C9.7441 6.55736 9.74999 6.56174 9.76313 6.57135L9.76333 6.57149C9.81522 6.60944 9.83631 6.62901 9.84397 6.66042C10.2336 6.39076 10.6457 6.22433 11.183 6.16807ZM9.33747 6.29906C9.28588 6.30404 9.22894 6.32234 9.18846 6.33887C9.26698 6.43846 9.33119 6.47825 9.46126 6.50558C9.41457 6.44689 9.36984 6.37199 9.33747 6.29906ZM8.79477 5.27929C8.77065 5.25872 8.74689 5.2431 8.72402 5.2324C8.66735 5.17828 8.60373 5.11764 8.58015 5.09611C8.50193 5.02473 8.44305 4.97936 8.38613 4.94891C8.37402 4.94244 8.36205 4.93668 8.35014 4.93163C8.18103 4.85971 8.00271 5.04001 8.0867 5.30414C8.17993 5.59766 8.29863 5.76597 8.57286 6.05577L8.59311 6.07717C8.85773 6.3567 8.96854 6.50923 9.05945 6.77357C9.12108 6.95301 9.18675 7.07055 9.26979 7.13116C9.36859 7.20326 9.49019 7.19025 9.64401 7.07766C9.66222 7.06434 9.67488 7.05521 9.69617 7.03995L9.69681 7.03949C9.7111 7.0292 9.72234 7.02099 9.73809 7.0093C9.85536 6.93814 9.99904 7.05687 10.0047 7.24975C10.0003 7.26257 9.99526 7.27593 9.98969 7.28991L10.0037 7.29347C10.0048 7.27853 10.0051 7.26394 10.0047 7.24975C10.0434 7.13844 10.0407 7.06802 10.0049 6.99102C9.99815 6.97646 9.99021 6.96136 9.97925 6.94189C9.97906 6.94154 9.97883 6.94115 9.97859 6.94071C9.97287 6.93057 9.95417 6.89745 9.95824 6.89092C9.93972 6.90128 9.92476 6.89295 9.91422 6.8711C9.907 6.8561 9.90224 6.83815 9.89462 6.80195L9.89277 6.79314C9.88311 6.74718 9.87693 6.7278 9.86841 6.72186L9.8686 6.709C10.0936 6.56217 10.3209 6.45105 10.5911 6.37828C10.605 6.5148 10.6402 6.5843 10.7124 6.57164C10.7468 6.5636 10.7804 6.55637 10.814 6.54983C10.8291 6.55714 10.8467 6.55913 10.867 6.55557C10.8166 6.56436 10.767 6.57456 10.7152 6.58664C10.6304 6.60153 10.5914 6.5245 10.5859 6.38644C10.3294 6.46439 10.1055 6.57324 9.88425 6.71681C9.89277 6.72839 9.89845 6.74919 9.90699 6.78985L9.90884 6.79865C9.91617 6.83349 9.92076 6.85078 9.92722 6.86419C9.93448 6.87926 9.94132 6.88306 9.96108 6.88028L9.99179 6.93411C10.0029 6.95391 10.011 6.96933 10.018 6.98432C10.0598 7.07438 10.0586 7.15662 10.0031 7.29581L9.98915 7.29225C10.005 7.08526 9.85988 6.95306 9.74594 7.02215C9.73069 7.03351 9.71939 7.04177 9.70504 7.0521L9.7044 7.05256C9.68311 7.06783 9.6705 7.07692 9.65234 7.0902C9.49392 7.20617 9.36582 7.21986 9.26148 7.14371C9.17529 7.08081 9.10833 6.96096 9.04575 6.77876C8.95576 6.51707 8.84601 6.36601 8.58278 6.08794L8.56253 6.06655C8.28684 5.77521 8.167 5.60527 8.07288 5.30898C7.98499 5.03258 8.17487 4.84059 8.3556 4.91745C8.36791 4.92268 8.38026 4.92861 8.39274 4.93529C8.45094 4.96642 8.51066 5.01244 8.5897 5.08457C8.61677 5.10928 8.6961 5.18506 8.75753 5.24373C8.77106 5.25666 8.78372 5.26875 8.79477 5.27929ZM10.8646 6.54049L10.867 6.55557L10.8646 6.54049C10.8646 6.54049 10.8646 6.54049 10.8646 6.54049ZM10.8646 6.54049C10.7932 6.55303 10.7591 6.4796 10.7446 6.33682C10.8816 6.31068 11.0323 6.2863 11.1919 6.27259C11.3849 6.25597 11.582 6.21477 11.7655 6.15224C11.8035 6.31997 11.8607 6.4184 11.9446 6.38892C12.0318 6.35958 12.1107 6.32824 12.1826 6.29381C12.1843 6.29302 12.186 6.29219 12.1877 6.29132L12.1816 6.27748C12.18 6.27822 12.1785 6.27897 12.1769 6.27972C12.1784 6.27902 12.1799 6.27829 12.1815 6.27752L12.1876 6.29136C12.186 6.29218 12.1843 6.293 12.1826 6.29381C12.1598 6.30434 12.139 6.30816 12.1198 6.30579C12.0642 6.33002 12.0044 6.35274 11.9401 6.37439C11.869 6.39936 11.8149 6.30625 11.7702 6.14286C11.5786 6.19986 11.3825 6.24083 11.1907 6.25735C11.0304 6.27112 10.8791 6.29561 10.7357 6.33018C10.7431 6.45119 10.7665 6.52683 10.814 6.54983C10.8308 6.54655 10.8477 6.54344 10.8646 6.54049ZM8.79477 5.27929C8.80683 5.28958 8.81898 5.30111 8.83115 5.31388L8.82115 5.32498C8.81429 5.31855 8.80131 5.30619 8.78472 5.29037C8.79664 5.3005 8.8087 5.31194 8.82085 5.32469L8.83085 5.31358C8.82406 5.30721 8.81121 5.29498 8.79477 5.27929Z" fill="black"/>
<path fill-rule="evenodd" clip-rule="evenodd" d="M13.7458 8.9053C13.6498 9.31458 13.7627 9.77625 14.0219 10.0239L14.0217 10.0354C13.6638 10.3587 13.2857 10.6117 12.8866 10.8154C12.7693 10.8753 12.6693 10.9424 12.5601 11.03C12.533 11.0517 12.5062 11.074 12.4716 11.1033C12.4747 11.1006 12.4056 11.1593 12.3866 11.1753C12.3013 11.2468 12.2377 11.2949 12.1692 11.3371C12.5654 11.4076 13.0161 11.7917 13.3178 12.2947C13.6748 12.8898 14.03 13.1818 14.6079 13.4843C14.9291 13.6526 14.9125 13.8699 14.6541 14.1916C14.4821 14.4057 14.4137 14.5788 14.3139 14.9652C14.2051 15.3861 14.1294 15.5727 13.9282 15.811C13.7441 16.0291 13.491 15.9526 13.4638 15.7498C13.4542 15.6773 13.4598 15.5952 13.4797 15.481C13.4886 15.4297 13.5251 15.2542 13.5431 15.1674L13.553 15.1195C13.5554 15.1074 13.5575 15.0956 13.5592 15.0838C13.5589 15.1001 13.5612 15.1155 13.5658 15.1298L13.5573 15.1711C13.5392 15.258 13.5029 15.4328 13.494 15.4837C13.4744 15.5965 13.4689 15.6771 13.4783 15.7477C13.5037 15.9374 13.7414 16.0093 13.9173 15.8009C14.1166 15.5648 14.1916 15.38 14.2998 14.9612C14.4001 14.5728 14.4692 14.398 14.643 14.1817C14.8962 13.8665 14.9119 13.6607 14.6014 13.498C14.0213 13.1943 13.6641 12.9007 13.3055 12.3029C13.0007 11.7946 12.5429 11.4088 12.1466 11.3488L12.1441 11.3346C12.2188 11.2903 12.2853 11.2406 12.3775 11.1633C12.3965 11.1474 12.4655 11.0888 12.4624 11.0914C12.4972 11.062 12.5241 11.0397 12.5513 11.0179C12.6612 10.9296 12.762 10.862 12.8802 10.8017C13.2759 10.5997 13.6509 10.3491 14.006 10.0294L14.0121 10.0352L14.0122 10.0238L14.006 10.0294C13.747 9.7764 13.6352 9.31299 13.7332 8.90842C13.544 8.67446 13.0715 8.57776 12.7079 8.67571C12.3582 8.93529 12.067 9.26781 11.7907 9.69224C11.7146 9.8091 11.5607 10.0768 11.4109 10.3375L11.4109 10.3375C11.2553 10.6082 11.1041 10.8713 11.0492 10.9495C11.0319 10.9741 11.015 10.9972 10.9982 11.0189C10.8312 11.2349 10.8271 11.6667 11.0736 11.8715C11.0851 11.8811 11.0962 11.8908 11.1071 11.9006C11.1404 11.9308 11.1707 11.962 11.2063 12.002L11.2483 12.0503L11.2483 12.0503L11.2484 12.0504C11.2764 12.0827 11.3101 12.1216 11.3255 12.1388C11.379 12.1986 11.4322 12.2538 11.496 12.3141C11.6607 12.4696 11.8835 12.6466 12.1994 12.8661C12.3602 12.9779 12.8659 13.3118 12.8634 13.3101C13.0869 13.4609 13.2135 13.5591 13.2837 13.6428C13.5094 13.9115 13.5918 14.0674 13.5639 14.2736C13.5524 14.3589 13.5489 14.4347 13.5523 14.5296L13.5453 14.5282L13.5379 14.5352C13.5342 14.4371 13.5376 14.3594 13.5495 14.2714C13.5765 14.0713 13.4957 13.9183 13.2728 13.6529C13.2038 13.5707 13.0778 13.473 12.8555 13.323C12.8581 13.3248 12.3524 12.9907 12.1914 12.8789C11.8749 12.6589 11.6515 12.4815 11.4863 12.3255C11.4222 12.2649 11.3686 12.2094 11.3149 12.1493C11.2994 12.1319 11.2655 12.0928 11.2374 12.0604L11.1956 12.0125C11.1604 11.9728 11.1305 11.942 11.0976 11.9122C11.0869 11.9025 11.0759 11.893 11.0645 11.8835C10.811 11.6728 10.8152 11.2313 10.9869 11.0092C11.0035 10.9877 11.0203 10.9648 11.0375 10.9404C11.092 10.8628 11.2425 10.601 11.3977 10.3309L11.3977 10.3309L11.3977 10.3309L11.3977 10.3309L11.3977 10.3309L11.3977 10.3309L11.3977 10.3309C11.5477 10.0698 11.7022 9.80108 11.7786 9.68361C12.0559 9.25779 12.3482 8.92398 12.7019 8.66206C13.0728 8.56162 13.551 8.65949 13.7458 8.9053ZM13.5387 14.5537L13.5379 14.5352L13.5367 14.5363C13.5371 14.5423 13.5378 14.5481 13.5387 14.5537ZM13.5561 14.6072C13.5476 14.5911 13.5417 14.5733 13.5387 14.5537C13.541 14.6067 13.5453 14.6658 13.5513 14.7355L13.5523 14.7471L13.5499 14.749C13.5512 14.7632 13.5532 14.7766 13.5558 14.7894C13.5671 14.9289 13.5695 15.0011 13.5613 15.0684L13.5603 15.069C13.5597 15.074 13.5594 15.079 13.5592 15.0838L13.5613 15.0684L13.5707 15.0631L13.5763 15.066C13.5757 15.0713 13.575 15.0767 13.5742 15.082L13.5739 15.0818C13.574 15.0782 13.5743 15.0746 13.5747 15.0709L13.5643 15.0768L13.5739 15.0818C13.5739 15.0829 13.5738 15.0839 13.5738 15.085C13.572 15.0974 13.5698 15.1098 13.5673 15.1226L13.5658 15.1298C13.5967 15.2245 13.7324 15.272 13.8949 15.2471L13.8971 15.2326L13.5763 15.066C13.5829 15.0089 13.582 14.9478 13.5748 14.8465C13.627 14.953 13.7627 14.987 14.0486 14.9621L14.0507 14.9474L13.5667 14.744L13.5658 14.7341C13.5618 14.6874 13.5586 14.6456 13.5561 14.6072ZM13.5532 14.5519C13.5539 14.5696 13.5549 14.5879 13.5561 14.6072C13.6195 14.7261 13.8298 14.7484 14.131 14.6555L14.1303 14.6407L13.5523 14.5296L13.5529 14.5452L13.5522 14.5451L13.5512 14.5352L13.5427 14.5433L13.5522 14.5451L13.5532 14.5519ZM14.0969 14.6498C13.78 14.7412 13.5771 14.6985 13.5532 14.5519L13.5529 14.5452L14.0969 14.6498ZM14.0969 14.6498L14.1269 14.6408L14.1276 14.6557L14.0969 14.6498ZM13.5681 14.7611L13.5667 14.744L13.5598 14.7411L13.5523 14.7471L13.5558 14.7894C13.5602 14.8103 13.5664 14.8293 13.5748 14.8465C13.5735 14.828 13.572 14.8082 13.5702 14.7868C13.5994 14.9238 13.7149 14.972 14.0163 14.9494L14.0453 14.9616L14.0474 14.9469L14.0163 14.9494L13.5681 14.7611ZM13.5658 14.7601C13.5669 14.7694 13.5684 14.7783 13.5702 14.7868L13.5681 14.7611L13.5658 14.7601ZM13.5658 14.7601L13.5644 14.7475L13.5544 14.7553L13.5658 14.7601ZM13.8689 15.2351L13.5742 15.082C13.5741 15.083 13.574 15.084 13.5738 15.085C13.5724 15.1918 13.7016 15.2537 13.8689 15.2351ZM13.8689 15.2351L13.8906 15.2463L13.8928 15.2319C13.8848 15.2332 13.8768 15.2342 13.8689 15.2351Z" fill="black"/>
<path fill-rule="evenodd" clip-rule="evenodd" d="M13.2616 9.73454C13.4753 9.61887 13.5642 9.56188 13.719 9.4248L13.7308 9.42925C13.7329 9.4412 13.7361 9.45684 13.7394 9.47314C13.7442 9.49678 13.7493 9.52182 13.7519 9.53911C13.6137 9.65595 13.5332 9.70641 13.3339 9.81427L13.2929 9.83664C13.0839 9.95187 12.9425 10.0651 12.7361 10.3082C12.4782 10.6118 12.0899 10.9599 11.8612 11.0949L11.7968 11.0167C12.0155 10.8815 12.4026 10.5344 12.6594 10.2319C12.8672 9.98733 13.0099 9.873 13.2206 9.7569L13.2616 9.73454ZM13.7165 9.43205L13.7283 9.43649C13.7252 9.43931 13.722 9.44209 13.7189 9.44484C13.718 9.44028 13.7172 9.43598 13.7165 9.43205ZM13.7189 9.44484C13.5688 9.57684 13.4785 9.63435 13.2683 9.74814L13.2274 9.77044C13.0181 9.88571 12.8768 9.99893 12.6703 10.2421C12.4126 10.5457 12.0243 10.8938 11.8055 11.0178L11.8625 11.0828C12.0811 10.9476 12.4683 10.6005 12.7252 10.298C12.9329 10.0535 13.0756 9.93916 13.2861 9.82311L13.3273 9.80068C13.5257 9.69326 13.6055 9.64324 13.7404 9.53561C13.7343 9.51679 13.7248 9.47509 13.7189 9.44484Z" fill="black"/>
<path fill-rule="evenodd" clip-rule="evenodd" d="M12.597 11.8968L12.6059 11.8848C12.6663 11.9316 12.7236 11.9804 12.7775 12.0314L12.768 12.043L12.597 11.8968ZM12.5973 11.8971C12.6573 11.9436 12.7142 11.9921 12.7677 12.0428L12.7772 12.0312L12.6062 11.885L12.5973 11.8971ZM13.5606 13.0076C13.5608 13.0078 13.561 13.008 13.5611 13.0082L13.5724 12.9965L13.5722 12.9962C13.5723 12.9963 13.5724 12.9964 13.5725 12.9966L13.5613 13.0083L13.5606 13.0076ZM13.4396 12.8802L13.5606 13.0076C13.5211 12.9683 13.481 12.9261 13.4396 12.8802ZM13.4392 12.8798C13.4393 12.8799 13.4395 12.8801 13.4396 12.8802L13.4392 12.8798L13.4392 12.8798ZM13.4507 12.8683L13.4392 12.8798C13.4391 12.8797 13.4391 12.8797 13.4391 12.8796L13.4506 12.8682L13.4507 12.8683ZM13.4512 12.8688L13.5722 12.9962C13.5326 12.9569 13.4926 12.9147 13.4512 12.8688ZM13.4512 12.8688L13.4507 12.8683L13.4507 12.8683C13.4509 12.8685 13.451 12.8686 13.4512 12.8688Z" fill="black"/>
<path fill-rule="evenodd" clip-rule="evenodd" d="M11.8748 11.6736L11.8707 11.6601C11.8766 11.6606 11.8824 11.6612 11.8883 11.6618L11.8748 11.6736ZM12.7256 11.6315C12.7378 11.6609 12.7356 11.6946 12.721 11.7319C12.7076 11.7657 12.685 11.8008 12.6524 11.8416C12.6403 11.8568 12.6283 11.8711 12.5972 11.8972C12.3779 11.727 12.1542 11.6221 11.9598 11.5995L11.8883 11.6618C12.2846 11.7054 12.7692 12.0703 13.0935 12.5444C13.407 13.0025 13.7484 13.2923 14.1669 13.5217C14.1493 13.5526 14.144 13.58 14.1389 13.6442L14.1387 13.6458C14.1375 13.661 14.1368 13.669 14.1358 13.678C14.1073 13.9397 13.9906 14.1223 13.8331 14.2015C13.7232 14.2567 13.6131 14.2469 13.5687 14.1855C13.5682 14.1696 13.5667 14.1537 13.5641 14.1362L13.5497 14.1386C13.5525 14.1565 13.559 14.1722 13.5687 14.1855C13.5695 14.2119 13.5676 14.2385 13.5636 14.2733C13.5616 14.2897 13.5608 14.2971 13.56 14.3052C13.55 14.3966 13.8052 14.416 13.9899 14.2824C14.0734 14.2218 14.1719 14.0581 14.2142 13.9245L14.2279 13.9244C14.2782 14.0722 14.2798 14.1559 14.2234 14.2909C14.179 14.2661 14.135 14.224 14.1037 14.1793C14.1066 14.1753 14.1088 14.1722 14.1097 14.171L14.1091 14.171L14.0979 14.1707C14.0997 14.1735 14.1016 14.1763 14.1036 14.1791C14.1036 14.1791 14.1037 14.1792 14.1037 14.1793C14.103 14.1803 14.1021 14.1815 14.1013 14.1827C14.0945 14.1922 14.0857 14.2046 14.0819 14.2097C14.0701 14.2257 14.0591 14.2391 14.047 14.2519C14.0403 14.259 14.0334 14.2658 14.0263 14.2714C14.0178 14.2782 14.009 14.2832 14.0004 14.2849C14.0014 14.2869 14.0025 14.2889 14.0036 14.2908C14.0399 14.3549 14.1032 14.4152 14.1804 14.461C14.1672 14.513 14.1642 14.5261 14.1353 14.6534C14.0772 14.9093 14.0378 15.0315 13.9571 15.1614C13.8605 15.3171 13.7408 15.4012 13.6477 15.3896C13.5856 15.3819 13.547 15.3334 13.5394 15.2567C13.5461 15.2246 13.5523 15.1947 13.5572 15.1712C13.5388 15.2899 13.5757 15.3652 13.6494 15.3744C13.7359 15.3852 13.851 15.3044 13.9449 15.1531C14.0244 15.0251 14.0634 14.9041 14.1211 14.6499C14.15 14.5224 14.153 14.5093 14.1701 14.4659C14.0965 14.4285 14.0328 14.3689 13.9964 14.2962C13.8036 14.4344 13.5335 14.4136 13.5456 14.3036C13.5463 14.2954 13.5472 14.2878 13.5491 14.2715C13.5554 14.2169 13.5563 14.1834 13.5497 14.1385L13.5641 14.1361C13.5778 14.2244 13.7006 14.2511 13.8268 14.1877C13.9796 14.1109 14.0934 13.9329 14.1213 13.6763C14.1223 13.6674 14.123 13.6596 14.1242 13.6446L14.1243 13.6429C14.1297 13.5764 14.1352 13.5474 14.1574 13.5246C13.7399 13.305 13.3966 13.0136 13.0817 12.5533C12.7548 12.0755 12.2641 11.7094 11.8695 11.6753L11.8655 11.6618L11.9559 11.586C12.1586 11.6072 12.3846 11.7132 12.5961 11.886C12.6175 11.8609 12.6293 11.8469 12.6413 11.8318C12.6729 11.7921 12.6948 11.7582 12.7075 11.726C12.729 11.6714 12.7211 11.6276 12.6764 11.5934C12.6927 11.6056 12.7091 11.6183 12.7256 11.6315ZM13.5811 12.6979C13.5859 12.7527 13.5353 12.8116 13.439 12.8789C13.3391 12.7661 13.2432 12.6407 13.1515 12.5017C13.0421 12.3355 12.9103 12.1778 12.7673 12.032C12.8799 11.9094 12.9295 11.8139 12.8733 11.7617C12.8229 11.7136 12.7739 11.6702 12.7256 11.6315C12.718 11.6129 12.7045 11.596 12.6849 11.581C12.7494 11.6291 12.815 11.6854 12.8831 11.7503C12.9493 11.812 12.8969 11.9129 12.7774 12.0316C12.9209 12.1672 13.0534 12.3259 13.1635 12.493C13.2548 12.6314 13.3502 12.7563 13.4401 12.8675C13.5508 12.7828 13.5942 12.7153 13.548 12.6566C13.559 12.6706 13.57 12.6843 13.5811 12.6979ZM13.5592 12.6468L13.548 12.6566C13.548 12.6566 13.548 12.6566 13.548 12.6566L13.5592 12.6468ZM14.1835 13.4598C13.9546 13.3304 13.753 13.1813 13.5604 12.987C13.6715 12.9133 13.7157 12.839 13.6608 12.7694C13.6258 12.7294 13.5924 12.6891 13.5592 12.6468L13.5592 12.6468C13.5724 12.6635 13.5795 12.6805 13.5811 12.6979C13.6036 12.7257 13.6264 12.7527 13.6499 12.7794C13.6965 12.8387 13.6567 12.9057 13.5511 12.9863C13.7463 13.1958 13.9515 13.3469 14.185 13.478L14.1957 13.4718C14.1964 13.4604 14.2088 13.4462 14.2479 13.4086L14.2545 13.4022C14.2772 13.3802 14.2898 13.3662 14.2976 13.3527C14.3087 13.3334 14.3073 13.3166 14.2904 13.3055C14.2952 13.3101 14.3165 13.271 14.3257 13.254C14.3266 13.2522 14.3275 13.2507 14.3281 13.2495C14.3829 13.1501 14.4362 13.1067 14.5632 13.0837C14.4068 13.1853 14.3807 13.3754 14.4981 13.4465C14.5152 13.4548 14.527 13.4606 14.5433 13.4688L14.5439 13.4691C14.577 13.4857 14.5805 13.4875 14.6015 13.4978C14.7713 13.5814 14.8428 13.6855 14.8327 13.8114C14.8242 13.9172 14.7601 14.0356 14.643 14.1815C14.4692 14.3978 14.4001 14.5725 14.2998 14.9609C14.1916 15.3797 14.1166 15.5645 13.9173 15.8006C13.7414 16.0091 13.5036 15.9371 13.4782 15.7474C13.4688 15.6768 13.4743 15.5962 13.494 15.4834C13.5005 15.4463 13.5215 15.3435 13.5394 15.2567C13.5368 15.2302 13.5379 15.2003 13.543 15.1675C13.5431 15.1674 13.5431 15.1673 13.5431 15.1672C13.5484 15.1419 13.552 15.1242 13.553 15.1193L13.5672 15.1228C13.5629 15.1396 13.5596 15.1558 13.5572 15.1712C13.5572 15.1711 13.5572 15.171 13.5572 15.1708C13.5626 15.1453 13.5663 15.1274 13.5673 15.1224L13.5531 15.1188C13.5488 15.1357 13.5455 15.1519 13.543 15.1675C13.525 15.2544 13.4886 15.4295 13.4797 15.4807C13.4598 15.5949 13.4542 15.677 13.4638 15.7495C13.491 15.9523 13.7441 16.0289 13.9282 15.8108C14.1294 15.5724 14.2051 15.3858 14.3138 14.9649C14.4136 14.5785 14.482 14.4055 14.6541 14.1913C14.7731 14.0432 14.8384 13.9224 14.8472 13.8126C14.8579 13.6797 14.7826 13.57 14.6077 13.4839C14.5867 13.4736 14.5833 13.4719 14.5502 13.4553L14.5496 13.455C14.5332 13.4468 14.5214 13.4409 14.5048 13.4329C14.3908 13.3639 14.4273 13.1659 14.6059 13.0767L14.6018 13.0622C14.4405 13.084 14.378 13.1284 14.3155 13.2419C14.3103 13.2514 14.2952 13.2798 14.2865 13.2964C14.2833 13.3024 14.2809 13.3069 14.2802 13.3083C14.2919 13.3245 14.2925 13.332 14.2851 13.3448C14.2783 13.3567 14.2663 13.37 14.2447 13.391L14.238 13.3974C14.2033 13.4307 14.1887 13.4461 14.1835 13.4598ZM14.5632 13.0837C14.5746 13.0763 14.5868 13.0693 14.5996 13.0629L14.6037 13.0774C14.5894 13.0793 14.5759 13.0814 14.5632 13.0837ZM12.6849 11.581C12.6836 11.58 12.6824 11.5791 12.6811 11.5782L12.6728 11.5907C12.674 11.5916 12.6752 11.5925 12.6764 11.5934C12.6752 11.5925 12.674 11.5916 12.6727 11.5907L12.6811 11.5781C12.6824 11.5791 12.6836 11.58 12.6849 11.581ZM14.1125 14.1659C14.1427 14.2105 14.1861 14.253 14.22 14.2815C14.2627 14.1603 14.2634 14.0819 14.2211 13.9501C14.1959 14.022 14.1565 14.1001 14.1125 14.1659Z" fill="black"/>
<path fill-rule="evenodd" clip-rule="evenodd" d="M14.6239 12.8745L14.5089 12.7285L14.4962 12.7317L14.4542 12.922L14.2735 12.9202L14.2679 12.9327L14.3844 13.0858L14.2709 13.232L14.2766 13.2443L14.4636 13.2455L14.5007 13.4298L14.5135 13.4327L14.6308 13.2801L14.793 13.3635L14.8031 13.3548L14.7607 13.1642L14.9246 13.0837L14.9245 13.07L14.7558 12.9842L14.7994 12.8008L14.7892 12.7923L14.6239 12.8745ZM14.7821 12.8128L14.625 12.8909L14.6163 12.8888L14.5067 12.7498L14.5104 12.7351L14.4977 12.7383L14.5067 12.7498L14.4615 12.9314L14.288 12.9352L14.2793 12.9231L14.2738 12.9355L14.288 12.9352L14.3959 13.0857L14.291 13.2295L14.2767 13.229L14.2824 13.2413L14.291 13.2295L14.4707 13.236L14.5115 13.4116L14.5021 13.4231L14.5149 13.4261L14.5115 13.4116L14.6281 13.2683L14.7861 13.3434L14.789 13.3582L14.799 13.3495L14.7861 13.3434L14.7503 13.1591L14.9053 13.0768L14.9181 13.0838L14.918 13.0701L14.9053 13.0768L14.7455 12.9895L14.7821 12.8128ZM14.7821 12.8128L14.7954 12.8061L14.7852 12.7976L14.7821 12.8128Z" fill="black"/>
<path fill-rule="evenodd" clip-rule="evenodd" d="M14.0585 8.8544C14.444 8.73694 14.7685 8.4034 14.8431 8.04409L14.8526 8.03851C15.2986 8.2025 15.6967 8.41985 16.0637 8.68061C16.216 8.78878 16.3069 8.83222 16.5741 8.94047C16.7014 8.99203 16.7763 9.02639 16.8526 9.07201C16.7127 8.6764 16.8041 8.07457 17.0682 7.5487C17.3805 6.92669 17.4438 6.45802 17.4044 5.78099C17.3825 5.40461 17.57 5.3111 17.9646 5.38523C18.222 5.43363 18.4057 5.40969 18.7528 5.31344L18.7797 5.30596C19.1733 5.1966 19.3681 5.17226 19.6634 5.23566C19.9353 5.29395 19.9987 5.56258 19.8449 5.68845C19.7867 5.73619 19.7116 5.77343 19.5957 5.81564C19.5593 5.82893 19.4467 5.86669 19.3653 5.89398L19.3652 5.89399C19.3254 5.90736 19.293 5.91822 19.2807 5.92247L19.2685 5.92685C19.2805 5.91919 19.2908 5.91021 19.2993 5.90008L19.3611 5.87934L19.3611 5.87933C19.4425 5.85204 19.5547 5.81441 19.591 5.8012C19.7055 5.75949 19.7793 5.72287 19.836 5.67639C19.9798 5.55862 19.9203 5.30634 19.6605 5.25064C19.3679 5.18783 19.175 5.21194 18.7834 5.32074L18.7565 5.32823C18.4076 5.42499 18.2221 5.44917 17.962 5.40028C17.5754 5.32764 17.3978 5.41622 17.4189 5.78006C17.4585 6.45964 17.3949 6.93094 17.0811 7.55583C16.8143 8.08719 16.7249 8.69635 16.8735 9.08668L16.8631 9.0961C16.7812 9.04537 16.7054 9.01005 16.5689 8.95473C16.3007 8.84608 16.2091 8.8023 16.0556 8.69328C15.6916 8.43472 15.2971 8.21898 14.8555 8.05579L14.8573 8.04735L14.8478 8.05294L14.8555 8.05579C14.7765 8.4176 14.45 8.75101 14.0674 8.86432C13.969 9.15325 14.1254 9.63102 14.388 9.91291C14.53 9.98158 14.6774 10.0386 14.831 10.0852C15.3041 10.2286 15.6915 10.2599 16.4614 10.2618C16.8566 10.2627 17.0108 10.2683 17.1756 10.2959C17.4374 10.3397 17.7955 10.1275 17.8413 9.80106C17.8488 9.74687 17.8596 9.6972 17.8754 9.64034C17.8851 9.60517 17.928 9.46509 17.9238 9.47886C17.9456 9.40621 17.9627 9.34268 17.9793 9.26934C18.0333 9.03072 18.0729 8.72258 18.0987 8.28C18.1086 8.10939 18.1113 8.0418 18.1242 7.67757C18.1403 7.22137 18.1553 7.03604 18.1971 6.90579C18.3062 6.56593 18.3935 6.41333 18.5774 6.33563C18.6511 6.3045 18.7193 6.2671 18.7943 6.21809L18.7967 6.22517L18.8061 6.22839C18.7288 6.27916 18.6587 6.31774 18.5828 6.34982C18.4043 6.42525 18.3187 6.57493 18.2109 6.91067C18.1698 7.03887 18.1548 7.22391 18.1387 7.67814C18.1258 8.04252 18.1231 8.11015 18.1132 8.28093C18.0874 8.72433 18.0477 9.03333 17.9935 9.27288C17.9768 9.34661 17.9596 9.41048 17.9377 9.48344C17.9418 9.46988 17.899 9.60968 17.8894 9.64461C17.8738 9.70084 17.8631 9.74983 17.8557 9.80329C17.8086 10.139 17.4424 10.356 17.1733 10.311C17.0096 10.2836 16.8557 10.278 16.4613 10.277C15.6902 10.2751 15.3017 10.2438 14.8269 10.0999C14.6727 10.0531 14.5245 9.99579 14.3798 9.9252C14.1114 9.63792 13.9531 9.15437 14.0585 8.8544ZM18.821 6.21848L18.8061 6.22839L18.8076 6.22893C18.8123 6.22559 18.8168 6.22211 18.821 6.21848ZM18.8563 6.17606C18.8473 6.19179 18.8356 6.20598 18.821 6.21848C18.8452 6.20226 18.8702 6.18484 18.8964 6.16604C18.9111 6.15548 18.9434 6.1317 18.9737 6.10939L18.9765 6.11065C18.9876 6.10232 18.9977 6.09377 19.0069 6.08495L19.0374 6.06256C19.0902 6.0243 19.1309 5.99701 19.1703 5.97423C19.1934 5.96085 19.2156 5.94935 19.2374 5.93965L19.2401 5.94119C19.2505 5.93713 19.26 5.93233 19.2685 5.92685C19.2582 5.93071 19.2479 5.93497 19.2374 5.93965L19.2285 5.93465L19.228 5.92724C19.2334 5.92481 19.2387 5.92248 19.244 5.92025L19.2441 5.92242C19.2407 5.9241 19.2371 5.92567 19.2333 5.92713L19.2449 5.93367L19.2441 5.92242C19.2492 5.91998 19.2539 5.91733 19.2584 5.91445C19.2643 5.91215 19.2703 5.90998 19.2762 5.90794L19.2993 5.90008C19.3643 5.82304 19.3304 5.6798 19.2167 5.54777L19.2019 5.553L19.228 5.92724C19.207 5.93679 19.1855 5.94797 19.1632 5.96084C19.1273 5.98161 19.0905 6.00601 19.0446 6.03879C19.1061 5.938 19.0662 5.79772 18.903 5.5506L18.8898 5.55605L18.964 6.09785C18.9341 6.11985 18.9026 6.14306 18.8881 6.15342L18.8563 6.17606ZM18.8123 6.2062C18.8266 6.19659 18.8413 6.18656 18.8563 6.17606C18.923 6.05902 18.8362 5.85657 18.6088 5.62894L18.5969 5.63704L18.7943 6.21809L18.8069 6.20976L18.8072 6.21046L18.7995 6.21627L18.8104 6.22003L18.8072 6.21046L18.8123 6.2062ZM18.6211 5.66279C18.8551 5.90522 18.9213 6.1111 18.8123 6.2062L18.8069 6.20976L18.6211 5.66279ZM18.6211 5.66279L18.5987 5.64L18.6106 5.6319L18.6211 5.66279ZM18.9774 6.08801L18.964 6.09785L18.9651 6.10553L18.9737 6.10939L18.99 6.09742L18.99 6.0974L19.0069 6.08495C19.0221 6.07041 19.0347 6.05512 19.0446 6.03879L19.0291 6.04998L18.9976 6.07314C19.0959 5.9781 19.0778 5.84889 18.9087 5.58635L18.9042 5.55387L18.891 5.55931L18.9087 5.58635L18.9774 6.08801ZM18.9777 6.09065C18.9848 6.08493 18.9914 6.0791 18.9976 6.07314L18.9815 6.08496L18.9774 6.08801L18.9777 6.09065ZM18.9777 6.09065L18.968 6.09823L18.9795 6.10335L18.9777 6.09065ZM19.22 5.57737L19.244 5.92025C19.2488 5.91823 19.2536 5.9163 19.2584 5.91445C19.3474 5.85724 19.329 5.71484 19.22 5.57737ZM19.22 5.57737L19.2183 5.55202L19.2034 5.55725C19.2092 5.56394 19.2147 5.57065 19.22 5.57737Z" fill="black"/>
<path fill-rule="evenodd" clip-rule="evenodd" d="M14.6097 8.66406C14.5751 8.64875 14.5387 8.63387 14.5004 8.61933L14.4981 8.60633C14.5075 8.59793 14.5193 8.58676 14.5315 8.57524C14.5482 8.55944 14.5657 8.54299 14.5783 8.53223C14.5973 8.53996 14.6159 8.5478 14.634 8.55576C14.7749 8.61775 14.8366 8.65507 15.0231 8.78069C15.2468 8.93132 15.4014 9.00188 15.7205 9.07144C16.1 9.15425 16.5814 9.33322 16.8068 9.47352L16.7746 9.57121C16.5536 9.44002 16.0738 9.26158 15.6959 9.17926C15.3749 9.10927 15.2186 9.03797 14.9935 8.88634C14.8087 8.76191 14.7482 8.7252 14.6097 8.66406ZM14.5076 8.61795L14.5053 8.60495C14.5092 8.60643 14.5131 8.60791 14.5169 8.60939C14.5136 8.61246 14.5105 8.61533 14.5076 8.61795ZM14.5811 8.54438C14.5687 8.55937 14.5393 8.58864 14.5169 8.60939C14.5513 8.62261 14.584 8.63611 14.6154 8.64997C14.7548 8.71155 14.8159 8.74858 15.0014 8.87347C15.2251 9.02415 15.3797 9.09471 15.6988 9.16429C16.0781 9.24691 16.5594 9.42587 16.7711 9.56274L16.7961 9.47837C16.5756 9.34736 16.0957 9.16892 15.7176 9.08641C15.3966 9.01644 15.2403 8.94515 15.0152 8.79356C14.8294 8.66841 14.7683 8.6314 14.6283 8.56987C14.6273 8.56943 14.6264 8.569 14.6254 8.56857C14.6084 8.5611 14.5913 8.55364 14.5811 8.54438Z" fill="black"/>
<path fill-rule="evenodd" clip-rule="evenodd" d="M17.4917 7.1461C17.5105 7.08981 17.5266 7.03667 17.5404 6.98533L17.5243 6.98145L17.5243 6.98166L17.5243 6.98166C17.5242 6.9817 17.5242 6.98174 17.5242 6.98178L17.4758 7.14147C17.4757 7.14152 17.4757 7.14157 17.4757 7.14162L17.4757 7.14162L17.4757 7.14181L17.4917 7.1461ZM17.4757 7.14162L17.4917 7.14591L17.5404 6.98555L17.5243 6.98166L17.5242 6.98178C17.5105 7.03274 17.4944 7.08554 17.4758 7.14147L17.4757 7.14162ZM15.0002 8.28008C14.9412 8.25711 14.8745 8.22277 14.8097 8.18274L14.8065 8.17375L14.8146 8.14787L14.8146 8.14786C14.8259 8.111 14.839 8.06878 14.8527 8.0383C15.2986 8.20229 15.6967 8.41964 16.0638 8.68041C16.2161 8.78858 16.307 8.83201 16.5741 8.94026C16.7114 8.99586 16.7878 9.03145 16.8731 9.0932L16.7817 9.24061C16.6677 9.1705 16.3861 9.04427 16.1772 8.96423C16.1764 8.98585 16.1669 9.01064 16.1493 9.04291C16.1453 9.05026 16.141 9.05768 16.1351 9.06776C16.1077 9.11476 16.1023 9.12483 16.0975 9.14123C16.0918 9.16081 16.0959 9.17099 16.1134 9.17641L16.1093 9.19111L16.1092 9.19107L16.1132 9.17637L16.0823 9.16726C16.0797 9.15876 16.0802 9.1485 16.0836 9.13674C16.089 9.1185 16.0944 9.1084 16.1227 9.05978C16.1285 9.04981 16.1327 9.0425 16.1366 9.03532C16.1561 8.99964 16.1647 8.97428 16.1623 8.95411L16.172 8.94597C16.3826 9.02605 16.6722 9.15557 16.7791 9.23013L16.8631 9.09589C16.7812 9.04516 16.7054 9.00984 16.5689 8.95452C16.3007 8.84587 16.2091 8.80209 16.0556 8.69307C15.6895 8.43301 15.2926 8.21626 14.8573 8.04732C14.85 8.07881 14.835 8.13168 14.8222 8.17269L14.8171 8.16957L14.8203 8.17857L14.8222 8.17269C14.8846 8.21095 14.9488 8.24396 15.0097 8.27508C15.0075 8.28288 15.0048 8.29079 15.0016 8.29882C14.9832 8.34489 14.9514 8.39059 14.8988 8.45293L14.8734 8.48258L14.8431 8.51807C14.8235 8.54134 14.8103 8.55862 14.8008 8.57373C14.7792 8.608 14.7791 8.62698 14.8018 8.63856C14.8244 8.65045 14.8845 8.68852 14.9497 8.73121C14.9499 8.74312 14.9548 8.75256 14.9651 8.75938L14.9728 8.74644L14.9729 8.74645L14.9651 8.75939C14.892 8.71115 14.8199 8.66519 14.7953 8.65227C14.7627 8.63562 14.7629 8.60621 14.7886 8.5653C14.7986 8.54946 14.8122 8.53171 14.8322 8.50796L14.8627 8.47221L14.8879 8.44279C14.9396 8.38163 14.9706 8.337 14.9882 8.29291L14.9887 8.29174C14.9915 8.28464 14.9941 8.2781 15.0002 8.28008ZM14.9728 8.74644L14.9497 8.73121C14.9494 8.71554 14.9574 8.69559 14.9724 8.67174C14.9915 8.64107 15.0182 8.60811 15.0691 8.54998L15.0756 8.54252C15.1696 8.43521 15.1982 8.39736 15.1975 8.37174L15.2071 8.36425C15.3246 8.40507 15.4344 8.46407 15.5769 8.55631L15.582 8.55968L15.582 8.55968L15.582 8.55968L15.582 8.55969L15.582 8.55969L15.5821 8.55971C15.6108 8.57868 15.7508 8.67108 15.7907 8.6956C15.8657 8.74171 15.9242 8.77062 15.9825 8.79522C15.9761 8.82072 15.9642 8.84859 15.9466 8.88109C15.9376 8.89762 15.9277 8.91452 15.9142 8.93656L15.9135 8.93771C15.8695 9.00948 15.8608 9.02376 15.8544 9.03902C15.8528 9.04281 15.8513 9.04667 15.8495 9.05147L15.8493 9.0521C15.8374 9.08361 15.8418 9.09934 15.8661 9.10569C15.8928 9.11182 15.9372 9.12435 16.0114 9.14627L16.0171 9.14795L16.0676 9.16292L16.0823 9.16726C16.0857 9.17839 16.0945 9.18652 16.1092 9.19107L16.0636 9.17763L16.0131 9.16267L16.0075 9.16099C15.9336 9.13917 15.8893 9.12667 15.8628 9.12058C15.8283 9.11155 15.821 9.0856 15.8357 9.04648L15.8361 9.04548L15.8361 9.04547L15.8361 9.04545L15.8361 9.04545C15.8381 9.04032 15.8396 9.03624 15.8413 9.03222C15.8479 9.01654 15.8569 9.00186 15.9009 8.92999L15.902 8.92829C15.9153 8.90646 15.9251 8.88977 15.9339 8.87353C15.94 8.86228 15.9454 8.85163 15.9503 8.84191L15.9503 8.84191C15.9591 8.82448 15.9664 8.81008 15.9735 8.80066C15.9189 8.78494 15.8594 8.75552 15.7833 8.70879C15.743 8.68402 15.6016 8.59067 15.574 8.57242L15.5739 8.5724L15.5739 8.57238L15.5693 8.56932C15.4312 8.47998 15.3243 8.42213 15.2113 8.38188C15.2063 8.412 15.1753 8.45124 15.0863 8.55287L15.0798 8.56032C15.0295 8.61782 15.0031 8.6504 14.9845 8.68013C14.9623 8.71569 14.9588 8.73712 14.9728 8.74644ZM18.0857 8.69902C18.0962 8.60647 17.9885 8.54195 17.7882 8.50051C17.628 8.46736 17.4132 8.45043 17.1854 8.44851L17.1835 8.46356L18.0767 8.70552L18.0857 8.69902ZM18.0718 8.68841L18.0803 8.69071L18.0712 8.69721C18.0716 8.69425 18.0718 8.69132 18.0718 8.68841ZM17.2459 8.46468C17.4502 8.46887 17.6405 8.48553 17.7854 8.51551C17.9713 8.55398 18.0728 8.61209 18.0718 8.68841L17.2459 8.46468ZM17.2459 8.46468C17.2259 8.46426 17.2056 8.46397 17.1853 8.4638L17.1872 8.44875L17.2459 8.46468ZM17.103 8.40234C17.1126 8.32428 17.1259 8.24828 17.143 8.17457L17.1266 8.17176L17.0865 8.40026L17.103 8.40234ZM17.1029 8.40269L17.0864 8.40062C17.0961 8.32208 17.1095 8.2456 17.1267 8.17138L17.1431 8.17419L17.1029 8.40269Z" fill="black"/>
<path fill-rule="evenodd" clip-rule="evenodd" d="M17.3998 7.63395C17.1691 8.17004 17.1125 8.79935 17.2816 9.17518L17.2725 9.18562L17.1647 9.14146C17.081 8.94635 17.0554 8.6879 17.0922 8.40918L17.0554 8.40125C17.0251 8.39488 17.0013 8.39074 16.9782 8.38822C16.8768 8.37721 16.8188 8.40252 16.8107 8.48237C16.8126 8.46117 16.8149 8.43963 16.8176 8.4177C16.8465 8.37695 16.9023 8.36461 16.9797 8.37302C17.0034 8.37559 17.0275 8.3798 17.0582 8.38625C17.0666 8.38802 17.0929 8.39373 17.1009 8.40255C17.0702 8.6871 17.0954 8.94287 17.1739 9.13115L17.2611 9.16491C17.2635 9.17056 17.266 9.17616 17.2685 9.18171L17.2776 9.17127L17.2611 9.16491C17.0989 8.78275 17.1576 8.15958 17.3866 7.62765C17.6078 7.11341 17.6761 6.65797 17.6559 6.16309C17.6896 6.1637 17.7155 6.15473 17.7684 6.12865L17.7709 6.12741C17.7854 6.12025 17.7922 6.11698 17.8005 6.1132C18.0306 6.00832 18.2396 6.02317 18.3835 6.12672C18.4836 6.19869 18.5305 6.3031 18.5029 6.37414C18.4904 6.3822 18.4794 6.39099 18.4641 6.40392L18.4733 6.4158C18.487 6.40404 18.4968 6.38991 18.5029 6.37414C18.5227 6.36136 18.546 6.35042 18.5959 6.32774L18.6055 6.32324C18.686 6.28643 18.5744 6.04482 18.3719 5.94376C18.3719 5.94376 18.3718 5.94376 18.3718 5.94376C18.2802 5.89798 18.0959 5.89031 17.9645 5.91865L17.9575 5.90621C18.0544 5.78652 18.1226 5.74332 18.2621 5.72717C18.2639 5.78 18.2512 5.84107 18.2299 5.89174L18.22 5.89049L18.2202 5.89094L18.2257 5.90137C18.2271 5.89828 18.2284 5.89513 18.2298 5.89195C18.2298 5.89188 18.2299 5.89181 18.2299 5.89174L18.2351 5.8924C18.2766 5.89739 18.3039 5.90186 18.3272 5.91056C18.3418 5.916 18.3548 5.92308 18.3687 5.93298C18.3698 5.93101 18.3709 5.92901 18.372 5.927C18.4066 5.86188 18.4247 5.77426 18.424 5.68115C18.4625 5.67026 18.5001 5.65887 18.554 5.64205C18.7253 5.58854 18.7547 5.5798 18.8276 5.56294C18.9316 5.53891 19.0229 5.52887 19.1133 5.53399C19.29 5.54401 19.4193 5.61084 19.4563 5.70127C19.4809 5.76152 19.4604 5.82074 19.4011 5.86591C19.3873 5.87054 19.3739 5.87506 19.3612 5.87932C19.3474 5.88394 19.3345 5.88827 19.323 5.89213C19.429 5.84945 19.4721 5.77859 19.4429 5.7073C19.4085 5.62321 19.2843 5.559 19.1125 5.54926C19.0236 5.54422 18.9335 5.55412 18.8308 5.57787C18.7583 5.59461 18.7291 5.60333 18.5581 5.65671C18.5042 5.67356 18.4664 5.68498 18.4331 5.68798C18.4391 5.77371 18.4218 5.86135 18.38 5.9309C18.5904 6.03705 18.7082 6.29293 18.6115 6.33721L18.6017 6.34177C18.5217 6.37816 18.5114 6.38361 18.4732 6.41584L18.464 6.40396C18.5301 6.34733 18.4907 6.22235 18.3753 6.13934C18.2356 6.03885 18.032 6.02438 17.8063 6.12724C17.7981 6.13094 17.7915 6.13415 17.7771 6.14125L17.7746 6.14249C17.7197 6.16953 17.6923 6.17905 17.6631 6.17028C17.6908 6.65941 17.6221 7.11731 17.3998 7.63395ZM19.3271 5.9068C19.3561 5.89516 19.3809 5.88136 19.4011 5.86591C19.4757 5.84088 19.5604 5.81235 19.591 5.8012C19.7055 5.75949 19.7793 5.72287 19.836 5.67639C19.9799 5.55862 19.9203 5.30634 19.6605 5.25064C19.368 5.18783 19.175 5.21194 18.7835 5.32074L18.7565 5.32823C18.4076 5.42499 18.2221 5.44917 17.9621 5.40028C17.7832 5.36667 17.6535 5.36764 17.562 5.41282C17.4531 5.4666 17.403 5.58367 17.419 5.77987C17.4196 5.78796 17.42 5.79317 17.4205 5.79837C17.4212 5.80776 17.4219 5.81716 17.4238 5.84358L17.4241 5.84675C17.4254 5.86513 17.4266 5.87937 17.4283 5.89955C17.4283 6.04179 17.2587 6.11302 17.0968 6.02181C17.0884 6.01132 17.0799 6.00007 17.0711 5.988L17.0612 5.99893C17.073 6.00746 17.0849 6.01508 17.0968 6.02181C17.1446 6.08147 17.1874 6.11627 17.232 6.13435C17.2738 6.15131 17.3057 6.15382 17.394 6.15208C17.4082 6.1518 17.4146 6.15169 17.4159 6.15898C17.4166 6.13719 17.4307 6.12767 17.4536 6.12881C17.4694 6.1296 17.4868 6.13425 17.5195 6.14505L17.5238 6.14648C17.5724 6.16264 17.5906 6.16679 17.6003 6.1618L17.6108 6.16841C17.6194 6.4459 17.5974 6.70838 17.5222 6.99069C17.4026 6.93508 17.3279 6.93233 17.3022 7.00435C17.2916 7.03943 17.2808 7.07362 17.2694 7.10757C17.2558 7.11766 17.2454 7.13265 17.2382 7.1529L17.2518 7.15825C17.2518 7.15825 17.2518 7.15824 17.2518 7.15824C17.2578 7.14136 17.2637 7.12449 17.2694 7.10757C17.312 7.07584 17.386 7.09247 17.4896 7.14631C17.4466 7.29361 17.3911 7.44354 17.3223 7.5964C17.24 7.77883 17.1758 7.97752 17.127 8.1806C16.9699 8.13947 16.866 8.14211 16.851 8.21933C16.8366 8.28915 16.8254 8.355 16.8176 8.4177C16.8061 8.43398 16.7988 8.45479 16.7962 8.48063C16.796 8.48238 16.7959 8.48413 16.7957 8.48588L16.8102 8.48718C16.8104 8.48556 16.8105 8.48395 16.8107 8.48237C16.8105 8.48401 16.8104 8.48564 16.8102 8.48728L16.7957 8.48597M17.5965 6.17883C17.5826 6.18092 17.5625 6.1754 17.5194 6.16105L17.5151 6.15963C17.4837 6.14925 17.467 6.14479 17.4529 6.14409C17.4372 6.14331 17.4308 6.14763 17.4232 6.16688L17.3943 6.16737C17.304 6.16915 17.271 6.16654 17.2267 6.14861C17.1714 6.1262 17.1196 6.08005 17.0595 5.99726L17.0695 5.98634C17.2323 6.10422 17.4138 6.03847 17.4138 5.90025C17.4121 5.8807 17.4109 5.86638 17.4095 5.84793L17.4093 5.84475C17.4074 5.81835 17.4067 5.80898 17.4059 5.79961C17.4055 5.79442 17.4051 5.78924 17.4045 5.78117C17.388 5.57911 17.4408 5.45579 17.5558 5.39899C17.6507 5.35209 17.783 5.3511 17.9646 5.38523C18.222 5.43363 18.4058 5.40969 18.7528 5.31344L18.7797 5.30596C19.1733 5.1966 19.3681 5.17226 19.6635 5.23566C19.9353 5.29395 19.9987 5.56258 19.845 5.68845C19.7867 5.73619 19.7117 5.77343 19.5958 5.81564C19.5593 5.82893 19.4467 5.86669 19.3653 5.89399C19.3515 5.89862 19.3386 5.90295 19.3271 5.9068C19.3126 5.91263 19.297 5.91791 19.2804 5.92259L19.2762 5.90794C19.2843 5.90514 19.3011 5.89948 19.323 5.89213C19.3087 5.8979 19.2932 5.90315 19.2766 5.90782L19.2807 5.92247C19.2888 5.91969 19.3054 5.91409 19.3271 5.9068M17.9822 5.89959C18.0541 5.88655 18.1382 5.88335 18.2145 5.89039C18.2362 5.84085 18.2496 5.78 18.2561 5.73497C18.1347 5.75666 18.0699 5.79509 17.9822 5.89959Z" fill="black"/>
</g>
</svg>
