<svg width="28" height="20" viewBox="0 0 28 20" fill="none" xmlns="http://www.w3.org/2000/svg">
<rect x="0.25" y="0.25" width="27.5" height="19.5" rx="1.75" fill="white" stroke="#F5F5F5" stroke-width="0.5"/>
<mask id="mask0_14715_5651" style="mask-type:luminance" maskUnits="userSpaceOnUse" x="0" y="0" width="28" height="20">
<rect x="0.25" y="0.25" width="27.5" height="19.5" rx="1.75" fill="white" stroke="white" stroke-width="0.5"/>
</mask>
<g mask="url(#mask0_14715_5651)">
<path fill-rule="evenodd" clip-rule="evenodd" d="M0 6.66667H28V0H0V6.66667Z" fill="#FFA44A"/>
<path fill-rule="evenodd" clip-rule="evenodd" d="M0 19.9997H28V13.333H0V19.9997Z" fill="#1A9F0B"/>
<path d="M14 12.3333C15.2887 12.3333 16.3333 11.2887 16.3333 10C16.3333 8.71134 15.2887 7.66667 14 7.66667C12.7113 7.66667 11.6667 8.71134 11.6667 10C11.6667 11.2887 12.7113 12.3333 14 12.3333Z" fill="#181A93" fill-opacity="0.15" stroke="#181A93" stroke-width="0.666667"/>
<path fill-rule="evenodd" clip-rule="evenodd" d="M14 10.6663C14.3682 10.6663 14.6667 10.3679 14.6667 9.99967C14.6667 9.63148 14.3682 9.33301 14 9.33301C13.6318 9.33301 13.3333 9.63148 13.3333 9.99967C13.3333 10.3679 13.6318 10.6663 14 10.6663Z" fill="#181A93"/>
</g>
</svg>
