<svg width="28" height="20" viewBox="0 0 28 20" fill="none" xmlns="http://www.w3.org/2000/svg">
<rect width="28" height="20" rx="2" fill="white"/>
<mask id="mask0_14715_5768" style="mask-type:luminance" maskUnits="userSpaceOnUse" x="0" y="0" width="28" height="20">
<rect width="28" height="20" rx="2" fill="white"/>
</mask>
<g mask="url(#mask0_14715_5768)">
<path fill-rule="evenodd" clip-rule="evenodd" d="M0 5.33333H28V0H0V5.33333Z" fill="#262626"/>
<path fill-rule="evenodd" clip-rule="evenodd" d="M0 20.0003H28V14.667H0V20.0003Z" fill="#018301"/>
<path fill-rule="evenodd" clip-rule="evenodd" d="M0 14.6663H28V5.33301H0V14.6663Z" fill="white"/>
<path fill-rule="evenodd" clip-rule="evenodd" d="M0 13.3337H28V6.66699H0V13.3337Z" fill="#DC0808"/>
<path fill-rule="evenodd" clip-rule="evenodd" d="M14 16.6663C15.3333 16.6663 17.3333 14.0498 17.3333 9.99967C17.3333 5.94959 15.3333 3.33301 14 3.33301C12.6667 3.33301 10.6667 5.94959 10.6667 9.99967C10.6667 14.0498 12.6667 16.6663 14 16.6663Z" fill="#BC0000"/>
<mask id="mask1_14715_5768" style="mask-type:luminance" maskUnits="userSpaceOnUse" x="10" y="3" width="8" height="14">
<path fill-rule="evenodd" clip-rule="evenodd" d="M14 16.6663C15.3333 16.6663 17.3333 14.0498 17.3333 9.99967C17.3333 5.94959 15.3333 3.33301 14 3.33301C12.6667 3.33301 10.6667 5.94959 10.6667 9.99967C10.6667 14.0498 12.6667 16.6663 14 16.6663Z" fill="white"/>
</mask>
<g mask="url(#mask1_14715_5768)">
<path fill-rule="evenodd" clip-rule="evenodd" d="M8.66668 17.3327C10.5076 17.3327 12 14.0494 12 9.99935C12 5.94926 10.5076 2.66602 8.66668 2.66602C6.82573 2.66602 5.33334 5.94926 5.33334 9.99935C5.33334 14.0494 6.82573 17.3327 8.66668 17.3327Z" fill="#262626"/>
<path fill-rule="evenodd" clip-rule="evenodd" d="M19.3333 17.3327C21.1743 17.3327 22.6667 14.0494 22.6667 9.99935C22.6667 5.94926 21.1743 2.66602 19.3333 2.66602C17.4924 2.66602 16 5.94926 16 9.99935C16 14.0494 17.4924 17.3327 19.3333 17.3327Z" fill="#262626"/>
<g filter="url(#filter0_d_14715_5768)">
<path fill-rule="evenodd" clip-rule="evenodd" d="M14 7.99935C14.3682 7.99935 14.6667 6.80544 14.6667 5.33268C14.6667 3.85992 14.3682 2.66602 14 2.66602C13.6318 2.66602 13.3333 3.85992 13.3333 5.33268C13.3333 6.80544 13.6318 7.99935 14 7.99935ZM14 11.9993C14.3682 11.9993 14.6667 11.1039 14.6667 9.99935C14.6667 8.89478 14.3682 7.99935 14 7.99935C13.6318 7.99935 13.3333 8.89478 13.3333 9.99935C13.3333 11.1039 13.6318 11.9993 14 11.9993ZM14 11.9993C13.6318 11.9993 13.3333 13.1933 13.3333 14.666C13.3333 16.1388 13.6318 17.3327 14 17.3327C14.3682 17.3327 14.6667 16.1388 14.6667 14.666C14.6667 13.1933 14.3682 11.9993 14 11.9993Z" fill="url(#paint0_linear_14715_5768)"/>
</g>
</g>
</g>
<defs>
<filter id="filter0_d_14715_5768" x="13.3333" y="2.66602" width="1.33333" height="15.667" filterUnits="userSpaceOnUse" color-interpolation-filters="sRGB">
<feFlood flood-opacity="0" result="BackgroundImageFix"/>
<feColorMatrix in="SourceAlpha" type="matrix" values="0 0 0 0 0 0 0 0 0 0 0 0 0 0 0 0 0 0 127 0" result="hardAlpha"/>
<feOffset dy="1"/>
<feColorMatrix type="matrix" values="0 0 0 0 0 0 0 0 0 0 0 0 0 0 0 0 0 0 0.06 0"/>
<feBlend mode="normal" in2="BackgroundImageFix" result="effect1_dropShadow_14715_5768"/>
<feBlend mode="normal" in="SourceGraphic" in2="effect1_dropShadow_14715_5768" result="shape"/>
</filter>
<linearGradient id="paint0_linear_14715_5768" x1="13.3333" y1="2.66602" x2="13.3333" y2="17.3327" gradientUnits="userSpaceOnUse">
<stop stop-color="white"/>
<stop offset="1" stop-color="#F0F0F0"/>
</linearGradient>
</defs>
</svg>
