<svg width="28" height="20" viewBox="0 0 28 20" fill="none" xmlns="http://www.w3.org/2000/svg">
<rect width="28" height="20" rx="2" fill="white"/>
<mask id="mask0_14715_5727" style="mask-type:luminance" maskUnits="userSpaceOnUse" x="0" y="0" width="28" height="20">
<rect width="28" height="20" rx="2" fill="white"/>
</mask>
<g mask="url(#mask0_14715_5727)">
<path fill-rule="evenodd" clip-rule="evenodd" d="M0 5.33333H28V0H0V5.33333Z" fill="#0F3EB6"/>
<path fill-rule="evenodd" clip-rule="evenodd" d="M0 20.0003H28V14.667H0V20.0003Z" fill="#0F3EB6"/>
<path fill-rule="evenodd" clip-rule="evenodd" d="M0 14.6663H28V5.33301H0V14.6663Z" fill="#ED1A3C"/>
<path fill-rule="evenodd" clip-rule="evenodd" d="M12 8.72689H13.3333V7.99967C13.3333 7.63148 13.6318 7.33301 14 7.33301C14.3682 7.33301 14.6667 7.63148 14.6667 7.99967V8.72689H16V9.99967H12V8.72689ZM17.3333 7.99967C16.9651 7.99967 16.6667 8.29815 16.6667 8.66634V9.99967H18V8.66634C18 8.29815 17.7015 7.99967 17.3333 7.99967ZM11.3333 13.333V10.6663H9.99999L8.66666 13.333H11.3333ZM16 10.6663H12V13.333H16V10.6663ZM16.6667 10.6663H18L19.3333 13.333H16.6667V10.6663ZM10.6667 7.99967C10.2985 7.99967 9.99999 8.29815 9.99999 8.66634V9.99967H11.3333V8.66634C11.3333 8.29815 11.0348 7.99967 10.6667 7.99967Z" fill="white"/>
</g>
</svg>
