<svg width="28" height="20" viewBox="0 0 28 20" fill="none" xmlns="http://www.w3.org/2000/svg">
<rect width="28" height="20" rx="2" fill="white"/>
<mask id="mask0_14715_5826" style="mask-type:luminance" maskUnits="userSpaceOnUse" x="0" y="0" width="28" height="20">
<rect width="28" height="20" rx="2" fill="white"/>
</mask>
<g mask="url(#mask0_14715_5826)">
<path fill-rule="evenodd" clip-rule="evenodd" d="M0 13.3333L28 0H0V13.3333Z" fill="#1EC160"/>
<path fill-rule="evenodd" clip-rule="evenodd" d="M0 20.0003H28V6.66699L0 20.0003Z" fill="#DF2A40"/>
<path fill-rule="evenodd" clip-rule="evenodd" d="M0.783897 25.3338L33.5751 4.84357L27.2161 -5.33301L-5.57513 15.1572L0.783897 25.3338Z" fill="#FFD956"/>
<path fill-rule="evenodd" clip-rule="evenodd" d="M-0.629192 23.0716L32.162 2.58139L28.6292 -3.07227L-4.16199 17.4179L-0.629192 23.0716Z" fill="#262626"/>
<path fill-rule="evenodd" clip-rule="evenodd" d="M20.3094 7.79711L19.364 9.29447L18.7506 7.63327L17.0344 7.19684L18.4247 6.10009L18.3094 4.33301L19.7821 5.31638L21.4271 4.66069L20.947 6.36519L22.0789 7.72704L20.3094 7.79711Z" fill="white"/>
<path fill-rule="evenodd" clip-rule="evenodd" d="M9.64274 14.2639L8.69733 15.7613L8.0839 14.1001L6.36768 13.6636L7.75801 12.5669L7.64274 10.7998L9.11544 11.7832L10.7604 11.1275L10.2803 12.832L11.4122 14.1938L9.64274 14.2639Z" fill="white"/>
</g>
</svg>
