<svg width="28" height="20" viewBox="0 0 28 20" fill="none" xmlns="http://www.w3.org/2000/svg">
<rect x="0.25" y="0.25" width="27.5" height="19.5" rx="1.75" fill="white" stroke="#F5F5F5" stroke-width="0.5"/>
<mask id="mask0_14715_5792" style="mask-type:luminance" maskUnits="userSpaceOnUse" x="0" y="0" width="28" height="20">
<rect x="0.25" y="0.25" width="27.5" height="19.5" rx="1.75" fill="white" stroke="white" stroke-width="0.5"/>
</mask>
<g mask="url(#mask0_14715_5792)">
<path fill-rule="evenodd" clip-rule="evenodd" d="M14 14.6663C16.5773 14.6663 18.6667 12.577 18.6667 9.99967C18.6667 7.42235 16.5773 5.33301 14 5.33301C11.4227 5.33301 9.33334 7.42235 9.33334 9.99967C9.33334 12.577 11.4227 14.6663 14 14.6663Z" fill="#E01B41"/>
<mask id="mask1_14715_5792" style="mask-type:luminance" maskUnits="userSpaceOnUse" x="9" y="5" width="10" height="10">
<path fill-rule="evenodd" clip-rule="evenodd" d="M14 14.6663C16.5773 14.6663 18.6667 12.577 18.6667 9.99967C18.6667 7.42235 16.5773 5.33301 14 5.33301C11.4227 5.33301 9.33334 7.42235 9.33334 9.99967C9.33334 12.577 11.4227 14.6663 14 14.6663Z" fill="white"/>
</mask>
<g mask="url(#mask1_14715_5792)">
<path fill-rule="evenodd" clip-rule="evenodd" d="M9.33335 10.666C10.6667 11.916 12.6667 12.666 14 10.666C15.3333 8.66602 18 8.66602 18.6667 10.666C19.3333 12.666 18.6667 14.666 18.6667 14.666H9.33335C9.33335 14.666 8.00001 9.41602 9.33335 10.666Z" fill="#0E4B9C"/>
</g>
<path opacity="0.75" fill-rule="evenodd" clip-rule="evenodd" d="M6.17308 3.55637C6.26513 3.39694 6.46899 3.34231 6.62842 3.43436L7.20577 3.7677C7.3652 3.85974 7.41983 4.06361 7.32778 4.22304L5.66111 7.10979C5.56907 7.26922 5.3652 7.32384 5.20577 7.2318L4.62842 6.89846C4.46899 6.80642 4.41437 6.60255 4.50641 6.44312L6.17308 3.55637ZM20.7942 3.7677C20.6348 3.85974 20.5802 4.06361 20.6722 4.22304L22.3389 7.10979C22.4309 7.26922 22.6348 7.32384 22.7942 7.2318L23.3716 6.89846C23.531 6.80642 23.5856 6.60255 23.4936 6.44312L21.8269 3.55637C21.7349 3.39694 21.531 3.34231 21.3716 3.43436L20.7942 3.7677ZM19.0622 4.7677C18.9027 4.85974 18.8481 5.06361 18.9402 5.22304L20.6068 8.10979C20.6989 8.26922 20.9027 8.32384 21.0622 8.2318L21.6395 7.89846C21.799 7.80642 21.8536 7.60255 21.7615 7.44312L20.0949 4.55637C20.0028 4.39694 19.799 4.34231 19.6395 4.43436L19.0622 4.7677ZM4.50641 13.5564C4.41437 13.3969 4.46899 13.1931 4.62842 13.101L5.20577 12.7677C5.3652 12.6756 5.56907 12.7303 5.66111 12.8897L7.32778 15.7765C7.41983 15.9359 7.3652 16.1397 7.20577 16.2318L6.62842 16.5651C6.46899 16.6572 6.26513 16.6026 6.17308 16.4431L4.50641 13.5564ZM6.36047 12.101C6.20104 12.1931 6.14642 12.3969 6.23847 12.5564L7.90513 15.4431C7.99718 15.6026 8.20104 15.6572 8.36047 15.5651L8.93782 15.2318C9.09725 15.1397 9.15188 14.9359 9.05983 14.7765L7.39317 11.8897C7.30112 11.7303 7.09725 11.6756 6.93782 11.7677L6.36047 12.101ZM20.6068 11.8897C20.6989 11.7303 20.9027 11.6756 21.0622 11.7677L21.6395 12.101C21.799 12.1931 21.8536 12.3969 21.7615 12.5564L20.0949 15.4431C20.0028 15.6026 19.799 15.6572 19.6395 15.5651L19.0622 15.2318C18.9027 15.1398 18.8481 14.9359 18.9402 14.7765L20.6068 11.8897ZM22.7942 12.7677C22.6348 12.6756 22.4309 12.7303 22.3389 12.8897L20.6722 15.7765C20.5802 15.9359 20.6348 16.1398 20.7942 16.2318L21.3716 16.5651C21.531 16.6572 21.7349 16.6026 21.8269 16.4431L23.4936 13.5564C23.5856 13.3969 23.531 13.1931 23.3716 13.101L22.7942 12.7677ZM8.36047 4.43436C8.20104 4.34231 7.99718 4.39694 7.90513 4.55637L6.23846 7.44312C6.14642 7.60255 6.20104 7.80642 6.36047 7.89846L6.93782 8.2318C7.09725 8.32384 7.30112 8.26922 7.39317 8.10979L9.05983 5.22304C9.15188 5.06361 9.09725 4.85974 8.93782 4.7677L8.36047 4.43436Z" fill="#262626"/>
</g>
</svg>
