<svg width="28" height="20" viewBox="0 0 28 20" fill="none" xmlns="http://www.w3.org/2000/svg">
<rect width="28" height="20" rx="2" fill="white"/>
<mask id="mask0_14715_5746" style="mask-type:luminance" maskUnits="userSpaceOnUse" x="0" y="0" width="28" height="20">
<rect width="28" height="20" rx="2" fill="white"/>
</mask>
<g mask="url(#mask0_14715_5746)">
<rect width="28" height="20" fill="#30C6E0"/>
<path fill-rule="evenodd" clip-rule="evenodd" d="M14 14C16.2091 14 18 12.2091 18 10C18 7.79086 16.2091 6 14 6C11.7909 6 10 7.79086 10 10C10 12.2091 11.7909 14 14 14Z" fill="#FFCD4B"/>
<path fill-rule="evenodd" clip-rule="evenodd" d="M12.3682 17.1495L14 14.7137L15.6318 17.1495L16.0452 14.2469L18.5723 15.7335L17.6853 12.9389L20.6071 13.1819L18.5954 11.0489L21.3333 10.0001L18.5954 8.95118L20.6071 6.81824L17.6853 7.06117L18.5723 4.26663L16.0452 5.75324L15.6318 2.85059L14 5.28644L12.3682 2.85059L11.9548 5.75324L9.42775 4.26663L10.3148 7.06117L7.3929 6.81824L9.40457 8.95118L6.66667 10.0001L9.40457 11.0489L7.3929 13.1819L10.3148 12.9389L9.42775 15.7335L11.9548 14.2469L12.3682 17.1495ZM18.6667 10.0001C18.6667 12.5774 16.5773 14.6667 14 14.6667C11.4227 14.6667 9.33334 12.5774 9.33334 10.0001C9.33334 7.42273 11.4227 5.33339 14 5.33339C16.5773 5.33339 18.6667 7.42273 18.6667 10.0001Z" fill="#FFCD4B"/>
<path fill-rule="evenodd" clip-rule="evenodd" d="M1.33333 1.66634C1.33333 1.48225 1.48257 1.33301 1.66666 1.33301H2.33333C2.51742 1.33301 2.66666 1.48225 2.66666 1.66634V2.33301C2.66666 2.5171 2.51742 2.66634 2.33333 2.66634H1.66666C1.48257 2.66634 1.33333 2.5171 1.33333 2.33301V1.66634ZM1.33333 4.33301C1.33333 4.14891 1.48257 3.99967 1.66666 3.99967H2.33333C2.51742 3.99967 2.66666 4.14891 2.66666 4.33301V4.99967C2.66666 5.18377 2.51742 5.33301 2.33333 5.33301H1.66666C1.48257 5.33301 1.33333 5.18377 1.33333 4.99967V4.33301ZM1.66666 6.66634C1.48257 6.66634 1.33333 6.81558 1.33333 6.99967V7.66634C1.33333 7.85044 1.48257 7.99967 1.66666 7.99967H2.33333C2.51742 7.99967 2.66666 7.85044 2.66666 7.66634V6.99967C2.66666 6.81558 2.51742 6.66634 2.33333 6.66634H1.66666ZM1.33333 9.66634C1.33333 9.48225 1.48257 9.33301 1.66666 9.33301H2.33333C2.51742 9.33301 2.66666 9.48225 2.66666 9.66634V10.333C2.66666 10.5171 2.51742 10.6663 2.33333 10.6663H1.66666C1.48257 10.6663 1.33333 10.5171 1.33333 10.333V9.66634ZM1.66666 11.9997C1.48257 11.9997 1.33333 12.1489 1.33333 12.333V12.9997C1.33333 13.1838 1.48257 13.333 1.66666 13.333H2.33333C2.51742 13.333 2.66666 13.1838 2.66666 12.9997V12.333C2.66666 12.1489 2.51742 11.9997 2.33333 11.9997H1.66666ZM1.33333 14.9997C1.33333 14.8156 1.48257 14.6663 1.66666 14.6663H2.33333C2.51742 14.6663 2.66666 14.8156 2.66666 14.9997V15.6663C2.66666 15.8504 2.51742 15.9997 2.33333 15.9997H1.66666C1.48257 15.9997 1.33333 15.8504 1.33333 15.6663V14.9997ZM1.66666 17.333C1.48257 17.333 1.33333 17.4822 1.33333 17.6663V18.333C1.33333 18.5171 1.48257 18.6663 1.66666 18.6663H2.33333C2.51742 18.6663 2.66666 18.5171 2.66666 18.333V17.6663C2.66666 17.4822 2.51742 17.333 2.33333 17.333H1.66666ZM2.66666 16.333C2.66666 16.1489 2.8159 15.9997 2.99999 15.9997H3.66666C3.85076 15.9997 3.99999 16.1489 3.99999 16.333V16.9997C3.99999 17.1838 3.85076 17.333 3.66666 17.333H3C2.8159 17.333 2.66666 17.1838 2.66666 16.9997V16.333ZM2.99999 13.333C2.8159 13.333 2.66666 13.4822 2.66666 13.6663V14.333C2.66666 14.5171 2.8159 14.6663 3 14.6663H3.66666C3.85076 14.6663 3.99999 14.5171 3.99999 14.333V13.6663C3.99999 13.4822 3.85076 13.333 3.66666 13.333H2.99999ZM2.66666 10.9997C2.66666 10.8156 2.8159 10.6663 2.99999 10.6663H3.66666C3.85076 10.6663 3.99999 10.8156 3.99999 10.9997V11.6663C3.99999 11.8504 3.85076 11.9997 3.66666 11.9997H3C2.8159 11.9997 2.66666 11.8504 2.66666 11.6663V10.9997ZM2.99999 7.99967C2.8159 7.99967 2.66666 8.14891 2.66666 8.33301V8.99967C2.66666 9.18377 2.8159 9.33301 3 9.33301H3.66666C3.85076 9.33301 3.99999 9.18377 3.99999 8.99967V8.33301C3.99999 8.14891 3.85076 7.99967 3.66666 7.99967H2.99999ZM2.66666 5.66634C2.66666 5.48225 2.8159 5.33301 2.99999 5.33301H3.66666C3.85076 5.33301 3.99999 5.48225 3.99999 5.66634V6.33301C3.99999 6.5171 3.85076 6.66634 3.66666 6.66634H3C2.8159 6.66634 2.66666 6.5171 2.66666 6.33301V5.66634ZM2.99999 2.66634C2.8159 2.66634 2.66666 2.81558 2.66666 2.99967V3.66634C2.66666 3.85044 2.8159 3.99967 3 3.99967H3.66666C3.85076 3.99967 3.99999 3.85044 3.99999 3.66634V2.99967C3.99999 2.81558 3.85076 2.66634 3.66666 2.66634H2.99999Z" fill="#FFCD4B"/>
</g>
</svg>
