<svg width="28" height="20" viewBox="0 0 28 20" fill="none" xmlns="http://www.w3.org/2000/svg">
<rect width="28" height="20" rx="2" fill="white"/>
<mask id="mask0_14715_6062" style="mask-type:luminance" maskUnits="userSpaceOnUse" x="0" y="0" width="28" height="20">
<rect width="28" height="20" rx="2" fill="white"/>
</mask>
<g mask="url(#mask0_14715_6062)">
<rect width="28" height="20" fill="#E6BE53"/>
<path fill-rule="evenodd" clip-rule="evenodd" d="M1.33331 17.6663C1.33331 18.2186 1.78103 18.6663 2.33331 18.6663H25.6666C26.2189 18.6663 26.6666 18.2186 26.6666 17.6663V2.33301C26.6666 1.78072 26.2189 1.33301 25.6666 1.33301H2.33331C1.78103 1.33301 1.33331 1.78072 1.33331 2.33301V17.6663Z" fill="#E01826"/>
<path fill-rule="evenodd" clip-rule="evenodd" d="M13.0233 3.65863C12.5532 3.81535 12.4123 4.41206 12.7627 4.76249L13.1381 5.13782C13.2631 5.26284 13.4326 5.33308 13.6095 5.33308H14.3905C14.5673 5.33308 14.7369 5.26284 14.8619 5.13782L15.2372 4.76249C15.5877 4.41206 15.4468 3.81535 14.9766 3.65863L14.2108 3.40335C14.074 3.35774 13.926 3.35774 13.7892 3.40335L13.0233 3.65863ZM14.4714 6.86167C14.211 7.12202 13.7889 7.12202 13.5286 6.86167L13.3333 6.66641L12.3397 5.67285C12.1368 5.46994 11.8269 5.41964 11.5702 5.54797L11.4939 5.5861C11.0869 5.78959 10.9989 6.33202 11.3207 6.65378L11.3333 6.66641L12.3269 7.65998C12.5298 7.86288 12.5801 8.17286 12.4518 8.42952L12.0379 9.25716C12.013 9.30709 12 9.36214 12 9.41796C12 9.68525 11.7187 9.8591 11.4796 9.73956L11.1567 9.57811C10.9156 9.45756 10.8635 9.13625 11.0541 8.94565C11.2083 8.79143 11.2083 8.54139 11.0541 8.38717L10.7431 8.07624C10.6925 8.02558 10.6503 7.96707 10.6183 7.90298L10.0327 6.73187C10.011 6.68836 9.99403 6.64261 9.98223 6.59542L9.67302 5.35857C9.53687 4.81398 8.82974 4.67118 8.49293 5.12026L7.46665 6.48863C7.3801 6.60403 7.33331 6.74439 7.33331 6.88863V9.1757C7.33331 9.2792 7.35741 9.38127 7.40369 9.47384L7.9516 10.5696C7.98364 10.6337 8.02581 10.6922 8.07648 10.7429L9.25681 11.9232C9.30748 11.9739 9.36599 12.0161 9.43008 12.0481L10.6037 12.6349C10.6451 12.6556 10.6907 12.6664 10.737 12.6664C11.0516 12.6664 11.1518 13.0905 10.8704 13.2312L10.7158 13.3085C10.6833 13.3248 10.6535 13.3462 10.6278 13.372L10.3333 13.6664C10.1492 13.8505 9.85074 13.8505 9.66665 13.6664C9.48255 13.4823 9.18407 13.4823 8.99998 13.6664L8.94589 13.7205C8.77913 13.8873 8.73779 14.142 8.84325 14.353L9.14905 14.9646C9.26198 15.1904 9.49282 15.3331 9.74534 15.3331H10.5093C10.6128 15.3331 10.7148 15.309 10.8074 15.2627L11.8012 14.7658C11.9302 14.7013 12.0349 14.5967 12.0994 14.4677L12.4016 13.8631C12.532 13.6024 12.8795 13.546 13.0857 13.7521C13.2297 13.8961 13.252 14.1217 13.1391 14.2911L12.3698 15.445C12.1655 15.7514 12.2483 16.1653 12.5547 16.3695L13.6302 17.0865C13.8541 17.2358 14.1458 17.2358 14.3698 17.0865L15.4453 16.3695C15.7516 16.1653 15.8344 15.7514 15.6302 15.445L14.8609 14.2911C14.7479 14.1217 14.7703 13.8961 14.9143 13.7521C15.1204 13.546 15.468 13.6024 15.5983 13.8631L15.9006 14.4677C15.9651 14.5967 16.0697 14.7013 16.1987 14.7658L17.1925 15.2627C17.2851 15.309 17.3872 15.3331 17.4907 15.3331H18.2546C18.5071 15.3331 18.738 15.1904 18.8509 14.9646L19.1567 14.353C19.2622 14.142 19.2208 13.8873 19.0541 13.7205L19 13.6664C18.8159 13.4823 18.5174 13.4823 18.3333 13.6664C18.1492 13.8505 17.8507 13.8505 17.6666 13.6664L17.3722 13.372C17.3464 13.3462 17.3167 13.3248 17.2841 13.3085L17.1296 13.2312C16.8482 13.0905 16.9483 12.6664 17.2629 12.6664C17.3092 12.6664 17.3549 12.6556 17.3963 12.6349L18.5699 12.0481C18.634 12.0161 18.6925 11.9739 18.7431 11.9232L19.9235 10.7429C19.9741 10.6922 20.0163 10.6337 20.0484 10.5696L20.5963 9.47384C20.6425 9.38127 20.6666 9.2792 20.6666 9.1757V6.88863C20.6666 6.74439 20.6199 6.60403 20.5333 6.48863L19.507 5.12026C19.1702 4.67118 18.4631 4.81398 18.3269 5.35857L18.0177 6.59542C18.0059 6.64261 17.989 6.68836 17.9673 6.73187L17.3817 7.90298C17.3496 7.96707 17.3075 8.02558 17.2568 8.07624L16.9459 8.38717C16.7917 8.54139 16.7917 8.79143 16.9459 8.94565C17.1365 9.13625 17.0843 9.45756 16.8433 9.57811L16.5203 9.73956C16.2813 9.8591 16 9.68525 16 9.41796C16 9.36214 15.987 9.30709 15.962 9.25716L15.5482 8.42952C15.4199 8.17286 15.4702 7.86288 15.6731 7.65998L16.6666 6.66641L16.6793 6.65378C17.001 6.33202 16.913 5.78959 16.506 5.58609L16.4298 5.54797C16.1731 5.41964 15.8631 5.46994 15.6602 5.67285L14.6666 6.66641L14.4714 6.86167Z" fill="#E6BE53"/>
<path fill-rule="evenodd" clip-rule="evenodd" d="M12.6667 11.333C12.6667 11.5785 13.0801 11.6601 13.1997 11.4458C13.4321 11.0292 13.7161 10.6663 14 10.6663C14.284 10.6663 14.5679 11.0292 14.8004 11.4458C14.92 11.6601 15.3334 11.5785 15.3334 11.333C15.3334 10.2284 14.7364 9.33301 14 9.33301C13.2636 9.33301 12.6667 10.2284 12.6667 11.333Z" fill="#215F90"/>
</g>
</svg>
