<svg width="28" height="20" viewBox="0 0 28 20" fill="none" xmlns="http://www.w3.org/2000/svg">
<rect width="28" height="20" rx="2" fill="white"/>
<mask id="mask0_14715_5933" style="mask-type:luminance" maskUnits="userSpaceOnUse" x="0" y="0" width="28" height="20">
<rect width="28" height="20" rx="2" fill="white"/>
</mask>
<g mask="url(#mask0_14715_5933)">
<path fill-rule="evenodd" clip-rule="evenodd" d="M0 20H28V0H0V20Z" fill="#079D7B"/>
<path fill-rule="evenodd" clip-rule="evenodd" d="M15.885 8.66732C15.885 8.95918 15.8638 9.24228 15.824 9.51206C15.9262 9.48062 16.0304 9.45064 16.1363 9.42227C17.9145 8.9458 19.5017 9.10301 19.6813 9.77341C19.8436 10.3793 18.8008 11.197 17.286 11.7005C17.0183 10.9068 15.649 10.6673 14 10.6673C12.3492 10.6673 10.9786 10.9073 10.7132 11.7031C9.21884 11.1986 8.19469 10.3895 8.35568 9.78873C8.53532 9.11832 10.1225 8.96111 11.9007 9.43758C11.9941 9.4626 12.0861 9.48887 12.1767 9.51628C12.1364 9.24523 12.115 8.9607 12.115 8.66732C12.115 6.82637 12.9589 5.33398 14 5.33398C15.0411 5.33398 15.885 6.82637 15.885 8.66732ZM10.6667 12.0007L11.8332 12.0007C11.6484 11.9644 11.4599 11.9211 11.2691 11.8704C11.4836 11.8767 11.7482 11.8951 12.051 11.916C12.5991 11.954 13.2723 12.0007 14 12.0007C14.7277 12.0007 15.4009 11.954 15.949 11.916C16.2404 11.8959 16.4964 11.8781 16.7065 11.8712C16.509 11.9221 16.3142 11.9652 16.1237 12.0007L17.3333 12.0007L19.3333 12.0007C19.1752 12.4754 18.9624 12.9226 18.7028 13.334H9.29718C9.03766 12.9226 8.82482 12.4754 8.66668 12.0007L10.6667 12.0007ZM14 16.0007C15.3467 16.0007 16.5835 15.5012 17.5548 14.6673H10.4452C11.4165 15.5012 12.6533 16.0007 14 16.0007Z" fill="white"/>
<path fill-rule="evenodd" clip-rule="evenodd" d="M14 4.00033C14.3682 4.00033 14.6667 3.70185 14.6667 3.33366C14.6667 2.96547 14.3682 2.66699 14 2.66699C13.6318 2.66699 13.3333 2.96547 13.3333 3.33366C13.3333 3.70185 13.6318 4.00033 14 4.00033ZM8.66667 7.33366C9.03486 7.33366 9.33333 7.03518 9.33333 6.66699C9.33333 6.2988 9.03486 6.00033 8.66667 6.00033C8.29848 6.00033 8 6.2988 8 6.66699C8 7.03518 8.29848 7.33366 8.66667 7.33366ZM20 6.66699C20 7.03518 19.7015 7.33366 19.3333 7.33366C18.9651 7.33366 18.6667 7.03518 18.6667 6.66699C18.6667 6.2988 18.9651 6.00033 19.3333 6.00033C19.7015 6.00033 20 6.2988 20 6.66699ZM17.3333 5.33366C17.7015 5.33366 18 5.03518 18 4.66699C18 4.2988 17.7015 4.00033 17.3333 4.00033C16.9651 4.00033 16.6667 4.2988 16.6667 4.66699C16.6667 5.03518 16.9651 5.33366 17.3333 5.33366ZM11.3333 4.66699C11.3333 5.03518 11.0349 5.33366 10.6667 5.33366C10.2985 5.33366 10 5.03518 10 4.66699C10 4.2988 10.2985 4.00033 10.6667 4.00033C11.0349 4.00033 11.3333 4.2988 11.3333 4.66699Z" fill="#FCD117"/>
</g>
</svg>
