<svg width="28" height="20" viewBox="0 0 28 20" fill="none" xmlns="http://www.w3.org/2000/svg">
<rect x="0.25" y="0.25" width="27.5" height="19.5" rx="1.75" fill="white" stroke="#F5F5F5" stroke-width="0.5"/>
<mask id="mask0_14715_6054" style="mask-type:luminance" maskUnits="userSpaceOnUse" x="0" y="0" width="28" height="20">
<rect x="0.25" y="0.25" width="27.5" height="19.5" rx="1.75" fill="white" stroke="white" stroke-width="0.5"/>
</mask>
<g mask="url(#mask0_14715_6054)">
<path fill-rule="evenodd" clip-rule="evenodd" d="M14.6667 20H28V0H14.6667V20Z" fill="#DE233C"/>
<mask id="path-4-outside-1_14715_6054" maskUnits="userSpaceOnUse" x="1.66669" y="1.66699" width="6" height="6" fill="black">
<rect fill="white" x="1.66669" y="1.66699" width="6" height="6"/>
<path fill-rule="evenodd" clip-rule="evenodd" d="M5.33335 2.66699H4.00002V4.00033H2.66669V5.33366H4.00002V6.66699H5.33335V5.33366H6.66669V4.00033H5.33335V2.66699Z"/>
</mask>
<path fill-rule="evenodd" clip-rule="evenodd" d="M5.33335 2.66699H4.00002V4.00033H2.66669V5.33366H4.00002V6.66699H5.33335V5.33366H6.66669V4.00033H5.33335V2.66699Z" fill="#CCCCCD"/>
<path d="M4.00002 2.66699V2.00033H3.33335V2.66699H4.00002ZM5.33335 2.66699H6.00002V2.00033H5.33335V2.66699ZM4.00002 4.00033V4.66699H4.66669V4.00033H4.00002ZM2.66669 4.00033V3.33366H2.00002V4.00033H2.66669ZM2.66669 5.33366H2.00002V6.00033H2.66669V5.33366ZM4.00002 5.33366H4.66669V4.66699H4.00002V5.33366ZM4.00002 6.66699H3.33335V7.33366H4.00002V6.66699ZM5.33335 6.66699V7.33366H6.00002V6.66699H5.33335ZM5.33335 5.33366V4.66699H4.66669V5.33366H5.33335ZM6.66669 5.33366V6.00033H7.33335V5.33366H6.66669ZM6.66669 4.00033H7.33335V3.33366H6.66669V4.00033ZM5.33335 4.00033H4.66669V4.66699H5.33335V4.00033ZM4.00002 3.33366H5.33335V2.00033H4.00002V3.33366ZM4.66669 4.00033V2.66699H3.33335V4.00033H4.66669ZM2.66669 4.66699H4.00002V3.33366H2.66669V4.66699ZM3.33335 5.33366V4.00033H2.00002V5.33366H3.33335ZM4.00002 4.66699H2.66669V6.00033H4.00002V4.66699ZM4.66669 6.66699V5.33366H3.33335V6.66699H4.66669ZM5.33335 6.00033H4.00002V7.33366H5.33335V6.00033ZM4.66669 5.33366V6.66699H6.00002V5.33366H4.66669ZM6.66669 4.66699H5.33335V6.00033H6.66669V4.66699ZM6.00002 4.00033V5.33366H7.33335V4.00033H6.00002ZM5.33335 4.66699H6.66669V3.33366H5.33335V4.66699ZM4.66669 2.66699V4.00033H6.00002V2.66699H4.66669Z" fill="#7B716A" fill-opacity="0.66" mask="url(#path-4-outside-1_14715_6054)"/>
<path fill-rule="evenodd" clip-rule="evenodd" d="M4.66667 5.33333C5.03486 5.33333 5.33333 5.03486 5.33333 4.66667C5.33333 4.29848 5.03486 4 4.66667 4C4.29848 4 4 4.29848 4 4.66667C4 5.03486 4.29848 5.33333 4.66667 5.33333Z" fill="#7B716A"/>
</g>
</svg>
