<svg width="28" height="20" viewBox="0 0 28 20" fill="none" xmlns="http://www.w3.org/2000/svg">
<rect x="0.25" y="0.25" width="27.5" height="19.5" rx="1.75" fill="white" stroke="#F5F5F5" stroke-width="0.5"/>
<mask id="mask0_14715_6013" style="mask-type:luminance" maskUnits="userSpaceOnUse" x="0" y="0" width="28" height="20">
<rect x="0.25" y="0.25" width="27.5" height="19.5" rx="1.75" fill="white" stroke="white" stroke-width="0.5"/>
</mask>
<g mask="url(#mask0_14715_6013)">
<rect x="18.6667" width="9.33333" height="20" fill="#E3283E"/>
<path fill-rule="evenodd" clip-rule="evenodd" d="M0 20H9.33333V0H0V20Z" fill="#128A60"/>
<path d="M12 9.33301C12 8.96482 11.7015 8.66634 11.3333 8.66634C10.9652 8.66634 10.6667 8.96482 10.6667 9.33301H12ZM12.329 12.2178C12.6475 12.4026 13.0555 12.2942 13.2402 11.9757C13.425 11.6573 13.3167 11.2493 12.9982 11.0645L12.329 12.2178ZM15.0757 11.0195C14.7655 11.2179 14.6749 11.6302 14.8732 11.9403C15.0716 12.2505 15.4839 12.3411 15.7941 12.1428L15.0757 11.0195ZM17.3333 9.33301C17.3333 8.96482 17.0349 8.66634 16.6667 8.66634C16.2985 8.66634 16 8.96482 16 9.33301H17.3333ZM10.6667 9.33301C10.6667 10.5661 11.3366 11.6419 12.329 12.2178L12.9982 11.0645C12.3999 10.7174 12 10.0715 12 9.33301H10.6667ZM15.7941 12.1428C16.7183 11.5517 17.3333 10.5144 17.3333 9.33301H16C16 10.0407 15.6329 10.6631 15.0757 11.0195L15.7941 12.1428Z" fill="#8C9157"/>
<path fill-rule="evenodd" clip-rule="evenodd" d="M14 10.667C14.7364 10.667 15.3333 9.77156 15.3333 8.66699C15.3333 7.56242 14.7364 6.66699 14 6.66699C13.2636 6.66699 12.6667 7.56242 12.6667 8.66699C12.6667 9.77156 13.2636 10.667 14 10.667Z" fill="#C59262"/>
</g>
</svg>
