<svg width="28" height="20" viewBox="0 0 28 20" fill="none" xmlns="http://www.w3.org/2000/svg">
<rect x="0.25" y="0.25" width="27.5" height="19.5" rx="1.75" fill="white" stroke="#F5F5F5" stroke-width="0.5"/>
<mask id="mask0_14715_6756" style="mask-type:luminance" maskUnits="userSpaceOnUse" x="0" y="0" width="28" height="20">
<rect x="0.25" y="0.25" width="27.5" height="19.5" rx="1.75" fill="white" stroke="white" stroke-width="0.5"/>
</mask>
<g mask="url(#mask0_14715_6756)">
<path fill-rule="evenodd" clip-rule="evenodd" d="M0 5.33333H28V0H0V5.33333Z" fill="#D82332"/>
<path fill-rule="evenodd" clip-rule="evenodd" d="M0 20.0003H28V14.667H0V20.0003Z" fill="#D82332"/>
<path fill-rule="evenodd" clip-rule="evenodd" d="M13.0675 10.7529L12.7831 11.0182C13.0402 11.0903 13.3969 11.0064 13.539 10.7529H13.0675Z" fill="#064A89"/>
<path fill-rule="evenodd" clip-rule="evenodd" d="M10.7725 10.9335C10.965 11.126 11.2838 11.1035 11.4763 10.9817C11.6689 10.8598 11.8104 10.852 11.9304 10.8648C11.9431 10.9734 11.9715 11.1127 12.0201 11.2503H10.8782C10.8499 11.1798 10.7945 11.0154 10.7725 10.9335Z" fill="#064A89"/>
<path fill-rule="evenodd" clip-rule="evenodd" d="M10.9841 11.4484C11.2083 11.3425 11.4374 11.4264 11.5365 11.5028C11.7196 11.644 12.022 11.6057 12.1704 11.5256C12.227 11.6179 12.2958 11.7088 12.3787 11.7782H11.1569C11.1073 11.6981 11 11.5012 10.9841 11.4484Z" fill="#064A89"/>
<path fill-rule="evenodd" clip-rule="evenodd" d="M16.2981 12.325C16.3518 12.2704 16.4244 12.1807 16.4718 12.1166C16.3929 12.1069 16.3011 12.0498 16.2035 12.0011C16.0235 11.9112 15.8516 11.9112 15.6985 12.0171C15.4713 12.1742 15.1871 12.2127 14.9662 12.0556C14.7238 11.8831 14.4991 11.9209 14.3097 12.03C14.1203 12.1389 14.0004 12.1454 13.8867 12.1454C13.7731 12.1454 13.6532 12.1389 13.4638 12.03C13.2743 11.9209 13.0497 11.8831 12.8072 12.0556C12.5863 12.2127 12.3022 12.1742 12.075 12.0171C11.9218 11.9112 11.7499 11.9112 11.5699 12.0011C11.4722 12.0498 11.3806 12.1069 11.3016 12.1166C11.349 12.1807 11.4216 12.2704 11.4753 12.325H16.2981Z" fill="#064A89"/>
<path fill-rule="evenodd" clip-rule="evenodd" d="M15.7067 12.8617C15.7571 12.8297 15.8961 12.7238 15.9655 12.6693C15.8897 12.6854 15.717 12.6291 15.6278 12.5827C15.3689 12.4479 15.1985 12.4608 15.006 12.5634C14.8134 12.6661 14.542 12.7206 14.3432 12.6116C14.1443 12.5026 14.0022 12.4736 13.8981 12.4736C13.794 12.4736 13.6519 12.5026 13.453 12.6116C13.2542 12.7206 12.9828 12.6661 12.7902 12.5634C12.5977 12.4608 12.4273 12.4479 12.1684 12.5827C12.0792 12.6291 11.9065 12.6854 11.8307 12.6693C11.9001 12.7238 12.039 12.8297 12.0895 12.8617H15.7067Z" fill="#064A89"/>
<path fill-rule="evenodd" clip-rule="evenodd" d="M14.5684 11.7956C14.5147 11.7668 14.452 11.6996 14.3947 11.6134C14.3032 11.4754 14.158 11.3984 13.9402 11.3984C13.7225 11.3984 13.5773 11.4754 13.4857 11.6134C13.4285 11.6996 13.3657 11.7668 13.3122 11.7956H14.5684Z" fill="#064A89"/>
<path fill-rule="evenodd" clip-rule="evenodd" d="M14.2104 11.2998C14.1883 11.2613 14.141 11.1394 14.1252 11.0752C14.0746 11.0913 13.9768 11.0977 13.92 11.0977C13.8632 11.0977 13.7654 11.0913 13.7148 11.0752C13.6991 11.1394 13.6518 11.2613 13.6296 11.2998H14.2104Z" fill="#064A89"/>
<path fill-rule="evenodd" clip-rule="evenodd" d="M14.736 10.7529L15.0205 11.0182C14.7633 11.0903 14.4066 11.0064 14.2646 10.7529H14.736Z" fill="#064A89"/>
<path fill-rule="evenodd" clip-rule="evenodd" d="M17.0995 10.9335C16.907 11.126 16.5882 11.1035 16.3957 10.9817C16.2031 10.8598 16.0616 10.852 15.9416 10.8648C15.9288 10.9734 15.9005 11.1127 15.8519 11.2503H16.9938C17.0221 11.1798 17.0774 11.0154 17.0995 10.9335Z" fill="#064A89"/>
<path fill-rule="evenodd" clip-rule="evenodd" d="M16.929 11.4484C16.7049 11.3425 16.4758 11.4264 16.3766 11.5028C16.1936 11.644 15.8911 11.6057 15.7428 11.5256C15.6862 11.6179 15.6174 11.7088 15.5344 11.7782H16.7562C16.8059 11.6981 16.9133 11.5012 16.929 11.4484Z" fill="#064A89"/>
<path fill-rule="evenodd" clip-rule="evenodd" d="M15.1588 13.0717C14.7761 13.2304 14.3572 13.318 13.9183 13.318C13.4789 13.318 13.0603 13.2305 12.6772 13.0714C12.7593 13.0619 12.8679 13.0217 12.9556 12.9721C13.0977 12.8919 13.3564 12.8759 13.4796 12.9561C13.6026 13.0363 13.751 13.1164 13.9183 13.1164C14.0856 13.1164 14.234 13.0363 14.357 12.9561C14.4801 12.8759 14.7389 12.8919 14.8811 12.9721C14.9686 13.0217 15.0767 13.0621 15.1588 13.0717Z" fill="#064A89"/>
<path fill-rule="evenodd" clip-rule="evenodd" d="M14.6252 6.72725C13.934 6.58295 13.3122 6.66628 13.3122 7.32703C13.3122 7.97488 13.3122 8.93703 13.3122 9.13596C13.3122 9.33477 13.3161 9.35994 13.5489 9.41499C14.0539 9.53445 14.1012 9.54649 14.6504 9.67467V7.81456C14.2212 7.76639 14.0571 7.52166 14.0571 7.23725C14.0571 6.96144 14.2464 6.78176 14.6252 6.72725Z" fill="#514537"/>
<path fill-rule="evenodd" clip-rule="evenodd" d="M12.8539 11.8292C12.4688 11.8292 12.0648 11.4892 12.0648 10.8413C12.0648 10.1934 12.0648 9.37877 12.0648 9.23124C12.0648 9.08533 12.081 9.06479 12.0474 9.03081C12.0278 9.01081 12.0696 8.98113 12.0979 8.95221C12.1406 8.90888 12.1698 8.87285 12.1122 8.81425C12.0545 8.75576 12.0791 8.74049 12.1154 8.70371C12.1517 8.66673 12.1659 8.62995 12.1312 8.59457C12.0964 8.55931 12.0885 8.54812 12.1264 8.50963C12.1643 8.47113 12.1485 8.45511 12.117 8.42296C12.0853 8.39092 12.0704 8.36769 12.1106 8.32683C12.1501 8.28673 12.1532 8.28027 12.199 8.28027C12.2448 8.28027 12.3442 8.28027 12.3884 8.28027C12.4326 8.28027 12.4334 8.29393 12.3962 8.33167C12.3481 8.38049 12.3339 8.39974 12.3884 8.45511C12.4428 8.51038 12.4405 8.52888 12.4058 8.56414C12.3536 8.61705 12.3307 8.65318 12.3836 8.70694C12.4365 8.7606 12.4412 8.78468 12.401 8.82554C12.3608 8.8664 12.3568 8.90253 12.401 8.94737C12.435 8.98189 12.4373 9.00199 12.4373 9.06285C12.4373 9.43017 12.4373 10.4308 12.4373 10.7066C12.4373 10.9824 12.633 11.1492 13.0054 11.1492C13.3779 11.1492 13.5042 10.9952 13.6115 10.8926C13.5421 11.3865 13.34 11.8292 12.8539 11.8292Z" fill="#514537"/>
<path fill-rule="evenodd" clip-rule="evenodd" d="M13.9407 10.2551C13.9928 10.271 14.0432 10.348 14.0432 10.4314H14.1459C14.1459 10.3609 14.1158 10.2518 14.0614 10.1844C14.0606 10.1668 14.0583 10.1516 14.0543 10.1363C14.0922 10.0882 14.1475 10.0112 14.1459 9.93742C14.1448 9.89086 14.0906 9.89258 14.0843 9.92946C14.0791 9.95978 14.0591 10.0064 14.0212 10.0225C14.0212 9.96312 13.988 9.89258 13.9407 9.89258C13.8934 9.89258 13.8602 9.96312 13.8602 10.0225C13.8223 10.0064 13.8023 9.95978 13.7971 9.92946C13.7907 9.89258 13.7365 9.89086 13.7355 9.93742C13.7339 10.0112 13.7892 10.0882 13.827 10.1363C13.8231 10.1516 13.8208 10.1668 13.82 10.1844C13.7656 10.2518 13.7355 10.3609 13.7355 10.4314H13.8382C13.8382 10.348 13.8886 10.271 13.9407 10.2551Z" fill="#514537"/>
<path fill-rule="evenodd" clip-rule="evenodd" d="M13.4116 10.2551C13.4636 10.271 13.5142 10.348 13.5142 10.4314H13.6168C13.6168 10.3609 13.5868 10.2518 13.5323 10.1844C13.5316 10.1668 13.5291 10.1516 13.5252 10.1363C13.5631 10.0882 13.6184 10.0112 13.6168 9.93742C13.6158 9.89086 13.5615 9.89258 13.5552 9.92946C13.55 9.95978 13.5299 10.0064 13.4921 10.0225C13.4921 9.96312 13.459 9.89258 13.4116 9.89258C13.3643 9.89258 13.3312 9.96312 13.3312 10.0225C13.2933 10.0064 13.2732 9.95978 13.268 9.92946C13.2616 9.89258 13.2075 9.89086 13.2064 9.93742C13.2048 10.0112 13.26 10.0882 13.2979 10.1363C13.294 10.1516 13.2917 10.1668 13.2908 10.1844C13.2364 10.2518 13.2064 10.3609 13.2064 10.4314H13.309C13.309 10.348 13.3595 10.271 13.4116 10.2551Z" fill="#514537"/>
<path fill-rule="evenodd" clip-rule="evenodd" d="M12.8825 10.2551C12.9345 10.271 12.985 10.348 12.985 10.4314H13.0876C13.0876 10.3609 13.0576 10.2518 13.0032 10.1844C13.0024 10.1668 13 10.1516 12.9961 10.1363C13.034 10.0882 13.0892 10.0112 13.0876 9.93742C13.0866 9.89086 13.0324 9.89258 13.0261 9.92946C13.0209 9.95978 13.0008 10.0064 12.9629 10.0225C12.9629 9.96312 12.9298 9.89258 12.8825 9.89258C12.8351 9.89258 12.8019 9.96312 12.8019 10.0225C12.7641 10.0064 12.7441 9.95978 12.7389 9.92946C12.7325 9.89258 12.6782 9.89086 12.6773 9.93742C12.6757 10.0112 12.7309 10.0882 12.7688 10.1363C12.7649 10.1516 12.7625 10.1668 12.7617 10.1844C12.7072 10.2518 12.6773 10.3609 12.6773 10.4314H12.7798C12.7798 10.348 12.8304 10.271 12.8825 10.2551Z" fill="#514537"/>
<path fill-rule="evenodd" clip-rule="evenodd" d="M14.4698 10.2551C14.4177 10.271 14.3673 10.348 14.3673 10.4314H14.2646C14.2646 10.3609 14.2946 10.2518 14.3491 10.1844C14.3498 10.1668 14.3522 10.1516 14.3563 10.1363C14.3183 10.0882 14.263 10.0112 14.2646 9.93742C14.2657 9.89086 14.3199 9.89258 14.3262 9.92946C14.3314 9.95978 14.3515 10.0064 14.3893 10.0225C14.3893 9.96312 14.4225 9.89258 14.4698 9.89258C14.5172 9.89258 14.5503 9.96312 14.5503 10.0225C14.5881 10.0064 14.6082 9.95978 14.6134 9.92946C14.6198 9.89258 14.6739 9.89086 14.675 9.93742C14.6766 10.0112 14.6213 10.0882 14.5835 10.1363C14.5874 10.1516 14.5898 10.1668 14.5905 10.1844C14.645 10.2518 14.675 10.3609 14.675 10.4314H14.5723C14.5723 10.348 14.5219 10.271 14.4698 10.2551Z" fill="#514537"/>
<path fill-rule="evenodd" clip-rule="evenodd" d="M14.9989 10.2551C14.9469 10.271 14.8964 10.348 14.8964 10.4314H14.7937C14.7937 10.3609 14.8238 10.2518 14.8782 10.1844C14.879 10.1668 14.8814 10.1516 14.8853 10.1363C14.8474 10.0882 14.7921 10.0112 14.7937 9.93742C14.7947 9.89086 14.849 9.89258 14.8553 9.92946C14.8605 9.95978 14.8805 10.0064 14.9184 10.0225C14.9184 9.96312 14.9516 9.89258 14.9989 9.89258C15.0463 9.89258 15.0794 9.96312 15.0794 10.0225C15.1173 10.0064 15.1373 9.95978 15.1425 9.92946C15.1489 9.89258 15.203 9.89086 15.2041 9.93742C15.2057 10.0112 15.1505 10.0882 15.1126 10.1363C15.1165 10.1516 15.1188 10.1668 15.1197 10.1844C15.1742 10.2518 15.2041 10.3609 15.2041 10.4314H15.1016C15.1016 10.348 15.051 10.271 14.9989 10.2551Z" fill="#514537"/>
<path fill-rule="evenodd" clip-rule="evenodd" d="M12.5715 10.5381H15.349V10.6714H12.5715V10.5381Z" fill="#514537"/>
<path fill-rule="evenodd" clip-rule="evenodd" d="M15.0222 11.8292C15.4072 11.8292 15.8113 11.4892 15.8113 10.8413C15.8113 10.1934 15.8113 9.37877 15.8113 9.23124C15.8113 9.08533 15.7951 9.06479 15.8286 9.03081C15.8483 9.01081 15.8065 8.98113 15.7781 8.95221C15.7355 8.90888 15.7063 8.87285 15.7638 8.81425C15.8215 8.75576 15.797 8.74049 15.7608 8.70371C15.7244 8.66673 15.7102 8.62995 15.7449 8.59457C15.7796 8.55931 15.7876 8.54812 15.7497 8.50963C15.7118 8.47113 15.7276 8.45511 15.7591 8.42296C15.7907 8.39092 15.8056 8.36769 15.7654 8.32683C15.726 8.28673 15.7229 8.28027 15.6771 8.28027C15.6313 8.28027 15.5319 8.28027 15.4877 8.28027C15.4435 8.28027 15.4427 8.29393 15.4798 8.33167C15.528 8.38049 15.5422 8.39974 15.4877 8.45511C15.4333 8.51038 15.4356 8.52888 15.4703 8.56414C15.5225 8.61705 15.5452 8.65318 15.4924 8.70694C15.4395 8.7606 15.4347 8.78468 15.4751 8.82554C15.5153 8.8664 15.5193 8.90253 15.4751 8.94737C15.4411 8.98189 15.4388 9.00199 15.4388 9.06285C15.4388 9.43017 15.4388 10.4308 15.4388 10.7066C15.4388 10.9824 15.243 11.1492 14.8706 11.1492C14.4981 11.1492 14.372 10.9952 14.2646 10.8926C14.334 11.3865 14.536 11.8292 15.0222 11.8292Z" fill="#514537"/>
<path fill-rule="evenodd" clip-rule="evenodd" d="M12.5715 9.67483C12.5715 9.67483 12.5716 9.5802 12.5716 9.46289L13.1268 9.67493L12.5715 9.67483Z" fill="#EEA339"/>
<path fill-rule="evenodd" clip-rule="evenodd" d="M11.9091 9.77297L10.6667 9.60276C10.7028 9.33222 10.771 9.06846 10.8692 8.81738L11.9091 9.23685V9.77297Z" fill="#EEA339"/>
<path fill-rule="evenodd" clip-rule="evenodd" d="M14.4762 7.69613L14.697 6.77441C14.9555 6.83807 15.2067 6.93398 15.4448 7.06044L14.7325 8.44581L14.735 7.75022C14.6528 7.75065 14.5267 7.73785 14.4762 7.69613Z" fill="#EEA339"/>
<path fill-rule="evenodd" clip-rule="evenodd" d="M11.9384 9.86322L10.6728 9.78516C10.6565 10.0548 10.6727 10.327 10.7214 10.5955C10.7214 10.5955 11.9384 10.6032 11.9384 10.5955V9.86322Z" fill="#EEA339"/>
<path fill-rule="evenodd" clip-rule="evenodd" d="M11.9258 8.99574C11.8849 8.94122 11.9102 8.91219 11.9543 8.88327C11.9985 8.85445 11.9922 8.83197 11.9702 8.79036C11.948 8.74864 11.9259 8.7037 11.967 8.65886C12.008 8.61391 11.9922 8.59466 11.9606 8.56262C11.9291 8.53058 11.9259 8.49531 11.9543 8.46961C11.9828 8.44391 11.9764 8.42466 11.9576 8.39907C11.9385 8.37337 11.9014 8.32133 11.9346 8.28767L11.4183 7.84961C11.2477 8.05692 11.1017 8.28574 10.9841 8.53111L11.9258 8.99574Z" fill="#EEA339"/>
<path fill-rule="evenodd" clip-rule="evenodd" d="M13.1628 9.23519L12.5474 8.62884C12.6342 8.54067 12.6429 8.52626 12.5814 8.46368C12.5143 8.39551 12.5119 8.38841 12.6484 8.24959C12.695 8.20239 12.6689 8.16938 12.6027 8.16938C12.5364 8.16938 12.2318 8.16938 12.1971 8.16938C12.1624 8.16938 12.1351 8.17121 12.1097 8.19701L11.6191 7.71443C11.8063 7.51863 12.0154 7.34777 12.2412 7.20508L13.1628 8.71099V9.23519Z" fill="#EEA339"/>
<path fill-rule="evenodd" clip-rule="evenodd" d="M12.5228 9.32685C12.5228 9.1762 12.5229 9.02706 12.5229 9.00588C12.5229 8.96093 12.5197 8.9433 12.485 8.90803C12.4503 8.87276 12.4677 8.85588 12.4945 8.81738L13.0782 9.31147V9.60158L12.5228 9.32685Z" fill="#EEA339"/>
<path fill-rule="evenodd" clip-rule="evenodd" d="M13.0695 8.44656C13.0695 8.15721 13.0695 7.88958 13.0695 7.73538C13.0695 7.27355 13.095 7.04259 13.1613 6.99613L13.1083 6.77441C12.8491 6.84527 12.5979 6.94119 12.3598 7.06764L13.0695 8.44656Z" fill="#EEA339"/>
<path fill-rule="evenodd" clip-rule="evenodd" d="M15.349 9.67483C15.349 9.67483 15.3489 9.5802 15.3489 9.46289L14.7937 9.67493L15.349 9.67483Z" fill="#EEA339"/>
<path fill-rule="evenodd" clip-rule="evenodd" d="M15.9577 9.77297L17.2001 9.60276C17.1641 9.33222 17.0958 9.06846 16.9976 8.81738L15.9577 9.23685V9.77297Z" fill="#EEA339"/>
<path fill-rule="evenodd" clip-rule="evenodd" d="M15.9577 9.86322L17.2232 9.78516C17.2395 10.0548 17.2234 10.327 17.1746 10.5955C17.1746 10.5955 15.9577 10.6032 15.9577 10.5955V9.86322Z" fill="#EEA339"/>
<path fill-rule="evenodd" clip-rule="evenodd" d="M15.9177 8.99574C15.9588 8.94122 15.9334 8.91219 15.8892 8.88327C15.845 8.85445 15.8514 8.83197 15.8734 8.79036C15.8955 8.74864 15.9176 8.7037 15.8765 8.65886C15.8355 8.61391 15.8514 8.59466 15.8829 8.56262C15.9144 8.53058 15.9176 8.49531 15.8892 8.46961C15.8608 8.44391 15.8671 8.42466 15.886 8.39907C15.905 8.37337 15.942 8.32133 15.9089 8.28767L16.4252 7.84961C16.5958 8.05692 16.7417 8.28574 16.8593 8.53111L15.9177 8.99574Z" fill="#EEA339"/>
<path fill-rule="evenodd" clip-rule="evenodd" d="M14.7937 9.23519L15.409 8.62884C15.3222 8.54067 15.3135 8.52626 15.3751 8.46368C15.4422 8.39551 15.4446 8.38841 15.3081 8.24959C15.2614 8.20239 15.2876 8.16938 15.3538 8.16938C15.4201 8.16938 15.7247 8.16938 15.7594 8.16938C15.7941 8.16938 15.8214 8.17121 15.8468 8.19701L16.3374 7.71443C16.1502 7.51863 15.9411 7.34777 15.7153 7.20508L14.7937 8.71099V9.23519Z" fill="#EEA339"/>
<path fill-rule="evenodd" clip-rule="evenodd" d="M15.3492 9.32685C15.3492 9.1762 15.349 9.02706 15.349 9.00588C15.349 8.96093 15.3522 8.9433 15.3869 8.90803C15.4216 8.87276 15.4043 8.85588 15.3774 8.81738L14.7937 9.31147V9.60158L15.3492 9.32685Z" fill="#EEA339"/>
<path fill-rule="evenodd" clip-rule="evenodd" d="M12.1482 9.03223C12.1703 9.0547 12.1798 9.07707 12.1798 9.13158C12.1798 9.1861 12.1798 10.3792 12.1798 10.8475C12.1798 11.4184 12.5207 11.7359 12.8711 11.7359C13.193 11.7359 13.4045 11.4376 13.515 11.0913C13.373 11.2035 13.1646 11.2388 12.9657 11.2388C12.7353 11.2388 12.3629 11.0817 12.3629 10.7417C12.3629 10.4274 12.3629 9.26309 12.3629 9.07707C12.3629 9.03223 12.3187 9.03223 12.1482 9.03223Z" fill="#D82332"/>
<path fill-rule="evenodd" clip-rule="evenodd" d="M14.1611 6.78426C13.721 6.73899 13.3127 6.832 13.3127 7.44211C13.3127 8.08361 13.3127 8.86609 13.3127 9.06308C13.3127 9.33372 13.2918 9.30157 13.5175 9.35845C13.927 9.46168 13.9734 9.4748 14.4702 9.59007V7.94082C14.046 7.89361 13.8622 7.61136 13.8622 7.29878C13.8622 7.05007 13.9704 6.81598 14.1611 6.78426Z" fill="#D82332"/>
<path fill-rule="evenodd" clip-rule="evenodd" d="M15.7371 9.03223C15.715 9.0547 15.7055 9.07707 15.7055 9.13158C15.7055 9.1861 15.7055 10.3792 15.7055 10.8475C15.7055 11.4184 15.3646 11.7359 15.0143 11.7359C14.6924 11.7359 14.4808 11.4376 14.3704 11.0913C14.5125 11.2035 14.7207 11.2388 14.9197 11.2388C15.15 11.2388 15.5224 11.0817 15.5224 10.7417C15.5224 10.4274 15.5224 9.26309 15.5224 9.07707C15.5224 9.03223 15.5667 9.03223 15.7371 9.03223Z" fill="#D82332"/>
<mask id="mask1_14715_6756" style="mask-type:luminance" maskUnits="userSpaceOnUse" x="10" y="6" width="8" height="8">
<path fill-rule="evenodd" clip-rule="evenodd" d="M14 13.3337C15.841 13.3337 17.3334 11.8413 17.3334 10.0003C17.3334 8.15938 15.841 6.66699 14 6.66699C12.1591 6.66699 10.6667 8.15938 10.6667 10.0003C10.6667 11.8413 12.1591 13.3337 14 13.3337Z" fill="white"/>
</mask>
<g mask="url(#mask1_14715_6756)">
<path fill-rule="evenodd" clip-rule="evenodd" d="M14 18.6667C15.841 18.6667 17.3334 17.1743 17.3334 15.3333C17.3334 13.4924 15.841 12 14 12C12.1591 12 10.6667 13.4924 10.6667 15.3333C10.6667 17.1743 12.1591 18.6667 14 18.6667Z" fill="#064A89"/>
</g>
</g>
</svg>
