<svg width="28" height="20" viewBox="0 0 28 20" fill="none" xmlns="http://www.w3.org/2000/svg">
<rect width="28" height="20" rx="2" fill="white"/>
<mask id="mask0_14715_6226" style="mask-type:luminance" maskUnits="userSpaceOnUse" x="0" y="0" width="28" height="20">
<rect width="28" height="20" rx="2" fill="white"/>
</mask>
<g mask="url(#mask0_14715_6226)">
<rect width="28" height="20" fill="#262626"/>
<path fill-rule="evenodd" clip-rule="evenodd" d="M0 0H28V20L0 0Z" fill="#E8283F"/>
<path fill-rule="evenodd" clip-rule="evenodd" d="M6.66668 16.667L5.72387 16.9431L6.00001 16.0003L5.72387 15.0575L6.66668 15.3337L7.60949 15.0575L7.33334 16.0003L7.60949 16.9431L6.66668 16.667Z" fill="white"/>
<path fill-rule="evenodd" clip-rule="evenodd" d="M6.66668 8.66699L5.72387 8.94313L6.00001 8.00033L5.72387 7.05752L6.66668 7.33366L7.60949 7.05752L7.33334 8.00033L7.60949 8.94313L6.66668 8.66699Z" fill="white"/>
<path fill-rule="evenodd" clip-rule="evenodd" d="M3.33333 12L2.39052 12.2761L2.66667 11.3333L2.39052 10.3905L3.33333 10.6667L4.27614 10.3905L4 11.3333L4.27614 12.2761L3.33333 12Z" fill="white"/>
<path fill-rule="evenodd" clip-rule="evenodd" d="M9.33333 11.333L8.39052 11.6092L8.66667 10.6663L8.39052 9.72353L9.33333 9.99967L10.2761 9.72353L10 10.6663L10.2761 11.6092L9.33333 11.333Z" fill="white"/>
<path fill-rule="evenodd" clip-rule="evenodd" d="M18.8613 9.2659C18.7016 9.17012 18.5722 8.94452 18.5722 8.76404L18.5722 7.53532C18.5722 7.35392 18.4417 7.25037 18.2442 7.3162L17.486 7.56894C17.3049 7.62932 17.0275 7.63477 16.83 7.56894L16.0718 7.3162C15.8907 7.25582 15.8705 7.13083 16.0328 7.03346L17.8118 5.96606C17.9714 5.87029 18.0573 5.66214 17.9915 5.46465L17.7388 4.70644C17.6784 4.52529 17.7599 4.42194 17.9574 4.48777L18.7156 4.74051C18.8968 4.80089 19.1197 4.72312 19.2171 4.56083L20.2844 2.78184C20.3802 2.62222 20.5014 2.62333 20.5672 2.82083L20.8199 3.57903C20.8803 3.76018 20.8858 4.03755 20.8199 4.23504L20.5672 4.99325C20.5068 5.1744 20.6058 5.32125 20.7863 5.32125H22.015C22.1964 5.32125 22.4195 5.44797 22.5169 5.61027L23.5843 7.38925C23.68 7.54887 23.603 7.7092 23.43 7.74382L21.7284 8.08413C21.5474 8.12033 21.3697 8.30433 21.3351 8.47741L20.9948 10.179C20.9586 10.36 20.8025 10.4307 20.6402 10.3333L18.8613 9.2659Z" fill="#FFD84E"/>
</g>
</svg>
