<svg width="28" height="20" viewBox="0 0 28 20" fill="none" xmlns="http://www.w3.org/2000/svg">
<rect x="0.25" y="0.25" width="27.5" height="19.5" rx="1.75" fill="white" stroke="#F5F5F5" stroke-width="0.5"/>
<mask id="mask0_14715_6257" style="mask-type:luminance" maskUnits="userSpaceOnUse" x="0" y="0" width="28" height="20">
<rect x="0.25" y="0.25" width="27.5" height="19.5" rx="1.75" fill="white" stroke="white" stroke-width="0.5"/>
</mask>
<g mask="url(#mask0_14715_6257)">
<path fill-rule="evenodd" clip-rule="evenodd" d="M28 0H8V20H28V0Z" fill="#0A632F"/>
<path fill-rule="evenodd" clip-rule="evenodd" d="M23.6701 10.7508C23.5418 12.0014 23.0087 13.2031 22.0665 14.1453C19.8206 16.3912 16.1005 16.3123 13.7574 13.9692C11.4142 11.6261 11.3354 7.90593 13.5812 5.66006C14.5234 4.71784 15.7251 4.1848 16.9758 4.05646C16.5819 4.28862 16.209 4.57509 15.8686 4.91552C13.8269 6.95721 13.7259 10.1665 15.643 12.0836C17.5601 14.0007 20.7694 13.8997 22.8111 11.858C23.1515 11.5176 23.4379 11.1447 23.6701 10.7508ZM21.0924 8.10493L20.7742 10.0034L19.8849 8.29619L17.981 8.58018L19.3298 7.20685L18.4714 5.48392L20.1943 6.34234L21.5677 4.99352L21.2837 6.89739L22.9909 7.7867L21.0924 8.10493Z" fill="white"/>
</g>
</svg>
