<svg width="28" height="20" viewBox="0 0 28 20" fill="none" xmlns="http://www.w3.org/2000/svg">
<rect width="28" height="20" rx="2" fill="white"/>
<mask id="mask0_14715_6240" style="mask-type:luminance" maskUnits="userSpaceOnUse" x="0" y="0" width="28" height="20">
<rect width="28" height="20" rx="2" fill="white"/>
</mask>
<g mask="url(#mask0_14715_6240)">
<rect width="28" height="20" fill="#FF2936"/>
<path fill-rule="evenodd" clip-rule="evenodd" d="M0 20H10.6667V0H0V20Z" fill="#128415"/>
<path d="M10.6667 13.333C12.5076 13.333 14 11.8406 14 9.99967C14 8.15873 12.5076 6.66634 10.6667 6.66634C8.82572 6.66634 7.33333 8.15873 7.33333 9.99967C7.33333 11.8406 8.82572 13.333 10.6667 13.333Z" stroke="#FAF94F" stroke-width="1.33333"/>
<path fill-rule="evenodd" clip-rule="evenodd" d="M9.33331 8.33333C9.33331 8.14924 9.48255 8 9.66665 8H11.6666C11.8507 8 12 8.14924 12 8.33333V10.6667C12 11.403 11.403 12 10.6666 12C9.93027 12 9.33331 11.403 9.33331 10.6667V8.33333Z" fill="white"/>
<path fill-rule="evenodd" clip-rule="evenodd" d="M10.6667 10.667C11.0349 10.667 11.3333 9.70185 11.3333 9.33366C11.3333 8.96547 11.0349 8.66699 10.6667 8.66699C10.2985 8.66699 10 8.96547 10 9.33366C10 9.70185 10.2985 10.667 10.6667 10.667Z" fill="#1D50B5"/>
</g>
</svg>
