<svg width="28" height="20" viewBox="0 0 28 20" fill="none" xmlns="http://www.w3.org/2000/svg">
<rect width="28" height="20" rx="2" fill="white"/>
<mask id="mask0_14715_5808" style="mask-type:luminance" maskUnits="userSpaceOnUse" x="0" y="0" width="28" height="20">
<rect width="28" height="20" rx="2" fill="white"/>
</mask>
<g mask="url(#mask0_14715_5808)">
<rect width="28" height="20" fill="#128C4B"/>
<path fill-rule="evenodd" clip-rule="evenodd" d="M6.66666 11.9997H17.3333V11.0784C17.3333 10.5828 17.8549 10.2604 18.2981 10.4821L18.6667 10.6663V11.9997H20.6667C21.0348 11.9997 21.3333 12.2981 21.3333 12.6663V13.333C21.3333 14.0694 20.7364 14.6663 20 14.6663H18C17.6318 14.6663 17.3333 14.3679 17.3333 13.9997V13.333H8.27613C8.09932 13.333 7.92975 13.2628 7.80473 13.1377L6.66666 11.9997Z" fill="white"/>
<path fill-rule="evenodd" clip-rule="evenodd" d="M6.66666 8.13775C6.66666 8.04934 6.70178 7.96456 6.76429 7.90204L7.09762 7.56871C7.2278 7.43854 7.2278 7.22748 7.09762 7.09731L6.76429 6.76397C6.70178 6.70146 6.66666 6.61668 6.66666 6.52827V5.66634C6.66666 5.48225 6.81589 5.33301 6.99999 5.33301H7.74535C7.88598 5.33301 7.99999 5.44702 7.99999 5.58765C7.99999 5.85636 8.36223 5.94187 8.48239 5.70153L8.58178 5.50277C8.6338 5.39873 8.74013 5.33301 8.85646 5.33301H10.3333C10.5174 5.33301 10.6667 5.48225 10.6667 5.66634C10.6667 5.85044 10.5174 5.99967 10.3333 5.99967H9.66666C9.48256 5.99967 9.33332 6.14891 9.33332 6.33301C9.33332 6.5171 9.48256 6.66634 9.66666 6.66634H10.3333C10.5174 6.66634 10.6667 6.81558 10.6667 6.99967V8.99967C10.6667 9.18377 10.5174 9.33301 10.3333 9.33301H9.66666C9.48256 9.33301 9.33332 9.18377 9.33332 8.99967V8.33301C9.33332 8.14891 9.48256 7.99967 9.66666 7.99967C9.85075 7.99967 9.99999 7.85044 9.99999 7.66634C9.99999 7.48225 9.85075 7.33301 9.66666 7.33301H8.99999C8.8159 7.33301 8.66666 7.48225 8.66666 7.66634V8.99967C8.66666 9.18377 8.51742 9.33301 8.33332 9.33301C8.14923 9.33301 7.99999 9.18377 7.99999 8.99967V8.33301C7.99999 8.14891 7.85075 7.99967 7.66666 7.99967C7.48256 7.99967 7.33332 8.14891 7.33332 8.33301V8.99967C7.33332 9.18377 7.18408 9.33301 6.99999 9.33301C6.81589 9.33301 6.66666 9.18377 6.66666 8.99967V8.13775Z" fill="white"/>
<path fill-rule="evenodd" clip-rule="evenodd" d="M17.3333 8.13775C17.3333 8.04934 17.3685 7.96456 17.431 7.90204L17.7643 7.56871C17.8945 7.43854 17.8945 7.22748 17.7643 7.09731L17.431 6.76397C17.3685 6.70146 17.3333 6.61668 17.3333 6.52827V5.66634C17.3333 5.48225 17.4826 5.33301 17.6667 5.33301H18.412C18.5527 5.33301 18.6667 5.44702 18.6667 5.58765C18.6667 5.85636 19.0289 5.94187 19.1491 5.70153L19.2485 5.50277C19.3005 5.39873 19.4068 5.33301 19.5231 5.33301H21C21.1841 5.33301 21.3333 5.48225 21.3333 5.66634C21.3333 5.85044 21.1841 5.99967 21 5.99967H20.3333C20.1492 5.99967 20 6.14891 20 6.33301C20 6.5171 20.1492 6.66634 20.3333 6.66634H21C21.1841 6.66634 21.3333 6.81558 21.3333 6.99967V8.99967C21.3333 9.18377 21.1841 9.33301 21 9.33301H20.3333C20.1492 9.33301 20 9.18377 20 8.99967V8.33301C20 8.14891 20.1492 7.99967 20.3333 7.99967C20.5174 7.99967 20.6667 7.85044 20.6667 7.66634C20.6667 7.48225 20.5174 7.33301 20.3333 7.33301H19.6667C19.4826 7.33301 19.3333 7.48225 19.3333 7.66634V8.99967C19.3333 9.18377 19.1841 9.33301 19 9.33301C18.8159 9.33301 18.6667 9.18377 18.6667 8.99967V8.33301C18.6667 8.14891 18.5174 7.99967 18.3333 7.99967C18.1492 7.99967 18 8.14891 18 8.33301V8.99967C18 9.18377 17.8508 9.33301 17.6667 9.33301C17.4826 9.33301 17.3333 9.18377 17.3333 8.99967V8.13775Z" fill="white"/>
<path fill-rule="evenodd" clip-rule="evenodd" d="M16 6.32988C16 6.5157 15.8958 6.77051 15.7593 6.90702L15.574 7.09233C15.4411 7.22525 15.4375 7.43717 15.574 7.57369L15.7593 7.75899C15.8922 7.89192 16 8.14236 16 8.33613V8.99655C16 9.18237 15.8573 9.33301 15.6635 9.33301H15.0031C14.8173 9.33301 14.6667 9.19032 14.6667 8.99655V8.33613C14.6667 8.15031 14.6051 8.12272 14.512 8.30892L14.1546 9.02376C14.0692 9.19455 13.8431 9.33301 13.6697 9.33301H12.3303C12.1479 9.33301 12 9.17839 12 8.99967C12 8.81558 12.1427 8.66634 12.3365 8.66634H12.9969C13.1827 8.66634 13.3333 8.51172 13.3333 8.33301C13.3333 8.14891 13.1906 7.99967 12.9969 7.99967H12.3365C12.1506 7.99967 12 7.8563 12 7.67269V5.65999C12 5.4794 12.1427 5.33301 12.3365 5.33301H12.9969C13.1827 5.33301 13.3333 5.4757 13.3333 5.66946V6.32988C13.3333 6.5157 13.1787 6.66634 13 6.66634C12.8159 6.66634 12.6667 6.82096 12.6667 6.99967C12.6667 7.18377 12.8094 7.33301 13.0031 7.33301H13.6635C13.8494 7.33301 14 7.17607 14 7.00275V5.66327C14 5.48087 14.1546 5.33301 14.3333 5.33301C14.5174 5.33301 14.6667 5.4757 14.6667 5.66946V6.32988C14.6667 6.5157 14.8213 6.66634 15 6.66634C15.1841 6.66634 15.3333 6.52365 15.3333 6.32988V5.66946C15.3333 5.48364 15.488 5.33301 15.6667 5.33301C15.8508 5.33301 16 5.4757 16 5.66946V6.32988Z" fill="white"/>
</g>
</svg>
