<svg width="28" height="20" viewBox="0 0 28 20" fill="none" xmlns="http://www.w3.org/2000/svg">
<rect x="0.25" y="0.25" width="27.5" height="19.5" rx="1.75" fill="white" stroke="#F5F5F5" stroke-width="0.5"/>
<mask id="mask0_14715_6336" style="mask-type:luminance" maskUnits="userSpaceOnUse" x="0" y="0" width="28" height="20">
<rect x="0.25" y="0.25" width="27.5" height="19.5" rx="1.75" fill="white" stroke="white" stroke-width="0.5"/>
</mask>
<g mask="url(#mask0_14715_6336)">
<path fill-rule="evenodd" clip-rule="evenodd" d="M0 13.3337H28V6.66699H0V13.3337Z" fill="#0C47B7"/>
<path fill-rule="evenodd" clip-rule="evenodd" d="M0 19.9997H28V13.333H0V19.9997Z" fill="#E53B35"/>
<path d="M6.94971 3.33333C5.87505 3.33333 4.99249 4.1826 4.95119 5.25647L4.69194 11.9969C4.66847 12.6073 4.92515 13.1948 5.38888 13.5923L8.26456 16.0572C9.2632 16.9132 10.7368 16.9132 11.7355 16.0572L14.6111 13.5923C15.0749 13.1948 15.3315 12.6073 15.3081 11.9969L15.0488 5.25647C15.0075 4.1826 14.125 3.33333 13.0503 3.33333H6.94971Z" fill="#F73744" stroke="white" stroke-width="1.33333"/>
<mask id="mask1_14715_6336" style="mask-type:luminance" maskUnits="userSpaceOnUse" x="4" y="2" width="12" height="16">
<path d="M6.94971 3.33333C5.87505 3.33333 4.99249 4.1826 4.95119 5.25647L4.69194 11.9969C4.66847 12.6073 4.92515 13.1948 5.38888 13.5923L8.26456 16.0572C9.2632 16.9132 10.7368 16.9132 11.7355 16.0572L14.6111 13.5923C15.0749 13.1948 15.3315 12.6073 15.3081 11.9969L15.0488 5.25647C15.0075 4.1826 14.125 3.33333 13.0503 3.33333H6.94971Z" fill="white" stroke="white" stroke-width="1.33333"/>
</mask>
<g mask="url(#mask1_14715_6336)">
<path fill-rule="evenodd" clip-rule="evenodd" d="M9.33331 10.9997C9.33331 10.8156 9.18407 10.6663 8.99998 10.6663H7.66665C7.48255 10.6663 7.33331 10.5171 7.33331 10.333V9.66634C7.33331 9.48225 7.48255 9.33301 7.66665 9.33301H8.99998C9.18407 9.33301 9.33331 9.18377 9.33331 8.99967V8.33301C9.33331 8.14891 9.18407 7.99967 8.99998 7.99967H8.33331C8.14922 7.99967 7.99998 7.85044 7.99998 7.66634V6.99967C7.99998 6.81558 8.14922 6.66634 8.33331 6.66634H8.99998C9.18407 6.66634 9.33331 6.5171 9.33331 6.33301V5.66634C9.33331 5.48225 9.48255 5.33301 9.66665 5.33301H10.3333C10.5174 5.33301 10.6666 5.48225 10.6666 5.66634V6.33301C10.6666 6.5171 10.8159 6.66634 11 6.66634H11.6666C11.8507 6.66634 12 6.81558 12 6.99967V7.66634C12 7.85044 11.8507 7.99967 11.6666 7.99967H11C10.8159 7.99967 10.6666 8.14891 10.6666 8.33301V8.99967C10.6666 9.18377 10.8159 9.33301 11 9.33301H12.3333C12.5174 9.33301 12.6666 9.48225 12.6666 9.66634V10.333C12.6666 10.5171 12.5174 10.6663 12.3333 10.6663H11C10.8159 10.6663 10.6666 10.8156 10.6666 10.9997V12.9997C10.6666 13.1838 10.5174 13.333 10.3333 13.333H9.66665C9.48255 13.333 9.33331 13.1838 9.33331 12.9997V10.9997Z" fill="white"/>
<path fill-rule="evenodd" clip-rule="evenodd" d="M11.2035 13.4258C10.9889 12.977 10.5307 12.667 10 12.667C9.46934 12.667 9.01109 12.977 8.79647 13.4258C7.17545 13.6812 6 14.4388 6 15.3337C6 16.4382 7.79086 17.3337 10 17.3337C12.2091 17.3337 14 16.4382 14 15.3337C14 14.4388 12.8246 13.6812 11.2035 13.4258Z" fill="#1251A1"/>
</g>
</g>
</svg>
