<svg width="28" height="20" viewBox="0 0 28 20" fill="none" xmlns="http://www.w3.org/2000/svg">
<rect width="28" height="20" rx="2" fill="white"/>
<mask id="mask0_14715_6314" style="mask-type:luminance" maskUnits="userSpaceOnUse" x="0" y="0" width="28" height="20">
<rect width="28" height="20" rx="2" fill="white"/>
</mask>
<g mask="url(#mask0_14715_6314)">
<path fill-rule="evenodd" clip-rule="evenodd" d="M0 19.9997H28V13.333H0V19.9997Z" fill="#2ACB41"/>
<path fill-rule="evenodd" clip-rule="evenodd" d="M0 6.66667H28V0H0V6.66667Z" fill="#2ACB41"/>
<path fill-rule="evenodd" clip-rule="evenodd" d="M0 13.3337H28V6.66699H0V13.3337Z" fill="#FDD043"/>
<path fill-rule="evenodd" clip-rule="evenodd" d="M0 0L10.6667 10L0 20V0Z" fill="#E71E43"/>
<path fill-rule="evenodd" clip-rule="evenodd" d="M14.6667 11.093L13.0992 12.1571L13.6268 10.3375L12.1305 9.17563L14.024 9.11515L14.6667 7.33301L15.3093 9.11515L17.2028 9.17563L15.7065 10.3375L16.2341 12.1571L14.6667 11.093Z" fill="#262626"/>
<path fill-rule="evenodd" clip-rule="evenodd" d="M21.3333 11.093L19.7659 12.1571L20.2935 10.3375L18.7972 9.17563L20.6907 9.11515L21.3333 7.33301L21.976 9.11515L23.8695 9.17563L22.3731 10.3375L22.9008 12.1571L21.3333 11.093Z" fill="#262626"/>
</g>
</svg>
