<svg width="28" height="20" viewBox="0 0 28 20" fill="none" xmlns="http://www.w3.org/2000/svg">
<rect x="0.25" y="0.25" width="27.5" height="19.5" rx="1.75" fill="white" stroke="#F5F5F5" stroke-width="0.5"/>
<mask id="mask0_14715_5352" style="mask-type:luminance" maskUnits="userSpaceOnUse" x="0" y="0" width="28" height="20">
<rect x="0.25" y="0.25" width="27.5" height="19.5" rx="1.75" fill="white" stroke="white" stroke-width="0.5"/>
</mask>
<g mask="url(#mask0_14715_5352)">
<path fill-rule="evenodd" clip-rule="evenodd" d="M0 6.66667H28V0H0V6.66667Z" fill="#1B57C4"/>
<path fill-rule="evenodd" clip-rule="evenodd" d="M0 19.9997H28V13.333H0V19.9997Z" fill="#1B57C4"/>
<path fill-rule="evenodd" clip-rule="evenodd" d="M12.4 7.86621C11.7523 8.35272 11.3333 9.12729 11.3333 9.9997C11.3333 11.4725 12.5273 12.6664 14 12.6664C15.4728 12.6664 16.6667 11.4725 16.6667 9.9997C16.6667 9.12729 16.2477 8.35272 15.6001 7.86621L14.6667 10.6664H13.3333L12.4 7.86621Z" fill="url(#paint0_linear_14715_5352)"/>
<path fill-rule="evenodd" clip-rule="evenodd" d="M14 7.33301L14.6667 10.6663H13.3333L14 7.33301Z" fill="#F9C92E"/>
</g>
<defs>
<linearGradient id="paint0_linear_14715_5352" x1="11.3333" y1="7.86621" x2="11.3333" y2="12.6664" gradientUnits="userSpaceOnUse">
<stop stop-color="#3C7839"/>
<stop offset="1" stop-color="#31642E"/>
</linearGradient>
</defs>
</svg>
