<svg width="28" height="20" viewBox="0 0 28 20" fill="none" xmlns="http://www.w3.org/2000/svg">
<rect x="0.25" y="0.25" width="27.5" height="19.5" rx="1.75" fill="white" stroke="#F5F5F5" stroke-width="0.5"/>
<mask id="mask0_14715_6353" style="mask-type:luminance" maskUnits="userSpaceOnUse" x="0" y="0" width="28" height="20">
<rect x="0.25" y="0.25" width="27.5" height="19.5" rx="1.75" fill="white" stroke="white" stroke-width="0.5"/>
</mask>
<g mask="url(#mask0_14715_6353)">
<path fill-rule="evenodd" clip-rule="evenodd" d="M0 19.9997H28V13.333H0V19.9997Z" fill="#262626"/>
<path fill-rule="evenodd" clip-rule="evenodd" d="M0 6.66667H28V0H0V6.66667Z" fill="#E32139"/>
<path fill-rule="evenodd" clip-rule="evenodd" d="M9.33335 11.093L7.76593 12.1571L8.29353 10.3375L6.7972 9.17563L8.69071 9.11515L9.33335 7.33301L9.976 9.11515L11.8695 9.17563L10.3732 10.3375L10.9008 12.1571L9.33335 11.093Z" fill="#128A49"/>
<path fill-rule="evenodd" clip-rule="evenodd" d="M18.6667 11.093L17.0992 12.1571L17.6268 10.3375L16.1305 9.17563L18.024 9.11515L18.6667 7.33301L19.3093 9.11515L21.2028 9.17563L19.7065 10.3375L20.2341 12.1571L18.6667 11.093Z" fill="#128A49"/>
</g>
</svg>
