<svg width="28" height="20" viewBox="0 0 28 20" fill="none" xmlns="http://www.w3.org/2000/svg">
<rect width="28" height="20" rx="2" fill="white"/>
<mask id="mask0_14715_6301" style="mask-type:luminance" maskUnits="userSpaceOnUse" x="0" y="0" width="28" height="20">
<rect width="28" height="20" rx="2" fill="white"/>
</mask>
<g mask="url(#mask0_14715_6301)">
<path fill-rule="evenodd" clip-rule="evenodd" d="M0 4H28V0H0V4Z" fill="#486BCA"/>
<path fill-rule="evenodd" clip-rule="evenodd" d="M0 20H28V16H0V20Z" fill="#486BCA"/>
<path fill-rule="evenodd" clip-rule="evenodd" d="M0 16H28V4H0V16Z" fill="#FFDF20"/>
<path fill-rule="evenodd" clip-rule="evenodd" d="M0 14.6663H28V5.33301H0V14.6663Z" fill="#CF1615"/>
<path fill-rule="evenodd" clip-rule="evenodd" d="M14 13.3337C17.3137 13.3337 20 10.0003 20 10.0003C20 10.0003 17.3137 6.66699 14 6.66699C10.6863 6.66699 8 10.0003 8 10.0003C8 10.0003 10.6863 13.3337 14 13.3337Z" fill="white"/>
<mask id="mask1_14715_6301" style="mask-type:luminance" maskUnits="userSpaceOnUse" x="8" y="6" width="12" height="8">
<path fill-rule="evenodd" clip-rule="evenodd" d="M14 13.3337C17.3137 13.3337 20 10.0003 20 10.0003C20 10.0003 17.3137 6.66699 14 6.66699C10.6863 6.66699 8 10.0003 8 10.0003C8 10.0003 10.6863 13.3337 14 13.3337Z" fill="white"/>
</mask>
<g mask="url(#mask1_14715_6301)">
<path fill-rule="evenodd" clip-rule="evenodd" d="M14.6667 6.66699H8.00002V13.3337H13.3334L14.6667 6.66699Z" fill="#262626"/>
<path fill-rule="evenodd" clip-rule="evenodd" d="M15.3334 10.6673C15.7015 10.6673 16 10.3688 16 10.0007C16 9.63246 15.7015 9.33398 15.3334 9.33398C14.9652 9.33398 14.6667 9.63246 14.6667 10.0007C14.6667 10.3688 14.9652 10.6673 15.3334 10.6673Z" fill="#1A1A1A"/>
<path fill-rule="evenodd" clip-rule="evenodd" d="M12.6667 10.6673C13.0349 10.6673 13.3333 10.3688 13.3333 10.0007C13.3333 9.63246 13.0349 9.33398 12.6667 9.33398C12.2985 9.33398 12 9.63246 12 10.0007C12 10.3688 12.2985 10.6673 12.6667 10.6673Z" fill="#F6F6F6"/>
</g>
</g>
</svg>
