<svg width="28" height="20" viewBox="0 0 28 20" fill="none" xmlns="http://www.w3.org/2000/svg">
<rect width="28" height="20" rx="2" fill="white"/>
<mask id="mask0_14715_6517" style="mask-type:luminance" maskUnits="userSpaceOnUse" x="0" y="0" width="28" height="20">
<rect width="28" height="20" rx="2" fill="white"/>
</mask>
<g mask="url(#mask0_14715_6517)">
<rect width="28" height="20" fill="#07319C"/>
<path d="M17.6666 9.99967V9.94826V9.89657V9.84461V9.7924V9.73994V9.68725V9.63435V9.58124V9.52794V9.47446V9.42081V9.36701V9.31307V9.28605V9.27929V9.27252V9.25899V9.2048V9.15051V9.09612V9.04165V8.98711V8.93252V8.87789V8.82322V8.76854V8.7412V8.73436V8.72753V8.72069V8.71386V8.70702V8.70018V8.69335V8.68651V8.67968V8.67284V8.66601V8.65918V8.65234V8.64551V8.63868V8.63184V8.62501V8.61818V8.61135V8.60452V8.59769V8.59086V8.58403V8.5772V8.57037V8.56354V8.55672V8.54989V8.54307V8.53624V8.52942V8.52259V8.51577V8.50895V8.50213V8.49531V8.48849V8.48167V8.47485V8.46804V8.46122V8.45441V8.4476V8.44078V8.43397V8.42716V8.42035V8.41355V8.40674V8.39994V8.39313V8.38633V8.37953V8.37273V8.36593V8.35913V8.35234V8.34554V8.33875V8.33196V8.32517V8.31838V8.31159V8.30481V8.29802V8.29124V8.28446V8.27768V8.2709V8.26413V8.25735V8.25058V8.24381V8.23704V8.23027V8.22351V8.21675V8.20998V8.20323V8.19647V8.18971V8.18296V8.17621V8.16946V8.16271V8.15597V8.14922V8.14248V8.13574V8.12901V8.12227V8.11554V8.10881V8.10208V8.09536V8.08863V8.08191V8.07519V8.06848V8.06177V8.05505V8.04835V8.04164V8.03494V8.02824V8.02154V8.01484V8.00815V8.00146V7.99477V7.98809V7.9814V7.97472V7.96805V7.96137V7.9547V7.94803V7.94137V7.93471V7.92805V7.92139V7.91474V7.90808V7.90144V7.89479V7.88815V7.87488V7.84837V7.7955V7.74286V7.69045V7.63828V7.58637V7.53473V7.48337V7.43231V7.38155V7.33111V7.281V7.23124V7.18184V7.1328V7.08414V7.03588V6.9406V6.84704V6.7553V6.66549C17.6666 6.11348 18.1141 5.66634 18.6666 5.66634H22.6666C23.2192 5.66634 23.6666 6.11349 23.6666 6.66549V6.67105V6.67661V6.68218V6.68776V6.69335V6.69894V6.70454V6.71015V6.71577V6.72139V6.72703V6.73267V6.73831V6.74397V6.74963V6.7553V6.76098V6.76667V6.77236V6.77806V6.78377V6.78948V6.79521V6.80094V6.80667V6.81242V6.81817V6.82393V6.82969V6.83547V6.84125V6.84704V6.85283V6.85863V6.86444V6.87026V6.87608V6.88191V6.88775V6.8936V6.89945V6.9053V6.91117V6.91704V6.92292V6.92881V6.9347V6.9406V6.9465V6.95242V6.95834V6.96426V6.97019V6.97613V6.98208V6.98803V6.99399V6.99996V7.00593V7.01191V7.01789V7.02388V7.02988V7.03589V7.0419V7.04791V7.05394V7.05997V7.066V7.07204V7.07809V7.08415V7.09021V7.09627V7.10235V7.10842V7.11451V7.1206V7.1267V7.1328V7.13891V7.14502V7.15114V7.15727V7.1634V7.16954V7.17569V7.18184V7.18799V7.19415V7.20032V7.20649V7.21267V7.21886V7.22505V7.23124V7.23744V7.24365V7.24986V7.25608V7.2623V7.26853V7.27476V7.281V7.28725V7.2935V7.29975V7.30601V7.31228V7.31855V7.32483V7.33111V7.3374V7.34369V7.34999V7.35629V7.3626V7.36891V7.37523V7.38155V7.38788V7.39421V7.40055V7.40689V7.41324V7.41959V7.42594V7.43231V7.43867V7.44504V7.45142V7.4578V7.46419V7.47058V7.47697V7.48337V7.48977V7.49618V7.5026V7.50901V7.51544V7.52186V7.52829V7.53473V7.54117V7.54761V7.55406V7.56052V7.56697V7.57343V7.5799V7.58637V7.59284V7.59932V7.60581V7.61229V7.61878V7.62528V7.63178V7.63828V7.64479V7.6513V7.65781V7.66433V7.67086V7.67738V7.68391V7.69045V7.69699V7.70353V7.71007V7.71662V7.72318V7.72973V7.7363V7.74286V7.74943V7.756V7.76257V7.76915V7.77574V7.78232V7.78891V7.7955V7.8021V7.8087V7.8153V7.82191V7.82852V7.83513V7.84175V7.84837V7.85499V7.86162V7.86824V7.87488V7.88151V7.88815V7.89479V7.90144V7.90809V7.91474V7.92139V7.92805V7.93471V7.94137V7.94803V7.9547V7.96137V7.96805V7.97472V7.9814V7.98809V7.99477V8.00146V8.00815V8.01484V8.02154V8.02824V8.03494V8.04164V8.04835V8.05506V8.06177V8.06848V8.0752V8.08191V8.08863V8.09536V8.10208V8.10881V8.11554V8.12227V8.12901V8.13574V8.14248V8.14922V8.15597V8.16271V8.16946V8.17621V8.18296V8.18971V8.19647V8.20323V8.20999V8.21675V8.22351V8.23027V8.23704V8.24381V8.25058V8.25735V8.26413V8.2709V8.27768V8.28446V8.29124V8.29802V8.30481V8.31159V8.31838V8.32517V8.33196V8.33875V8.34554V8.35234V8.35913V8.36593V8.37273V8.37953V8.38633V8.39313V8.39994V8.40674V8.41355V8.42036V8.42716V8.43397V8.44078V8.4476V8.45441V8.46122V8.46804V8.47485V8.48167V8.48849V8.49531V8.50213V8.50895V8.51577V8.52259V8.52942V8.53624V8.54307V8.54989V8.55672V8.56354V8.57037V8.5772V8.58403V8.59086V8.59769V8.60452V8.61135V8.61818V8.62501V8.63184V8.63868V8.64551V8.65234V8.65918V8.66601V8.67284V8.67968V8.68651V8.69335V8.70018V8.70702V8.71386V8.72069V8.72753V8.73436V8.7412V8.74803V8.75487V8.76171V8.76854V8.77538V8.78221V8.78905V8.79588V8.80272V8.80955V8.81639V8.82322V8.83006V8.83689V8.84372V8.85056V8.85739V8.86422V8.87106V8.87789V8.88472V8.89155V8.89838V8.90521V8.91204V8.91887V8.92569V8.93252V8.93935V8.94617V8.953V8.95982V8.96665V8.97347V8.98029V8.98711V8.99393V9.00075V9.00757V9.01439V9.0212V9.02802V9.03483V9.04165V9.04846V9.05527V9.06208V9.06889V9.0757V9.08251V9.08931V9.09612V9.10292V9.10972V9.11652V9.12332V9.13012V9.13692V9.14371V9.15051V9.1573V9.16409V9.17088V9.17767V9.18445V9.19124V9.19802V9.2048V9.21158V9.21836V9.22514V9.23191V9.23868V9.24546V9.25223V9.25899V9.26576V9.27252V9.27929V9.28605V9.2928V9.29956V9.30632V9.31307V9.31982V9.32657V9.33331V9.34006V9.3468V9.35354V9.36028V9.36701V9.37375V9.38048V9.38721V9.39393V9.40066V9.40738V9.4141V9.42081V9.42753V9.43424V9.44095V9.44766V9.45436V9.46106V9.46776V9.47446V9.48116V9.48785V9.49454V9.50122V9.50791V9.51459V9.52127V9.52794V9.53461V9.54128V9.54795V9.55461V9.56128V9.56793V9.57459V9.58124V9.58789V9.59454V9.60118V9.60782V9.61446V9.62109V9.62772V9.63435V9.64097V9.64759V9.65421V9.66083V9.66744V9.67405V9.68065V9.68725V9.69385V9.70045V9.70704V9.71362V9.72021V9.72679V9.73337V9.73994V9.74651V9.75307V9.75964V9.7662V9.77275V9.7793V9.78585V9.7924V9.79894V9.80547V9.812V9.81853V9.82506V9.83158V9.8381V9.84461V9.85112V9.85762V9.86412V9.87062V9.87711V9.8836V9.89009V9.89657V9.90305V9.90952V9.91599V9.92245V9.92891V9.93536V9.94181V9.94826V9.9547V9.96114V9.96757V9.974V9.98043V9.98685V9.99326V9.99967C23.6666 11.5423 22.8988 12.6256 22.1103 13.3352C21.7158 13.6903 21.3202 13.9476 21.0231 14.1159C20.875 14.1999 20.7522 14.2612 20.6677 14.301C20.6674 14.3012 20.667 14.3014 20.6666 14.3015C20.6663 14.3014 20.6659 14.3012 20.6656 14.301C20.5811 14.2612 20.4583 14.1999 20.3102 14.1159C20.0131 13.9476 19.6175 13.6903 19.223 13.3352C18.4345 12.6256 17.6666 11.5423 17.6666 9.99967Z" fill="#FFD033" stroke="white" stroke-width="0.666667"/>
<mask id="mask1_14715_6517" style="mask-type:luminance" maskUnits="userSpaceOnUse" x="17" y="5" width="7" height="10">
<path d="M17.6666 9.99967V9.94826V9.89657V9.84461V9.7924V9.73994V9.68725V9.63435V9.58124V9.52794V9.47446V9.42081V9.36701V9.31307V9.28605V9.27929V9.27252V9.25899V9.2048V9.15051V9.09612V9.04165V8.98711V8.93252V8.87789V8.82322V8.76854V8.7412V8.73436V8.72753V8.72069V8.71386V8.70702V8.70018V8.69335V8.68651V8.67968V8.67284V8.66601V8.65918V8.65234V8.64551V8.63868V8.63184V8.62501V8.61818V8.61135V8.60452V8.59769V8.59086V8.58403V8.5772V8.57037V8.56354V8.55672V8.54989V8.54307V8.53624V8.52942V8.52259V8.51577V8.50895V8.50213V8.49531V8.48849V8.48167V8.47485V8.46804V8.46122V8.45441V8.4476V8.44078V8.43397V8.42716V8.42035V8.41355V8.40674V8.39994V8.39313V8.38633V8.37953V8.37273V8.36593V8.35913V8.35234V8.34554V8.33875V8.33196V8.32517V8.31838V8.31159V8.30481V8.29802V8.29124V8.28446V8.27768V8.2709V8.26413V8.25735V8.25058V8.24381V8.23704V8.23027V8.22351V8.21675V8.20998V8.20323V8.19647V8.18971V8.18296V8.17621V8.16946V8.16271V8.15597V8.14922V8.14248V8.13574V8.12901V8.12227V8.11554V8.10881V8.10208V8.09536V8.08863V8.08191V8.07519V8.06848V8.06177V8.05505V8.04835V8.04164V8.03494V8.02824V8.02154V8.01484V8.00815V8.00146V7.99477V7.98809V7.9814V7.97472V7.96805V7.96137V7.9547V7.94803V7.94137V7.93471V7.92805V7.92139V7.91474V7.90808V7.90144V7.89479V7.88815V7.87488V7.84837V7.7955V7.74286V7.69045V7.63828V7.58637V7.53473V7.48337V7.43231V7.38155V7.33111V7.281V7.23124V7.18184V7.1328V7.08414V7.03588V6.9406V6.84704V6.7553V6.66549C17.6666 6.11348 18.1141 5.66634 18.6666 5.66634H22.6666C23.2192 5.66634 23.6666 6.11349 23.6666 6.66549V6.67105V6.67661V6.68218V6.68776V6.69335V6.69894V6.70454V6.71015V6.71577V6.72139V6.72703V6.73267V6.73831V6.74397V6.74963V6.7553V6.76098V6.76667V6.77236V6.77806V6.78377V6.78948V6.79521V6.80094V6.80667V6.81242V6.81817V6.82393V6.82969V6.83547V6.84125V6.84704V6.85283V6.85863V6.86444V6.87026V6.87608V6.88191V6.88775V6.8936V6.89945V6.9053V6.91117V6.91704V6.92292V6.92881V6.9347V6.9406V6.9465V6.95242V6.95834V6.96426V6.97019V6.97613V6.98208V6.98803V6.99399V6.99996V7.00593V7.01191V7.01789V7.02388V7.02988V7.03589V7.0419V7.04791V7.05394V7.05997V7.066V7.07204V7.07809V7.08415V7.09021V7.09627V7.10235V7.10842V7.11451V7.1206V7.1267V7.1328V7.13891V7.14502V7.15114V7.15727V7.1634V7.16954V7.17569V7.18184V7.18799V7.19415V7.20032V7.20649V7.21267V7.21886V7.22505V7.23124V7.23744V7.24365V7.24986V7.25608V7.2623V7.26853V7.27476V7.281V7.28725V7.2935V7.29975V7.30601V7.31228V7.31855V7.32483V7.33111V7.3374V7.34369V7.34999V7.35629V7.3626V7.36891V7.37523V7.38155V7.38788V7.39421V7.40055V7.40689V7.41324V7.41959V7.42594V7.43231V7.43867V7.44504V7.45142V7.4578V7.46419V7.47058V7.47697V7.48337V7.48977V7.49618V7.5026V7.50901V7.51544V7.52186V7.52829V7.53473V7.54117V7.54761V7.55406V7.56052V7.56697V7.57343V7.5799V7.58637V7.59284V7.59932V7.60581V7.61229V7.61878V7.62528V7.63178V7.63828V7.64479V7.6513V7.65781V7.66433V7.67086V7.67738V7.68391V7.69045V7.69699V7.70353V7.71007V7.71662V7.72318V7.72973V7.7363V7.74286V7.74943V7.756V7.76257V7.76915V7.77574V7.78232V7.78891V7.7955V7.8021V7.8087V7.8153V7.82191V7.82852V7.83513V7.84175V7.84837V7.85499V7.86162V7.86824V7.87488V7.88151V7.88815V7.89479V7.90144V7.90809V7.91474V7.92139V7.92805V7.93471V7.94137V7.94803V7.9547V7.96137V7.96805V7.97472V7.9814V7.98809V7.99477V8.00146V8.00815V8.01484V8.02154V8.02824V8.03494V8.04164V8.04835V8.05506V8.06177V8.06848V8.0752V8.08191V8.08863V8.09536V8.10208V8.10881V8.11554V8.12227V8.12901V8.13574V8.14248V8.14922V8.15597V8.16271V8.16946V8.17621V8.18296V8.18971V8.19647V8.20323V8.20999V8.21675V8.22351V8.23027V8.23704V8.24381V8.25058V8.25735V8.26413V8.2709V8.27768V8.28446V8.29124V8.29802V8.30481V8.31159V8.31838V8.32517V8.33196V8.33875V8.34554V8.35234V8.35913V8.36593V8.37273V8.37953V8.38633V8.39313V8.39994V8.40674V8.41355V8.42036V8.42716V8.43397V8.44078V8.4476V8.45441V8.46122V8.46804V8.47485V8.48167V8.48849V8.49531V8.50213V8.50895V8.51577V8.52259V8.52942V8.53624V8.54307V8.54989V8.55672V8.56354V8.57037V8.5772V8.58403V8.59086V8.59769V8.60452V8.61135V8.61818V8.62501V8.63184V8.63868V8.64551V8.65234V8.65918V8.66601V8.67284V8.67968V8.68651V8.69335V8.70018V8.70702V8.71386V8.72069V8.72753V8.73436V8.7412V8.74803V8.75487V8.76171V8.76854V8.77538V8.78221V8.78905V8.79588V8.80272V8.80955V8.81639V8.82322V8.83006V8.83689V8.84372V8.85056V8.85739V8.86422V8.87106V8.87789V8.88472V8.89155V8.89838V8.90521V8.91204V8.91887V8.92569V8.93252V8.93935V8.94617V8.953V8.95982V8.96665V8.97347V8.98029V8.98711V8.99393V9.00075V9.00757V9.01439V9.0212V9.02802V9.03483V9.04165V9.04846V9.05527V9.06208V9.06889V9.0757V9.08251V9.08931V9.09612V9.10292V9.10972V9.11652V9.12332V9.13012V9.13692V9.14371V9.15051V9.1573V9.16409V9.17088V9.17767V9.18445V9.19124V9.19802V9.2048V9.21158V9.21836V9.22514V9.23191V9.23868V9.24546V9.25223V9.25899V9.26576V9.27252V9.27929V9.28605V9.2928V9.29956V9.30632V9.31307V9.31982V9.32657V9.33331V9.34006V9.3468V9.35354V9.36028V9.36701V9.37375V9.38048V9.38721V9.39393V9.40066V9.40738V9.4141V9.42081V9.42753V9.43424V9.44095V9.44766V9.45436V9.46106V9.46776V9.47446V9.48116V9.48785V9.49454V9.50122V9.50791V9.51459V9.52127V9.52794V9.53461V9.54128V9.54795V9.55461V9.56128V9.56793V9.57459V9.58124V9.58789V9.59454V9.60118V9.60782V9.61446V9.62109V9.62772V9.63435V9.64097V9.64759V9.65421V9.66083V9.66744V9.67405V9.68065V9.68725V9.69385V9.70045V9.70704V9.71362V9.72021V9.72679V9.73337V9.73994V9.74651V9.75307V9.75964V9.7662V9.77275V9.7793V9.78585V9.7924V9.79894V9.80547V9.812V9.81853V9.82506V9.83158V9.8381V9.84461V9.85112V9.85762V9.86412V9.87062V9.87711V9.8836V9.89009V9.89657V9.90305V9.90952V9.91599V9.92245V9.92891V9.93536V9.94181V9.94826V9.9547V9.96114V9.96757V9.974V9.98043V9.98685V9.99326V9.99967C23.6666 11.5423 22.8988 12.6256 22.1103 13.3352C21.7158 13.6903 21.3202 13.9476 21.0231 14.1159C20.875 14.1999 20.7522 14.2612 20.6677 14.301C20.6674 14.3012 20.667 14.3014 20.6666 14.3015C20.6663 14.3014 20.6659 14.3012 20.6656 14.301C20.5811 14.2612 20.4583 14.1999 20.3102 14.1159C20.0131 13.9476 19.6175 13.6903 19.223 13.3352C18.4345 12.6256 17.6666 11.5423 17.6666 9.99967Z" fill="white" stroke="white" stroke-width="0.666667"/>
</mask>
<g mask="url(#mask1_14715_6517)">
<path fill-rule="evenodd" clip-rule="evenodd" d="M22 9.33268C22.3682 9.33268 22.6666 8.73573 22.6666 7.99935C22.6666 7.26297 22.3682 6.66602 22 6.66602C21.6318 6.66602 21.3333 7.26297 21.3333 7.99935C21.3333 8.73573 21.6318 9.33268 22 9.33268Z" fill="#BA5B1F"/>
<path fill-rule="evenodd" clip-rule="evenodd" d="M19.5385 9.29248C19.8845 9.16655 19.9608 8.50352 19.709 7.81155C19.4571 7.11957 18.9724 6.66071 18.6265 6.78663C18.2805 6.91256 18.2042 7.5756 18.456 8.26757C18.7079 8.95954 19.1925 9.41841 19.5385 9.29248Z" fill="#FF9F3E"/>
<path fill-rule="evenodd" clip-rule="evenodd" d="M19.0516 9.27083C19.3853 9.42644 19.9081 9.01155 20.2193 8.34417C20.5305 7.67678 20.5122 7.00961 20.1785 6.85401C19.8449 6.69841 19.3221 7.11329 19.0108 7.78068C18.6996 8.44806 18.7179 9.11523 19.0516 9.27083Z" fill="#FF937F"/>
<path fill-rule="evenodd" clip-rule="evenodd" d="M20 10.6663L20.6667 9.33301L21.3333 10.6663V11.9997H20V10.6663Z" fill="#01A827"/>
</g>
<path d="M0 -0.333333H-0.901086L-0.21693 0.253086L4.33333 4.15331V5.16179L-0.193746 8.39542L-0.333333 8.49513V8.66667V9.33333V9.93475L0.176666 9.616L5.42893 6.33333H6.55984L11.0821 9.56351C11.176 9.6306 11.2886 9.66667 11.404 9.66667C11.9182 9.66667 12.1548 9.02698 11.7644 8.69237L7.66667 5.18002V4.17154L12.0542 1.03762C12.2294 0.912475 12.3333 0.710428 12.3333 0.495127V0V-0.601416L11.8233 -0.282666L6.57107 3H5.44016L0.860413 -0.271244L0.773488 -0.333333H0.666667H0Z" fill="#DB1E36" stroke="white" stroke-width="0.666667"/>
<path fill-rule="evenodd" clip-rule="evenodd" d="M0 3.33333V6H4.66667V9.33333C4.66667 9.70152 4.96514 10 5.33333 10H6.66667C7.03486 10 7.33333 9.70152 7.33333 9.33333V6H12C12.3682 6 12.6667 5.70152 12.6667 5.33333V4C12.6667 3.63181 12.3682 3.33333 12 3.33333H7.33333V0H4.66667V3.33333H0Z" fill="white"/>
<path fill-rule="evenodd" clip-rule="evenodd" d="M0 4H5.33333V3.33333V0H6.66667V3.33333V4H12V5.33333H6.66667V6V9.33333H5.33333V6V5.33333H0V4Z" fill="#DB1E36"/>
</g>
</svg>
