<svg width="28" height="20" viewBox="0 0 28 20" fill="none" xmlns="http://www.w3.org/2000/svg">
<rect width="28" height="20" rx="2" fill="white"/>
<mask id="mask0_14715_6547" style="mask-type:luminance" maskUnits="userSpaceOnUse" x="0" y="0" width="28" height="20">
<rect width="28" height="20" rx="2" fill="white"/>
</mask>
<g mask="url(#mask0_14715_6547)">
<path fill-rule="evenodd" clip-rule="evenodd" d="M0 20H28V0H0V20Z" fill="#30C375"/>
<rect x="4" width="4" height="20" fill="#DE414F"/>
<path fill-rule="evenodd" clip-rule="evenodd" d="M6 3.99967C7.10457 3.99967 8 3.40272 8 2.66634C8 1.92996 7.10457 1.33301 6 1.33301C4.89543 1.33301 4 1.92996 4 2.66634C4 3.40272 4.89543 3.99967 6 3.99967Z" fill="white"/>
<mask id="mask1_14715_6547" style="mask-type:luminance" maskUnits="userSpaceOnUse" x="4" y="1" width="4" height="3">
<path fill-rule="evenodd" clip-rule="evenodd" d="M6 3.99967C7.10457 3.99967 8 3.40272 8 2.66634C8 1.92996 7.10457 1.33301 6 1.33301C4.89543 1.33301 4 1.92996 4 2.66634C4 3.40272 4.89543 3.99967 6 3.99967Z" fill="white"/>
</mask>
<g mask="url(#mask1_14715_6547)">
<path fill-rule="evenodd" clip-rule="evenodd" d="M5.99998 3.33333C6.36817 3.33333 6.66665 3.03486 6.66665 2.66667C6.66665 2.29848 6.36817 2 5.99998 2C5.63179 2 5.33331 2.29848 5.33331 2.66667C5.33331 3.03486 5.63179 3.33333 5.99998 3.33333Z" fill="#DD404F"/>
<rect x="4" y="1.33301" width="2" height="1.33333" fill="#FBAF29"/>
<rect x="6" y="2.66602" width="2" height="1.33333" fill="#FBAF29"/>
</g>
<path fill-rule="evenodd" clip-rule="evenodd" d="M6 18.6667C7.10457 18.6667 8 18.0697 8 17.3333C8 16.597 7.10457 16 6 16C4.89543 16 4 16.597 4 17.3333C4 18.0697 4.89543 18.6667 6 18.6667Z" fill="white"/>
<mask id="mask2_14715_6547" style="mask-type:luminance" maskUnits="userSpaceOnUse" x="4" y="16" width="4" height="3">
<path fill-rule="evenodd" clip-rule="evenodd" d="M6 18.6667C7.10457 18.6667 8 18.0697 8 17.3333C8 16.597 7.10457 16 6 16C4.89543 16 4 16.597 4 17.3333C4 18.0697 4.89543 18.6667 6 18.6667Z" fill="white"/>
</mask>
<g mask="url(#mask2_14715_6547)">
<path fill-rule="evenodd" clip-rule="evenodd" d="M5.99998 18.0003C6.36817 18.0003 6.66665 17.7018 6.66665 17.3337C6.66665 16.9655 6.36817 16.667 5.99998 16.667C5.63179 16.667 5.33331 16.9655 5.33331 17.3337C5.33331 17.7018 5.63179 18.0003 5.99998 18.0003Z" fill="#DD404F"/>
<rect x="4" y="16" width="2" height="1.33333" fill="#FBAF29"/>
<rect x="6" y="17.333" width="2" height="1.33333" fill="#FBAF29"/>
</g>
<path fill-rule="evenodd" clip-rule="evenodd" d="M6 11.9997C7.10457 11.9997 8 11.4027 8 10.6663C8 9.92996 7.10457 9.33301 6 9.33301C4.89543 9.33301 4 9.92996 4 10.6663C4 11.4027 4.89543 11.9997 6 11.9997Z" fill="#28AE67"/>
<mask id="mask3_14715_6547" style="mask-type:luminance" maskUnits="userSpaceOnUse" x="4" y="9" width="4" height="3">
<path fill-rule="evenodd" clip-rule="evenodd" d="M6 11.9997C7.10457 11.9997 8 11.4027 8 10.6663C8 9.92996 7.10457 9.33301 6 9.33301C4.89543 9.33301 4 9.92996 4 10.6663C4 11.4027 4.89543 11.9997 6 11.9997Z" fill="white"/>
</mask>
<g mask="url(#mask3_14715_6547)">
<path fill-rule="evenodd" clip-rule="evenodd" d="M6.00002 11.3333C6.7364 11.3333 7.33335 11.0349 7.33335 10.6667C7.33335 10.2985 6.7364 10 6.00002 10C5.26364 10 4.66669 10.2985 4.66669 10.6667C4.66669 11.0349 5.26364 11.3333 6.00002 11.3333Z" fill="#DD404F"/>
</g>
<path fill-rule="evenodd" clip-rule="evenodd" d="M6 14.6663C7.10457 14.6663 8 14.3679 8 13.9997C8 13.6315 7.10457 13.333 6 13.333C4.89543 13.333 4 13.6315 4 13.9997C4 14.3679 4.89543 14.6663 6 14.6663Z" fill="#28AE67"/>
<mask id="mask4_14715_6547" style="mask-type:luminance" maskUnits="userSpaceOnUse" x="4" y="13" width="4" height="2">
<path fill-rule="evenodd" clip-rule="evenodd" d="M6 14.6663C7.10457 14.6663 8 14.3679 8 13.9997C8 13.6315 7.10457 13.333 6 13.333C4.89543 13.333 4 13.6315 4 13.9997C4 14.3679 4.89543 14.6663 6 14.6663Z" fill="white"/>
</mask>
<g mask="url(#mask4_14715_6547)">
</g>
<path fill-rule="evenodd" clip-rule="evenodd" d="M6 7.99967C7.10457 7.99967 8 7.40272 8 6.66634C8 5.92996 7.10457 5.33301 6 5.33301C4.89543 5.33301 4 5.92996 4 6.66634C4 7.40272 4.89543 7.99967 6 7.99967Z" fill="#FBAF29"/>
<mask id="mask5_14715_6547" style="mask-type:luminance" maskUnits="userSpaceOnUse" x="4" y="5" width="4" height="3">
<path fill-rule="evenodd" clip-rule="evenodd" d="M6 7.99967C7.10457 7.99967 8 7.40272 8 6.66634C8 5.92996 7.10457 5.33301 6 5.33301C4.89543 5.33301 4 5.92996 4 6.66634C4 7.40272 4.89543 7.99967 6 7.99967Z" fill="white"/>
</mask>
<g mask="url(#mask5_14715_6547)">
<path fill-rule="evenodd" clip-rule="evenodd" d="M5.99998 7.33333C6.36817 7.33333 6.66665 7.03486 6.66665 6.66667C6.66665 6.29848 6.36817 6 5.99998 6C5.63179 6 5.33331 6.29848 5.33331 6.66667C5.33331 7.03486 5.63179 7.33333 5.99998 7.33333Z" fill="#DD404F"/>
<rect x="4" y="5.33301" width="1.33333" height="2.66667" fill="#28AE67"/>
<rect x="6.66669" y="5.33301" width="1.33333" height="2.66667" fill="#28AE67"/>
</g>
<path fill-rule="evenodd" clip-rule="evenodd" d="M14.8227 4.23848C14.586 4.52053 14.6228 4.94104 14.9048 5.1777C15.1869 5.41437 15.6074 5.37758 15.8441 5.09553C16.0807 4.81348 16.0439 4.39298 15.7619 4.15631C15.4798 3.91964 15.0593 3.95643 14.8227 4.23848ZM13.0952 6.82298C12.8132 6.58631 12.3927 6.6231 12.156 6.90515C11.9193 7.1872 11.9561 7.6077 12.2382 7.84437C12.5202 8.08104 12.9407 8.04425 13.1774 7.7622C13.4141 7.48015 13.3773 7.05965 13.0952 6.82298ZM11.7619 5.48964C11.4798 5.25298 11.0593 5.28977 10.8227 5.57182C10.586 5.85387 10.6228 6.27437 10.9048 6.51104C11.1869 6.74771 11.6074 6.71092 11.8441 6.42887C12.0807 6.14682 12.0439 5.72631 11.7619 5.48964ZM14.4286 2.82298C14.1465 2.58631 13.726 2.6231 13.4893 2.90515C13.2527 3.1872 13.2895 3.6077 13.5715 3.84437C13.8536 4.08104 14.2741 4.04425 14.5107 3.7622C14.7474 3.48015 14.7106 3.05965 14.4286 2.82298ZM13.7619 4.82298C13.4798 4.58631 13.0593 4.6231 12.8227 4.90515C12.586 5.1872 12.6228 5.6077 12.9048 5.84437C13.1869 6.08104 13.6074 6.04425 13.8441 5.7622C14.0807 5.48015 14.0439 5.05965 13.7619 4.82298Z" fill="white"/>
<path fill-rule="evenodd" clip-rule="evenodd" d="M17.4761 9.45094C15.888 11.039 13.3133 11.039 11.7253 9.45094C11.5714 9.29706 11.4324 9.13392 11.3083 8.96331C12.8985 10.1195 15.1374 9.98058 16.5716 8.54641C18.0057 7.11224 18.1447 4.87333 16.9885 3.2832C17.1591 3.40726 17.3222 3.54623 17.4761 3.7001C19.0641 5.28815 19.0641 7.86289 17.4761 9.45094Z" fill="white"/>
</g>
</svg>
