<svg width="28" height="20" viewBox="0 0 28 20" fill="none" xmlns="http://www.w3.org/2000/svg">
<rect x="0.25" y="0.25" width="27.5" height="19.5" rx="1.75" fill="white" stroke="#F5F5F5" stroke-width="0.5"/>
<mask id="mask0_14715_6538" style="mask-type:luminance" maskUnits="userSpaceOnUse" x="0" y="0" width="28" height="20">
<rect x="0.25" y="0.25" width="27.5" height="19.5" rx="1.75" fill="white" stroke="white" stroke-width="0.5"/>
</mask>
<g mask="url(#mask0_14715_6538)">
<path fill-rule="evenodd" clip-rule="evenodd" d="M28 0H16V10.6667H0V20H28V0Z" fill="#E20F1B"/>
<path fill-rule="evenodd" clip-rule="evenodd" d="M7 1.33301C6.81591 1.33301 6.66667 1.48225 6.66667 1.66634V3.99967H4.33333C4.14924 3.99967 4 4.14891 4 4.33301V6.33301C4 6.5171 4.14924 6.66634 4.33333 6.66634H6.66667V8.99967C6.66667 9.18377 6.81591 9.33301 7 9.33301H9C9.18409 9.33301 9.33333 9.18377 9.33333 8.99967V6.66634H11.6667C11.8508 6.66634 12 6.5171 12 6.33301V4.33301C12 4.14891 11.8508 3.99967 11.6667 3.99967H9.33333V1.66634C9.33333 1.48225 9.18409 1.33301 9 1.33301H7Z" fill="url(#paint0_linear_14715_6538)"/>
</g>
<defs>
<linearGradient id="paint0_linear_14715_6538" x1="4" y1="1.33301" x2="4" y2="9.33301" gradientUnits="userSpaceOnUse">
<stop stop-color="#DF101B"/>
<stop offset="1" stop-color="#C00711"/>
</linearGradient>
</defs>
</svg>
