<svg width="27" height="20" viewBox="0 0 27 20" fill="none" xmlns="http://www.w3.org/2000/svg">
<mask id="mask0_14715_4878" style="mask-type:alpha" maskUnits="userSpaceOnUse" x="0" y="0" width="27" height="20">
<path d="M0 2C0 0.895431 0.895431 0 2 0H24.6667C25.7712 0 26.6667 0.895431 26.6667 2V18C26.6667 19.1046 25.7712 20 24.6667 20H2C0.895429 20 0 19.1046 0 18V2Z" fill="#41479B"/>
</mask>
<g mask="url(#mask0_14715_4878)">
<path d="M0 0H26.6667V20H0V0Z" fill="#41479B"/>
<path d="M26.6667 17.3959L16.8056 10L26.6667 2.60417V0H23.1945L13.3333 7.39585L3.47222 0H0V2.60417L9.86112 10L0 17.3959V20H3.47227L13.3333 12.6042L23.1944 20H26.6667V17.3959Z" fill="white"/>
<path fill-rule="evenodd" clip-rule="evenodd" d="M3.15907e-06 0L0 4.21207e-06V1.04168L11.9444 10L0 18.9584V20H1.38894L13.3333 11.0417L25.2777 20H26.6667V18.9584L14.7222 10L26.6667 1.04167V0H25.2778L13.3333 8.95835L1.38888 0H3.15907e-06Z" fill="#DC251C"/>
<path fill-rule="evenodd" clip-rule="evenodd" d="M10 6.66667V0H16.6667V6.66667H26.6667V13.3333H16.6667V20H10V13.3333H0V6.66667H10Z" fill="white"/>
<path fill-rule="evenodd" clip-rule="evenodd" d="M11.6667 8.33333V0H15V8.33333H26.6667V11.6667H15V20H11.6667V11.6667H0V8.33333H11.6667Z" fill="#DC251C"/>
</g>
</svg>
