<svg width="28" height="20" viewBox="0 0 28 20" fill="none" xmlns="http://www.w3.org/2000/svg">
<rect width="28" height="20" rx="2" fill="white"/>
<mask id="mask0_14715_6629" style="mask-type:luminance" maskUnits="userSpaceOnUse" x="0" y="0" width="28" height="20">
<rect width="28" height="20" rx="2" fill="white"/>
</mask>
<g mask="url(#mask0_14715_6629)">
<path fill-rule="evenodd" clip-rule="evenodd" d="M28 0H0V1.33333H28V0ZM28 2.66667H0V4H28V2.66667ZM0 5.33333H28V6.66667H0V5.33333ZM28 8H0V9.33333H28V8ZM0 10.6667H28V12H0V10.6667ZM28 13.3333H0V14.6667H28V13.3333ZM0 16H28V17.3333H0V16ZM28 18.6667H0V20H28V18.6667Z" fill="#D02F44"/>
<rect width="12" height="9.33333" fill="#46467F"/>
<g filter="url(#filter0_d_14715_6629)">
<path fill-rule="evenodd" clip-rule="evenodd" d="M2.66668 1.99967C2.66668 2.36786 2.3682 2.66634 2.00001 2.66634C1.63182 2.66634 1.33334 2.36786 1.33334 1.99967C1.33334 1.63148 1.63182 1.33301 2.00001 1.33301C2.3682 1.33301 2.66668 1.63148 2.66668 1.99967ZM5.33334 1.99967C5.33334 2.36786 5.03487 2.66634 4.66668 2.66634C4.29849 2.66634 4.00001 2.36786 4.00001 1.99967C4.00001 1.63148 4.29849 1.33301 4.66668 1.33301C5.03487 1.33301 5.33334 1.63148 5.33334 1.99967ZM7.33334 2.66634C7.70153 2.66634 8.00001 2.36786 8.00001 1.99967C8.00001 1.63148 7.70153 1.33301 7.33334 1.33301C6.96515 1.33301 6.66668 1.63148 6.66668 1.99967C6.66668 2.36786 6.96515 2.66634 7.33334 2.66634ZM10.6667 1.99967C10.6667 2.36786 10.3682 2.66634 10 2.66634C9.63182 2.66634 9.33334 2.36786 9.33334 1.99967C9.33334 1.63148 9.63182 1.33301 10 1.33301C10.3682 1.33301 10.6667 1.63148 10.6667 1.99967ZM3.33334 3.99967C3.70153 3.99967 4.00001 3.7012 4.00001 3.33301C4.00001 2.96482 3.70153 2.66634 3.33334 2.66634C2.96515 2.66634 2.66668 2.96482 2.66668 3.33301C2.66668 3.7012 2.96515 3.99967 3.33334 3.99967ZM6.66668 3.33301C6.66668 3.7012 6.3682 3.99967 6.00001 3.99967C5.63182 3.99967 5.33334 3.7012 5.33334 3.33301C5.33334 2.96482 5.63182 2.66634 6.00001 2.66634C6.3682 2.66634 6.66668 2.96482 6.66668 3.33301ZM8.66668 3.99967C9.03487 3.99967 9.33334 3.7012 9.33334 3.33301C9.33334 2.96482 9.03487 2.66634 8.66668 2.66634C8.29849 2.66634 8.00001 2.96482 8.00001 3.33301C8.00001 3.7012 8.29849 3.99967 8.66668 3.99967ZM10.6667 4.66634C10.6667 5.03453 10.3682 5.33301 10 5.33301C9.63182 5.33301 9.33334 5.03453 9.33334 4.66634C9.33334 4.29815 9.63182 3.99967 10 3.99967C10.3682 3.99967 10.6667 4.29815 10.6667 4.66634ZM7.33334 5.33301C7.70153 5.33301 8.00001 5.03453 8.00001 4.66634C8.00001 4.29815 7.70153 3.99967 7.33334 3.99967C6.96515 3.99967 6.66668 4.29815 6.66668 4.66634C6.66668 5.03453 6.96515 5.33301 7.33334 5.33301ZM5.33334 4.66634C5.33334 5.03453 5.03487 5.33301 4.66668 5.33301C4.29849 5.33301 4.00001 5.03453 4.00001 4.66634C4.00001 4.29815 4.29849 3.99967 4.66668 3.99967C5.03487 3.99967 5.33334 4.29815 5.33334 4.66634ZM2.00001 5.33301C2.3682 5.33301 2.66668 5.03453 2.66668 4.66634C2.66668 4.29815 2.3682 3.99967 2.00001 3.99967C1.63182 3.99967 1.33334 4.29815 1.33334 4.66634C1.33334 5.03453 1.63182 5.33301 2.00001 5.33301ZM4.00001 5.99967C4.00001 6.36786 3.70153 6.66634 3.33334 6.66634C2.96515 6.66634 2.66668 6.36786 2.66668 5.99967C2.66668 5.63148 2.96515 5.33301 3.33334 5.33301C3.70153 5.33301 4.00001 5.63148 4.00001 5.99967ZM6.00001 6.66634C6.3682 6.66634 6.66668 6.36786 6.66668 5.99967C6.66668 5.63148 6.3682 5.33301 6.00001 5.33301C5.63182 5.33301 5.33334 5.63148 5.33334 5.99967C5.33334 6.36786 5.63182 6.66634 6.00001 6.66634ZM9.33334 5.99967C9.33334 6.36786 9.03487 6.66634 8.66668 6.66634C8.29849 6.66634 8.00001 6.36786 8.00001 5.99967C8.00001 5.63148 8.29849 5.33301 8.66668 5.33301C9.03487 5.33301 9.33334 5.63148 9.33334 5.99967ZM10 7.99967C10.3682 7.99967 10.6667 7.7012 10.6667 7.33301C10.6667 6.96482 10.3682 6.66634 10 6.66634C9.63182 6.66634 9.33334 6.96482 9.33334 7.33301C9.33334 7.7012 9.63182 7.99967 10 7.99967ZM8.00001 7.33301C8.00001 7.7012 7.70153 7.99967 7.33334 7.99967C6.96515 7.99967 6.66668 7.7012 6.66668 7.33301C6.66668 6.96482 6.96515 6.66634 7.33334 6.66634C7.70153 6.66634 8.00001 6.96482 8.00001 7.33301ZM4.66668 7.99967C5.03487 7.99967 5.33334 7.7012 5.33334 7.33301C5.33334 6.96482 5.03487 6.66634 4.66668 6.66634C4.29849 6.66634 4.00001 6.96482 4.00001 7.33301C4.00001 7.7012 4.29849 7.99967 4.66668 7.99967ZM2.66668 7.33301C2.66668 7.7012 2.3682 7.99967 2.00001 7.99967C1.63182 7.99967 1.33334 7.7012 1.33334 7.33301C1.33334 6.96482 1.63182 6.66634 2.00001 6.66634C2.3682 6.66634 2.66668 6.96482 2.66668 7.33301Z" fill="url(#paint0_linear_14715_6629)"/>
</g>
</g>
<defs>
<filter id="filter0_d_14715_6629" x="1.33334" y="1.33301" width="9.33334" height="7.66699" filterUnits="userSpaceOnUse" color-interpolation-filters="sRGB">
<feFlood flood-opacity="0" result="BackgroundImageFix"/>
<feColorMatrix in="SourceAlpha" type="matrix" values="0 0 0 0 0 0 0 0 0 0 0 0 0 0 0 0 0 0 127 0" result="hardAlpha"/>
<feOffset dy="1"/>
<feColorMatrix type="matrix" values="0 0 0 0 0 0 0 0 0 0 0 0 0 0 0 0 0 0 0.06 0"/>
<feBlend mode="normal" in2="BackgroundImageFix" result="effect1_dropShadow_14715_6629"/>
<feBlend mode="normal" in="SourceGraphic" in2="effect1_dropShadow_14715_6629" result="shape"/>
</filter>
<linearGradient id="paint0_linear_14715_6629" x1="1.33334" y1="1.33301" x2="1.33334" y2="7.99967" gradientUnits="userSpaceOnUse">
<stop stop-color="white"/>
<stop offset="1" stop-color="#F0F0F0"/>
</linearGradient>
</defs>
</svg>
