<svg width="28" height="20" viewBox="0 0 28 20" fill="none" xmlns="http://www.w3.org/2000/svg">
<rect x="0.25" y="0.25" width="27.5" height="19.5" rx="1.75" fill="white" stroke="#F5F5F5" stroke-width="0.5"/>
<mask id="mask0_14715_6584" style="mask-type:luminance" maskUnits="userSpaceOnUse" x="0" y="0" width="28" height="20">
<rect x="0.25" y="0.25" width="27.5" height="19.5" rx="1.75" fill="white" stroke="white" stroke-width="0.5"/>
</mask>
<g mask="url(#mask0_14715_6584)">
<path fill-rule="evenodd" clip-rule="evenodd" d="M0 6.66667H28V0H0V6.66667Z" fill="#04AAC8"/>
<path fill-rule="evenodd" clip-rule="evenodd" d="M0 19.9997H28V13.333H0V19.9997Z" fill="#23C840"/>
<path fill-rule="evenodd" clip-rule="evenodd" d="M4.66666 5.33301C5.07794 5.33301 5.46022 5.20887 5.77808 4.99601C5.74125 4.99844 5.7041 4.99967 5.66666 4.99967C4.74618 4.99967 3.99999 4.25348 3.99999 3.33301C3.99999 2.41253 4.74618 1.66634 5.66666 1.66634C5.7041 1.66634 5.74125 1.66758 5.77808 1.67001C5.46022 1.45715 5.07794 1.33301 4.66666 1.33301C3.56209 1.33301 2.66666 2.22844 2.66666 3.33301C2.66666 4.43758 3.56209 5.33301 4.66666 5.33301ZM7.99999 4.66634C7.99999 5.03453 7.70151 5.33301 7.33332 5.33301C6.96513 5.33301 6.66666 5.03453 6.66666 4.66634C6.66666 4.29815 6.96513 3.99967 7.33332 3.99967C7.70151 3.99967 7.99999 4.29815 7.99999 4.66634ZM9.99999 2.66634C10.3682 2.66634 10.6667 2.36786 10.6667 1.99967C10.6667 1.63148 10.3682 1.33301 9.99999 1.33301C9.6318 1.33301 9.33332 1.63148 9.33332 1.99967C9.33332 2.36786 9.6318 2.66634 9.99999 2.66634ZM13.3333 1.99967C13.3333 2.36786 13.0348 2.66634 12.6667 2.66634C12.2985 2.66634 12 2.36786 12 1.99967C12 1.63148 12.2985 1.33301 12.6667 1.33301C13.0348 1.33301 13.3333 1.63148 13.3333 1.99967ZM12.6667 5.33301C13.0348 5.33301 13.3333 5.03453 13.3333 4.66634C13.3333 4.29815 13.0348 3.99967 12.6667 3.99967C12.2985 3.99967 12 4.29815 12 4.66634C12 5.03453 12.2985 5.33301 12.6667 5.33301ZM10.6667 4.66634C10.6667 5.03453 10.3682 5.33301 9.99999 5.33301C9.6318 5.33301 9.33332 5.03453 9.33332 4.66634C9.33332 4.29815 9.6318 3.99967 9.99999 3.99967C10.3682 3.99967 10.6667 4.29815 10.6667 4.66634Z" fill="white"/>
</g>
</svg>
