<svg width="28" height="20" viewBox="0 0 28 20" fill="none" xmlns="http://www.w3.org/2000/svg">
<rect width="28" height="20" rx="2" fill="white"/>
<mask id="mask0_14715_6691" style="mask-type:luminance" maskUnits="userSpaceOnUse" x="0" y="0" width="28" height="20">
<rect width="28" height="20" rx="2" fill="white"/>
</mask>
<g mask="url(#mask0_14715_6691)">
<rect width="28" height="20" fill="#07319C"/>
<path fill-rule="evenodd" clip-rule="evenodd" d="M17.3333 9.99967C17.3333 8.90594 17.3333 7.61282 17.3333 6.66549C17.3333 5.92911 17.9303 5.33301 18.6667 5.33301H22.6667C23.4031 5.33301 24 5.92911 24 6.66549C24 7.61282 24 8.90594 24 9.99967C24 13.333 20.6667 14.6663 20.6667 14.6663C20.6667 14.6663 17.3333 13.333 17.3333 9.99967Z" fill="#008339"/>
<mask id="mask1_14715_6691" style="mask-type:luminance" maskUnits="userSpaceOnUse" x="17" y="5" width="7" height="10">
<path fill-rule="evenodd" clip-rule="evenodd" d="M17.3333 9.99967C17.3333 8.90594 17.3333 7.61282 17.3333 6.66549C17.3333 5.92911 17.9303 5.33301 18.6667 5.33301H22.6667C23.4031 5.33301 24 5.92911 24 6.66549C24 7.61282 24 8.90594 24 9.99967C24 13.333 20.6667 14.6663 20.6667 14.6663C20.6667 14.6663 17.3333 13.333 17.3333 9.99967Z" fill="white"/>
</mask>
<g mask="url(#mask1_14715_6691)">
<path fill-rule="evenodd" clip-rule="evenodd" d="M19.3334 7.99935C19.7015 7.99935 20 7.70087 20 7.33268C20 6.96449 19.7015 6.66602 19.3334 6.66602C18.9652 6.66602 18.6667 6.96449 18.6667 7.33268C18.6667 7.70087 18.9652 7.99935 19.3334 7.99935ZM19.3334 9.33268C19.7015 9.33268 20 9.03421 20 8.66602C20 8.29783 19.7015 7.99935 19.3334 7.99935C18.9652 7.99935 18.6667 8.29783 18.6667 8.66602C18.6667 9.03421 18.9652 9.33268 19.3334 9.33268ZM19.3334 10.666C18.9652 10.666 18.6667 10.3675 18.6667 9.99935C18.6667 9.63116 18.9652 9.33268 19.3334 9.33268C19.7015 9.33268 20 9.63116 20 9.99935C20 10.3675 19.7015 10.666 19.3334 10.666ZM19.3334 10.666C19.7015 10.666 20 10.9645 20 11.3327C20 11.7009 19.7015 11.9993 19.3334 11.9993C18.9652 11.9993 18.6667 11.7009 18.6667 11.3327C18.6667 10.9645 18.9652 10.666 19.3334 10.666ZM22.6667 11.3327C22.6667 11.7009 22.3682 11.9993 22 11.9993C21.6318 11.9993 21.3334 11.7009 21.3334 11.3327C21.3334 10.9645 21.6318 10.666 22 10.666C22.3682 10.666 22.6667 10.9645 22.6667 11.3327ZM22 9.33268C22.3682 9.33268 22.6667 9.63116 22.6667 9.99935C22.6667 10.3675 22.3682 10.666 22 10.666C21.6318 10.666 21.3334 10.3675 21.3334 9.99935C21.3334 9.63116 21.6318 9.33268 22 9.33268ZM22 7.99935C21.6318 7.99935 21.3334 8.29783 21.3334 8.66602C21.3334 9.03421 21.6318 9.33268 22 9.33268C22.3682 9.33268 22.6667 9.03421 22.6667 8.66602C22.6667 8.29783 22.3682 7.99935 22 7.99935ZM22 7.99935C21.6318 7.99935 21.3334 7.70087 21.3334 7.33268C21.3334 6.96449 21.6318 6.66602 22 6.66602C22.3682 6.66602 22.6667 6.96449 22.6667 7.33268C22.6667 7.70087 22.3682 7.99935 22 7.99935Z" fill="#FFD033"/>
<path fill-rule="evenodd" clip-rule="evenodd" d="M20.6667 11.333C21.0349 11.333 21.3333 10.4376 21.3333 9.33301C21.3333 8.22844 21.0349 7.33301 20.6667 7.33301C20.2985 7.33301 20 8.22844 20 9.33301C20 10.4376 20.2985 11.333 20.6667 11.333Z" fill="white"/>
</g>
<path d="M16.6667 13.3337C16.6667 14.6052 18.4879 15.3337 20.6667 15.3337C22.8455 15.3337 24.6667 14.6052 24.6667 13.3337C24.6667 12.9655 24.3682 12.667 24 12.667C23.6318 12.667 23.3333 12.9655 23.3333 13.3337C23.3333 13.3464 23.1717 13.4992 22.7761 13.6575C22.239 13.8723 21.4824 14.0003 20.6667 14.0003C19.8509 14.0003 19.0943 13.8723 18.5572 13.6575C18.1616 13.4992 18 13.3464 18 13.3337C18 12.9655 17.7015 12.667 17.3333 12.667C16.9651 12.667 16.6667 12.9655 16.6667 13.3337Z" fill="#FFD033"/>
<path d="M0 -0.333333H-0.901086L-0.21693 0.253086L4.33333 4.15331V5.16179L-0.193746 8.39542L-0.333333 8.49513V8.66667V9.33333V9.93475L0.176666 9.616L5.42893 6.33333H6.55984L11.0821 9.56351C11.176 9.6306 11.2886 9.66667 11.404 9.66667C11.9182 9.66667 12.1548 9.02698 11.7644 8.69237L7.66667 5.18002V4.17154L12.0542 1.03762C12.2294 0.912475 12.3333 0.710428 12.3333 0.495127V0V-0.601416L11.8233 -0.282666L6.57107 3H5.44016L0.860413 -0.271244L0.773488 -0.333333H0.666667H0Z" fill="#DB1E36" stroke="white" stroke-width="0.666667"/>
<path fill-rule="evenodd" clip-rule="evenodd" d="M0 3.33333V6H4.66667V9.33333C4.66667 9.70152 4.96514 10 5.33333 10H6.66667C7.03486 10 7.33333 9.70152 7.33333 9.33333V6H12C12.3682 6 12.6667 5.70152 12.6667 5.33333V4C12.6667 3.63181 12.3682 3.33333 12 3.33333H7.33333V0H4.66667V3.33333H0Z" fill="white"/>
<path fill-rule="evenodd" clip-rule="evenodd" d="M0 4H5.33333V3.33333V0H6.66667V3.33333V4H12V5.33333H6.66667V6V9.33333H5.33333V6V5.33333H0V4Z" fill="#DB1E36"/>
</g>
</svg>
