<svg width="28" height="20" viewBox="0 0 28 20" fill="none" xmlns="http://www.w3.org/2000/svg">
<rect width="28" height="20" rx="2" fill="white"/>
<mask id="mask0_14715_6661" style="mask-type:luminance" maskUnits="userSpaceOnUse" x="0" y="0" width="28" height="20">
<rect width="28" height="20" rx="2" fill="white"/>
</mask>
<g mask="url(#mask0_14715_6661)">
<rect width="28" height="20" fill="#E31F37"/>
<path fill-rule="evenodd" clip-rule="evenodd" d="M-1.33334 10.667H14.6667V-1.33301H-1.33334V10.667Z" fill="#083B9A"/>
<path fill-rule="evenodd" clip-rule="evenodd" d="M6.66667 2.66709L5.72386 2.94324L6 2.00043L5.72386 1.05762L6.66667 1.33376L7.60947 1.05762L7.33333 2.00043L7.60947 2.94324L6.66667 2.66709ZM6.66667 9.33376L5.72386 9.6099L6 8.66709L5.72386 7.72428L6.66667 8.00043L7.60947 7.72428L7.33333 8.66709L7.60947 9.6099L6.66667 9.33376ZM3.05719 6.27657L4 6.00043L4.94281 6.27657L4.66667 5.33376L4.94281 4.39095L4 4.66709L3.05719 4.39095L3.33333 5.33376L3.05719 6.27657ZM10 5.33376L9.05719 5.6099L9.33333 4.66709L9.05719 3.72428L10 4.00043L10.9428 3.72428L10.6667 4.66709L10.9428 5.6099L10 5.33376ZM8.66667 7.00043C8.66667 7.18452 8.51743 7.33376 8.33333 7.33376C8.14924 7.33376 8 7.18452 8 7.00043C8 6.81633 8.14924 6.66709 8.33333 6.66709C8.51743 6.66709 8.66667 6.81633 8.66667 7.00043Z" fill="white"/>
</g>
</svg>
