<svg width="28" height="20" viewBox="0 0 28 20" fill="none" xmlns="http://www.w3.org/2000/svg">
<rect width="28" height="20" rx="2" fill="white"/>
<mask id="mask0_14715_6744" style="mask-type:luminance" maskUnits="userSpaceOnUse" x="0" y="0" width="28" height="20">
<rect width="28" height="20" rx="2" fill="white"/>
</mask>
<g mask="url(#mask0_14715_6744)">
<path fill-rule="evenodd" clip-rule="evenodd" d="M0 2.66667H28V0H0V2.66667Z" fill="#369D0C"/>
<path fill-rule="evenodd" clip-rule="evenodd" d="M0 19.9997H28V17.333H0V19.9997Z" fill="#369D0C"/>
<path fill-rule="evenodd" clip-rule="evenodd" d="M0 7.99967H28V5.33301H0V7.99967Z" fill="#369D0C"/>
<path fill-rule="evenodd" clip-rule="evenodd" d="M0 14.6667H28V12H0V14.6667Z" fill="#369D0C"/>
<path fill-rule="evenodd" clip-rule="evenodd" d="M0 12H28V8H0V12Z" fill="#262626"/>
<path fill-rule="evenodd" clip-rule="evenodd" d="M0 5.33366H28V2.66699H0V5.33366Z" fill="#FFD40E"/>
<path fill-rule="evenodd" clip-rule="evenodd" d="M0 17.3337H28V14.667H0V17.3337Z" fill="#FFD40E"/>
<path d="M-0.666662 19.3333V0.666667H-0.222217L12.2222 10L-0.222217 19.3333H-0.666662Z" fill="white" stroke="#262626" stroke-width="1.33333"/>
<path fill-rule="evenodd" clip-rule="evenodd" d="M4.00001 11.3003L2.04072 12.697L2.76363 10.402L0.829817 8.97027L3.23588 8.9486L4.00001 6.66699L4.76413 8.9486L7.17019 8.97027L5.23638 10.402L5.95929 12.697L4.00001 11.3003Z" fill="url(#paint0_linear_14715_6744)"/>
</g>
<defs>
<linearGradient id="paint0_linear_14715_6744" x1="0.666672" y1="6.66699" x2="0.666672" y2="13.3337" gradientUnits="userSpaceOnUse">
<stop stop-color="#F12F1F"/>
<stop offset="1" stop-color="#DE2010"/>
</linearGradient>
</defs>
</svg>
