<svg width="40" height="40" viewBox="0 0 40 40" fill="none" xmlns="http://www.w3.org/2000/svg">
<circle cx="20" cy="20" r="20" fill="#EDA73D"/>
<g clip-path="url(#clip0_6248_11143)">
<path d="M25.3338 19.5736C26.5719 18.927 27.3465 17.7883 27.1656 15.8913C26.9219 13.2988 24.7383 12.4295 21.9818 12.1819L21.9812 8.58594H19.8455L19.8449 12.0873C19.283 12.0873 18.7101 12.0987 18.1399 12.1104L18.1394 8.58641L16.0056 8.58621L16.0052 12.1813C15.5427 12.191 15.0886 12.2002 14.6451 12.2002V12.1896L11.6992 12.1883L11.6996 14.5257C11.6996 14.5257 13.2768 14.4953 13.2509 14.5248C14.1156 14.5255 14.398 15.0402 14.4792 15.4846L14.4799 19.5811V25.3355C14.4418 25.6143 14.2816 26.0599 13.6769 26.0607C13.7044 26.0856 12.1233 26.0605 12.1233 26.0605L11.6996 28.6742H14.4785C14.9963 28.6748 15.5051 28.6831 16.0042 28.6872L16.0061 32.3238L18.1394 32.3245L18.1388 28.7259C18.7257 28.7382 19.2923 28.7435 19.8456 28.7427L19.845 32.3245H21.9807L21.9819 28.6938C25.5719 28.4825 28.0852 27.5554 28.3977 24.0994C28.6495 21.317 27.372 20.075 25.3338 19.5736ZM18.1909 14.6835C19.3955 14.6835 23.1837 14.2903 23.1843 16.8697C23.1837 19.3426 19.3967 19.0537 18.1909 19.0537V14.6835V14.6835ZM18.19 26.0785L18.1909 21.2599C19.6381 21.2595 24.1774 20.833 24.178 23.6681C24.1786 26.3869 19.6381 26.0774 18.19 26.0785Z" fill="white"/>
</g>
<defs>
<clipPath id="clip0_6248_11143">
<rect width="18.1818" height="24.5455" fill="white" transform="translate(10.9102 8.18359)"/>
</clipPath>
</defs>
</svg>
