<svg width="40" height="40" viewBox="0 0 40 40" fill="none" xmlns="http://www.w3.org/2000/svg">
<circle cx="20" cy="20" r="20" fill="#77B34F"/>
<path d="M14.629 7.42292C13.983 7.67768 14.0327 8.28936 14.1114 8.85705C14.2836 10.099 14.478 11.3397 14.6701 12.5787C14.7312 12.9722 14.7132 13.7306 15.0039 14.0268C15.1886 14.2151 15.4931 14.1864 15.7339 14.188L17.3433 14.1881H22.5738C23.1874 14.1881 24.1989 14.382 24.7637 14.1274C25.1972 13.932 25.1655 13.0831 25.2303 12.6793C25.4293 11.4406 25.6329 10.2003 25.8056 8.95763C25.8787 8.43164 25.9993 7.87177 25.4848 7.5235C24.85 7.09377 23.5147 7.34825 22.7749 7.34825H17.1421C16.4039 7.34825 15.322 7.14962 14.629 7.42292Z" fill="white"/>
<path d="M15.3622 15.096C15.0113 15.3303 15.1661 15.8609 15.2216 16.1997C15.3618 17.0564 15.2768 18.1932 16.1354 18.6724C17.742 19.5692 20.0217 19.4592 21.7677 19.2173C22.4967 19.1163 23.3622 18.961 23.9697 18.5166C24.6432 18.0239 24.589 16.7532 24.7095 15.9985C24.7571 15.7005 24.8528 15.297 24.5522 15.096C24.0908 14.7874 23.0106 14.9926 22.4718 14.9926H17.3419C16.8242 14.9926 15.8068 14.7992 15.3622 15.096ZM12.3146 17.8877C11.6809 18.1075 11.6901 18.967 12.1263 19.3652C12.934 20.1024 14.2172 20.5506 15.2296 20.9219C18.4538 22.1042 21.8907 22.0724 25.0871 20.8061C25.9963 20.446 27.1458 20.0184 27.8689 19.3419C28.4221 18.8242 28.2204 17.9198 27.4005 17.9185C26.8988 17.9177 26.5026 18.2454 26.0929 18.4926C25.5155 18.8412 24.9091 19.1245 24.2824 19.3732C22.5423 20.0635 20.6018 20.2831 18.7501 20.1054C17.2074 19.9575 15.691 19.4578 14.3243 18.7364C13.7911 18.4548 12.9608 17.6637 12.3146 17.8877Z" fill="white"/>
<path fill-rule="evenodd" clip-rule="evenodd" d="M19.1517 24.3479C19.6856 24.1901 20.3277 24.1901 20.8616 24.3479C21.6793 21.5693 25.902 22.4009 25.7863 25.2532C25.6997 27.3873 23.0063 28.4632 21.4746 26.9526C21.227 26.7084 21.0969 26.3516 20.9712 26.007C20.7618 25.4327 20.5647 24.8921 19.8563 24.9628C19.3469 25.0135 19.2023 25.4808 19.0573 25.9497C18.9773 26.2084 18.8971 26.4675 18.7555 26.6575C17.7274 28.0362 15.5657 27.9506 14.59 26.5607C13.065 24.3885 15.8029 21.5474 18.0452 22.9392C18.5808 23.2716 18.9135 23.7796 19.1517 24.3479ZM16.4377 23.2948C14.0692 23.7498 14.6747 27.3445 17.0413 26.9297C19.3473 26.5254 18.6983 22.8607 16.4377 23.2948ZM23.0764 23.2919C20.7239 23.6122 21.1152 27.213 23.4788 26.9439C25.8104 26.6783 25.3906 22.9769 23.0764 23.2919Z" fill="white"/>
<path d="M13.2188 29.7805C13.3651 32.9762 18.2826 33.3584 19.958 31.1887C21.961 33.0999 26.3398 33.1652 26.7979 29.7805C25.9425 30.0636 25.3612 30.7131 24.3838 30.5384C23.1669 30.321 22.6136 29.3213 21.5674 28.8323C20.9716 28.5537 20.3464 28.8167 20.0586 29.3782C19.8166 29.1487 19.5732 28.8975 19.2539 28.777C18.7889 28.6017 18.3137 28.8518 17.9463 29.1299C17.321 29.6032 16.8096 30.2026 16.0352 30.44C14.8825 30.7936 14.2249 30.198 13.2188 29.7805Z" fill="white"/>
</svg>
