<svg width="40" height="40" viewBox="0 0 40 40" fill="none" xmlns="http://www.w3.org/2000/svg">
<circle cx="20" cy="20" r="20" fill="#3DC98A"/>
<path d="M20 11.834C20.4602 11.834 20.8333 12.2071 20.8333 12.6673V13.5621C22.1137 13.7547 23.0736 14.369 23.7285 14.97C23.8556 15.0867 23.9718 15.2033 24.0774 15.3168C24.3907 15.6539 24.2974 16.1781 23.9213 16.4434C23.5451 16.7086 23.0293 16.6121 22.6998 16.2908C22.6681 16.2599 22.6354 16.229 22.6016 16.198C22.1743 15.8058 21.5922 15.4245 20.8333 15.2566V16.3275V20.2027C21.8727 20.2949 22.8112 20.5746 23.5453 21.126C24.5138 21.8534 25 22.9563 25 24.334C25 25.76 24.3982 26.8731 23.4266 27.6062C22.6941 28.1588 21.7867 28.4711 20.8333 28.5832V29.334C20.8333 29.7942 20.4602 30.1673 20 30.1673C19.5398 30.1673 19.1667 29.7942 19.1667 29.334V28.5567C17.9687 28.3436 16.9501 27.7101 16.2275 27.1343C16.0567 26.9982 15.8986 26.8623 15.7546 26.7314C15.414 26.4219 15.4352 25.8918 15.7722 25.5783C16.1092 25.2649 16.634 25.2876 16.9799 25.5912C17.0698 25.6702 17.1654 25.7506 17.2661 25.8309C17.8168 26.2697 18.4695 26.6637 19.1667 26.8504L19.1667 21.7795C16.7004 21.451 15 19.6823 15 17.6673C15 16.6177 15.4062 15.5557 16.2715 14.7617C16.9816 14.1101 17.9551 13.6794 19.1667 13.5453V12.6673C19.1667 12.2071 19.5398 11.834 20 11.834ZM18.2838 15.4524C17.9137 15.5963 17.6224 15.784 17.3984 15.9896C16.9015 16.4456 16.6667 17.0503 16.6667 17.6673C16.6667 18.6185 17.5016 19.7969 19.1667 20.0958L19.1667 15.7554V15.2252C18.8323 15.2744 18.5392 15.353 18.2838 15.4524ZM20.8333 26.9013C21.469 26.801 22.0136 26.5844 22.4228 26.2757C22.9736 25.8601 23.3333 25.2413 23.3333 24.334C23.3333 23.3784 23.0183 22.8146 22.5444 22.4586C22.1578 22.1683 21.5941 21.9625 20.8333 21.8775L20.8333 26.9013Z" fill="white"/>
</svg>
