<svg width="40" height="40" viewBox="0 0 40 40" fill="none" xmlns="http://www.w3.org/2000/svg">
<circle cx="20" cy="20" r="20" fill="url(#paint0_linear_6248_11168)"/>
<circle cx="19.818" cy="19.6813" r="2.84928" fill="url(#paint1_linear_6248_11168)"/>
<path d="M27.287 13.9742C27.8706 12.5128 29.5284 11.8012 30.9898 12.3849V12.3849C32.4512 12.9685 33.1628 14.6263 32.5792 16.0877L28.1083 27.2826V27.2826C25.1855 26.1154 23.7624 22.7997 24.9296 19.877L27.287 13.9742Z" fill="url(#paint2_linear_6248_11168)"/>
<path d="M12.011 26.9786C11.4332 28.4423 9.77827 29.1605 8.31455 28.5828V28.5828C6.85083 28.005 6.13262 26.3501 6.71037 24.8864L11.1362 13.6736V13.6736C14.0637 14.8291 15.5001 18.139 14.3446 21.0664L12.011 26.9786Z" fill="url(#paint3_linear_6248_11168)"/>
<defs>
<linearGradient id="paint0_linear_6248_11168" x1="40" y1="0" x2="-5.88886" y2="8.60847" gradientUnits="userSpaceOnUse">
<stop stop-color="#29303F"/>
<stop offset="1" stop-color="#131C2E"/>
</linearGradient>
<linearGradient id="paint1_linear_6248_11168" x1="18.0728" y1="17.6512" x2="21.8838" y2="21.9251" gradientUnits="userSpaceOnUse">
<stop stop-color="#00D464"/>
<stop offset="1" stop-color="#16A083"/>
</linearGradient>
<linearGradient id="paint2_linear_6248_11168" x1="43.5647" y1="9.85458" x2="26.887" y2="26.7949" gradientUnits="userSpaceOnUse">
<stop stop-color="white"/>
<stop offset="1" stop-color="white" stop-opacity="0"/>
</linearGradient>
<linearGradient id="paint3_linear_6248_11168" x1="-4.25008" y1="31.1635" x2="12.3595" y2="14.1564" gradientUnits="userSpaceOnUse">
<stop stop-color="white"/>
<stop offset="1" stop-color="white" stop-opacity="0"/>
</linearGradient>
</defs>
</svg>
