<svg width="40" height="40" viewBox="0 0 40 40" fill="none" xmlns="http://www.w3.org/2000/svg">
<circle cx="20" cy="20" r="20" fill="#259378"/>
<path d="M21.6669 22.5646V22.5617C21.5477 22.5704 20.9326 22.6078 19.5638 22.6078C18.4693 22.6078 17.7018 22.5761 17.4302 22.5617V22.5646C13.2212 22.3718 10.0818 21.6121 10.0818 20.6999C10.0818 19.7905 13.224 19.0279 17.4302 18.8351V21.8078C17.7045 21.8279 18.4942 21.8768 19.5832 21.8768C20.891 21.8768 21.545 21.8193 21.6669 21.8078V18.838C25.8675 19.0337 28.9986 19.7934 28.9986 20.7027C28.9986 21.6121 25.8648 22.3718 21.6669 22.5675V22.5646ZM21.6669 18.5301V15.8711H27.5273V11.8164H11.5726V15.8711H17.433V18.5301C12.6698 18.7574 9.08984 19.7358 9.08984 20.9099C9.08984 22.084 12.6726 23.0625 17.433 23.2927V31.8164H21.6697V23.2927C26.4245 23.0653 29.9989 22.0869 29.9989 20.9128C29.9989 19.7416 26.4245 18.7603 21.6697 18.533" fill="white"/>
</svg>
