<svg width="28" height="20" viewBox="0 0 28 20" fill="none" xmlns="http://www.w3.org/2000/svg">
<rect x="0.25" y="0.25" width="27.5" height="19.5" rx="1.75" fill="white" stroke="#F5F5F5" stroke-width="0.5"/>
<mask id="mask0_14715_5496" style="mask-type:luminance" maskUnits="userSpaceOnUse" x="0" y="0" width="28" height="20">
<rect x="0.25" y="0.25" width="27.5" height="19.5" rx="1.75" fill="white" stroke="white" stroke-width="0.5"/>
</mask>
<g mask="url(#mask0_14715_5496)">
<rect x="18.6667" width="9.33333" height="20" fill="#63AEE3"/>
<path fill-rule="evenodd" clip-rule="evenodd" d="M0 20H9.33333V0H0V20Z" fill="#63AEE3"/>
<path d="M12 9.33301C12 8.96482 11.7015 8.66634 11.3333 8.66634C10.9651 8.66634 10.6666 8.96482 10.6666 9.33301H12ZM12.329 12.2178C12.6475 12.4026 13.0554 12.2942 13.2402 11.9757C13.425 11.6573 13.3166 11.2493 12.9982 11.0645L12.329 12.2178ZM15.0756 11.0195C14.7655 11.2179 14.6748 11.6302 14.8732 11.9403C15.0716 12.2505 15.4839 12.3411 15.794 12.1428L15.0756 11.0195ZM17.3333 9.33301C17.3333 8.96482 17.0348 8.66634 16.6666 8.66634C16.2985 8.66634 16 8.96482 16 9.33301H17.3333ZM10.6666 9.33301C10.6666 10.5661 11.3365 11.6419 12.329 12.2178L12.9982 11.0645C12.3999 10.7174 12 10.0715 12 9.33301H10.6666ZM15.794 12.1428C16.7182 11.5517 17.3333 10.5144 17.3333 9.33301H16C16 10.0407 15.6329 10.6631 15.0756 11.0195L15.794 12.1428Z" fill="#628A40"/>
<path fill-rule="evenodd" clip-rule="evenodd" d="M14 10.6667C14.7364 10.6667 15.3334 10.0697 15.3334 9.33333C15.3334 8.59695 14.7364 8 14 8C13.2636 8 12.6667 8.59695 12.6667 9.33333C12.6667 10.0697 13.2636 10.6667 14 10.6667Z" fill="#DCC26D"/>
</g>
</svg>
