<svg width="28" height="20" viewBox="0 0 28 20" fill="none" xmlns="http://www.w3.org/2000/svg">
<rect x="0.25" y="0.25" width="27.5" height="19.5" rx="1.75" fill="white" stroke="#F5F5F5" stroke-width="0.5"/>
<mask id="mask0_14715_5658" style="mask-type:luminance" maskUnits="userSpaceOnUse" x="0" y="0" width="28" height="20">
<rect x="0.25" y="0.25" width="27.5" height="19.5" rx="1.75" fill="white" stroke="white" stroke-width="0.5"/>
</mask>
<g mask="url(#mask0_14715_5658)">
<path fill-rule="evenodd" clip-rule="evenodd" d="M0 6.66667H28V0H0V6.66667Z" fill="#38BB56"/>
<path fill-rule="evenodd" clip-rule="evenodd" d="M0 19.9997H28V13.333H0V19.9997Z" fill="#DE1B27"/>
<path fill-rule="evenodd" clip-rule="evenodd" d="M1.66668 5.33301C1.48258 5.33301 1.33334 5.48225 1.33334 5.66634V6.33301C1.33334 6.5171 1.48258 6.66634 1.66668 6.66634H2.33334C2.51744 6.66634 2.66668 6.5171 2.66668 6.33301V5.66634C2.66668 5.48225 2.51744 5.33301 2.33334 5.33301H1.66668ZM4.33334 5.33301C4.14925 5.33301 4.00001 5.48225 4.00001 5.66634V6.33301C4.00001 6.5171 4.14925 6.66634 4.33334 6.66634H5.00001C5.18411 6.66634 5.33334 6.5171 5.33334 6.33301V5.66634C5.33334 5.48225 5.1841 5.33301 5.00001 5.33301H4.33334ZM6.66668 5.66634C6.66668 5.48225 6.81592 5.33301 7.00001 5.33301H7.66668C7.85077 5.33301 8.00001 5.48225 8.00001 5.66634V6.33301C8.00001 6.5171 7.85077 6.66634 7.66668 6.66634H7.00001C6.81592 6.66634 6.66668 6.5171 6.66668 6.33301V5.66634ZM9.66668 5.33301C9.48258 5.33301 9.33334 5.48225 9.33334 5.66634V6.33301C9.33334 6.5171 9.48258 6.66634 9.66668 6.66634H10.3333C10.5174 6.66634 10.6667 6.5171 10.6667 6.33301V5.66634C10.6667 5.48225 10.5174 5.33301 10.3333 5.33301H9.66668ZM12 5.66634C12 5.48225 12.1492 5.33301 12.3333 5.33301H13C13.1841 5.33301 13.3333 5.48225 13.3333 5.66634V6.33301C13.3333 6.5171 13.1841 6.66634 13 6.66634H12.3333C12.1492 6.66634 12 6.5171 12 6.33301V5.66634ZM15 5.33301C14.8159 5.33301 14.6667 5.48225 14.6667 5.66634V6.33301C14.6667 6.5171 14.8159 6.66634 15 6.66634H15.6667C15.8508 6.66634 16 6.5171 16 6.33301V5.66634C16 5.48225 15.8508 5.33301 15.6667 5.33301H15ZM17.3333 5.66634C17.3333 5.48225 17.4826 5.33301 17.6667 5.33301H18.3333C18.5174 5.33301 18.6667 5.48225 18.6667 5.66634V6.33301C18.6667 6.5171 18.5174 6.66634 18.3333 6.66634H17.6667C17.4826 6.66634 17.3333 6.5171 17.3333 6.33301V5.66634ZM20.3333 5.33301C20.1492 5.33301 20 5.48225 20 5.66634V6.33301C20 6.5171 20.1492 6.66634 20.3333 6.66634H21C21.1841 6.66634 21.3333 6.5171 21.3333 6.33301V5.66634C21.3333 5.48225 21.1841 5.33301 21 5.33301H20.3333ZM22.6667 5.66634C22.6667 5.48225 22.8159 5.33301 23 5.33301H23.6667C23.8508 5.33301 24 5.48225 24 5.66634V6.33301C24 6.5171 23.8508 6.66634 23.6667 6.66634H23C22.8159 6.66634 22.6667 6.5171 22.6667 6.33301V5.66634ZM25.6667 5.33301C25.4826 5.33301 25.3333 5.48225 25.3333 5.66634V6.33301C25.3333 6.5171 25.4826 6.66634 25.6667 6.66634H26.3333C26.5174 6.66634 26.6667 6.5171 26.6667 6.33301V5.66634C26.6667 5.48225 26.5174 5.33301 26.3333 5.33301H25.6667ZM1.33334 13.6663C1.33334 13.4822 1.48258 13.333 1.66668 13.333H2.33334C2.51744 13.333 2.66668 13.4822 2.66668 13.6663V14.333C2.66668 14.5171 2.51744 14.6663 2.33334 14.6663H1.66668C1.48258 14.6663 1.33334 14.5171 1.33334 14.333V13.6663ZM4.33334 13.333C4.14925 13.333 4.00001 13.4822 4.00001 13.6663V14.333C4.00001 14.5171 4.14925 14.6663 4.33334 14.6663H5.00001C5.18411 14.6663 5.33334 14.5171 5.33334 14.333V13.6663C5.33334 13.4822 5.1841 13.333 5.00001 13.333H4.33334ZM6.66668 13.6663C6.66668 13.4822 6.81592 13.333 7.00001 13.333H7.66668C7.85077 13.333 8.00001 13.4822 8.00001 13.6663V14.333C8.00001 14.5171 7.85077 14.6663 7.66668 14.6663H7.00001C6.81592 14.6663 6.66668 14.5171 6.66668 14.333V13.6663ZM9.66668 13.333C9.48258 13.333 9.33334 13.4822 9.33334 13.6663V14.333C9.33334 14.5171 9.48258 14.6663 9.66668 14.6663H10.3333C10.5174 14.6663 10.6667 14.5171 10.6667 14.333V13.6663C10.6667 13.4822 10.5174 13.333 10.3333 13.333H9.66668ZM12 13.6663C12 13.4822 12.1492 13.333 12.3333 13.333H13C13.1841 13.333 13.3333 13.4822 13.3333 13.6663V14.333C13.3333 14.5171 13.1841 14.6663 13 14.6663H12.3333C12.1492 14.6663 12 14.5171 12 14.333V13.6663ZM15 13.333C14.8159 13.333 14.6667 13.4822 14.6667 13.6663V14.333C14.6667 14.5171 14.8159 14.6663 15 14.6663H15.6667C15.8508 14.6663 16 14.5171 16 14.333V13.6663C16 13.4822 15.8508 13.333 15.6667 13.333H15ZM17.3333 13.6663C17.3333 13.4822 17.4826 13.333 17.6667 13.333H18.3333C18.5174 13.333 18.6667 13.4822 18.6667 13.6663V14.333C18.6667 14.5171 18.5174 14.6663 18.3333 14.6663H17.6667C17.4826 14.6663 17.3333 14.5171 17.3333 14.333V13.6663ZM20.3333 13.333C20.1492 13.333 20 13.4822 20 13.6663V14.333C20 14.5171 20.1492 14.6663 20.3333 14.6663H21C21.1841 14.6663 21.3333 14.5171 21.3333 14.333V13.6663C21.3333 13.4822 21.1841 13.333 21 13.333H20.3333ZM22.6667 13.6663C22.6667 13.4822 22.8159 13.333 23 13.333H23.6667C23.8508 13.333 24 13.4822 24 13.6663V14.333C24 14.5171 23.8508 14.6663 23.6667 14.6663H23C22.8159 14.6663 22.6667 14.5171 22.6667 14.333V13.6663ZM25.6667 13.333C25.4826 13.333 25.3333 13.4822 25.3333 13.6663V14.333C25.3333 14.5171 25.4826 14.6663 25.6667 14.6663H26.3333C26.5174 14.6663 26.6667 14.5171 26.6667 14.333V13.6663C26.6667 13.4822 26.5174 13.333 26.3333 13.333H25.6667Z" fill="white" fill-opacity="0.5"/>
<mask id="path-6-inside-1_14715_5658" fill="white">
<path fill-rule="evenodd" clip-rule="evenodd" d="M12.6535 8.52148C12.252 8.88728 12 9.41438 12 10.0003C12 11.1049 12.8954 12.0003 14 12.0003C15.1046 12.0003 16 11.1049 16 10.0003C16 9.42544 15.7574 8.90719 15.3691 8.54237"/>
</mask>
<path d="M12.2045 8.02866C11.6702 8.51547 11.3333 9.21904 11.3333 10.0003H12.6667C12.6667 9.60973 12.8338 9.25909 13.1025 9.0143L12.2045 8.02866ZM11.3333 10.0003C11.3333 11.4731 12.5272 12.667 14 12.667V11.3337C13.2636 11.3337 12.6667 10.7367 12.6667 10.0003H11.3333ZM14 12.667C15.4728 12.667 16.6667 11.4731 16.6667 10.0003H15.3333C15.3333 10.7367 14.7364 11.3337 14 11.3337V12.667ZM16.6667 10.0003C16.6667 9.23385 16.3424 8.54204 15.8255 8.05646L14.9126 9.02827C15.1724 9.27235 15.3333 9.61703 15.3333 10.0003H16.6667Z" fill="#D80915" mask="url(#path-6-inside-1_14715_5658)"/>
<rect x="13.3333" y="9.33301" width="1.33333" height="2.66667" rx="0.666667" fill="#D80915"/>
</g>
</svg>
