<svg width="28" height="20" viewBox="0 0 28 20" fill="none" xmlns="http://www.w3.org/2000/svg">
<rect width="28" height="20" rx="2" fill="white"/>
<mask id="mask0_14715_5920" style="mask-type:luminance" maskUnits="userSpaceOnUse" x="0" y="0" width="28" height="20">
<rect width="28" height="20" rx="2" fill="white"/>
</mask>
<g mask="url(#mask0_14715_5920)">
<rect width="28" height="20" fill="#FFBF19"/>
<path fill-rule="evenodd" clip-rule="evenodd" d="M10.6667 1.33301H25.3334C26.0697 1.33301 26.6667 1.92996 26.6667 2.66634V17.333C26.6667 18.0694 26.0697 18.6663 25.3334 18.6663H10.6667V1.33301Z" fill="#A52531"/>
<path d="M1.33331 2.66634C1.33331 1.92996 1.93027 1.33301 2.66665 1.33301H5.33331V18.6663H2.66665C1.93027 18.6663 1.33331 18.0694 1.33331 17.333V2.66634Z" fill="#03664F"/>
<rect x="5.33331" y="1.33301" width="4" height="17.3333" rx="0.666667" fill="#FF6816"/>
<path fill-rule="evenodd" clip-rule="evenodd" d="M13.3333 3.33366C13.3333 3.70185 13.0349 4.00033 12.6667 4.00033C12.2985 4.00033 12 3.70185 12 3.33366V2.66699H12.6667C13.0349 2.66699 13.3333 2.96547 13.3333 3.33366ZM24 3.33366C24 3.70185 24.2985 4.00033 24.6667 4.00033C25.0349 4.00033 25.3333 3.70185 25.3333 3.33366V2.66699H24.6667C24.2985 2.66699 24 2.96547 24 3.33366ZM24.6667 16.0003C24.2985 16.0003 24 16.2988 24 16.667C24 17.0352 24.2985 17.3337 24.6667 17.3337H25.3333V16.667C25.3333 16.2988 25.0349 16.0003 24.6667 16.0003ZM13.3333 16.667C13.3333 16.2988 13.0349 16.0003 12.6667 16.0003C12.2985 16.0003 12 16.2988 12 16.667V17.3337H12.6667C13.0349 17.3337 13.3333 17.0352 13.3333 16.667Z" fill="#FFBF18"/>
<path fill-rule="evenodd" clip-rule="evenodd" d="M16 12.5731C16 12.2563 15.7432 11.9995 15.4264 11.9995C15.3647 11.9995 15.3037 11.9897 15.2456 11.9689C14.8599 11.8311 13.3333 11.2486 13.3333 10.6662C13.3333 10.3014 13.533 9.93651 13.7138 9.68094C13.8712 9.45841 13.9298 9.16924 13.8332 8.91435C13.6066 8.31638 13.2397 7.22788 13.3333 6.6662C13.3832 6.36705 13.5824 6.10512 13.8122 5.89442C14.1678 5.56832 14.6667 5.8765 14.6667 6.35903V8.92084C14.6667 9.17336 14.8093 9.4042 15.0352 9.51713L15.7117 9.85538C15.8839 9.94146 16.0918 9.90772 16.2279 9.77161C16.4438 9.55576 16.3847 9.19189 16.1117 9.05538L15.3333 8.6662V7.99953C15.6655 7.99953 15.7712 7.55178 15.4741 7.40325L15.3333 7.33286V6.6662H16.3905C16.5673 6.6662 16.7369 6.59596 16.8619 6.47093L17.1381 6.19479C17.2631 6.06977 17.4327 5.99953 17.6095 5.99953H18.2546C18.5071 5.99953 18.738 6.1422 18.8509 6.36805L19.2098 7.08587C19.2889 7.24402 19.3019 7.4271 19.246 7.59484L18.9591 8.45538C18.8153 8.88707 19.1366 9.33286 19.5916 9.33286H21.7832C21.922 9.33286 22.0551 9.27773 22.1533 9.17959C22.4058 8.92702 22.3367 8.50124 22.0173 8.3415L21.4741 8.06991C21.3815 8.02363 21.2794 7.99953 21.1759 7.99953H20.6667C20.2985 7.99953 20 7.70105 20 7.33286V6.94234C20 6.76553 20.0702 6.59596 20.1952 6.47093L20.6667 5.99953V6.6662C20.6667 7.03439 20.9651 7.33286 21.3333 7.33286H22.2546C22.5071 7.33286 22.738 7.47553 22.8509 7.70139L23.2799 8.55927C23.3152 8.62999 23.3377 8.7061 23.3449 8.78484C23.3756 9.1204 23.4487 10.0892 23.3333 10.6662C23.2398 11.1337 22.978 11.5665 22.8117 11.8057C22.7223 11.9342 22.6667 12.0853 22.6667 12.2419V14.1569C22.6667 14.4382 22.4386 14.6662 22.1574 14.6662C21.7788 14.6662 21.5325 14.2678 21.7018 13.9291L21.9296 13.4736C21.9739 13.385 21.9739 13.2807 21.9296 13.1921L21.8981 13.1291C21.7574 12.8478 21.3333 12.9479 21.3333 13.2625C21.3333 13.3088 21.3225 13.3544 21.3018 13.3958L20.8315 14.3366C20.7305 14.5386 20.524 14.6662 20.2981 14.6662C19.8549 14.6662 19.5666 14.1997 19.7648 13.8032L19.9296 13.4736C19.9759 13.3811 20 13.279 20 13.1755V12.6662C20 12.298 19.7015 11.9995 19.3333 11.9995H18C17.6318 11.9995 17.3333 12.298 17.3333 12.6662V13.1755C17.3333 13.279 17.3092 13.3811 17.2629 13.4736L16.8315 14.3366C16.7305 14.5386 16.524 14.6662 16.2981 14.6662C15.8549 14.6662 15.5666 14.1997 15.7648 13.8032L15.9296 13.4736C15.9759 13.3811 16 13.279 16 13.1755V12.5731Z" fill="#FFBF18"/>
</g>
</svg>
