<svg width="60" height="55" viewBox="0 0 60 55" fill="none" xmlns="http://www.w3.org/2000/svg">
<g clip-path="url(#clip0_6397_71)">
<path d="M8.34091 46.0007H16.1364V27.4553L5 19.2734V42.728C5 44.5389 6.49784 46.0007 8.34091 46.0007Z" fill="#4285F4"/>
<path d="M42.8633 46.0007H50.6587C52.5074 46.0007 53.9996 44.5334 53.9996 42.728V19.2734L42.8633 27.4553" fill="#34A853"/>
<path d="M42.8633 13.2722V27.4541L53.9996 19.2722V14.9086C53.9996 10.8613 49.2834 8.55406 45.9815 10.9813" fill="#FBBC04"/>
<path d="M16.1367 27.4553V13.2734L29.5004 23.0916L42.864 13.2734V27.4553L29.5004 37.2734" fill="#EA4335"/>
<path d="M5 14.9086V19.2722L16.1364 27.4541V13.2722L13.0182 10.9813C9.71068 8.55406 5 10.8613 5 14.9086Z" fill="#C5221F"/>
</g>
<defs>
<clipPath id="clip0_6397_71">
<rect width="49" height="36" fill="white" transform="translate(5 10)"/>
</clipPath>
</defs>
</svg>
