<svg width="28" height="20" viewBox="0 0 28 20" fill="none" xmlns="http://www.w3.org/2000/svg">
<rect width="28" height="20" rx="2" fill="white"/>
<mask id="mask0_14715_5011" style="mask-type:luminance" maskUnits="userSpaceOnUse" x="0" y="0" width="28" height="20">
<rect width="28" height="20" rx="2" fill="white"/>
</mask>
<g mask="url(#mask0_14715_5011)">
<rect width="28" height="20" fill="url(#paint0_linear_14715_5011)"/>
<rect x="13.3333" width="14.6667" height="20" fill="#08379D"/>
<path fill-rule="evenodd" clip-rule="evenodd" d="M0 20H9.33333V0H0V20Z" fill="#08379D"/>
<path fill-rule="evenodd" clip-rule="evenodd" d="M9.33334 20H18.6667V0H9.33334V20Z" fill="#FFCC50"/>
<path fill-rule="evenodd" clip-rule="evenodd" d="M13.7456 6.41313C13.8794 6.21643 14.1702 6.21913 14.3003 6.41828L14.9965 7.484C15.1413 7.7057 14.9822 7.99963 14.7174 7.99963H14.7017C14.5044 7.99963 14.3504 8.1699 14.37 8.36613L14.6366 11.0328C14.6537 11.2032 14.7971 11.333 14.9683 11.333H15.1963C15.2841 11.333 15.3683 11.2983 15.4307 11.2366L15.9011 10.7713C15.9644 10.7087 16 10.6234 16 10.5343V9.47104C16 9.38263 15.9649 9.29785 15.9024 9.23533L15.7147 9.04767C15.5395 8.87246 15.6099 8.5741 15.845 8.49574L16.798 8.17807C17.0387 8.09786 17.2771 8.30512 17.2313 8.55459L16.7397 11.2274C16.7271 11.296 16.6932 11.359 16.6429 11.4074L15.4301 12.5733C15.368 12.633 15.2852 12.6663 15.1991 12.6663H15C14.8159 12.6663 14.6667 12.8155 14.6667 12.9996V13.6663C14.6667 13.8504 14.5174 13.9996 14.3333 13.9996H13.6667C13.4826 13.9996 13.3333 13.8504 13.3333 13.6663V12.9996C13.3333 12.8155 13.1841 12.6663 13 12.6663H12.8047C12.7163 12.6663 12.6315 12.6312 12.569 12.5687L11.4047 11.4043C11.3582 11.3578 11.3264 11.2985 11.3135 11.234L10.7793 8.56287C10.7291 8.3119 10.9688 8.10033 11.2116 8.18127L12.155 8.49574C12.3901 8.5741 12.4605 8.87246 12.2853 9.04767L12.0976 9.23533C12.0351 9.29785 12 9.38263 12 9.47104V10.5343C12 10.6234 12.0356 10.7087 12.0989 10.7713L12.5693 11.2366C12.6317 11.2983 12.7159 11.333 12.8037 11.333H13.0317C13.2029 11.333 13.3463 11.2032 13.3633 11.0328L13.63 8.36613C13.6496 8.1699 13.4948 7.99963 13.2976 7.99963C13.03 7.99963 12.8703 7.70015 13.0208 7.47885L13.7456 6.41313Z" fill="#262626"/>
</g>
<defs>
<linearGradient id="paint0_linear_14715_5011" x1="0" y1="0" x2="0" y2="20" gradientUnits="userSpaceOnUse">
<stop stop-color="#1132C7"/>
<stop offset="1" stop-color="#0522A5"/>
</linearGradient>
</defs>
</svg>
