<svg width="28" height="20" viewBox="0 0 28 20" fill="none" xmlns="http://www.w3.org/2000/svg">
<rect width="28" height="20" rx="2" fill="white"/>
<mask id="mask0_14715_5338" style="mask-type:luminance" maskUnits="userSpaceOnUse" x="0" y="0" width="28" height="20">
<rect width="28" height="20" rx="2" fill="white"/>
</mask>
<g mask="url(#mask0_14715_5338)">
<path fill-rule="evenodd" clip-rule="evenodd" d="M28 0V10H0V0H28Z" fill="#29C53F"/>
<path fill-rule="evenodd" clip-rule="evenodd" d="M28 10V20.6667H0V10H28Z" fill="#579DED"/>
<path fill-rule="evenodd" clip-rule="evenodd" d="M0 20L28 10L0 0V20Z" fill="#F42D56"/>
<path d="M12.6667 9.99967C12.6667 12.2088 10.8758 13.9997 8.66667 13.9997C6.45753 13.9997 4.66667 12.2088 4.66667 9.99967C4.66667 7.79054 6.45753 5.99967 8.66667 5.99967C10.8758 5.99967 12.6667 7.79054 12.6667 9.99967Z" stroke="#FFC63C" stroke-width="1.33333"/>
<path fill-rule="evenodd" clip-rule="evenodd" d="M8.00001 9.33333C8.3682 9.33333 8.66668 9.03486 8.66668 8.66667C8.66668 8.29848 8.3682 8 8.00001 8C7.63182 8 7.33334 8.29848 7.33334 8.66667C7.33334 9.03486 7.63182 9.33333 8.00001 9.33333Z" fill="#FFC63C"/>
<path fill-rule="evenodd" clip-rule="evenodd" d="M9.33332 10.0003C9.70151 10.0003 9.99999 9.70185 9.99999 9.33366C9.99999 8.96547 9.70151 8.66699 9.33332 8.66699C8.96513 8.66699 8.66666 8.96547 8.66666 9.33366C8.66666 9.70185 8.96513 10.0003 9.33332 10.0003Z" fill="#FFC63C"/>
<path fill-rule="evenodd" clip-rule="evenodd" d="M8.66667 8.66634C9.03486 8.66634 9.33333 8.36786 9.33333 7.99967C9.33333 7.63148 9.03486 7.33301 8.66667 7.33301C8.29848 7.33301 8 7.63148 8 7.99967C8 8.36786 8.29848 8.66634 8.66667 8.66634Z" fill="#FFC63C"/>
<path fill-rule="evenodd" clip-rule="evenodd" d="M8.00001 10.6663C8.3682 10.6663 8.66668 10.3679 8.66668 9.99967C8.66668 9.63148 8.3682 9.33301 8.00001 9.33301C7.63182 9.33301 7.33334 9.63148 7.33334 9.99967C7.33334 10.3679 7.63182 10.6663 8.00001 10.6663Z" fill="#FFC63C"/>
<path fill-rule="evenodd" clip-rule="evenodd" d="M9.33332 11.3333C9.70151 11.3333 9.99999 11.0349 9.99999 10.6667C9.99999 10.2985 9.70151 10 9.33332 10C8.96513 10 8.66666 10.2985 8.66666 10.6667C8.66666 11.0349 8.96513 11.3333 9.33332 11.3333Z" fill="#FFC63C"/>
<path fill-rule="evenodd" clip-rule="evenodd" d="M8.00001 12.0003C8.3682 12.0003 8.66668 11.7018 8.66668 11.3337C8.66668 10.9655 8.3682 10.667 8.00001 10.667C7.63182 10.667 7.33334 10.9655 7.33334 11.3337C7.33334 11.7018 7.63182 12.0003 8.00001 12.0003Z" fill="#FFC63C"/>
<path fill-rule="evenodd" clip-rule="evenodd" d="M9.33332 12.6663C9.70151 12.6663 9.99999 12.3679 9.99999 11.9997C9.99999 11.6315 9.70151 11.333 9.33332 11.333C8.96513 11.333 8.66666 11.6315 8.66666 11.9997C8.66666 12.3679 8.96513 12.6663 9.33332 12.6663Z" fill="#FFC63C"/>
</g>
</svg>
