<svg width="28" height="20" viewBox="0 0 28 20" fill="none" xmlns="http://www.w3.org/2000/svg">
<rect width="28" height="20" rx="2" fill="white"/>
<mask id="mask0_14715_5784" style="mask-type:luminance" maskUnits="userSpaceOnUse" x="0" y="0" width="28" height="20">
<rect width="28" height="20" rx="2" fill="white"/>
</mask>
<g mask="url(#mask0_14715_5784)">
<rect width="28" height="20" fill="#F22A46"/>
<path fill-rule="evenodd" clip-rule="evenodd" d="M14 13.3337C15.8409 13.3337 17.3333 11.8413 17.3333 10.0003C17.3333 8.15938 15.8409 6.66699 14 6.66699C12.159 6.66699 10.6667 8.15938 10.6667 10.0003C10.6667 11.8413 12.159 13.3337 14 13.3337Z" fill="#FFF04D"/>
<path fill-rule="evenodd" clip-rule="evenodd" d="M12.3682 17.1495L14 14.7137L15.6318 17.1495L16.0451 14.2469L18.5722 15.7335L17.6852 12.9389L20.6071 13.1819L18.5954 11.0489L21.3333 10.0001L18.5954 8.95118L20.6071 6.81824L17.6852 7.06117L18.5722 4.26663L16.0451 5.75324L15.6318 2.85059L14 5.28644L12.3682 2.85059L11.9548 5.75324L9.42773 4.26663L10.3147 7.06117L7.39288 6.81824L9.40456 8.95118L6.66666 10.0001L9.40456 11.0489L7.39288 13.1819L10.3147 12.9389L9.42773 15.7335L11.9548 14.2469L12.3682 17.1495ZM18.6667 10.0001C18.6667 12.5774 16.5773 14.6667 14 14.6667C11.4227 14.6667 9.33332 12.5774 9.33332 10.0001C9.33332 7.42273 11.4227 5.33339 14 5.33339C16.5773 5.33339 18.6667 7.42273 18.6667 10.0001Z" fill="#FFF04D"/>
</g>
</svg>
