<svg width="28" height="20" viewBox="0 0 28 20" fill="none" xmlns="http://www.w3.org/2000/svg">
<rect x="0.25" y="0.25" width="27.5" height="19.5" rx="1.75" fill="white" stroke="#F5F5F5" stroke-width="0.5"/>
<mask id="mask0_14715_6390" style="mask-type:luminance" maskUnits="userSpaceOnUse" x="0" y="0" width="28" height="20">
<rect x="0.25" y="0.25" width="27.5" height="19.5" rx="1.75" fill="white" stroke="white" stroke-width="0.5"/>
</mask>
<g mask="url(#mask0_14715_6390)">
<path fill-rule="evenodd" clip-rule="evenodd" d="M0 10.6667H28V0H0V10.6667Z" fill="#E12237"/>
<path fill-rule="evenodd" clip-rule="evenodd" d="M6.66667 9.33301C7.61178 9.33301 8.48033 9.00523 9.16485 8.45715C8.80225 8.59241 8.40976 8.66634 8 8.66634C6.15906 8.66634 4.66667 7.17396 4.66667 5.33301C4.66667 3.49206 6.15906 1.99967 8 1.99967C8.40976 1.99967 8.80225 2.07361 9.16485 2.20886C8.48033 1.66079 7.61178 1.33301 6.66667 1.33301C4.45753 1.33301 2.66667 3.12387 2.66667 5.33301C2.66667 7.54215 4.45753 9.33301 6.66667 9.33301ZM8.00001 4.66634C8.00001 5.03453 7.70153 5.33301 7.33334 5.33301C6.96515 5.33301 6.66667 5.03453 6.66667 4.66634C6.66667 4.29815 6.96515 3.99967 7.33334 3.99967C7.70153 3.99967 8.00001 4.29815 8.00001 4.66634ZM8.66667 7.99967C9.03486 7.99967 9.33334 7.7012 9.33334 7.33301C9.33334 6.96482 9.03486 6.66634 8.66667 6.66634C8.29848 6.66634 8.00001 6.96482 8.00001 7.33301C8.00001 7.7012 8.29848 7.99967 8.66667 7.99967ZM12 7.33301C12 7.7012 11.7015 7.99967 11.3333 7.99967C10.9651 7.99967 10.6667 7.7012 10.6667 7.33301C10.6667 6.96482 10.9651 6.66634 11.3333 6.66634C11.7015 6.66634 12 6.96482 12 7.33301ZM12.6667 5.33301C13.0349 5.33301 13.3333 5.03453 13.3333 4.66634C13.3333 4.29815 13.0349 3.99967 12.6667 3.99967C12.2985 3.99967 12 4.29815 12 4.66634C12 5.03453 12.2985 5.33301 12.6667 5.33301ZM10.6667 2.66634C10.6667 3.03453 10.3682 3.33301 10 3.33301C9.63181 3.33301 9.33334 3.03453 9.33334 2.66634C9.33334 2.29815 9.63181 1.99967 10 1.99967C10.3682 1.99967 10.6667 2.29815 10.6667 2.66634Z" fill="white"/>
</g>
</svg>
