<svg width="28" height="20" viewBox="0 0 28 20" fill="none" xmlns="http://www.w3.org/2000/svg">
<rect x="0.25" y="0.25" width="27.5" height="19.5" rx="1.75" fill="white" stroke="#F5F5F5" stroke-width="0.5"/>
<mask id="mask0_14715_6408" style="mask-type:luminance" maskUnits="userSpaceOnUse" x="0" y="0" width="28" height="20">
<rect x="0.25" y="0.25" width="27.5" height="19.5" rx="1.75" fill="white" stroke="white" stroke-width="0.5"/>
</mask>
<g mask="url(#mask0_14715_6408)">
<path fill-rule="evenodd" clip-rule="evenodd" d="M0 13.3337H28V6.66699H9.24398V5.33366C9.24398 5.33366 8.30367 4.66699 7.33333 4.66699C6.36299 4.66699 5.33333 5.33366 5.33333 5.33366V6.66699H0V13.3337ZM8.66667 8.00033C8.66667 8.73671 8.06971 9.33366 7.33333 9.33366C6.59695 9.33366 6 8.73671 6 8.00033C6 7.26395 6.59695 6.66699 7.33333 6.66699C8.06971 6.66699 8.66667 7.26395 8.66667 8.00033Z" fill="#0C47B7"/>
<g filter="url(#filter0_d_14715_6408)">
<path fill-rule="evenodd" clip-rule="evenodd" d="M0 19.9997H28V13.333H0V19.9997Z" fill="#E53B35"/>
</g>
</g>
<defs>
<filter id="filter0_d_14715_6408" x="0" y="13.333" width="28" height="6.66699" filterUnits="userSpaceOnUse" color-interpolation-filters="sRGB">
<feFlood flood-opacity="0" result="BackgroundImageFix"/>
<feColorMatrix in="SourceAlpha" type="matrix" values="0 0 0 0 0 0 0 0 0 0 0 0 0 0 0 0 0 0 127 0" result="hardAlpha"/>
<feOffset/>
<feColorMatrix type="matrix" values="0 0 0 0 0 0 0 0 0 0 0 0 0 0 0 0 0 0 0.06 0"/>
<feBlend mode="normal" in2="BackgroundImageFix" result="effect1_dropShadow_14715_6408"/>
<feBlend mode="normal" in="SourceGraphic" in2="effect1_dropShadow_14715_6408" result="shape"/>
</filter>
</defs>
</svg>
