<svg width="238" height="208" viewBox="0 0 238 208" fill="none" xmlns="http://www.w3.org/2000/svg">
<path d="M39 0.5H196C216.711 0.500001 233.5 17.2893 233.5 38V203.5H3.5V36C3.5 16.3939 19.3939 0.500001 39 0.5Z" fill="#F4F4F6" stroke="#4D586C"/>
<path d="M40 8.34961H197C212.823 8.34961 225.65 21.177 225.65 37V203.65H11.3496V37L11.3594 36.2607C11.7515 20.7794 24.4242 8.34961 40 8.34961Z" fill="white" stroke="#8A909A" stroke-width="0.7"/>
<path d="M1 98L3.5 96.5V128L1 126V98Z" fill="#808691"/>
<path d="M1 63H3V79H1V63Z" fill="#808691"/>
<path d="M1 138.5L3.5 137V168.5L1 166.5V138.5Z" fill="#808691"/>
<path d="M236 109.524L234 107V160L236 156.635V109.524Z" fill="#808691"/>
<rect x="91.5" y="16.5" width="54" height="16" rx="8" fill="#F4F4F6" stroke="#4D586C"/>
<path d="M58.6279 136.318L61.1772 133.264L57.5273 132.253L58.2573 130.13L61.8286 131.602L61.5591 127.648H63.9512L63.6592 131.68L67.1519 130.243L67.8706 132.388L64.1646 133.398L66.624 136.375L64.6924 137.7L62.626 134.398L60.5596 137.587L58.6279 136.318Z" fill="white"/>
<path d="M76.2418 136.318L78.7911 133.264L75.1412 132.253L75.8712 130.13L79.4425 131.602L79.1729 127.648H81.565L81.273 131.68L84.7657 130.243L85.4845 132.388L81.7784 133.398L84.2379 136.375L82.3062 137.7L80.2398 134.398L78.1734 137.587L76.2418 136.318Z" fill="white"/>
<path d="M93.8557 136.318L96.405 133.264L92.7551 132.253L93.4851 130.13L97.0563 131.602L96.7868 127.648H99.1789L98.8869 131.68L102.38 130.243L103.098 132.388L99.3923 133.398L101.852 136.375L99.9201 137.7L97.8537 134.398L95.7873 137.587L93.8557 136.318Z" fill="white"/>
<path d="M111.47 136.318L114.019 133.264L110.369 132.253L111.099 130.13L114.67 131.602L114.401 127.648H116.793L116.501 131.68L119.993 130.243L120.712 132.388L117.006 133.398L119.466 136.375L117.534 137.7L115.468 134.398L113.401 137.587L111.47 136.318Z" fill="white"/>
<rect x="21" y="39" width="193" height="24" rx="5" fill="#243034"/>
<rect x="32" y="46" width="12" height="2" fill="white"/>
<rect x="32" y="50" width="12" height="2" fill="white"/>
<rect x="32" y="54" width="12" height="2" fill="white"/>
<circle cx="191.5" cy="51.5" r="1.5" fill="white"/>
<circle cx="195.5" cy="51.5" r="1.5" fill="white"/>
<circle cx="199.5" cy="51.5" r="1.5" fill="white"/>
<path d="M25.0273 96.1504L28.499 101.922L32.0146 96.1504H35.1934L30.0078 103.973L35.3545 112H32.2197L28.5576 106.053L24.8955 112H21.7461L27.0781 103.973L21.9072 96.1504H25.0273ZM42.9102 96.1504L46.3818 101.922L49.8975 96.1504H53.0762L47.8906 103.973L53.2373 112H50.1025L46.4404 106.053L42.7783 112H39.6289L44.9609 103.973L39.79 96.1504H42.9102ZM60.793 96.1504L64.2646 101.922L67.7803 96.1504H70.959L65.7734 103.973L71.1201 112H67.9854L64.3232 106.053L60.6611 112H57.5117L62.8438 103.973L57.6729 96.1504H60.793ZM89.1172 96.1504L92.5889 101.922L96.1045 96.1504H99.2832L94.0977 103.973L99.4443 112H96.3096L92.6475 106.053L88.9854 112H85.8359L91.168 103.973L85.9971 96.1504H89.1172ZM107 96.1504L110.472 101.922L113.987 96.1504H117.166L111.98 103.973L117.327 112H114.192L110.53 106.053L106.868 112H103.719L109.051 103.973L103.88 96.1504H107ZM124.883 96.1504L128.354 101.922L131.87 96.1504H135.049L129.863 103.973L135.21 112H132.075L128.413 106.053L124.751 112H121.602L126.934 103.973L121.763 96.1504H124.883Z" fill="#243034"/>
<path d="M24.9238 86.0977C25.2246 86.0977 25.5026 86.0361 25.7578 85.9131C26.013 85.79 26.2227 85.6214 26.3867 85.4072C26.5508 85.1885 26.6442 84.9401 26.667 84.6621H27.8701C27.8473 85.0996 27.6992 85.5075 27.4258 85.8857C27.1569 86.2594 26.8037 86.5625 26.3662 86.7949C25.9287 87.0228 25.4479 87.1367 24.9238 87.1367C24.3678 87.1367 23.8825 87.0387 23.4678 86.8428C23.0576 86.6468 22.7158 86.3779 22.4424 86.0361C22.1735 85.6943 21.9707 85.3024 21.834 84.8604C21.7018 84.4137 21.6357 83.9421 21.6357 83.4453V83.1582C21.6357 82.6615 21.7018 82.1921 21.834 81.75C21.9707 81.3034 22.1735 80.9092 22.4424 80.5674C22.7158 80.2256 23.0576 79.9567 23.4678 79.7607C23.8825 79.5648 24.3678 79.4668 24.9238 79.4668C25.5026 79.4668 26.0085 79.5853 26.4414 79.8223C26.8743 80.0547 27.2139 80.3737 27.46 80.7793C27.7106 81.1803 27.8473 81.6361 27.8701 82.1465H26.667C26.6442 81.8411 26.5576 81.5654 26.4072 81.3193C26.2614 81.0732 26.0609 80.8773 25.8057 80.7314C25.555 80.5811 25.2611 80.5059 24.9238 80.5059C24.5365 80.5059 24.2106 80.5833 23.9463 80.7383C23.6865 80.8887 23.4792 81.0938 23.3242 81.3535C23.1738 81.6087 23.0645 81.8936 22.9961 82.208C22.9323 82.5179 22.9004 82.8346 22.9004 83.1582V83.4453C22.9004 83.7689 22.9323 84.0879 22.9961 84.4023C23.0599 84.7168 23.167 85.0016 23.3174 85.2568C23.4723 85.512 23.6797 85.7171 23.9395 85.8721C24.2038 86.0225 24.5319 86.0977 24.9238 86.0977ZM28.957 83.3838V83.2266C28.957 82.6934 29.0345 82.1989 29.1895 81.7432C29.3444 81.2829 29.5677 80.8841 29.8594 80.5469C30.151 80.2051 30.5042 79.9408 30.9189 79.7539C31.3337 79.5625 31.7985 79.4668 32.3135 79.4668C32.833 79.4668 33.3001 79.5625 33.7148 79.7539C34.1341 79.9408 34.4896 80.2051 34.7812 80.5469C35.0775 80.8841 35.3031 81.2829 35.458 81.7432C35.613 82.1989 35.6904 82.6934 35.6904 83.2266V83.3838C35.6904 83.917 35.613 84.4115 35.458 84.8672C35.3031 85.3229 35.0775 85.7217 34.7812 86.0635C34.4896 86.4007 34.1364 86.665 33.7217 86.8564C33.3115 87.0433 32.8467 87.1367 32.3271 87.1367C31.8076 87.1367 31.3405 87.0433 30.9258 86.8564C30.5111 86.665 30.1556 86.4007 29.8594 86.0635C29.5677 85.7217 29.3444 85.3229 29.1895 84.8672C29.0345 84.4115 28.957 83.917 28.957 83.3838ZM30.2217 83.2266V83.3838C30.2217 83.7529 30.265 84.1016 30.3516 84.4297C30.4382 84.7533 30.568 85.0404 30.7412 85.291C30.9189 85.5417 31.14 85.7399 31.4043 85.8857C31.6686 86.027 31.9762 86.0977 32.3271 86.0977C32.6735 86.0977 32.9766 86.027 33.2363 85.8857C33.5007 85.7399 33.7194 85.5417 33.8926 85.291C34.0658 85.0404 34.1956 84.7533 34.2822 84.4297C34.3734 84.1016 34.4189 83.7529 34.4189 83.3838V83.2266C34.4189 82.862 34.3734 82.5179 34.2822 82.1943C34.1956 81.8662 34.0635 81.5768 33.8857 81.3262C33.7126 81.071 33.4938 80.8704 33.2295 80.7246C32.9697 80.5788 32.6644 80.5059 32.3135 80.5059C31.9671 80.5059 31.6618 80.5788 31.3975 80.7246C31.1377 80.8704 30.9189 81.071 30.7412 81.3262C30.568 81.5768 30.4382 81.8662 30.3516 82.1943C30.265 82.5179 30.2217 82.862 30.2217 83.2266ZM41.9385 85.5645V76.5H43.21V87H42.0479L41.9385 85.5645ZM36.9619 83.3838V83.2402C36.9619 82.6751 37.0303 82.1624 37.167 81.7021C37.3083 81.2373 37.5065 80.8385 37.7617 80.5059C38.0215 80.1732 38.3291 79.918 38.6846 79.7402C39.0446 79.5579 39.4456 79.4668 39.8877 79.4668C40.3525 79.4668 40.7581 79.5488 41.1045 79.7129C41.4554 79.8724 41.7516 80.1071 41.9932 80.417C42.2393 80.7223 42.4329 81.0915 42.5742 81.5244C42.7155 81.9574 42.8135 82.4473 42.8682 82.9941V83.623C42.818 84.1654 42.7201 84.653 42.5742 85.0859C42.4329 85.5189 42.2393 85.888 41.9932 86.1934C41.7516 86.4987 41.4554 86.7334 41.1045 86.8975C40.7536 87.057 40.3434 87.1367 39.874 87.1367C39.4411 87.1367 39.0446 87.0433 38.6846 86.8564C38.3291 86.6696 38.0215 86.4076 37.7617 86.0703C37.5065 85.7331 37.3083 85.3366 37.167 84.8809C37.0303 84.4206 36.9619 83.9215 36.9619 83.3838ZM38.2334 83.2402V83.3838C38.2334 83.7529 38.2699 84.0993 38.3428 84.4229C38.4202 84.7464 38.5387 85.0312 38.6982 85.2773C38.8577 85.5234 39.0605 85.7171 39.3066 85.8584C39.5527 85.9951 39.8467 86.0635 40.1885 86.0635C40.6077 86.0635 40.9518 85.9746 41.2207 85.7969C41.4941 85.6191 41.7129 85.3844 41.877 85.0928C42.041 84.8011 42.1686 84.4844 42.2598 84.1426V82.4951C42.2051 82.2445 42.1253 82.0029 42.0205 81.7705C41.9202 81.5335 41.7881 81.3239 41.624 81.1416C41.4645 80.9548 41.2663 80.8066 41.0293 80.6973C40.7969 80.5879 40.5212 80.5332 40.2021 80.5332C39.8558 80.5332 39.5573 80.6061 39.3066 80.752C39.0605 80.8932 38.8577 81.0892 38.6982 81.3398C38.5387 81.5859 38.4202 81.873 38.3428 82.2012C38.2699 82.5247 38.2334 82.8711 38.2334 83.2402ZM48.248 87.1367C47.7331 87.1367 47.266 87.0501 46.8467 86.877C46.432 86.6992 46.0742 86.4508 45.7734 86.1318C45.4772 85.8128 45.2493 85.4346 45.0898 84.9971C44.9303 84.5596 44.8506 84.0811 44.8506 83.5615V83.2744C44.8506 82.6729 44.9395 82.1374 45.1172 81.668C45.2949 81.194 45.5365 80.793 45.8418 80.4648C46.1471 80.1367 46.4935 79.8883 46.8809 79.7197C47.2682 79.5511 47.6693 79.4668 48.084 79.4668C48.6126 79.4668 49.0684 79.5579 49.4512 79.7402C49.8385 79.9225 50.1553 80.1777 50.4014 80.5059C50.6475 80.8294 50.8298 81.2122 50.9482 81.6543C51.0667 82.0918 51.126 82.5703 51.126 83.0898V83.6572H45.6025V82.625H49.8613V82.5293C49.8431 82.2012 49.7747 81.8822 49.6562 81.5723C49.5423 81.2624 49.36 81.0072 49.1094 80.8066C48.8587 80.6061 48.5169 80.5059 48.084 80.5059C47.7969 80.5059 47.5326 80.5674 47.291 80.6904C47.0495 80.8089 46.8421 80.9867 46.6689 81.2236C46.4958 81.4606 46.3613 81.75 46.2656 82.0918C46.1699 82.4336 46.1221 82.8278 46.1221 83.2744V83.5615C46.1221 83.9124 46.1699 84.2428 46.2656 84.5527C46.3659 84.8581 46.5094 85.127 46.6963 85.3594C46.8877 85.5918 47.1178 85.7741 47.3867 85.9062C47.6602 86.0384 47.9701 86.1045 48.3164 86.1045C48.763 86.1045 49.1413 86.0133 49.4512 85.8311C49.7611 85.6488 50.0322 85.4049 50.2646 85.0996L51.0303 85.708C50.8708 85.9495 50.668 86.1797 50.4219 86.3984C50.1758 86.6172 49.8727 86.7949 49.5127 86.9316C49.1572 87.0684 48.7357 87.1367 48.248 87.1367Z" fill="#243034"/>
<path d="M210 110.928C208.829 111.605 207.505 111.973 206.152 111.999C204.8 112.024 203.463 111.707 202.267 111.075C201.07 110.444 200.053 109.52 199.311 108.389C198.569 107.258 198.126 105.957 198.023 104.609C197.92 103.26 198.161 101.907 198.723 100.677C199.285 99.4461 200.15 98.3782 201.236 97.5728C202.323 96.7674 203.596 96.2506 204.937 96.0709C206.278 95.8912 207.642 96.0544 208.903 96.5452L206 104L210 110.928Z" fill="#4D85F1"/>
<line x1="21" y1="122.5" x2="214" y2="122.5" stroke="#CDD0D7"/>
<rect y="93" width="238" height="115" fill="url(#paint0_linear_6429_9222)"/>
<defs>
<linearGradient id="paint0_linear_6429_9222" x1="119" y1="151" x2="119" y2="208" gradientUnits="userSpaceOnUse">
<stop offset="0.162002" stop-color="white" stop-opacity="0"/>
<stop offset="0.909464" stop-color="white"/>
</linearGradient>
</defs>
</svg>
