<svg width="64" height="65" viewBox="0 0 64 65" fill="none" xmlns="http://www.w3.org/2000/svg">
<g opacity="0.45" clip-path="url(#clip0_6257_6420)">
<path d="M55.9991 35.0689V36.1438C55.9991 50.1902 44.4882 60.2834 31.9409 64.0638H31.9039C19.3198 59.7645 7.88281 49.8197 7.88281 36.1438V35.0689L8.80813 34.5502C11.2508 33.1418 13.8418 31.9186 16.4697 30.918H47.4122C50.0401 31.9188 52.631 33.1418 55.0737 34.5502L55.9991 35.0689Z" fill="#DFE7EC"/>
<path d="M55.9995 35.0689V36.1438C55.9995 50.1902 44.4886 60.2834 31.9414 64.0638V30.918H47.4126C50.0405 31.9188 52.6315 33.1418 55.0742 34.5502L55.9995 35.0689Z" fill="#C6D1DA"/>
<path d="M48.5964 21.3203V41.1112C44.6361 42.4825 38.9361 45.2622 31.9408 45.2622C24.9824 45.2622 19.9117 42.7049 15.2852 41.1112V21.3203H48.5964Z" fill="#F4F7F9"/>
<path d="M48.597 21.3203V41.1112C44.6367 42.4825 38.9368 45.2622 31.9414 45.2622V21.3203H48.597Z" fill="#D3DADF"/>
<path d="M44.8952 21.3203H31.9408H19.2756L15.2852 23.1734L18.9864 30.5858H29.3835L31.9408 25.4645L34.4981 30.5858H44.8952L48.5964 23.1734L44.8952 21.3203Z" fill="#C6D1DA"/>
<path d="M44.8958 30.5858L48.597 23.1734L44.8958 21.3203H31.9414V25.4645L34.4987 30.5858H44.8958Z" fill="#A2B0BC"/>
<path d="M48.5575 20.9493H15.3203L19.3178 0.8125H44.5601L48.5575 20.9493Z" fill="#DFE7EC"/>
<path d="M48.56 20.9493H31.9414V0.8125H44.5625L48.56 20.9493Z" fill="#C6D1DA"/>
<path d="M55.9991 15.7617V23.1741H7.88281V15.7617H11.5841V19.4679H52.2978V15.7617H55.9991Z" fill="#D5DDE3"/>
<path d="M55.9995 15.7617V23.1741H31.9414V19.4679H52.2983V15.7617H55.9995Z" fill="#C2CCD3"/>
</g>
<defs>
<clipPath id="clip0_6257_6420">
<rect width="63.168" height="63.2523" fill="white" transform="translate(0.355469 0.8125)"/>
</clipPath>
</defs>
</svg>
