<svg width="360" height="221" viewBox="0 0 360 221" fill="none" xmlns="http://www.w3.org/2000/svg">
<g clip-path="url(#clip0_6427_8808)">
<path d="M294.912 4.78125H284V15.6929H294.912V4.78125Z" fill="#3DC98A"/>
<path d="M60.5902 18.7812L52 33.6598H69.1803L60.5902 18.7812Z" fill="#3DC98A"/>
<path d="M290.761 217.043C293.11 214.693 293.11 210.885 290.761 208.536C288.411 206.186 284.603 206.186 282.254 208.536C279.904 210.885 279.904 214.693 282.254 217.043C284.603 219.392 288.411 219.392 290.761 217.043Z" fill="#3DC98A"/>
<path d="M3.65883 156.747L0 160.406L1.3874 161.794L5.04623 158.135L3.65883 156.747Z" fill="#3B4A51"/>
<path d="M10.4088 150.001L6.75 153.66L8.1374 155.048L11.7962 151.389L10.4088 150.001Z" fill="#3B4A51"/>
<path d="M8.1374 156.749L6.75 158.137L10.4088 161.796L11.7962 160.408L8.1374 156.749Z" fill="#3B4A51"/>
<path d="M1.3874 150.003L0 151.391L3.65883 155.049L5.04623 153.662L1.3874 150.003Z" fill="#3B4A51"/>
<path d="M332.659 89.7513L329 93.4102L330.387 94.7976L334.046 91.1388L332.659 89.7513Z" fill="#3B4A51"/>
<path d="M339.409 83.0052L335.75 86.6641L337.137 88.0515L340.796 84.3927L339.409 83.0052Z" fill="#3B4A51"/>
<path d="M337.137 89.7493L335.75 91.1367L339.409 94.7955L340.796 93.4081L337.137 89.7493Z" fill="#3B4A51"/>
<path d="M330.387 82.9993L329 84.3867L332.659 88.0455L334.046 86.6581L330.387 82.9993Z" fill="#3B4A51"/>
<path d="M171.073 38.4193L167.414 42.0781L168.801 43.4655L172.46 39.8067L171.073 38.4193Z" fill="#3B4A51"/>
<path d="M177.823 31.6732L174.164 35.332L175.551 36.7194L179.21 33.0606L177.823 31.6732Z" fill="#3B4A51"/>
<path d="M175.551 38.4212L174.164 39.8086L177.823 43.4674L179.21 42.08L175.551 38.4212Z" fill="#3B4A51"/>
<path d="M168.802 31.6711L167.414 33.0586L171.073 36.7175L172.46 35.33L168.802 31.6711Z" fill="#3B4A51"/>
<path d="M112.384 197H110.422V209.799H112.384V197Z" fill="#3B4A51"/>
<path d="M117.798 202.422H105V204.384H117.798V202.422Z" fill="#3B4A51"/>
<path d="M298.772 12.8738H287.86C287.318 12.8738 286.879 12.4346 286.879 11.8927V0.981082C286.879 0.439208 287.318 0 287.86 0H298.772C299.314 0 299.753 0.439208 299.753 0.981082V11.8927C299.753 12.4346 299.314 12.8738 298.772 12.8738ZM288.841 10.9117H297.791V1.96216H288.841V10.9117Z" fill="#3B4A51"/>
<path d="M73.0403 30.8408H55.86C55.5094 30.8408 55.1856 30.6538 55.0104 30.3502C54.8351 30.0466 54.8351 29.6727 55.0104 29.3691L63.6005 14.4905C63.7758 14.187 64.0997 14 64.4501 14C64.8006 14 65.1246 14.187 65.2998 14.4905L73.8899 29.3691C74.0652 29.6727 74.0652 30.0466 73.8899 30.3502C73.7147 30.6538 73.3908 30.8408 73.0403 30.8408ZM57.5593 28.8786H71.341L64.4501 16.9432L57.5593 28.8786Z" fill="#3B4A51"/>
<path d="M290.372 215.993C286.514 215.993 283.375 212.854 283.375 208.997C283.375 205.139 286.514 202 290.372 202C294.23 202 297.368 205.139 297.368 208.997C297.368 212.854 294.229 215.993 290.372 215.993ZM290.372 203.962C287.596 203.962 285.337 206.22 285.337 208.996C285.337 211.772 287.596 214.031 290.372 214.031C293.148 214.031 295.406 211.772 295.406 208.996C295.406 206.22 293.148 203.962 290.372 203.962Z" fill="#3B4A51"/>
<path d="M227.149 117.073L220.408 110.713L220.408 110.713V89.3191C220.408 85.6626 217.433 82.6875 213.776 82.6875H205.892C206.102 83.1254 206.302 83.5689 206.492 84.018C206.798 84.7387 207.075 85.4678 207.324 86.2045H213.776C215.494 86.2045 216.891 87.6013 216.891 89.3192V107.395L216.891 107.395V112.23L216.891 112.23V139.009L191.38 150.517L181.482 144.49C180.286 143.762 178.945 143.398 177.604 143.398C176.263 143.398 174.922 143.762 173.726 144.49L163.828 150.517L138.317 139.009V112.23L138.317 112.23V107.395L138.317 107.395V89.3191C138.317 87.6012 139.714 86.2044 141.432 86.2044H147.878C148.285 85.0095 148.766 83.8349 149.319 82.6875H141.432C137.775 82.6875 134.801 85.6626 134.801 89.3191V110.713L134.801 110.713L128.06 117.073C126.335 118.495 125.348 120.587 125.348 122.825V171.747C125.348 175.859 128.693 179.204 132.804 179.204H222.404C226.516 179.204 229.861 175.859 229.861 171.747V122.825C229.861 120.587 228.874 118.494 227.149 117.073ZM128.864 122.825C128.864 121.63 129.397 120.514 130.326 119.762L130.379 119.72L134.801 115.548L134.801 115.548V137.423L128.864 134.745V122.825H128.864ZM128.864 171.747V138.603L160.189 152.733L128.866 171.806C128.865 171.786 128.864 171.767 128.864 171.747ZM222.404 175.687H132.804C131.94 175.687 131.141 175.407 130.491 174.934L175.555 147.494C176.187 147.109 176.896 146.917 177.604 146.917C178.313 146.917 179.021 147.109 179.653 147.494L224.717 174.934C224.067 175.407 223.268 175.687 222.404 175.687ZM226.344 171.747C226.344 171.767 226.343 171.786 226.343 171.806L195.02 152.733L226.344 138.603V171.747ZM226.344 134.745L220.408 137.423V115.548L220.408 115.548L224.781 119.674L224.83 119.72L224.882 119.762C225.811 120.514 226.344 121.63 226.344 122.825L226.344 134.745Z" fill="#3DC98A"/>
<path d="M177.603 125.642C193.839 125.642 207 112.481 207 96.2449C207 79.9669 193.799 66.8477 177.603 66.8477C166.257 66.8477 156.412 73.2758 151.511 82.6884C141.483 101.941 155.323 125.642 177.603 125.642ZM157.149 97.7157C157.232 97.6333 163.134 91.7304 163.217 91.6473L164.605 90.2599L165.992 91.6473L169.245 94.8996L171.36 97.015C175.653 92.7216 188.326 80.0488 189.199 79.1757L190.587 77.7883L191.974 79.1757L198.043 85.2441L199.43 86.6315L198.042 88.019L174.077 111.984L172.747 113.314L171.36 114.702L169.973 113.314L158.29 101.632L157.149 100.491L155.762 99.1032L157.149 97.7157Z" fill="#3DC98A"/>
<path d="M231.616 112.437L225.535 106.7V86.1533C225.535 81.4146 221.68 77.5595 216.941 77.5595H208.03C206.643 75.1259 204.936 72.8909 202.928 70.8865C200.047 68.0116 196.693 65.7544 192.959 64.1775C189.095 62.546 184.994 61.7188 180.77 61.7188C174.923 61.7188 169.219 63.3388 164.273 66.4037C159.807 69.1709 156.108 73.0118 153.514 77.5596H144.598C139.859 77.5596 136.004 81.4147 136.004 86.1533V106.701L129.923 112.438C127.779 114.232 126.551 116.86 126.551 119.659V168.582C126.551 173.775 130.776 178 135.969 178H225.57C230.763 178 234.988 173.775 234.988 168.582V119.659C234.988 116.859 233.76 114.231 231.616 112.437ZM154.678 79.5217C159.578 70.1091 169.423 63.6809 180.769 63.6809C196.965 63.6809 210.167 76.8002 210.167 93.0781C210.167 109.314 197.005 122.475 180.769 122.475C158.49 122.475 144.649 98.7745 154.678 79.5217ZM211.081 85.0007H216.941C217.577 85.0007 218.094 85.5177 218.094 86.1533V99.9984L218.094 104.229V109.064V109.923L218.094 109.924V134.575L194.682 145.137L185.668 139.648C184.187 138.746 182.493 138.27 180.769 138.27C179.046 138.27 177.352 138.746 175.871 139.648L166.857 145.137L143.445 134.575V109.923L143.445 109.064V104.229V99.9986L143.445 99.9988V86.1533C143.445 85.5178 143.962 85.0007 144.598 85.0007H150.446C150.31 85.5066 150.188 86.0153 150.078 86.5265C149.515 89.1527 149.299 91.8485 149.435 94.5394C149.699 99.7416 151.283 104.873 154.017 109.379C156.733 113.856 160.519 117.601 164.964 120.207C167.281 121.565 169.771 122.614 172.365 123.324C175.067 124.063 177.894 124.437 180.769 124.437C185.002 124.437 189.109 123.608 192.977 121.972C196.711 120.393 200.065 118.132 202.944 115.252C205.823 112.373 208.084 109.02 209.664 105.285C211.299 101.418 212.129 97.3106 212.129 93.0781C212.129 90.321 211.777 87.6181 211.081 85.0007ZM233.026 168.582C233.026 172.693 229.681 176.038 225.57 176.038H135.969C131.858 176.038 128.513 172.693 128.513 168.582V119.659C128.513 117.422 129.501 115.329 131.225 113.907L137.966 107.547L137.966 107.547V86.1533C137.966 82.4967 140.94 79.5217 144.598 79.5217H152.484C151.932 80.6691 151.451 81.8437 151.044 83.0386H144.598C142.88 83.0386 141.482 84.4354 141.482 86.1533V104.23L141.483 104.229V109.064L141.482 109.064V135.843L166.994 147.351L176.891 141.324C178.088 140.596 179.429 140.232 180.769 140.232C182.11 140.232 183.451 140.596 184.647 141.324L194.545 147.351L220.057 135.843V109.065L220.056 109.064V104.229L220.057 104.229V86.1533C220.057 84.4354 218.659 83.0386 216.941 83.0386H210.489C210.24 82.3019 209.963 81.5728 209.658 80.8521C209.467 80.403 209.267 79.9595 209.057 79.5216H216.941C220.599 79.5216 223.573 82.4967 223.573 86.1532V107.547L223.573 107.547L230.314 113.907C232.039 115.329 233.026 117.421 233.026 119.659V168.582Z" fill="#3B4A51"/>
<path d="M180.769 143.75C180.061 143.75 179.352 143.942 178.72 144.327L133.656 171.767C134.306 172.24 135.106 172.521 135.969 172.521H225.57C226.433 172.521 227.233 172.24 227.883 171.767L182.818 144.327C182.187 143.942 181.478 143.75 180.769 143.75ZM139.414 170.558L179.741 146.003C180.053 145.813 180.409 145.712 180.769 145.712C181.13 145.712 181.485 145.813 181.798 146.003L222.125 170.558L139.414 170.558Z" fill="#3B4A51"/>
<path d="M132.031 135.438V168.582C132.031 168.602 132.032 168.621 132.033 168.641L163.356 149.568L132.031 135.438ZM133.993 138.475L159.158 149.827L133.993 165.15V138.475Z" fill="#3B4A51"/>
<path d="M137.968 112.383L137.967 112.383L133.545 116.555L133.493 116.597C132.564 117.349 132.031 118.465 132.031 119.66V131.58L137.968 134.258L137.968 112.383ZM136.006 131.22L133.993 130.312V119.66C133.993 119.06 134.261 118.5 134.727 118.122L134.778 118.082L134.837 118.034L134.892 117.982L136.006 116.931V131.22Z" fill="#3B4A51"/>
<path d="M229.507 168.641C229.507 168.621 229.508 168.602 229.508 168.582V135.438L198.184 149.568L229.507 168.641ZM227.546 165.15L202.381 149.827L227.546 138.475V165.15Z" fill="#3B4A51"/>
<path d="M228.049 116.597L227.996 116.555L227.948 116.509L223.574 112.383L223.574 112.383V134.258L229.511 131.58V119.66C229.511 118.465 228.978 117.349 228.049 116.597ZM227.548 130.312L225.536 131.22V116.932L226.601 117.936L226.603 117.938L226.605 117.94L226.654 117.986L226.707 118.036L226.764 118.082L226.816 118.124C227.281 118.5 227.548 119.06 227.548 119.66L227.548 130.312Z" fill="#3B4A51"/>
<path d="M161.458 98.4645L173.14 110.147L174.528 111.534L175.915 110.147L177.245 108.817L201.21 84.8518L202.598 83.4643L201.21 82.0769L195.142 76.0085L193.755 74.6211L192.367 76.0085C191.494 76.8816 178.821 89.5543 174.528 93.8478L172.413 91.7324L169.16 88.4801L167.773 87.0927L166.385 88.4801C166.302 88.5632 160.399 94.4661 160.317 94.5485L158.93 95.936L160.317 97.3233L161.458 98.4645ZM167.773 89.8675C168.301 90.3953 173.95 96.0444 174.528 96.6227C175.247 95.9034 192.724 78.4267 193.755 77.396C193.97 77.6117 199.823 83.4643 199.823 83.4643C198.584 84.7038 175.767 107.52 174.528 108.759C173.499 107.731 162.349 96.581 161.704 95.9359C161.787 95.8535 167.69 89.9507 167.773 89.8675Z" fill="#3B4A51"/>
</g>
<defs>
<clipPath id="clip0_6427_8808">
<rect width="360" height="221" fill="white"/>
</clipPath>
</defs>
</svg>
