<svg width="60" height="55" viewBox="0 0 60 55" fill="none" xmlns="http://www.w3.org/2000/svg">
<g clip-path="url(#clip0_6228_9360)">
<path d="M60 27.5018C60 30.2733 57.7375 32.5179 54.9437 32.5179H37.5L30 17.4695L38.0938 3.56204C39.4937 1.16249 42.5812 0.344033 45 1.72672C47.4188 3.11561 48.2437 6.17861 46.85 8.57816L38.7562 22.4857H54.9437C57.7375 22.4857 60 24.7302 60 27.5018Z" fill="#1A73E8"/>
<path d="M45.0001 53.2751C42.5813 54.6577 39.4938 53.8393 38.0938 51.4397L30.0001 37.5322L21.9063 51.4397C20.5063 53.8393 17.4188 54.6577 15.0001 53.2751C12.5813 51.8862 11.7563 48.8232 13.1501 46.4236L21.2438 32.5161L30.0001 32.1875L38.7563 32.5161L46.8501 46.4236C48.2438 48.8232 47.4188 51.8862 45.0001 53.2751Z" fill="#EA4335"/>
<path d="M30.0001 17.4695L27.7188 23.6203L21.2438 22.4856L13.1501 8.57816C11.7563 6.17861 12.5813 3.11561 15.0001 1.72672C17.4188 0.344033 20.5063 1.16249 21.9063 3.56204L30.0001 17.4695Z" fill="#FBBC04"/>
<path d="M28.6938 22.4844L22.825 32.5166H5.05625C2.2625 32.5166 0 30.2721 0 27.5005C0 24.7289 2.2625 22.4844 5.05625 22.4844H28.6938Z" fill="#34A853"/>
<path d="M38.7547 32.5171H21.2422L29.9984 17.4688L38.7547 32.5171Z" fill="#185DB7"/>
</g>
<defs>
<clipPath id="clip0_6228_9360">
<rect width="60" height="55" fill="white"/>
</clipPath>
</defs>
</svg>
