<svg width="225" height="57" viewBox="0 0 225 57" fill="none" xmlns="http://www.w3.org/2000/svg">
<g clip-path="url(#clip0_536_681)">
<path d="M50.2109 30.8715V31.8401C50.2109 44.498 39.824 53.5936 28.502 57.0003H28.4686C17.1132 53.126 6.79297 44.1642 6.79297 31.8401V30.8715L7.62793 30.404C9.83212 29.1349 12.1701 28.0326 14.5414 27.1309H42.4625C44.8338 28.0327 47.1718 29.1349 49.376 30.404L50.2109 30.8715Z" fill="#596C76"/>
<path d="M50.209 30.8715V31.8401C50.209 44.498 39.8221 53.5936 28.5 57.0003V27.1309H42.4605C44.8318 28.0327 47.1698 29.1349 49.374 30.404L50.209 30.8715Z" fill="#465A61"/>
<path d="M43.5312 18.4805V36.3151C39.9576 37.5509 34.8143 40.0557 28.502 40.0557C22.223 40.0557 17.6475 37.7513 13.4727 36.3151V18.4805H43.5312Z" fill="#F4F7F9"/>
<path d="M43.5293 18.4805V36.3151C39.9557 37.5509 34.8123 40.0557 28.5 40.0557V18.4805H43.5293Z" fill="#D3DADF"/>
<path d="M40.1914 18.4805H28.502H17.0735L13.4727 20.1504L16.8125 26.8301H26.1943L28.502 22.215L30.8096 26.8301H40.1914L43.5312 20.1504L40.1914 18.4805Z" fill="#465A61"/>
<path d="M40.1895 26.8301L43.5293 20.1504L40.1895 18.4805H28.5V22.215L30.8076 26.8301H40.1895Z" fill="#3B4A51"/>
<path d="M43.4957 18.1464H13.5039L17.111 0H39.8886L43.4957 18.1464Z" fill="#465A61"/>
<path d="M43.4959 18.1464H28.5V0H39.8888L43.4959 18.1464Z" fill="#3B4A51"/>
<path d="M50.2109 13.4707V20.1504H6.79297V13.4707H10.1328V16.8105H46.8711V13.4707H50.2109Z" fill="#596C76"/>
<path d="M50.209 13.4707V20.1504H28.5V16.8105H46.8691V13.4707H50.209Z" fill="#465A61"/>
</g>
<path d="M224.653 16.0625V21.2383H213.021V26.1719H224.353V31.2061H213.021V36.4619H224.834V41.6963H207.278C207.595 41.5157 207.894 41.3203 208.174 41.1055L208.178 41.1025C210.147 39.5741 211.072 37.3103 211.072 34.4961V34.1748C211.072 32.5034 210.76 31.0526 210.044 29.9062H210.045C209.398 28.8388 208.45 27.9925 207.252 27.3496L207.01 27.2236C206.968 27.2021 206.925 27.1816 206.883 27.1602V22.7539C207.468 22.9579 208.012 23.1808 208.516 23.4229L210.123 24.1953L209.944 22.4209L209.402 17.0459L209.346 16.4834L208.834 16.2412L208.443 16.0654C208.441 16.0644 208.439 16.0635 208.437 16.0625H224.653ZM206.989 28.3467C207.953 28.9009 208.686 29.5941 209.189 30.4248C209.778 31.3607 210.072 32.6107 210.072 34.1748V34.4961L210.062 34.9727C209.965 37.3165 209.132 39.0965 207.565 40.3125L207.241 40.5459C207.126 40.6239 207.006 40.6979 206.883 40.7705V28.2891L206.989 28.3467ZM206.883 16.542C207.441 16.7293 207.949 16.9304 208.407 17.1465L208.949 22.5215C208.314 22.2163 207.625 21.9423 206.883 21.6982V16.542Z" fill="white"/>
<path d="M200.203 15.5195C202.048 15.5195 203.639 15.6801 204.977 16.001C206.327 16.3219 207.47 16.7033 208.406 17.1445L208.948 22.5195C207.919 22.0248 206.748 21.6107 205.438 21.2764C204.141 20.9288 202.75 20.7549 201.266 20.7549C200.223 20.7549 199.4 20.8418 198.799 21.0156C198.21 21.1895 197.796 21.444 197.556 21.7783C197.315 22.0991 197.194 22.4931 197.194 22.9609V23.041C197.194 23.5223 197.328 23.9437 197.596 24.3047C197.877 24.6657 198.371 25.0134 199.08 25.3477C199.802 25.6819 200.825 26.0439 202.148 26.4316C203.927 26.9531 205.398 27.5145 206.562 28.1162C207.738 28.7045 208.614 29.4735 209.188 30.4229C209.777 31.3589 210.071 32.6093 210.071 34.1738V34.4941C210.071 37.0749 209.236 39.0145 207.564 40.3115C205.893 41.5952 203.352 42.2363 199.942 42.2363C198.752 42.2363 197.636 42.1565 196.593 41.9961C195.563 41.849 194.62 41.6547 193.765 41.4141C193.098 41.2131 192.495 41.0062 191.954 40.7969C192.111 40.6602 192.265 40.5187 192.411 40.3701C193.515 39.2495 194.287 37.8635 194.759 36.2422C196.2 36.6545 197.727 36.8613 199.341 36.8613C200.905 36.8613 202.015 36.667 202.67 36.2793C203.338 35.8781 203.673 35.2565 203.673 34.4141V34.2734C203.673 33.7122 203.519 33.2577 203.212 32.9102C202.918 32.5491 202.416 32.2209 201.707 31.9268C201.012 31.6192 200.069 31.292 198.879 30.9443C197.527 30.5408 196.343 30.1028 195.326 29.6309V16.2334C196.665 15.7576 198.291 15.5195 200.203 15.5195ZM190.996 34.8555C191.815 35.239 192.751 35.601 193.803 35.9443C193.37 37.4392 192.671 38.6814 191.698 39.6689L191.533 39.8311C191.512 39.8509 191.489 39.869 191.468 39.8887L190.996 34.8555ZM194.326 29.124C193.167 28.4746 192.297 27.6714 191.719 26.7119C191.13 25.7224 190.836 24.472 190.836 22.9609V22.7002C190.836 20.3736 191.625 18.5954 193.203 17.3652C193.543 17.1022 193.918 16.8689 194.326 16.6621V29.124Z" fill="white"/>
<path d="M179.083 31.9893C179.083 33.6471 179.438 34.9041 180.146 35.7598C180.869 36.602 182.005 37.0234 183.556 37.0234C185.12 37.0234 186.257 36.6022 186.966 35.7598C187.674 34.9041 188.028 33.6471 188.028 31.9893V16.0625H194.327V31.8682C194.327 35.2913 193.451 37.8924 191.699 39.6709C189.961 41.4359 187.246 42.3184 183.556 42.3184C179.892 42.3183 177.177 41.4359 175.412 39.6709C175.039 39.2925 174.709 38.8748 174.416 38.4219C175.566 36.5257 176.112 34.1726 176.112 31.4268V26.5527C176.112 22.9613 175.179 20.0284 173.191 17.8916L172.996 17.6875C172.927 17.6161 172.857 17.5454 172.785 17.4766V16.0625H179.083V31.9893ZM172.785 18.9482C174.335 20.8188 175.112 23.3522 175.112 26.5527V31.4268L175.101 32.0762C175.029 34.1534 174.609 35.9243 173.845 37.3926C173.139 35.8824 172.785 34.0411 172.785 31.8682V18.9482Z" fill="white"/>
<path d="M163.918 15.5C167.622 15.5 170.41 16.4631 172.282 18.3887C174.168 20.3008 175.11 23.0217 175.11 26.5518V31.4258C175.11 34.9424 174.175 37.6367 172.303 39.5088C170.431 41.3808 167.635 42.3174 163.918 42.3174C160.187 42.3173 157.386 41.3808 155.514 39.5088C155.416 39.4104 155.323 39.308 155.23 39.2051V18.7168C155.329 18.6051 155.43 18.4953 155.534 18.3887C157.42 16.4632 160.214 15.5001 163.918 15.5ZM154.23 37.8389C153.229 36.1437 152.727 34.007 152.727 31.4258V26.5518C152.727 23.9702 153.229 21.8227 154.23 20.1064V37.8389ZM163.918 20.6553C162.3 20.6553 161.096 21.136 160.308 22.0986C159.519 23.0613 159.124 24.4388 159.124 26.2305V31.7266C159.124 33.4379 159.519 34.7684 160.308 35.7178C161.096 36.6671 162.3 37.1425 163.918 37.1426C165.536 37.1426 166.739 36.6672 167.528 35.7178C168.317 34.7684 168.712 33.4381 168.712 31.7266V26.2305C168.712 24.4388 168.317 23.0613 167.528 22.0986C166.739 21.1361 165.536 20.6553 163.918 20.6553Z" fill="white"/>
<path d="M138.946 41.6962H132.668V16.0625H138.946V41.6962ZM154.23 41.6962H147.932V16.0625H154.23V41.6962ZM136.278 25.971H150.299V31.2061H136.278V25.971Z" fill="white"/>
<path d="M123.986 42.2368C122.836 42.2368 121.987 41.9427 121.439 41.3543C120.904 40.7659 120.637 39.9436 120.637 38.8872V38.6666C120.637 37.6236 120.904 36.8012 121.439 36.1995C121.987 35.5977 122.836 35.2969 123.986 35.2969C125.11 35.2969 125.945 35.5977 126.494 36.1995C127.042 36.8012 127.316 37.6236 127.316 38.6666V38.8872C127.316 39.9436 127.042 40.7659 126.494 41.3543C125.945 41.9427 125.11 42.2368 123.986 42.2368Z" fill="#3DC98A"/>
<path d="M112.393 23.7852L113.997 27.9775H114.318L115.902 23.7852L119.132 16.0625H125.69L117.246 34.3887V41.6963H111.068V34.3887L109.081 30.0977C109.539 28.9038 109.762 27.5476 109.762 26.0508V24.4268C109.762 21.726 109.039 19.4822 107.485 17.8262L107.163 17.5029C106.539 16.9072 105.8 16.4323 104.961 16.0625H109.144L112.393 23.7852ZM102.738 16.3955C104.309 16.7393 105.555 17.3489 106.476 18.2285L106.752 18.5068C108.092 19.9335 108.762 21.9071 108.762 24.4268V26.0508C108.762 27.0336 108.659 27.9334 108.457 28.75L102.738 16.3955Z" fill="#3DC98A"/>
<path d="M78.7742 42.2383C77.5841 42.2383 76.4675 42.1581 75.4245 41.9976C74.3949 41.8506 73.4522 41.6567 72.5964 41.416C71.754 41.1619 71.0118 40.9012 70.37 40.6337L69.8284 34.8571C70.8848 35.3519 72.1351 35.8132 73.5792 36.2411C75.0234 36.6556 76.5544 36.8629 78.1724 36.8629C79.7369 36.8629 80.8468 36.669 81.502 36.2812C82.1706 35.88 82.5049 35.2583 82.5049 34.4158V34.2754C82.5049 33.7138 82.3511 33.2592 82.0436 32.9115C81.7494 32.5505 81.2479 32.2229 80.5392 31.9287C79.8439 31.6211 78.9012 31.2935 77.7111 30.9459C75.9193 30.411 74.4216 29.8159 73.2182 29.1607C72.0281 28.5055 71.1389 27.6898 70.5505 26.7137C69.9621 25.7242 69.668 24.4739 69.668 22.9629V22.7021C69.668 20.3754 70.4569 18.597 72.0348 17.3668C73.626 16.1366 75.9594 15.5215 79.0349 15.5215C80.8802 15.5215 82.4715 15.6819 83.8086 16.0029C85.1592 16.3238 86.3025 16.7049 87.2385 17.1462L87.7801 22.5216C86.7504 22.0269 85.5804 21.6123 84.27 21.278C82.9729 20.9304 81.5822 20.7565 80.098 20.7565C79.055 20.7565 78.2326 20.8435 77.6309 21.0173C77.0425 21.1911 76.628 21.4452 76.3873 21.7795C76.1466 22.1004 76.0263 22.4949 76.0263 22.9629V23.0431C76.0263 23.5245 76.16 23.9457 76.4274 24.3068C76.7082 24.6678 77.203 25.0155 77.9117 25.3498C78.6338 25.6841 79.6567 26.0451 80.9805 26.4329C82.759 26.9544 84.2299 27.516 85.3932 28.1177C86.5699 28.7061 87.4458 29.475 88.0208 30.4244C88.6091 31.3604 88.9033 32.6106 88.9033 34.1751V34.4961C88.9033 37.0768 88.0676 39.0157 86.3961 40.3128C84.7246 41.5965 82.184 42.2383 78.7742 42.2383Z" fill="#3DC98A"/>
<path d="M99.3135 16.0625C102.576 16.0625 104.964 16.7844 106.475 18.2285C107.999 19.6727 108.761 21.739 108.761 24.4268V26.0518C108.761 28.7526 107.999 30.8254 106.475 32.2695C104.964 33.7003 102.583 34.415 99.334 34.415H94.7207V41.6963H88.543V39.4727C89.4624 38.116 89.9033 36.4373 89.9033 34.4961V34.1748C89.9033 32.5033 89.5919 31.0526 88.876 29.9062C88.7729 29.736 88.6612 29.5721 88.543 29.4131V23.9971L88.9541 24.1953L88.543 20.1152V16.0625H99.3135ZM88.543 31.5635C88.7828 32.3059 88.9033 33.1762 88.9033 34.1748V34.4961L88.8936 34.9727C88.8606 35.7613 88.7422 36.4855 88.543 37.1465V31.5635ZM94.6807 29.3408H98.832C100.142 29.3408 101.085 29.0534 101.66 28.4785C102.249 27.8902 102.543 27.0139 102.543 25.8506V24.6074C102.543 23.4307 102.256 22.5545 101.681 21.9795C101.106 21.4045 100.163 21.1172 98.8525 21.1172H94.6807V29.3408Z" fill="#3DC98A"/>
<defs>
<clipPath id="clip0_536_681">
<rect width="57" height="57" fill="white"/>
</clipPath>
</defs>
</svg>
