<svg width="149" height="105" viewBox="0 0 149 105" fill="none" xmlns="http://www.w3.org/2000/svg">
<g clip-path="url(#clip0_6426_8490)">
<path d="M97.5664 29.2469V30.1646C97.5664 42.1562 87.7262 50.773 77 54.0005H76.9684C66.2107 50.3301 56.4336 41.8399 56.4336 30.1646V29.2469L57.2246 28.804C59.3128 27.6017 61.5277 26.5574 63.7742 25.7031H90.2258C92.4723 26.5575 94.6872 27.6017 96.7754 28.804L97.5664 29.2469Z" fill="#596C76"/>
<path d="M97.5664 29.2469V30.1646C97.5664 42.1562 87.7262 50.773 77 54.0005V25.7031H90.2258C92.4723 26.5575 94.6872 27.6017 96.7754 28.804L97.5664 29.2469Z" fill="#465A61"/>
<path d="M91.2383 17.5078V34.4038C87.8527 35.5745 82.9801 37.9476 77 37.9476C71.0516 37.9476 66.7168 35.7643 62.7617 34.4038V17.5078H91.2383Z" fill="#F4F7F9"/>
<path d="M91.2383 17.5078V34.4038C87.8527 35.5745 82.9801 37.9476 77 37.9476V17.5078H91.2383Z" fill="#D3DADF"/>
<path d="M88.0742 17.5078H77H66.173L62.7617 19.0898L65.9258 25.418H74.8138L77 21.0458L79.1862 25.418H88.0742L91.2383 19.0898L88.0742 17.5078Z" fill="#465A61"/>
<path d="M88.0742 25.418L91.2383 19.0898L88.0742 17.5078H77V21.0458L79.1862 25.418H88.0742Z" fill="#3B4A51"/>
<path d="M91.2062 17.1913H62.793L66.2103 0H87.789L91.2062 17.1913Z" fill="#465A61"/>
<path d="M91.2066 17.1913H77V0H87.7893L91.2066 17.1913Z" fill="#3B4A51"/>
<path d="M97.5664 12.7617V19.0898H56.4336V12.7617H59.5977V15.9258H94.4023V12.7617H97.5664Z" fill="#596C76"/>
<path d="M97.5664 12.7617V19.0898H77V15.9258H94.4023V12.7617H97.5664Z" fill="#465A61"/>
</g>
<path d="M131.992 102.503V78.2188H137.807V102.503H131.992ZM133.721 102.503V97.5438H148.999V102.503H133.721ZM135.394 92.5653V87.7958H148.543V92.5653H135.394ZM133.702 83.1213V78.2188H148.828V83.1213H133.702Z" fill="white"/>
<path d="M125.663 76.9531C127.451 76.9531 129.021 77.1082 130.36 77.4297L130.359 77.4307C131.509 77.7038 132.522 78.0244 133.391 78.3994L133.755 78.5635L134.139 78.7451L134.181 79.167L134.694 84.2598L134.828 85.5898L133.623 85.0107C132.7 84.5671 131.639 84.1904 130.438 83.8838L130.429 83.8809C129.27 83.5701 128.017 83.4131 126.67 83.4131C125.714 83.4131 125.016 83.492 124.544 83.6279L124.545 83.6289C124.073 83.7685 123.857 83.9406 123.764 84.0703L123.759 84.0762L123.755 84.082C123.64 84.2354 123.562 84.4438 123.562 84.7529V84.8291C123.563 85.1314 123.642 85.3682 123.788 85.5693C123.949 85.7737 124.292 86.0403 124.919 86.3359C125.553 86.6291 126.48 86.958 127.717 87.3203L128.347 87.5107C129.782 87.9591 131.01 88.4434 132.021 88.9658H132.022C133.236 89.5726 134.18 90.3866 134.811 91.4229L134.93 91.6221C135.504 92.6369 135.762 93.9054 135.762 95.375V95.6787C135.762 98.2987 134.904 100.38 133.097 101.782L133.094 101.784C131.32 103.146 128.717 103.764 125.416 103.764C124.255 103.764 123.159 103.686 122.129 103.527V103.526C121.129 103.383 120.206 103.195 119.36 102.957L119.347 102.953C118.53 102.707 117.803 102.451 117.166 102.186L116.749 102.013L116.707 101.563L116.194 96.0908L116.072 94.7861L117.259 95.3418C118.216 95.7901 119.362 96.2143 120.701 96.6113L121.191 96.7422C122.344 97.0273 123.561 97.1709 124.846 97.1709C126.308 97.1709 127.183 96.9824 127.618 96.7246C128.002 96.493 128.2 96.1616 128.2 95.6035V95.4697C128.2 95.0806 128.097 94.8396 127.951 94.6748L127.932 94.6514C127.766 94.4487 127.423 94.1977 126.801 93.9395L126.793 93.9365L126.785 93.9326C126.169 93.6603 125.311 93.3602 124.198 93.0352L124.194 93.0342C122.464 92.5176 120.993 91.936 119.794 91.2832L119.791 91.2812C118.647 90.6512 117.741 89.8578 117.106 88.8896L116.982 88.6934L116.98 88.6895C116.336 87.6052 116.039 86.2782 116.039 84.7529V84.5059C116.039 82.1129 116.862 80.1912 118.57 78.8594L118.572 78.8584L118.898 78.6211C120.568 77.4777 122.854 76.9531 125.663 76.9531Z" fill="white" stroke="#243034" stroke-width="1.5"/>
<path d="M106.408 77.4688V93.3066C106.408 94.7819 106.725 95.7714 107.239 96.3955C107.731 96.9661 108.558 97.3262 109.896 97.3262C111.253 97.3262 112.075 96.962 112.552 96.3955C113.066 95.7714 113.383 94.7819 113.383 93.3066V77.4688H120.85V93.1924C120.85 96.3473 120.091 98.9017 118.479 100.75L118.145 101.11C116.3 102.983 113.495 103.843 109.896 103.843C106.318 103.843 103.517 102.981 101.65 101.114L101.646 101.11C99.804 99.2398 98.9414 96.5577 98.9414 93.1924V77.4688H106.408Z" fill="white" stroke="#243034" stroke-width="1.5"/>
<path d="M91.291 76.9336C94.9214 76.9337 97.7867 77.8787 99.748 79.8936L99.9297 80.082C101.77 82.0598 102.643 84.7849 102.644 88.1533V92.7715C102.644 96.1261 101.776 98.8298 99.9443 100.773L99.7637 100.959C97.8009 102.922 94.93 103.839 91.291 103.839C87.6401 103.839 84.7622 102.922 82.7988 100.959L82.7969 100.957C80.855 99.0012 79.9375 96.2329 79.9375 92.7715V88.1533C79.9376 84.6779 80.8616 81.8874 82.8115 79.8955L83 79.709C84.9661 77.8214 87.7715 76.9336 91.291 76.9336ZM91.291 83.3174C89.9966 83.3174 89.1291 83.673 88.5605 84.2852L88.4502 84.4102C87.852 85.1401 87.499 86.2511 87.499 87.8496V93.0566C87.4991 94.57 87.8483 95.6376 88.4473 96.3584L88.5566 96.4824C89.1244 97.085 89.9935 97.4365 91.291 97.4365C92.6747 97.4365 93.5704 97.0362 94.1338 96.3584L94.2432 96.2188C94.775 95.502 95.082 94.4754 95.082 93.0566V87.8496C95.082 86.3509 94.772 85.2811 94.2402 84.5518L94.1309 84.4102C93.5663 83.7214 92.6713 83.3175 91.291 83.3174Z" fill="white" stroke="#243034" stroke-width="1.5"/>
<path d="M68.3809 77.4688V86.8555H75.3945V77.4688H82.8604V103.253H75.3945V93.3154H68.3809V103.253H60.9336V77.4688H68.3809Z" fill="white" stroke="#243034" stroke-width="1.5"/>
<path d="M53.4585 103.012C52.369 103.012 51.5646 102.734 51.0452 102.176C50.5385 101.619 50.2852 100.84 50.2852 99.8389V99.6298C50.2852 98.6417 50.5385 97.8627 51.0452 97.2926C51.5646 96.7225 52.369 96.4375 53.4585 96.4375C54.5226 96.4375 55.3144 96.7225 55.8338 97.2926C56.3531 97.8627 56.6128 98.6417 56.6128 99.6298V99.8389C56.6128 100.84 56.3531 101.619 55.8338 102.176C55.3144 102.734 54.5226 103.012 53.4585 103.012Z" fill="#3DC98A"/>
<path d="M41.4875 96.1567L33.1836 78.2188H39.3973L42.4756 85.5345L43.9957 89.506H44.2998L45.8009 85.5345L48.8603 78.2188H55.0739L46.808 96.1567H41.4875ZM41.2215 102.503V90.8171H47.0741V102.503H41.2215Z" fill="#3DC98A"/>
<path d="M30.0869 77.4688C33.2649 77.4688 35.7549 78.1685 37.3867 79.7266L37.6826 80.0234C39.1124 81.5471 39.7871 83.6194 39.7871 86.1426V87.6816C39.7871 90.2154 39.1129 92.2943 37.6826 93.8193L37.3867 94.1172C35.7554 95.6619 33.2718 96.3555 30.1055 96.3555H26.4854V103.253H19.1328V77.4688H30.0869ZM26.4473 90.0479H29.6309C30.7901 90.0479 31.4415 89.789 31.7803 89.4502C32.1485 89.0816 32.3964 88.4751 32.3965 87.4922V86.3135C32.3965 85.3086 32.1504 84.7061 31.7988 84.3545C31.46 84.0157 30.8086 83.7568 29.6494 83.7568H26.4473V90.0479Z" fill="#3DC98A" stroke="#243034" stroke-width="1.5"/>
<path d="M10.874 76.9531C12.6624 76.9531 14.2315 77.1082 15.5713 77.4297L15.5703 77.4307C16.7196 77.7038 17.7325 78.0244 18.6016 78.3994L18.9658 78.5635L19.3496 78.7451L19.3916 79.167L19.9053 84.2598L20.0391 85.5898L18.834 85.0107C17.9106 84.5671 16.8502 84.1904 15.6484 83.8838L15.6396 83.8809C14.4804 83.5701 13.2283 83.4131 11.8809 83.4131C10.9254 83.4131 10.2272 83.492 9.75488 83.6279L9.75586 83.6289C9.2836 83.7685 9.068 83.9406 8.97461 84.0703L8.96973 84.0762L8.96582 84.082C8.85079 84.2354 8.77344 84.4438 8.77344 84.7529V84.8291C8.77348 85.1314 8.85314 85.3682 8.99902 85.5693C9.15971 85.7737 9.50313 86.0403 10.1299 86.3359C10.7643 86.6291 11.6909 86.958 12.9277 87.3203L13.5576 87.5107C14.9932 87.9591 16.2206 88.4434 17.2324 88.9658H17.2334C18.4467 89.5726 19.3908 90.3866 20.0215 91.4229L20.1406 91.6221C20.7148 92.6369 20.9727 93.9054 20.9727 95.375V95.6787C20.9727 98.2987 20.1147 100.38 18.3076 101.782L18.3047 101.784C16.5311 103.146 13.9281 103.764 10.627 103.764C9.46619 103.764 8.37 103.686 7.33984 103.527V103.526C6.34005 103.383 5.41647 103.195 4.57129 102.957L4.55762 102.953C3.74127 102.707 3.01369 102.451 2.37695 102.186L1.95996 102.013L1.91797 101.563L1.40527 96.0908L1.2832 94.7861L2.46973 95.3418L2.83887 95.5088C3.71751 95.8956 4.74063 96.264 5.91211 96.6113L6.40234 96.7422C7.55471 97.0273 8.77209 97.1709 10.0566 97.1709C11.5188 97.1709 12.3935 96.9824 12.8291 96.7246C13.2128 96.493 13.411 96.1616 13.4111 95.6035V95.4697C13.4111 95.0806 13.3079 94.8396 13.1621 94.6748L13.1426 94.6514C12.9773 94.4487 12.6339 94.1977 12.0117 93.9395L12.0039 93.9365L11.9961 93.9326C11.3804 93.6603 10.522 93.3602 9.40918 93.0352L9.40527 93.0342C7.67459 92.5176 6.20393 91.936 5.00488 91.2832L5.00195 91.2812C3.78112 90.6091 2.83094 89.7512 2.19336 88.6934L2.19141 88.6895C1.54676 87.6052 1.25001 86.2782 1.25 84.7529V84.5059C1.25 82.1129 2.0731 80.1912 3.78125 78.8594L3.7832 78.8584L4.10938 78.6211C5.77852 77.4777 8.06487 76.9531 10.874 76.9531Z" fill="#3DC98A" stroke="#243034" stroke-width="1.5"/>
<defs>
<clipPath id="clip0_6426_8490">
<rect width="54" height="54" fill="white" transform="translate(50)"/>
</clipPath>
</defs>
</svg>
