<svg width="241" height="126" viewBox="0 0 241 126" fill="none" xmlns="http://www.w3.org/2000/svg">
<path fill-rule="evenodd" clip-rule="evenodd" d="M230.889 4.88672C236.468 4.88672 240.99 9.40925 240.99 14.9881C240.99 20.5669 236.468 25.0895 230.889 25.0895H173.167C178.745 25.0895 183.268 29.612 183.268 35.1909C183.268 40.7697 178.745 45.2922 173.167 45.2922H204.914C210.493 45.2922 215.015 49.8148 215.015 55.3936C215.015 60.9725 210.493 65.495 204.914 65.495H190.232C183.198 65.495 177.496 70.0175 177.496 75.5964C177.496 79.3159 180.382 82.6825 186.154 85.6978C191.733 85.6978 196.255 90.2203 196.255 95.7991C196.255 101.378 191.733 105.901 186.154 105.901H66.3805C60.8017 105.901 56.2791 101.378 56.2791 95.7991C56.2791 90.2203 60.8017 85.6978 66.3805 85.6978H10.1014C4.52253 85.6978 0 81.1752 0 75.5964C0 70.0175 4.52253 65.495 10.1014 65.495H67.8236C73.4024 65.495 77.9249 60.9725 77.9249 55.3936C77.9249 49.8148 73.4024 45.2922 67.8236 45.2922H31.7472C26.1683 45.2922 21.6458 40.7697 21.6458 35.1909C21.6458 29.612 26.1683 25.0895 31.7472 25.0895H89.4694C83.8905 25.0895 79.368 20.5669 79.368 14.9881C79.368 9.40925 83.8905 4.88672 89.4694 4.88672H230.889ZM230.889 45.2922C236.468 45.2922 240.99 49.8148 240.99 55.3936C240.99 60.9725 236.468 65.495 230.889 65.495C225.31 65.495 220.787 60.9725 220.787 55.3936C220.787 49.8148 225.31 45.2922 230.889 45.2922Z" fill="#F2F6F8"/>
<path d="M106.065 98.6846C132.764 98.6846 154.407 77.041 154.407 50.3423C154.407 23.6437 132.764 2 106.065 2C79.3663 2 57.7227 23.6437 57.7227 50.3423C57.7227 77.041 79.3663 98.6846 106.065 98.6846Z" fill="white" stroke="#3B4A51" stroke-width="3.60764"/>
<path fill-rule="evenodd" clip-rule="evenodd" d="M98.3179 87.8533C100.856 88.3215 103.438 88.5647 106.064 88.5834C127.184 88.5834 144.305 71.4623 144.305 50.3425C144.305 29.2227 127.184 12.1016 106.064 12.1016C100.639 12.1016 95.4772 13.2315 90.8024 15.2684C82.678 18.8089 76.0219 25.0891 72.0023 32.9422C69.3305 38.1617 67.8232 44.076 67.8232 50.3425C67.8232 56.0281 69.0643 61.4237 71.2894 66.2738C72.8783 69.7364 74.9692 72.9213 77.4693 75.7338" fill="white"/>
<path d="M98.3179 87.8533C100.856 88.3215 103.438 88.5647 106.064 88.5834C127.184 88.5834 144.305 71.4623 144.305 50.3425C144.305 29.2227 127.184 12.1016 106.064 12.1016C100.639 12.1016 95.4772 13.2315 90.8024 15.2684C82.678 18.8089 76.0219 25.0891 72.0023 32.9422C69.3305 38.1617 67.8232 44.076 67.8232 50.3425C67.8232 56.0281 69.0643 61.4237 71.2894 66.2738C72.8783 69.7364 74.9692 72.9213 77.4693 75.7338" stroke="#3B4A51" stroke-width="3.60764" stroke-linecap="round"/>
<path d="M81.9619 80.0312C85.0616 82.5508 88.5639 84.5949 92.357 86.0517" stroke="#3B4A51" stroke-width="3.60764" stroke-linecap="round"/>
<path d="M145.748 88.584L154.406 97.2423" stroke="#3DC98A" stroke-width="3.60764"/>
<path fill-rule="evenodd" clip-rule="evenodd" d="M153.008 95.8417C150.276 98.5727 150.276 103.001 153.008 105.732L169.004 121.729C171.736 124.46 176.164 124.46 178.895 121.729C181.626 118.998 181.626 114.57 178.895 111.838L162.898 95.8417C160.167 93.11 155.739 93.11 153.008 95.8417Z" fill="#E6EAEC" stroke="#3DC98A" stroke-width="3.60764"/>
<path d="M160.179 98.6855L176.052 114.559" stroke="white" stroke-width="3.60764" stroke-linecap="round"/>
<path fill-rule="evenodd" clip-rule="evenodd" d="M96.6847 33.7474C96.6847 50.4839 110.252 64.0515 126.989 64.0515C130.277 64.0515 133.442 63.5277 136.406 62.5594C131.568 74.5671 119.806 83.0429 106.065 83.0429C88.0048 83.0429 73.3643 68.4023 73.3643 50.3425C73.3643 33.9776 85.3849 20.4208 101.079 18.0195C98.2909 22.6063 96.6847 27.9889 96.6847 33.7474Z" fill="#E6EAEC"/>
<path d="M106.786 23.6465C104.948 23.6465 103.153 23.8276 101.417 24.1718M96.1718 25.7764C86.3006 29.9252 79.3682 39.6853 79.3682 51.0645" stroke="#3B4A51" stroke-width="3.60764" stroke-linecap="round"/>
<path d="M183.522 50.7429H171.724M192.648 39.5195H167.862M202.75 39.5195H199.545" stroke="#3DC98A" stroke-width="3.60764" stroke-linecap="round" stroke-linejoin="round"/>
<path d="M53.6463 82.4906H41.8479M46.8986 69.8242H22.1127M13.7083 69.8242H7.61719" stroke="#3DC98A" stroke-width="3.60764" stroke-linecap="round" stroke-linejoin="round"/>
</svg>
