<svg width="29" height="23" viewBox="0 0 29 23" fill="none" xmlns="http://www.w3.org/2000/svg">
<path fill-rule="evenodd" clip-rule="evenodd" d="M28 18V6C28 3.24 25.76 1 23 1H5C2.24 1 0 3.24 0 6V18C0 20.76 2.24 23 5 23H23C25.76 23 28 20.76 28 18ZM26 7.05005V18C26 19.66 24.66 21 23 21H5C3.34 21 2 19.66 2 18V7.05005L11.1899 13.3C12.8899 14.45 15.1101 14.45 16.8101 13.3L26 7.05005ZM25.75 4.80005C25.29 3.74005 24.23 3 23 3H5C3.77 3 2.71 3.74005 2.25 4.80005L12.3101 11.64C13.3301 12.34 14.6699 12.34 15.6899 11.64L25.75 4.80005Z" fill="#3B4A51"/>
<circle cx="25.5" cy="3.5" r="3.5" fill="#1EDE8F"/>
</svg>
