<svg width="160" height="65" viewBox="0 0 160 65" fill="none" xmlns="http://www.w3.org/2000/svg">
<path d="M11.6714 34.0613L9.04042 35.7502C8.68528 35.7919 8.31116 35.8237 7.9305 35.8503C5.31329 36.0216 3.18077 35.7334 3.16276 35.1989C3.14476 34.6643 5.24865 34.0966 7.86586 33.9253C9.1352 33.8166 10.413 33.8622 11.6714 34.0613Z" fill="#F9AA4B"/>
<path d="M11.8152 34.2847L9.1842 35.9736C9.15028 35.9955 9.11181 36.0094 9.07172 36.0142C8.74619 36.0524 8.3789 36.0856 7.94948 36.1153C5.96415 36.2452 3.69156 36.1312 3.08646 35.5834C3.03084 35.5372 2.98534 35.48 2.95283 35.4154C2.92031 35.3508 2.90147 35.2801 2.89749 35.2079C2.85467 34.0009 7.64497 33.6736 7.84893 33.6604C9.14172 33.5495 10.4432 33.5966 11.7246 33.8009C11.7765 33.8114 11.8241 33.8371 11.8613 33.8749C11.8985 33.9126 11.9235 33.9606 11.9332 34.0127C11.9429 34.0648 11.9368 34.1186 11.9156 34.1672C11.8945 34.2157 11.8593 34.2569 11.8147 34.2853L11.8152 34.2847ZM8.94908 35.4932L10.934 34.219C9.92019 34.1253 8.90034 34.1154 7.88485 34.1894C5.18872 34.3656 3.61662 34.9111 3.43832 35.1865C3.64717 35.4312 5.25242 35.758 7.91454 35.5844C8.30714 35.5578 8.6469 35.5275 8.94908 35.4932Z" fill="#242945"/>
<path d="M15.4846 31.2391L15.6553 31.5051L12.7986 33.3389L12.6278 33.0729C12.3847 32.6941 12.3019 32.2342 12.3979 31.7943C12.4938 31.3545 12.7605 30.9708 13.1393 30.7276C13.5181 30.4844 13.9781 30.4017 14.4179 30.4976C14.8577 30.5935 15.2414 30.8603 15.4846 31.2391Z" fill="#FFB449"/>
<path d="M16.0222 31.5851L12.7184 33.7059L12.4042 33.2164C12.1229 32.7782 12.0272 32.2464 12.1382 31.7377C12.2491 31.229 12.5575 30.7853 12.9957 30.5041C13.4338 30.2228 13.9657 30.1271 14.4743 30.2381C14.983 30.349 15.4267 30.6574 15.708 31.0956L16.0222 31.5851ZM12.8785 32.9718L15.2882 31.425L15.2609 31.3825C15.0558 31.063 14.7321 30.838 14.3611 30.7571C13.9901 30.6762 13.6022 30.746 13.2826 30.9511C12.9631 31.1562 12.7381 31.4799 12.6572 31.8509C12.5763 32.2219 12.6461 32.6098 12.8512 32.9294L12.8785 32.9718Z" fill="#242945"/>
<path d="M21.3592 23.5172C20.8822 23.2805 19.4863 24.9561 18.2409 27.2644C17.6125 28.3727 17.1219 29.5537 16.78 30.781L15.6534 31.5042L15.4826 31.2382C15.3627 31.0501 15.2067 30.8878 15.0236 30.7604C14.8405 30.633 14.634 30.5432 14.4161 30.4961C14.4161 30.4961 13.8328 24.3999 17.472 21.5871C17.472 21.5871 19.9282 21.4403 21.3592 23.5172Z" fill="#F7CF6D"/>
<path d="M16.9232 31.0043L15.7966 31.7275C15.7373 31.7656 15.6654 31.7785 15.5965 31.7635C15.5277 31.7485 15.4677 31.7068 15.4296 31.6475L15.2588 31.3815C15.1577 31.2228 15.0261 31.0858 14.8716 30.9784C14.7171 30.871 14.5429 30.7952 14.359 30.7556C14.3041 30.7435 14.2544 30.7144 14.2171 30.6723C14.1798 30.6302 14.1568 30.5773 14.1515 30.5214C14.07 29.3628 14.1256 28.1987 14.3171 27.0531C14.7324 24.5316 15.7669 22.5677 17.3094 21.3768C17.3518 21.3444 17.4029 21.3252 17.4562 21.3217C17.5629 21.3163 20.0789 21.1911 21.5777 23.3661C21.6105 23.4137 21.6269 23.4706 21.6245 23.5284C21.622 23.5861 21.6007 23.6414 21.5639 23.686C21.5271 23.7306 21.4768 23.7619 21.4206 23.7753C21.3644 23.7887 21.3054 23.7834 21.2525 23.7602C20.954 23.7624 19.783 24.9652 18.4746 27.3902C17.8593 28.4789 17.3774 29.6377 17.0391 30.8416C17.0231 30.9088 16.9816 30.9672 16.9232 31.0043ZM15.7332 31.137L16.5464 30.615C16.8975 29.4034 17.3877 28.2365 18.0073 27.1378C18.0889 26.9866 19.7241 23.9702 20.8921 23.3429C19.6971 21.9336 17.9552 21.8508 17.5666 21.8502C14.5014 24.2935 14.6112 29.2775 14.6678 30.2897C15.0965 30.4298 15.4634 30.7142 15.7059 31.0945L15.7332 31.137Z" fill="#242945"/>
<path d="M19.969 28.1226C19.7863 28.4577 19.5994 28.786 19.4136 29.0915L16.7826 30.7804C17.1245 29.5531 17.6151 28.3721 18.2435 27.2638C19.4889 24.9555 20.8848 23.2799 21.3618 23.5166C21.8389 23.7532 21.2122 25.8158 19.969 28.1226Z" fill="#F9AA4B"/>
<path d="M19.5574 29.3166L16.9264 31.0054C16.882 31.0341 16.83 31.0488 16.7772 31.0478C16.7243 31.0467 16.673 31.0299 16.6297 30.9995C16.5865 30.9691 16.5533 30.9265 16.5344 30.8771C16.5155 30.8277 16.5118 30.7738 16.5237 30.7223C16.871 29.4714 17.3705 28.2678 18.011 27.1386C18.1076 26.9592 20.3969 22.7422 21.4806 23.2798C21.5448 23.3134 21.6013 23.36 21.6465 23.4166C21.6918 23.4732 21.7248 23.5385 21.7434 23.6085C21.9882 24.3867 21.1466 26.5004 20.2037 28.2499C20.0082 28.6086 19.8194 28.9385 19.6423 29.2295C19.6211 29.2647 19.5921 29.2945 19.5574 29.3166ZM17.2327 30.1776L19.2188 28.9026C19.382 28.6318 19.5559 28.3273 19.7359 27.9975C20.9995 25.6526 21.3707 24.0571 21.2367 23.7627C20.9107 23.811 19.7612 25.012 18.4774 27.3912C17.9864 28.2841 17.5701 29.2161 17.2327 30.1776Z" fill="#242945"/>
<path d="M12.398 31.7929C12.35 32.0107 12.3457 32.2358 12.3853 32.4553C12.4249 32.6748 12.5076 32.8843 12.6286 33.0716L12.7993 33.3376L11.6727 34.0608C10.4144 33.8618 9.13653 33.8161 7.86719 33.9249C5.24998 34.0961 3.14529 34.6675 3.16409 35.1984C1.86942 33.034 3.02555 30.862 3.02555 30.862C7.09816 28.7243 12.398 31.7929 12.398 31.7929Z" fill="#F7CF6D"/>
<path d="M12.9429 33.5608L11.8163 34.284C11.7581 34.3217 11.6874 34.3351 11.6194 34.3214C10.384 34.1287 9.1299 34.0846 7.88399 34.19C5.11844 34.3706 3.53559 34.9407 3.42708 35.2073C3.42938 35.2648 3.41196 35.3214 3.37771 35.3677C3.34346 35.4139 3.29444 35.4471 3.23876 35.4617C3.18133 35.4768 3.12051 35.4725 3.06577 35.4495C3.01103 35.4265 2.96543 35.386 2.93607 35.3344C1.58018 33.0673 2.74111 30.8309 2.791 30.7371C2.81624 30.69 2.85496 30.6515 2.90218 30.6265C4.62782 29.7208 6.84345 29.5971 9.30928 30.2698C10.4305 30.5727 11.5121 31.0068 12.5315 31.5633C12.5802 31.5915 12.6187 31.6343 12.6414 31.6858C12.6642 31.7372 12.67 31.7945 12.6581 31.8495C12.6176 32.0331 12.6139 32.223 12.6472 32.408C12.6805 32.5931 12.7502 32.7698 12.8522 32.9278L13.023 33.1938C13.061 33.2531 13.074 33.325 13.059 33.3939C13.044 33.4627 13.0022 33.5227 12.9429 33.5608ZM11.619 33.7794L12.4324 33.2572L12.4052 33.2147C12.1604 32.8359 12.0545 32.3839 12.1056 31.9358C11.2089 31.4629 6.72437 29.2872 3.22622 31.0571C3.06433 31.4107 2.41521 33.0296 3.20007 34.7012C4.25174 33.9056 7.67805 33.671 7.84993 33.6595C9.10672 33.5547 10.3714 33.5949 11.619 33.7794Z" fill="#242945"/>
<path d="M37.4183 42.6641V60.6177C37.4186 60.8646 37.3208 61.1015 37.1465 61.2763C36.9721 61.4511 36.7355 61.5496 36.4886 61.55H9.51172C9.26482 61.5496 9.02819 61.4511 8.85386 61.2763C8.67952 61.1015 8.58175 60.8646 8.58203 60.6177V42.6641H37.4183Z" fill="#3DC98A"/>
<path d="M36.4886 61.8156H9.51172C9.19446 61.8149 8.89043 61.6884 8.66634 61.4638C8.44225 61.2392 8.31641 60.9349 8.31641 60.6177V42.6641C8.31641 42.5936 8.34439 42.5261 8.39421 42.4762C8.44402 42.4264 8.51158 42.3984 8.58203 42.3984H37.4183C37.4887 42.3984 37.5563 42.4264 37.6061 42.4762C37.6559 42.5261 37.6839 42.5936 37.6839 42.6641V60.6177C37.6839 60.9349 37.5581 61.2392 37.334 61.4638C37.1099 61.6884 36.8059 61.8149 36.4886 61.8156ZM8.84766 42.9297V60.6177C8.84751 60.7941 8.91735 60.9633 9.04184 61.0883C9.16633 61.2133 9.33531 61.2838 9.51172 61.2844H36.4886C36.665 61.2838 36.834 61.2133 36.9585 61.0883C37.083 60.9633 37.1528 60.7941 37.1527 60.6177V42.9297H8.84766Z" fill="#242945"/>
<path d="M21.1797 42.6621H24.8187V61.5478H21.1797V42.6621Z" fill="#F7CF6D"/>
<path d="M24.8187 61.8137H21.1797C21.1092 61.8137 21.0417 61.7857 20.9919 61.7359C20.942 61.6861 20.9141 61.6185 20.9141 61.548V42.6621C20.9141 42.5917 20.942 42.5241 20.9919 42.4743C21.0417 42.4245 21.1092 42.3965 21.1797 42.3965H24.8187C24.8892 42.3965 24.9568 42.4245 25.0066 42.4743C25.0564 42.5241 25.0844 42.5917 25.0844 42.6621V61.548C25.0844 61.6185 25.0564 61.6861 25.0066 61.7359C24.9568 61.7857 24.8892 61.8137 24.8187 61.8137ZM21.4453 61.2824H24.5531V42.9277H21.4453V61.2824Z" fill="#242945"/>
<path d="M28.3364 23.9166L30.4543 27.216C30.5207 27.3198 30.5433 27.4457 30.5171 27.5661C30.4908 27.6865 30.4179 27.7916 30.3142 27.8583L3.37852 45.149C3.27473 45.2154 3.14882 45.238 3.02841 45.2117C2.908 45.1855 2.80292 45.1125 2.73623 45.0089L0.618299 41.7095C0.585184 41.6582 0.562534 41.6008 0.551651 41.5407C0.540768 41.4806 0.541865 41.419 0.55488 41.3593C0.567896 41.2996 0.592573 41.2431 0.627494 41.193C0.662415 41.1429 0.706892 41.1001 0.758371 41.0672L27.6941 23.7765C27.7454 23.7434 27.8028 23.7208 27.8629 23.7099C27.923 23.699 27.9846 23.7001 28.0443 23.7131C28.104 23.7261 28.1605 23.7508 28.2106 23.7857C28.2608 23.8207 28.3035 23.8651 28.3364 23.9166Z" fill="#3DC98A"/>
<path d="M30.4575 28.0818L3.52185 45.3725C3.35876 45.4769 3.16089 45.5124 2.97167 45.4711C2.78245 45.4298 2.61733 45.3152 2.51253 45.1523L0.394601 41.853C0.290159 41.6899 0.254678 41.492 0.295943 41.3028C0.337209 41.1136 0.451851 40.9485 0.614715 40.8437L27.5504 23.553C27.7135 23.4485 27.9114 23.4131 28.1006 23.4543C28.2898 23.4956 28.4549 23.6102 28.5597 23.7731L30.6777 27.0724C30.7821 27.2355 30.8176 27.4334 30.7763 27.6226C30.735 27.8118 30.6204 27.977 30.4575 28.0818ZM0.901698 41.2907C0.879489 41.3047 0.860287 41.323 0.845213 41.3444C0.83014 41.3659 0.819497 41.3902 0.813907 41.4158C0.808318 41.4414 0.807894 41.4679 0.81266 41.4937C0.817426 41.5195 0.827288 41.5441 0.841667 41.566L2.9596 44.8654C2.98814 44.9098 3.03318 44.9411 3.0848 44.9524C3.13642 44.9636 3.1904 44.9539 3.23487 44.9254L30.1706 27.6347C30.215 27.6061 30.2462 27.5611 30.2575 27.5095C30.2687 27.4579 30.2591 27.4039 30.2306 27.3594L28.1127 24.0601C28.0987 24.0378 28.0805 24.0186 28.059 24.0035C28.0376 23.9884 28.0133 23.9778 27.9877 23.9722C27.962 23.9666 27.9355 23.9662 27.9097 23.971C27.8839 23.9757 27.8593 23.9856 27.8374 24L0.901698 41.2907Z" fill="#242945"/>
<path d="M11.3594 34.2617L17.0934 30.5809L19.7134 34.6624L13.9794 38.3432L11.3594 34.2617Z" fill="#F7CF6D"/>
<path d="M19.8569 34.8861L14.1229 38.5669C14.0636 38.605 13.9916 38.6179 13.9228 38.6029C13.8539 38.5879 13.7939 38.5462 13.7558 38.4869L11.1357 34.4052C11.0976 34.3459 11.0847 34.2739 11.0997 34.2051C11.1147 34.1363 11.1564 34.0762 11.2157 34.0381L16.9498 30.3573C17.0091 30.3193 17.081 30.3063 17.1499 30.3213C17.2187 30.3363 17.2787 30.3781 17.3168 30.4374L19.937 34.5191C19.975 34.5783 19.988 34.6503 19.9729 34.7191C19.9579 34.788 19.9162 34.848 19.8569 34.8861ZM14.0594 37.9764L19.3464 34.5825L17.0132 30.9479L11.7262 34.3417L14.0594 37.9764Z" fill="#242945"/>
<path d="M52 48.7984C52 48.7984 54.0874 51.6597 54.1614 53.5661C54.1614 53.5661 59.6848 50.6996 62.1641 50.9403C62.1641 50.9403 63.5957 47.9194 61.2527 46C61.2527 46 54.0907 47.7054 52 48.7984Z" fill="url(#paint0_linear_6158_2876)"/>
<path d="M81.1577 20.3403C81.1577 20.3403 81.5639 32.8532 90.1308 40.4501C90.1308 40.4501 84.6192 36.2954 82.6486 32.3306C80.6776 28.3656 79.2064 22.1931 79.2064 22.1931L81.1577 20.3403Z" fill="url(#paint1_linear_6158_2876)"/>
<path d="M88.2461 37.7168C88.2461 37.7168 91.6042 42.2046 101.231 44.2776C110.857 46.3511 108.6 49.0437 108.6 49.0437C108.6 49.0437 106.957 49.8272 102.733 47.9179C98.5089 46.009 91.9192 42.7872 88.2461 37.7168Z" fill="url(#paint2_linear_6158_2876)"/>
<path d="M107.503 52.9571C107.503 52.9571 114.586 52.3029 114.797 58.7734C114.797 58.7734 112.995 55.2274 110.561 55.9357C108.127 56.6436 105.612 55.6554 105.49 55.1064C105.49 55.1064 106.685 52.4213 107.503 52.9571Z" fill="url(#paint3_linear_6158_2876)"/>
<path d="M104.805 52.679C104.805 52.679 107.645 50.6416 108.779 47.8811C108.779 47.8811 110.238 49.9694 109.504 50.8577C109.504 50.8577 106.562 54.4575 105.408 54.7725C105.408 54.7725 104.55 53.9038 104.805 52.679Z" fill="url(#paint4_linear_6158_2876)"/>
<path d="M56.6697 28.8829L58.3587 23.7834H63.8257C63.9937 23.7834 64.0647 23.5712 63.9278 23.4744L59.5037 20.3237L61.1927 15.2242C61.2446 15.0663 61.061 14.9356 60.9242 15.0341L56.5 18.1848L52.0759 15.0341C51.939 14.9373 51.7554 15.068 51.8074 15.2242L53.4963 20.3237L49.0722 23.4744C48.9353 23.5712 49.0063 23.7834 49.1743 23.7834H54.6431L56.332 28.8829C56.3909 29.039 56.6178 29.039 56.6697 28.8829Z" fill="#F7CF6D"/>
<path d="M159.047 56.0647C159.047 56.0647 157.681 55.298 156.95 54C156.95 54 151.701 59.3379 151 62.1493C151 62.1493 152.378 63.0678 153.153 64.2685C153.153 64.2685 155.219 59.7375 159.047 56.0647Z" fill="url(#paint5_linear_6158_2876)"/>
<path d="M137.402 0C137.402 0 136.522 5.29099 129.794 12.9208C123.065 20.5506 125.882 20.9824 125.882 20.9824C125.882 20.9824 127.473 20.4746 130.036 16.4282C132.599 12.3817 136.503 5.90003 137.402 0Z" fill="url(#paint6_linear_6158_2876)"/>
<path d="M128.963 23.3654C128.963 23.3654 123.101 27.4522 125.636 32.4378C125.636 32.4378 125.577 28.616 127.793 27.5739C130.009 26.5317 131.581 24.1664 131.448 23.6756C131.448 23.6756 129.384 22.4353 128.963 23.3654Z" fill="url(#paint7_linear_6158_2876)"/>
<path d="M130.907 21.4449C130.907 21.4449 127.587 21.593 125.302 19.957C125.302 19.957 125.143 22.7624 126.18 23.0387C126.18 23.0387 130.353 24.182 131.449 23.6751C131.449 23.6751 131.719 22.3384 130.907 21.4449Z" fill="url(#paint8_linear_6158_2876)"/>
<defs>
<linearGradient id="paint0_linear_6158_2876" x1="54.5922" y1="46.3949" x2="60.3587" y2="52.6142" gradientUnits="userSpaceOnUse">
<stop offset="0.0238" stop-color="#006AA1"/>
<stop offset="0.2751" stop-color="#0088CC"/>
<stop offset="0.3373" stop-color="#0E94D6"/>
<stop offset="0.4985" stop-color="#2FAEED"/>
<stop offset="0.5873" stop-color="#3BB8F6"/>
<stop offset="0.6417" stop-color="#31ABE8"/>
<stop offset="0.8589" stop-color="#0E7CB5"/>
<stop offset="0.9656" stop-color="#006AA1"/>
</linearGradient>
<linearGradient id="paint1_linear_6158_2876" x1="81.7558" y1="32.2515" x2="87.6697" y2="30.751" gradientUnits="userSpaceOnUse">
<stop offset="0.0661" stop-color="#AB1460"/>
<stop offset="0.2751" stop-color="#FD1D8F"/>
<stop offset="0.4295" stop-color="#FD48A5"/>
<stop offset="0.582" stop-color="#FD6FB8"/>
<stop offset="0.6561" stop-color="#EB5BA5"/>
<stop offset="0.8637" stop-color="#BD2873"/>
<stop offset="0.9656" stop-color="#AB1460"/>
</linearGradient>
<linearGradient id="paint2_linear_6158_2876" x1="90.4523" y1="47.7602" x2="107.894" y2="43.9288" gradientUnits="userSpaceOnUse">
<stop offset="0.0661" stop-color="#AB1460"/>
<stop offset="0.2751" stop-color="#FD1D8F"/>
<stop offset="0.4295" stop-color="#FD48A5"/>
<stop offset="0.582" stop-color="#FD6FB8"/>
<stop offset="0.6561" stop-color="#EB5BA5"/>
<stop offset="0.8637" stop-color="#BD2873"/>
<stop offset="0.9656" stop-color="#AB1460"/>
</linearGradient>
<linearGradient id="paint3_linear_6158_2876" x1="106.228" y1="58.2734" x2="114.392" y2="56.3702" gradientUnits="userSpaceOnUse">
<stop offset="0.0661" stop-color="#AB1460"/>
<stop offset="0.2751" stop-color="#FD1D8F"/>
<stop offset="0.4295" stop-color="#FD48A5"/>
<stop offset="0.582" stop-color="#FD6FB8"/>
<stop offset="0.6561" stop-color="#EB5BA5"/>
<stop offset="0.8637" stop-color="#BD2873"/>
<stop offset="0.9656" stop-color="#AB1460"/>
</linearGradient>
<linearGradient id="paint4_linear_6158_2876" x1="104.515" y1="52.5366" x2="110.011" y2="51.0518" gradientUnits="userSpaceOnUse">
<stop offset="0.0661" stop-color="#AB1460"/>
<stop offset="0.2751" stop-color="#FD1D8F"/>
<stop offset="0.4295" stop-color="#FD48A5"/>
<stop offset="0.582" stop-color="#FD6FB8"/>
<stop offset="0.6561" stop-color="#EB5BA5"/>
<stop offset="0.8637" stop-color="#BD2873"/>
<stop offset="0.9656" stop-color="#AB1460"/>
</linearGradient>
<linearGradient id="paint5_linear_6158_2876" x1="157.897" y1="60.5462" x2="152.371" y2="57.805" gradientUnits="userSpaceOnUse">
<stop offset="0.0344" stop-color="#701B0A"/>
<stop offset="0.2751" stop-color="#F33A16"/>
<stop offset="0.4218" stop-color="#F34E2E"/>
<stop offset="0.5291" stop-color="#F3583A"/>
<stop offset="0.7036" stop-color="#C43F24"/>
<stop offset="0.8647" stop-color="#9F2B13"/>
<stop offset="0.9497" stop-color="#91240D"/>
</linearGradient>
<linearGradient id="paint6_linear_6158_2876" x1="139.589" y1="8.43054" x2="123.324" y2="12.648" gradientUnits="userSpaceOnUse">
<stop offset="0.0661" stop-color="#BA8600"/>
<stop offset="0.2751" stop-color="#F5B100"/>
<stop offset="0.3665" stop-color="#F5BA21"/>
<stop offset="0.4713" stop-color="#F5C442"/>
<stop offset="0.5291" stop-color="#F5C74E"/>
<stop offset="0.6537" stop-color="#E1B033"/>
<stop offset="0.8471" stop-color="#C5920E"/>
<stop offset="0.9497" stop-color="#BA8600"/>
</linearGradient>
<linearGradient id="paint7_linear_6158_2876" x1="132.187" y1="26.5258" x2="124.472" y2="28.5262" gradientUnits="userSpaceOnUse">
<stop offset="0.0661" stop-color="#BA8600"/>
<stop offset="0.2751" stop-color="#F5B100"/>
<stop offset="0.3665" stop-color="#F5BA21"/>
<stop offset="0.4713" stop-color="#F5C442"/>
<stop offset="0.5291" stop-color="#F5C74E"/>
<stop offset="0.6537" stop-color="#E1B033"/>
<stop offset="0.8471" stop-color="#C5920E"/>
<stop offset="0.9497" stop-color="#BA8600"/>
</linearGradient>
<linearGradient id="paint8_linear_6158_2876" x1="131.073" y1="21.1245" x2="125.601" y2="22.5433" gradientUnits="userSpaceOnUse">
<stop offset="0.0661" stop-color="#BA8600"/>
<stop offset="0.2751" stop-color="#F5B100"/>
<stop offset="0.3665" stop-color="#F5BA21"/>
<stop offset="0.4713" stop-color="#F5C442"/>
<stop offset="0.5291" stop-color="#F5C74E"/>
<stop offset="0.6537" stop-color="#E1B033"/>
<stop offset="0.8471" stop-color="#C5920E"/>
<stop offset="0.9497" stop-color="#BA8600"/>
</linearGradient>
</defs>
</svg>
