<svg width="22" height="22" viewBox="0 0 22 22" fill="none" xmlns="http://www.w3.org/2000/svg">
<g clip-path="url(#clip0_35697_7806)">
<circle cx="11" cy="11" r="11" fill="#2B2B2B"/>
<path fill-rule="evenodd" clip-rule="evenodd" d="M10.2233 8.97716V8.38504C10.0178 8.35594 9.8106 8.34084 9.60305 8.33984C7.06492 8.33984 5 10.4051 5 12.9432C5 14.5002 5.77813 15.8784 6.96514 16.7118C6.17033 15.8619 5.72846 14.7415 5.7291 13.5778C5.7291 11.0758 7.73527 9.03557 10.2233 8.97716Z" fill="#00F2EA"/>
<path fill-rule="evenodd" clip-rule="evenodd" d="M10.332 15.6802C11.4644 15.6802 12.3882 14.7793 12.4303 13.6567L12.4341 3.63453H14.265C14.2259 3.42528 14.2061 3.21287 14.2059 3H11.7053L11.7012 13.0225C11.6594 14.1448 10.7353 15.0453 9.6032 15.0453C9.26332 15.0455 8.92854 14.9626 8.62793 14.804C8.82204 15.0748 9.07782 15.2955 9.37413 15.4479C9.67044 15.6003 9.99877 15.6799 10.332 15.6802ZM17.6852 7.03632V6.47932C17.0123 6.47995 16.3539 6.28419 15.7907 5.91607C16.2845 6.48464 16.9494 6.87772 17.6856 7.03632" fill="#00F2EA"/>
<path fill-rule="evenodd" clip-rule="evenodd" d="M15.7906 5.9156C15.2386 5.28401 14.9345 4.47357 14.9349 3.63477H14.2649C14.3517 4.09839 14.5316 4.53959 14.7939 4.93164C15.0561 5.32369 15.3952 5.65843 15.7906 5.9156ZM9.6031 10.841C9.04578 10.8416 8.51147 11.0633 8.11739 11.4574C7.7233 11.8515 7.50162 12.3858 7.50098 12.9431C7.50135 13.3265 7.60648 13.7025 7.80503 14.0304C8.00357 14.3584 8.28797 14.6259 8.62749 14.8039C8.36898 14.4474 8.22976 14.0183 8.22973 13.578C8.23028 13.0206 8.45192 12.4862 8.84602 12.092C9.24012 11.6979 9.77448 11.4761 10.3319 11.4755C10.5485 11.4755 10.756 11.5113 10.9521 11.5728V9.01977C10.7466 8.99066 10.5394 8.97556 10.3319 8.97457C10.2954 8.97457 10.2595 8.97666 10.2234 8.97735V10.9383C10.0228 10.8745 9.81361 10.8416 9.6031 10.841Z" fill="#FF004F"/>
<path fill-rule="evenodd" clip-rule="evenodd" d="M17.6848 7.0355V8.97908C16.3879 8.97908 15.1866 8.56429 14.2055 7.86022V12.9424C14.2055 15.4805 12.1409 17.5454 9.60276 17.5454C8.62193 17.5454 7.71237 17.236 6.96484 16.711C7.39462 17.1745 7.91549 17.5442 8.49482 17.797C9.07415 18.0497 9.69944 18.1801 10.3315 18.18C12.8696 18.18 14.9346 16.115 14.9346 13.5773V8.4951C15.9482 9.22396 17.1654 9.6154 18.4139 9.61396V7.11269C18.1636 7.11269 17.9202 7.08557 17.6848 7.03516" fill="#FF004F"/>
<path fill-rule="evenodd" clip-rule="evenodd" d="M14.2052 12.9431V7.86092C15.2187 8.58987 16.436 8.98132 17.6845 8.97979V7.03621C16.9484 6.87745 16.2836 6.48424 15.7899 5.9156C15.3945 5.65843 15.0555 5.32369 14.7932 4.93164C14.531 4.53959 14.351 4.09839 14.2643 3.63477H12.4333L12.4295 13.6569C12.3875 14.7792 11.4636 15.6801 10.3312 15.6801C9.99804 15.6798 9.66972 15.6001 9.37342 15.4478C9.07711 15.2954 8.82132 15.0747 8.6272 14.8039C8.28761 14.6259 8.00314 14.3585 7.80454 14.0305C7.60593 13.7025 7.50074 13.3265 7.50034 12.9431C7.50098 12.3858 7.72266 11.8515 8.11675 11.4574C8.51083 11.0633 9.04514 10.8416 9.60246 10.841C9.81873 10.841 10.0263 10.8764 10.2227 10.9383V8.97735C7.73468 9.03576 5.72852 11.076 5.72852 13.578C5.72852 14.7879 6.19859 15.8894 6.96455 16.712C7.73672 17.2556 8.65815 17.547 9.60246 17.5461C12.1406 17.5461 14.2052 15.4812 14.2052 12.9431Z" fill="white"/>
</g>
<defs>
<clipPath id="clip0_35697_7806">
<rect width="22" height="22" fill="white"/>
</clipPath>
</defs>
</svg>
