<svg width="28" height="20" viewBox="0 0 28 20" fill="none" xmlns="http://www.w3.org/2000/svg">
<rect width="28" height="20" rx="2" fill="#009F60"/>
<mask id="mask0_14715_7005" style="mask-type:luminance" maskUnits="userSpaceOnUse" x="0" y="0" width="28" height="20">
<rect width="28" height="20" rx="2" fill="white"/>
</mask>
<g mask="url(#mask0_14715_7005)">
<rect x="24" y="10.667" width="4" height="9.33333" fill="#EA8B42"/>
<path fill-rule="evenodd" clip-rule="evenodd" d="M20 20.0003H24V10.667H20V20.0003Z" fill="#1A1919"/>
<path fill-rule="evenodd" clip-rule="evenodd" d="M16 20.0003H20V10.667H16V20.0003Z" fill="#DB3C36"/>
<path fill-rule="evenodd" clip-rule="evenodd" d="M21.0141 3.48416C20.9222 3.48674 20.8547 3.45491 20.8305 3.4014C20.9804 3.31349 21.0817 3.3331 21.2073 3.4451C21.2315 3.35753 21.2073 3.25998 21.1542 3.20149C21.101 3.143 21.0575 3.143 20.9852 3.13801C20.9126 3.13319 20.8401 3.11375 20.7918 3.11375C20.721 2.95771 20.5436 3.02377 20.3732 3.08777C20.0961 3.19168 19.8472 3.38041 19.7354 3.5688C19.6844 3.655 19.6782 3.68889 19.6468 3.73775C19.6727 3.73448 19.671 3.73448 19.6871 3.72467C19.6677 3.93921 19.642 4.1374 19.6806 4.2642C19.6324 4.44949 19.671 4.56648 19.7289 4.62497C19.787 4.68347 19.811 4.7079 19.8208 4.7762C19.8304 4.84433 19.8594 4.90764 19.9077 4.94669C19.9561 4.98575 19.985 5.04424 19.9898 5.07848C19.9946 5.11254 20.1441 5.25947 20.2072 5.29783C20.2314 5.31229 20.2362 5.34171 20.2653 5.38059C20.2024 5.75117 20.4537 6.12175 20.3956 6.48734C20.4392 6.49216 20.4971 6.48734 20.5552 6.47272C20.6034 6.78463 20.6324 6.93586 20.3618 7.02841C20.0913 7.12115 19.9434 7.21233 20.0188 7.31607C20.072 7.38919 20.182 7.32553 20.2508 7.26239C20.3039 7.21371 20.3666 7.16983 20.415 7.15521C20.4633 7.14059 20.4731 7.15521 20.4488 7.21852C20.4246 7.28201 20.2943 7.41844 20.2893 7.48674C20.2845 7.55504 20.3425 7.60373 20.4344 7.55005C20.5261 7.49637 20.6068 7.35599 20.6276 7.2722C20.642 7.21371 20.6663 7.17465 20.6613 7.2722C20.6565 7.36975 20.5986 7.54523 20.729 7.57448C20.8595 7.60373 20.8982 7.44768 20.8547 7.30626C20.8112 7.16502 20.7968 7.08691 20.816 7.03822C20.8353 6.98936 20.8547 6.96029 20.9029 6.97474C20.9512 6.98936 21.0479 6.96992 21.0431 6.89198C21.0381 6.81405 20.9706 6.75057 20.8933 6.79444C20.816 6.83831 20.758 6.83177 20.7918 6.73594C20.816 6.66764 20.8595 6.58472 20.8643 6.53121C20.9174 6.60915 21.2169 6.61895 21.3378 6.54583C21.3668 6.69207 21.4441 6.82368 21.275 6.96029C21.1058 7.09672 20.9706 7.22833 20.9754 7.32588C20.9804 7.42343 21.0189 7.48175 21.1058 7.43306C21.1928 7.38437 21.2459 7.31607 21.2653 7.25276C21.2846 7.18928 21.3234 7.18928 21.304 7.26738C21.2846 7.34532 21.2509 7.45749 21.2653 7.52579C21.2798 7.59392 21.3861 7.59891 21.4295 7.53543C21.473 7.47211 21.4633 7.38919 21.4537 7.30626C21.4441 7.22334 21.4586 7.13577 21.4778 7.10153C21.4972 7.06747 21.5358 7.01861 21.5745 7.11134C21.6133 7.2039 21.6325 7.27702 21.7098 7.30145C21.7871 7.32588 21.845 7.29164 21.8306 7.19908C21.8161 7.10652 21.7146 7.00398 21.6133 6.92605C21.5118 6.84811 21.5456 6.80906 21.5504 6.73594C21.5552 6.66282 21.5408 6.53121 21.5358 6.47272C21.6277 6.54102 21.7292 6.53121 21.7773 6.53121C21.8257 6.53121 21.905 6.51624 21.8257 6.44347C21.6662 6.29723 21.7194 6.20932 21.6083 6.10214C21.4972 5.99495 21.3957 5.8291 21.362 5.68786C21.328 5.54644 21.2536 5.28803 21.1058 5.15641C21.0237 5.0833 20.9996 4.88338 21.0189 4.65422C21.0381 4.42506 21.0431 4.17164 20.8353 4.05465C20.6276 3.93766 20.6324 3.84011 20.7001 3.73775C20.7676 3.63538 20.8545 3.53525 20.9658 3.52803C20.9908 3.52648 21.0486 3.52166 21.0721 3.50446C21.0616 3.49637 21.0446 3.48347 21.0141 3.48416Z" fill="#EA8B42"/>
<path fill-rule="evenodd" clip-rule="evenodd" d="M19.6629 4.01066C19.6578 4.10976 19.6602 4.19698 19.6806 4.26408C19.6324 4.44937 19.671 4.56636 19.7289 4.62486C19.7871 4.68335 19.8111 4.70778 19.8208 4.77608C19.8304 4.84421 19.8594 4.90752 19.9077 4.94658C19.9561 4.98563 19.9851 5.04412 19.9899 5.07836C19.9947 5.11243 20.1441 5.25935 20.2072 5.29772C20.2314 5.31217 20.2362 5.34159 20.2653 5.38047C20.2391 5.53445 20.2667 5.68843 20.3044 5.84206C19.9629 6.128 19.6259 5.99311 19.7677 5.70064C19.4841 5.92808 18.9947 5.92172 19.1043 5.70064C18.6597 5.85668 18.5245 5.72662 18.5824 5.58365C18.2089 5.73316 18.0155 5.59019 18.0671 5.4861C17.7579 5.57058 17.5581 5.51862 17.5259 5.46666C17.4939 5.4147 17.571 5.29772 17.642 5.23922C17.5002 5.29118 17.3649 5.29118 17.236 5.27174C17.1073 5.25212 17.1395 5.21307 17.1652 5.15458C17.1911 5.09608 17.2249 5.00352 17.3279 4.91251C17.0816 4.9612 16.7723 4.99544 16.5549 4.92215C16.514 4.90838 16.4439 4.8929 16.4872 4.8492C16.5308 4.80533 16.6612 4.69797 16.8207 4.62967C16.4583 4.68335 15.7722 4.7224 15.579 4.50305C15.7674 4.54193 16.0089 4.464 16.1636 4.40068C15.5548 4.33238 14.7239 3.91311 14.7141 3.50365C14.8881 3.78632 15.1878 3.88387 15.4873 3.97161C15.0813 3.73264 14.9123 3.44498 14.8979 3.25488C15.1297 3.47922 15.4823 3.73264 15.8303 3.79131C15.5838 3.65969 15.2649 3.27449 15.178 3.00627C15.3568 3.16713 15.8157 3.42554 16.1298 3.50847C15.9124 3.3378 15.5598 2.93316 15.579 2.70898C15.6611 2.79191 15.8641 2.94778 16.2795 3.19157C16.695 3.43535 16.9204 3.41746 17.2635 3.49058C17.2007 3.4061 17.1443 3.29393 17.1395 3.26468C17.241 3.27931 17.3375 3.31836 17.6274 3.49866C17.9173 3.67913 18.5507 3.73436 18.9126 3.89367C19.1781 4.01066 19.5567 3.93754 19.6629 4.01066Z" fill="#EA8B42"/>
<path fill-rule="evenodd" clip-rule="evenodd" d="M21.8495 6.51404C21.8654 6.50131 21.8654 6.47929 21.8257 6.44299C21.6662 6.29675 21.7194 6.20883 21.6083 6.10165C21.4972 5.99447 21.3957 5.82862 21.362 5.68737C21.328 5.54595 21.2536 5.28754 21.1058 5.15593C21.0237 5.08281 20.9996 4.8829 21.0189 4.65374C21.0354 4.45761 21.0414 4.24376 20.9125 4.11283C21.154 4.04453 21.3765 4.02974 21.4537 4.10767C21.8546 4.00531 22.2026 3.97434 22.544 3.9518C22.9369 3.92565 23.6776 3.75671 24.206 3.3992C24.1737 3.52926 23.9934 3.72419 23.8322 3.82174C24.3669 3.69167 25.0112 3.45116 25.5587 3.04169C25.5522 3.3278 25.3204 3.54217 25.185 3.65933C25.5587 3.45116 26.1061 3.1912 26.2929 2.86621C26.375 3.19929 25.8164 3.6349 25.5134 3.87542C25.8227 3.72591 26.2221 3.58776 26.3768 3.36668C26.3735 3.63645 26.0224 3.97124 25.6874 4.16617C26.0289 4.03628 26.409 3.89967 26.6279 3.69821C26.6536 3.96969 25.6069 4.59369 25.0883 4.76419C25.5393 4.65374 26.1254 4.50423 26.3831 4.34819C26.3702 4.40342 26.2652 4.48083 26.1887 4.53726C25.8736 4.77021 25.3904 4.89529 25.0948 4.95275C25.1336 5.11533 25.082 5.20634 24.9016 5.21924C24.7213 5.23232 24.2848 5.16247 24.0659 5.05185C24.0337 5.07129 23.9949 5.078 23.9514 5.08281C24.164 5.24367 24.2365 5.36066 24.1929 5.42896C24.1496 5.49726 23.9973 5.48488 23.8814 5.46062C23.9732 5.71903 23.6663 5.702 23.4104 5.55559C23.5118 5.68737 23.5264 5.79937 23.3862 5.82862C23.2461 5.85787 23.1349 5.84823 22.9996 5.76032C22.99 5.85787 22.8966 5.9229 22.7726 5.89038C23.1978 6.14879 23.1736 6.24307 23.1011 6.34045C23.0288 6.438 22.775 6.41856 22.6398 6.33081C22.5818 6.53073 22.3508 6.53142 22.1783 6.37228C22.1768 6.45193 22.0122 6.61004 21.8495 6.51404Z" fill="#EA8B42"/>
<path fill-rule="evenodd" clip-rule="evenodd" d="M19.8772 7.49489C19.8843 7.4333 19.8901 7.36173 19.9415 7.31614C19.9931 7.27055 20.0253 7.23167 20.0704 7.27709C20.1155 7.32268 20.0865 7.365 20.0253 7.38444C19.9641 7.40388 19.9223 7.45911 19.9125 7.49489C19.9029 7.53068 19.8707 7.55012 19.8772 7.49489Z" fill="black"/>
<path fill-rule="evenodd" clip-rule="evenodd" d="M20.2281 7.79393C20.1962 7.69174 20.2122 7.55995 20.2475 7.5209C20.283 7.48185 20.3281 7.45587 20.3699 7.49492C20.4117 7.53397 20.4278 7.5892 20.3505 7.62172C20.2821 7.65045 20.2765 7.72236 20.2734 7.77449C20.2701 7.82645 20.2475 7.8557 20.2281 7.79393Z" fill="black"/>
<path fill-rule="evenodd" clip-rule="evenodd" d="M20.6792 7.5308C20.6543 7.57261 20.6855 7.74207 20.7693 7.78422C20.8287 7.81415 20.8563 7.8071 20.8208 7.7517C20.7855 7.69648 20.7983 7.64452 20.8177 7.61527C20.8369 7.58603 20.8338 7.53407 20.7918 7.50809C20.75 7.48194 20.6984 7.49828 20.6792 7.5308Z" fill="black"/>
<path fill-rule="evenodd" clip-rule="evenodd" d="M21.0431 7.37756C20.99 7.3373 20.9401 7.38565 20.9207 7.41971C20.882 7.48801 20.9111 7.58556 20.9723 7.64079C21.0335 7.69601 21.0238 7.62135 21.0044 7.58883C20.9852 7.55631 20.9819 7.49128 21.0238 7.48474C21.0656 7.47838 21.0947 7.41644 21.0431 7.37756Z" fill="black"/>
<path fill-rule="evenodd" clip-rule="evenodd" d="M21.3458 7.48796C21.2941 7.47265 21.2428 7.52701 21.2492 7.59205C21.254 7.64056 21.2589 7.7025 21.3071 7.73501C21.3395 7.75669 21.362 7.7708 21.3458 7.7123C21.3297 7.65381 21.3556 7.60495 21.3844 7.58878C21.4134 7.5726 21.4005 7.5043 21.3458 7.48796Z" fill="black"/>
<path fill-rule="evenodd" clip-rule="evenodd" d="M21.7742 7.21174C21.7367 7.23824 21.7388 7.29966 21.7742 7.32237C21.8096 7.34507 21.8612 7.37759 21.8516 7.43282C21.8418 7.48804 21.8708 7.50766 21.8966 7.44589C21.9224 7.38413 21.9256 7.29312 21.8966 7.2508C21.8675 7.20847 21.8063 7.18903 21.7742 7.21174Z" fill="black"/>
<path fill-rule="evenodd" clip-rule="evenodd" d="M20.8403 3.39709C20.8627 3.44669 20.9269 3.47598 21.0138 3.47353L21.0139 3.47353C21.0415 3.47291 21.0583 3.48032 21.0784 3.51327C21.0572 3.52883 21.0172 3.53575 20.9665 3.53888C20.8742 3.54488 20.7935 3.61575 20.709 3.74382C20.6329 3.85885 20.6595 3.94346 20.8406 4.0454C21.0205 4.1467 21.0574 4.32315 21.0296 4.65526C21.0092 4.89657 21.0386 5.08228 21.113 5.1485C21.236 5.25809 21.3153 5.44747 21.3724 5.68547C21.405 5.8218 21.5036 5.98636 21.6157 6.09451C21.6421 6.11993 21.6609 6.14555 21.676 6.1748C21.6846 6.19162 21.6909 6.2068 21.7012 6.23406C21.7365 6.32812 21.7604 6.36913 21.8329 6.43566C21.8731 6.47252 21.8809 6.50318 21.8561 6.52315C21.8397 6.53631 21.8102 6.54209 21.7773 6.54209L21.7595 6.54233C21.6815 6.54377 21.6313 6.53737 21.5735 6.50859C21.565 6.50435 21.5567 6.49967 21.5485 6.49455L21.5534 6.54879C21.5555 6.57293 21.5572 6.59436 21.5586 6.61475C21.562 6.66591 21.563 6.70676 21.5611 6.73677C21.5603 6.74815 21.559 6.75805 21.5566 6.77365C21.5521 6.80247 21.5512 6.81036 21.5521 6.8229C21.5542 6.85364 21.5724 6.88122 21.6198 6.91764C21.744 7.01315 21.8277 7.11184 21.8412 7.19755C21.8562 7.29386 21.7958 7.34002 21.7066 7.31183C21.652 7.29457 21.6238 7.25883 21.5914 7.18134C21.5896 7.17707 21.585 7.16553 21.5799 7.15308C21.574 7.13836 21.5675 7.12238 21.5647 7.11562C21.5489 7.07782 21.5345 7.0657 21.5219 7.06935C21.511 7.07248 21.4989 7.08629 21.4872 7.10693C21.4673 7.1424 21.4557 7.23026 21.4643 7.30515L21.4644 7.30595C21.4791 7.4326 21.4766 7.48608 21.4383 7.54163C21.3899 7.61257 21.2715 7.60617 21.2548 7.52814C21.2472 7.492 21.2514 7.44425 21.265 7.38088C21.2688 7.36344 21.2731 7.34537 21.2787 7.32315L21.2936 7.26491C21.3011 7.23486 21.299 7.21801 21.2972 7.21767C21.2942 7.2171 21.2831 7.23123 21.2755 7.25604C21.2538 7.32691 21.1953 7.39541 21.1111 7.44257C21.0223 7.49233 20.9706 7.44171 20.9647 7.32653C20.9602 7.23477 21.0619 7.11852 21.2683 6.95204C21.3084 6.91964 21.3354 6.88673 21.3514 6.85227C21.3803 6.78988 21.3761 6.74196 21.3443 6.61955C21.3377 6.59436 21.3337 6.57793 21.3303 6.56243C21.2082 6.62495 20.9528 6.61959 20.8716 6.55441C20.8661 6.58007 20.8541 6.61139 20.8301 6.66869L20.83 6.66897C20.815 6.70495 20.8085 6.721 20.8019 6.73965C20.7875 6.78039 20.7906 6.80189 20.8049 6.80774C20.8205 6.81408 20.8509 6.80623 20.888 6.7852C20.9678 6.7399 21.0479 6.79922 21.0538 6.89145C21.0585 6.9678 20.9694 7.00622 20.8998 6.98516C20.8637 6.97432 20.8472 6.98866 20.8259 7.0423C20.8089 7.08559 20.8198 7.15667 20.8649 7.30322C20.9153 7.46677 20.858 7.61454 20.7267 7.5851C20.6463 7.56708 20.6253 7.50334 20.6366 7.39182C20.6379 7.37801 20.6396 7.3648 20.6424 7.34418C20.6486 7.29911 20.6498 7.28884 20.6506 7.27178C20.6514 7.25607 20.6515 7.24369 20.6509 7.23473C20.6468 7.24436 20.6419 7.2588 20.638 7.27492C20.6132 7.37509 20.5251 7.50951 20.4398 7.55947C20.3481 7.61303 20.2727 7.57142 20.2787 7.48608C20.2809 7.4547 20.3033 7.41466 20.3494 7.34988L20.3622 7.33207C20.4207 7.25126 20.4303 7.23704 20.4388 7.21478C20.46 7.15952 20.4569 7.1539 20.4181 7.16563C20.3745 7.17882 20.3143 7.2189 20.258 7.27045C20.1625 7.35816 20.0613 7.39288 20.0102 7.32253C19.9697 7.26685 19.9864 7.21192 20.0541 7.15971C20.1136 7.11377 20.2139 7.06789 20.3584 7.01836C20.5874 6.94002 20.6049 6.86464 20.5578 6.48327C20.4997 6.49791 20.4402 6.50322 20.385 6.48577C20.4087 6.33664 20.3902 6.21679 20.3194 5.94292C20.247 5.66278 20.228 5.53657 20.2568 5.38718C20.2493 5.37715 20.2429 5.36731 20.2364 5.35591L20.2225 5.33096C20.2153 5.3186 20.2095 5.31186 20.2017 5.30716C20.133 5.2654 19.9845 5.11707 19.9792 5.0801C19.974 5.04279 19.9424 4.98861 19.901 4.9552C19.8524 4.9159 19.8206 4.85188 19.8102 4.77785C19.8019 4.72005 19.7897 4.70149 19.7213 4.63268C19.6499 4.56052 19.6263 4.43075 19.6703 4.26746C19.6406 4.16957 19.6433 4.07529 19.6711 3.78115L19.6746 3.74379C19.6714 3.7449 19.668 3.7457 19.6635 3.74644L19.6482 3.74854L19.6378 3.73205C19.6442 3.72211 19.6498 3.7124 19.6553 3.70177C19.6576 3.69724 19.6588 3.69495 19.6599 3.69265C19.6611 3.69031 19.6622 3.68796 19.6645 3.68323C19.6626 3.68725 19.6817 3.64634 19.6883 3.63308C19.6994 3.61073 19.7113 3.5886 19.7262 3.56343C19.8398 3.37212 20.0912 3.18219 20.3694 3.07782C20.6331 2.97879 20.739 2.97167 20.7918 3.10312C20.8151 3.10312 20.8269 3.10475 20.8954 3.11592C20.9346 3.12232 20.9597 3.12566 20.9859 3.1274L21.0024 3.12852C21.0642 3.13269 21.0901 3.13821 21.1214 3.15871C21.1351 3.16771 21.1485 3.17939 21.1621 3.19437C21.2191 3.25714 21.2422 3.35906 21.2177 3.4481L21.2002 3.45327C21.0738 3.34063 20.9773 3.32785 20.8403 3.39709ZM21.0655 3.5131C21.0487 3.50007 21.0362 3.49454 21.0144 3.49503L21.0144 3.49503C20.9197 3.49769 20.8473 3.46465 20.8251 3.39225C20.9697 3.30741 21.0741 3.31771 21.201 3.4255C21.1999 3.43116 21.1985 3.43679 21.197 3.44236L21.2145 3.43719C21.2099 3.43317 21.2055 3.42927 21.201 3.4255C21.2166 3.34773 21.1948 3.26222 21.1463 3.20886C21.1338 3.19516 21.1218 3.18468 21.1097 3.17673C21.0823 3.15883 21.0593 3.15391 21.001 3.14997L20.9845 3.14886C20.9575 3.14707 20.9318 3.14364 20.892 3.13715C20.8795 3.13512 20.869 3.13342 20.8599 3.13194C20.8201 3.12548 20.8075 3.12346 20.782 3.11833C20.7268 2.99652 20.6296 3.00306 20.3769 3.09797C20.1029 3.20073 19.8554 3.38769 19.7447 3.57442C19.73 3.59912 19.7183 3.62077 19.7075 3.64265C19.701 3.65566 19.682 3.69635 19.6838 3.69251C19.6815 3.69733 19.6803 3.69974 19.6791 3.70214C19.6779 3.70454 19.6767 3.70693 19.6743 3.71171C19.6722 3.71566 19.6702 3.71951 19.6681 3.72329C19.6661 3.72405 19.6638 3.7246 19.66 3.72522L19.6455 3.7272L19.6558 3.7437C19.6602 3.7369 19.6642 3.7302 19.6681 3.72329C19.6685 3.72313 19.6688 3.72297 19.6692 3.7228C19.6714 3.7218 19.6734 3.72065 19.6816 3.7156L19.6978 3.72577L19.6925 3.78318C19.665 4.07361 19.6623 4.16725 19.691 4.26704C19.6488 4.42936 19.6709 4.5513 19.7365 4.61751C19.8079 4.68931 19.8223 4.71125 19.8314 4.77482C19.8412 4.84382 19.8704 4.90287 19.9145 4.93844C19.96 4.97522 19.9945 5.03427 20.0005 5.0771C20.0045 5.10556 20.1493 5.25016 20.2127 5.28872C20.2242 5.29558 20.2321 5.30487 20.241 5.32006C20.2424 5.32251 20.2461 5.3292 20.2494 5.33517C20.2518 5.33955 20.2541 5.34354 20.255 5.3452C20.2566 5.34802 20.2582 5.35073 20.2598 5.35351C20.2644 5.36128 20.2693 5.36962 20.2759 5.38252C20.2498 5.53615 20.2685 5.66033 20.3402 5.93752C20.4117 6.21429 20.4305 6.33607 20.3968 6.47678C20.4365 6.48117 20.4879 6.4772 20.5497 6.47243C20.555 6.47203 20.5604 6.47161 20.5658 6.47119C20.6275 6.87061 20.6077 6.95579 20.3653 7.03872C20.2229 7.08754 20.1244 7.13262 20.0671 7.17676C20.0078 7.22258 19.9948 7.26498 20.0275 7.30986C20.0676 7.36502 20.1565 7.3345 20.2435 7.25458C20.302 7.20104 20.3646 7.15934 20.4119 7.14504C20.4712 7.12711 20.4855 7.15285 20.4588 7.22249C20.4493 7.24745 20.4401 7.26103 20.3796 7.3447L20.3669 7.36238C20.3234 7.42351 20.3019 7.46189 20.3 7.48762C20.2953 7.555 20.3516 7.58608 20.429 7.54089C20.5089 7.49413 20.5937 7.36465 20.6172 7.26975C20.6253 7.23675 20.6355 7.21178 20.6458 7.20487C20.6584 7.1964 20.6677 7.20581 20.6707 7.22085C20.6728 7.23155 20.6733 7.24874 20.672 7.27286C20.6712 7.2908 20.6699 7.30123 20.6636 7.3471C20.6609 7.36749 20.6592 7.38049 20.6579 7.39399C20.6476 7.49593 20.6652 7.54927 20.7314 7.56411C20.841 7.58868 20.8908 7.46009 20.8445 7.30957C20.7978 7.15805 20.7864 7.08408 20.806 7.03437C20.8309 6.97167 20.8562 6.94963 20.906 6.96457C20.9634 6.98193 21.036 6.95061 21.0324 6.8928C21.0275 6.81501 20.9631 6.76731 20.8986 6.80392C20.8563 6.82792 20.8202 6.83719 20.7968 6.82766C20.7687 6.8162 20.764 6.78265 20.7817 6.73247C20.7885 6.71328 20.7951 6.697 20.8103 6.66064L20.8104 6.66036C20.8405 6.58838 20.8511 6.5585 20.8536 6.53037L20.8732 6.52526C20.9226 6.59783 21.216 6.6071 21.3323 6.53675L21.3483 6.54386C21.3523 6.56387 21.3565 6.58152 21.365 6.61412C21.3981 6.74135 21.4026 6.79277 21.3708 6.86135C21.3533 6.89896 21.3243 6.93442 21.2818 6.96879C21.0815 7.13025 20.9821 7.24393 20.9861 7.32545C20.9913 7.42703 21.029 7.46394 21.1006 7.4238C21.1802 7.37923 21.235 7.31506 21.255 7.24974C21.2655 7.21535 21.283 7.1931 21.3012 7.19653C21.3212 7.20032 21.3247 7.22876 21.3144 7.27011L21.2995 7.32845C21.2939 7.35043 21.2897 7.36827 21.286 7.38541C21.273 7.44602 21.2689 7.49132 21.2758 7.52366C21.2881 7.58116 21.3819 7.58623 21.4207 7.52944C21.4548 7.47984 21.4572 7.42973 21.4431 7.30843L21.443 7.30763C21.4339 7.2286 21.4461 7.13632 21.4685 7.09633C21.483 7.07098 21.498 7.05388 21.516 7.04868C21.5419 7.04119 21.565 7.06071 21.5844 7.1073C21.5873 7.11421 21.5939 7.13043 21.5999 7.14524C21.6049 7.15755 21.6095 7.16887 21.6112 7.17302C21.6414 7.24522 21.666 7.27645 21.713 7.29132C21.7877 7.31492 21.8325 7.2807 21.8201 7.20088C21.8077 7.12232 21.7268 7.02707 21.6068 6.93471C21.5549 6.89487 21.5333 6.86211 21.5307 6.82439C21.5297 6.80959 21.5306 6.80094 21.5354 6.77032C21.5378 6.7553 21.539 6.74594 21.5397 6.73536C21.5416 6.70651 21.5406 6.66647 21.5372 6.61619C21.5359 6.59597 21.5342 6.57467 21.5321 6.55067L21.5251 6.47375L21.5422 6.4642C21.5553 6.47392 21.5689 6.48227 21.5831 6.48933C21.6369 6.51617 21.6843 6.52221 21.7591 6.52083L21.7773 6.52058C21.8056 6.52058 21.8312 6.51558 21.8427 6.50636C21.8544 6.49692 21.8503 6.48075 21.8185 6.45153C21.743 6.38232 21.7176 6.33859 21.6811 6.24165C21.6712 6.21513 21.6651 6.20056 21.6569 6.18467C21.6429 6.15748 21.6255 6.13377 21.6009 6.11001C21.4859 5.99911 21.3851 5.83098 21.3516 5.6905C21.2954 5.45661 21.2175 5.27032 21.0987 5.16458C21.0176 5.09229 20.9873 4.90117 21.0083 4.65345C21.0354 4.32926 20.9999 4.15978 20.8301 4.06415C20.6387 3.95641 20.6078 3.85799 20.6911 3.73194C20.779 3.59873 20.8641 3.52398 20.9651 3.51742C20.9797 3.51652 20.9934 3.51525 21.0059 3.51409C21.033 3.51157 21.0544 3.50959 21.0655 3.5131Z" fill="black"/>
<path fill-rule="evenodd" clip-rule="evenodd" d="M19.402 3.9596C19.5671 3.96543 19.6272 3.97283 19.669 4.00156L19.6736 4.01099C19.6679 4.12129 19.6726 4.20067 19.691 4.26656C19.6488 4.42888 19.671 4.55083 19.7365 4.61703C19.8079 4.68884 19.8223 4.71077 19.8314 4.77434C19.8412 4.84334 19.8704 4.9024 19.9145 4.93797C19.96 4.97474 19.9945 5.0338 20.0005 5.07662C20.0045 5.10508 20.1493 5.24968 20.2127 5.28824C20.2242 5.29511 20.2321 5.30439 20.241 5.31959C20.2424 5.32203 20.2461 5.32872 20.2494 5.33469C20.2519 5.33907 20.2541 5.34307 20.255 5.34473C20.2566 5.34754 20.2582 5.35024 20.2598 5.35302C20.2644 5.36079 20.2693 5.36913 20.2759 5.38205C20.2533 5.51465 20.2677 5.64713 20.3113 5.85008C20.1497 5.98542 19.975 6.0373 19.8516 5.99828C19.7398 5.96291 19.6958 5.86054 19.7422 5.73302C19.6106 5.82595 19.4359 5.88017 19.2885 5.87935C19.1367 5.87852 19.051 5.81784 19.0851 5.71835C18.7184 5.84148 18.5144 5.77174 18.5646 5.60183C18.2611 5.71503 18.0096 5.63651 18.0493 5.50169C17.7888 5.56855 17.562 5.54494 17.5168 5.47209C17.4887 5.42648 17.5324 5.33432 17.5989 5.26449C17.4838 5.29831 17.3664 5.30204 17.2344 5.28214C17.1723 5.27267 17.1415 5.25806 17.1332 5.23316C17.1269 5.21416 17.1289 5.20841 17.1525 5.15661L17.1554 5.14998C17.1554 5.15016 17.1709 5.11427 17.1762 5.10255C17.1856 5.08202 17.1948 5.06376 17.2052 5.04558C17.2289 5.00415 17.2575 4.96601 17.2936 4.92983C16.9922 4.98623 16.7351 4.99399 16.5515 4.93211L16.524 4.92324C16.4984 4.91474 16.4827 4.90732 16.4726 4.89684C16.4575 4.88107 16.4598 4.86134 16.4796 4.84138C16.5383 4.78232 16.6419 4.70642 16.7521 4.64989C16.229 4.71883 15.7285 4.68876 15.571 4.50994L15.5812 4.49228C15.7279 4.52257 15.9167 4.48508 16.1206 4.406C15.4528 4.31682 14.7125 3.88186 14.7034 3.50368L14.7233 3.49777C14.8587 3.71785 15.0395 3.82258 15.412 3.93754C15.0896 3.729 14.9035 3.46991 14.8872 3.25546L14.9054 3.2469C15.1687 3.50186 15.4825 3.70092 15.7706 3.76809C15.532 3.61286 15.2495 3.26145 15.1678 3.00937L15.1852 2.99804C15.3672 3.1618 15.7895 3.39312 16.0822 3.48339C15.8157 3.25953 15.5521 2.89781 15.5683 2.70783L15.5866 2.70117C15.6884 2.80399 15.9221 2.96915 16.2849 3.18205C16.5096 3.31391 16.6809 3.37445 16.9065 3.41613C16.9384 3.42202 16.9692 3.42728 17.0178 3.43525C17.1377 3.45489 17.1819 3.46245 17.2387 3.47416C17.1861 3.39813 17.1343 3.29885 17.1289 3.2662L17.141 3.25381C17.2537 3.27005 17.3615 3.32039 17.633 3.48929C17.7639 3.57076 17.9239 3.61863 18.312 3.70893L18.3299 3.7131C18.6432 3.786 18.7824 3.82437 18.9169 3.88359C18.9871 3.91452 19.0691 3.93385 19.1669 3.94512C19.2331 3.95274 19.2809 3.95532 19.402 3.9596ZM19.6519 4.01609C19.652 4.01402 19.6521 4.01195 19.6522 4.00987L19.6569 4.0193C19.6553 4.01819 19.6536 4.01712 19.6519 4.01609ZM15.6108 4.51912C15.7668 4.54021 15.9605 4.4952 16.1676 4.41041L16.1648 4.38976C15.5216 4.31761 14.7924 3.90818 14.7292 3.54644C14.8753 3.76129 15.0763 3.86218 15.4843 3.9817L15.4927 3.9621C15.1484 3.75945 14.9436 3.49909 14.9118 3.28283C15.1926 3.54873 15.5268 3.75082 15.8285 3.80168L15.8353 3.78158C15.6033 3.65771 15.3039 3.30413 15.2017 3.0406C15.4117 3.21409 15.8459 3.4444 16.1271 3.51863L16.1364 3.49977C15.8732 3.29308 15.5967 2.9305 15.5892 2.73367C15.7004 2.83872 15.9294 2.99832 16.274 3.20061C16.5011 3.3338 16.6747 3.39517 16.9026 3.43728C16.9347 3.44321 16.9657 3.44849 17.0144 3.45647C17.1521 3.47904 17.1896 3.4856 17.2612 3.50086L17.272 3.48392C17.2231 3.41803 17.17 3.32169 17.1543 3.27771C17.2579 3.29603 17.366 3.34851 17.6218 3.50757C17.7555 3.59081 17.9163 3.63894 18.3071 3.72988L18.325 3.73405C18.6369 3.80662 18.7754 3.8448 18.9083 3.90329C18.9807 3.93519 19.0647 3.95499 19.1644 3.96648C19.2314 3.97419 19.2795 3.9768 19.4012 3.98109C19.5537 3.98647 19.6148 3.99341 19.6519 4.01609C19.6466 4.12547 19.6516 4.20516 19.6704 4.26699C19.6263 4.43027 19.6499 4.56005 19.7213 4.6322C19.7897 4.70101 19.802 4.71958 19.8102 4.77738C19.8207 4.85141 19.8524 4.91543 19.901 4.95472C19.9424 4.98813 19.974 5.04231 19.9792 5.07963C19.9845 5.1166 20.133 5.26493 20.2017 5.30668C20.2095 5.31138 20.2153 5.31812 20.2225 5.33048L20.2364 5.35543C20.2429 5.36684 20.2493 5.37667 20.2568 5.3867C20.2316 5.51459 20.2462 5.64964 20.294 5.8444C20.1411 5.9646 19.9737 6.01433 19.8581 5.97776C19.7487 5.94319 19.7126 5.83852 19.7773 5.70511L19.761 5.69201C19.6307 5.79651 19.4436 5.8587 19.2886 5.85785C19.1388 5.85702 19.0672 5.7993 19.1138 5.70519L19.1007 5.69026C18.7177 5.82473 18.5255 5.75247 18.5924 5.58747L18.5785 5.57343C18.2644 5.69914 18.0153 5.61459 18.0767 5.49066L18.0643 5.47549C17.8034 5.54675 17.5747 5.52471 17.535 5.46075C17.5099 5.42012 17.5709 5.3115 17.6488 5.2473L17.6383 5.22889C17.5116 5.27531 17.3841 5.28297 17.2376 5.26087C17.1829 5.25254 17.1583 5.24089 17.1535 5.22636C17.1499 5.21544 17.152 5.20941 17.172 5.16555L17.175 5.15868C17.2297 5.03516 17.25 4.99972 17.3222 4.93201L17.335 4.92035L17.3258 4.90173C17.0121 4.96373 16.7448 4.97457 16.5584 4.91172L16.5308 4.90283C16.5085 4.89542 16.4949 4.88902 16.4881 4.88194C16.4819 4.87542 16.4826 4.86886 16.4948 4.85655C16.5629 4.78796 16.6947 4.6951 16.8249 4.63933L16.8191 4.6188C16.3038 4.69512 15.7931 4.67645 15.6108 4.51912ZM15.6108 4.51912C15.6021 4.51163 15.5942 4.50382 15.587 4.49569L15.5768 4.51335C15.5879 4.51564 15.5993 4.51756 15.6108 4.51912ZM17.1543 3.27771C17.1522 3.27164 17.1507 3.26656 17.1501 3.2627L17.138 3.27509C17.1434 3.27588 17.1489 3.27675 17.1543 3.27771ZM15.5892 2.73367C15.5889 2.72537 15.589 2.71736 15.5897 2.70967L15.5714 2.71633C15.5769 2.72193 15.5829 2.72771 15.5892 2.73367ZM15.2017 3.0406C15.1967 3.02774 15.1922 3.0151 15.1882 3.00272L15.1709 3.01405C15.1805 3.02272 15.1908 3.03158 15.2017 3.0406ZM14.9118 3.28283C14.9104 3.27307 14.9093 3.2634 14.9086 3.25383L14.8905 3.26238C14.8976 3.26924 14.9047 3.27606 14.9118 3.28283ZM14.7292 3.54644C14.7267 3.53193 14.7252 3.51749 14.7249 3.50316L14.705 3.50907C14.7129 3.5219 14.721 3.53435 14.7292 3.54644Z" fill="black"/>
<path fill-rule="evenodd" clip-rule="evenodd" d="M21.8441 6.5238L21.8428 6.50612C21.8545 6.49678 21.8504 6.48055 21.8184 6.45141C21.743 6.3822 21.7176 6.33848 21.6811 6.24153C21.6712 6.21501 21.6651 6.20044 21.6569 6.18456C21.6429 6.15737 21.6255 6.13365 21.6009 6.10989C21.4859 5.999 21.3851 5.83086 21.3515 5.69038C21.2954 5.4565 21.2175 5.2702 21.0987 5.16447C21.0176 5.09218 20.9873 4.90106 21.0083 4.65333C21.0108 4.62287 21.0128 4.59392 21.0142 4.56636L21.0211 4.57007L21.021 4.57088L21.0222 4.57064L21.0351 4.57731C21.0337 4.60215 21.0319 4.62807 21.0296 4.65514C21.0092 4.89645 21.0386 5.08216 21.113 5.14838C21.236 5.25798 21.3153 5.44735 21.3724 5.68535C21.405 5.82168 21.5036 5.98624 21.6157 6.09439C21.6421 6.11981 21.6609 6.14543 21.676 6.17468C21.6846 6.19151 21.6909 6.20669 21.7012 6.23394C21.7365 6.328 21.7604 6.36902 21.8329 6.43552C21.8661 6.4658 21.8773 6.49203 21.8663 6.51144C21.8625 6.50953 21.8587 6.50747 21.8549 6.50526L21.8562 6.52294C21.8606 6.51944 21.8639 6.5156 21.8663 6.51144C21.9962 6.57646 22.1657 6.4707 22.1676 6.37256L22.1856 6.36485C22.3597 6.52554 22.5762 6.51236 22.6295 6.3283L22.6456 6.32227C22.7842 6.41219 23.0276 6.42208 23.0925 6.3345C23.182 6.21438 23.1294 6.12026 22.7671 5.90007L22.7754 5.88047C22.8885 5.91017 22.9796 5.85471 22.989 5.75975L23.0054 5.75178C23.1303 5.83297 23.236 5.8495 23.384 5.81858C23.5054 5.79326 23.5077 5.7001 23.4019 5.56265L23.4157 5.54674C23.5428 5.61947 23.6812 5.65912 23.7752 5.6497C23.8744 5.63976 23.9118 5.5787 23.8714 5.46472L23.8836 5.45058C24.0322 5.48169 24.1502 5.47679 24.1839 5.42366C24.2246 5.35983 24.1462 5.24417 23.9449 5.09189L23.9502 5.07262C24.0027 5.06681 24.0338 5.05918 24.0707 5.04273C24.2698 5.14331 24.7001 5.22356 24.9009 5.20901C25.0688 5.19699 25.123 5.11782 25.0928 4.94268C25.5236 4.85892 25.92 4.72306 26.1824 4.52909C26.2108 4.5081 26.2235 4.49861 26.2397 4.48616C26.2628 4.46844 26.2824 4.45255 26.2995 4.43747C26.326 4.41419 26.3458 4.39345 26.3582 4.37556C26.3687 4.36969 26.3789 4.3638 26.3886 4.35789L26.3727 4.34623C26.3706 4.35492 26.3658 4.36472 26.3582 4.37556C26.1373 4.499 25.7513 4.61338 25.0908 4.77513L25.085 4.75446C25.6715 4.56162 26.5794 3.97442 26.6165 3.72339C26.6228 3.71785 26.629 3.71226 26.6351 3.70663L26.6172 3.69972C26.6179 3.70723 26.6177 3.71513 26.6165 3.72339C26.4644 3.85633 26.25 3.96212 25.892 4.10027C25.862 4.11184 25.8312 4.1236 25.7911 4.13885L25.6912 4.17671L25.6821 4.15736C26.0429 3.94741 26.3337 3.63926 26.3635 3.40266C26.3712 3.39307 26.3786 3.38331 26.3855 3.37335L26.366 3.36705C26.3659 3.37871 26.3651 3.39059 26.3635 3.40266C26.2637 3.52684 26.0985 3.62247 25.7807 3.76561L25.7708 3.77003C25.7421 3.78291 25.6595 3.81993 25.6329 3.83201C25.5889 3.85201 25.5522 3.86911 25.5181 3.88559L25.5068 3.86747C25.6656 3.74139 25.7209 3.69653 25.8073 3.62122C25.97 3.47943 26.094 3.35071 26.1775 3.22918C26.2627 3.10514 26.3013 2.99373 26.2877 2.89616C26.2927 2.88816 26.2976 2.88014 26.3022 2.87208L26.2825 2.86928C26.2847 2.87812 26.2864 2.88708 26.2877 2.89616C26.1722 3.07927 25.949 3.24712 25.5914 3.44929C25.5347 3.48134 25.3927 3.55876 25.2928 3.61317C25.2423 3.64068 25.2026 3.66231 25.1902 3.66922L25.178 3.65168C25.4058 3.45457 25.5342 3.28195 25.5471 3.0642L25.5651 3.05081L25.548 3.04194C25.5478 3.04941 25.5475 3.05684 25.5471 3.0642C25.0595 3.42418 24.4613 3.68026 23.8348 3.83268L23.829 3.81853L23.8267 3.81302C23.9793 3.72064 24.1394 3.54805 24.1865 3.42559L24.212 3.40861L24.1956 3.3971C24.1933 3.40623 24.1902 3.41575 24.1865 3.42559C23.7274 3.72681 23.0445 3.92976 22.5447 3.96302C22.0925 3.99288 21.7998 4.03091 21.4461 4.11574C21.3787 4.04764 21.1799 4.05127 20.9325 4.11892C20.9285 4.11447 20.9244 4.11009 20.9201 4.10577L20.9154 4.12368L20.9325 4.11892C21.0185 4.21475 21.0447 4.34157 21.0368 4.54219L21.0169 4.54613L21.0145 4.56164C21.0251 4.34546 20.9983 4.21581 20.9049 4.12088L20.9096 4.10298C21.1723 4.02868 21.3846 4.02313 21.451 4.09774C21.796 4.00968 22.0899 3.9715 22.5433 3.94156C23.0488 3.90791 23.7444 3.69903 24.2 3.39078L24.2164 3.40229C24.1877 3.51796 24.0423 3.68866 23.8906 3.79662C24.5001 3.64131 25.0798 3.38694 25.5523 3.03356L25.5694 3.04243C25.5646 3.25497 25.4572 3.42326 25.2613 3.60588L25.2829 3.59409L25.283 3.59405L25.2832 3.5939C25.3831 3.53951 25.5245 3.46245 25.5809 3.43055C25.9508 3.22139 26.1755 3.04949 26.2837 2.86133L26.3033 2.86412C26.3307 2.97506 26.2914 3.10123 26.1951 3.24139C26.1104 3.36469 25.9853 3.49459 25.8213 3.63746C25.7492 3.70036 25.6987 3.74206 25.5922 3.82702L25.6241 3.81242C25.6507 3.80035 25.7329 3.76346 25.7618 3.7505L25.7719 3.74599C26.1104 3.5935 26.2739 3.49557 26.368 3.361L26.3875 3.36731C26.3847 3.59643 26.1278 3.89569 25.7891 4.11659L25.8843 4.08019C26.2548 3.93724 26.4701 3.8293 26.6207 3.69078L26.6386 3.69768C26.6601 3.92532 25.8761 4.46 25.2705 4.7084C25.846 4.56354 26.1848 4.45619 26.3776 4.33947L26.3935 4.35113C26.3868 4.37994 26.3594 4.41339 26.3137 4.45364C26.2961 4.46907 26.2762 4.48525 26.2528 4.50323C26.2364 4.5158 26.2236 4.52535 26.1951 4.54641C25.9295 4.74273 25.5306 4.87947 25.1052 4.95074C25.1469 5.12543 25.0838 5.21748 24.9024 5.23046C24.6979 5.24529 24.2637 5.16431 24.0714 5.06155C24.0465 5.07659 24.0191 5.08482 23.9787 5.09069C24.1733 5.24187 24.25 5.35993 24.202 5.43523C24.1627 5.49702 24.0465 5.50417 23.8974 5.47528C23.9321 5.59153 23.8852 5.6603 23.7773 5.6711C23.6886 5.67999 23.5649 5.64812 23.4461 5.58761C23.5312 5.7166 23.5176 5.8127 23.3884 5.83964C23.2406 5.87051 23.1317 5.85543 23.0078 5.77873C22.9915 5.86182 22.9177 5.9142 22.8237 5.9097C23.1545 6.11657 23.205 6.21943 23.1097 6.34736C23.0385 6.44343 22.7943 6.43611 22.6458 6.34771C22.5827 6.53165 22.3641 6.54627 22.1865 6.39439C22.1629 6.50389 21.9809 6.60452 21.8441 6.5238ZM21.5108 4.5064C21.516 4.49239 21.5199 4.47724 21.5224 4.46092L21.5097 4.44875L21.0368 4.54219L21.0361 4.55688L21.0241 4.55023L21.0211 4.57007L21.0222 4.57064L21.0356 4.56791L21.0351 4.57731C21.2189 4.66956 21.4221 4.66422 21.4963 4.53716C21.6573 4.62464 21.9116 4.58177 21.9937 4.45918C22.2245 4.54275 22.4403 4.49257 22.4787 4.28076L22.4647 4.26866L22.0115 4.42408C22.018 4.40601 22.021 4.38662 22.02 4.36603L21.5108 4.5064ZM21.5061 4.51802C21.5078 4.51424 21.5093 4.51036 21.5108 4.5064L21.4893 4.51232L21.487 4.53189L21.4963 4.53716L21.4993 4.53175L21.5205 4.52537C21.6721 4.59791 21.9002 4.55672 21.9819 4.4548L21.9937 4.45918C21.9955 4.45655 21.9971 4.45389 21.9987 4.45119L22.0176 4.44473C22.2241 4.51385 22.4105 4.47002 22.4538 4.29515L22.4717 4.28901L22.4576 4.2769C22.4565 4.28314 22.4552 4.28922 22.4538 4.29515L22.0176 4.44473C22.0133 4.44329 22.009 4.44181 22.0047 4.44027C22.0073 4.435 22.0096 4.4296 22.0115 4.42408L21.9991 4.42836C22.0071 4.41231 22.0118 4.39509 22.0124 4.37687L21.5205 4.52537C21.5156 4.52304 21.5108 4.52059 21.5061 4.51802ZM21.9946 4.43659C21.9979 4.43785 22.0013 4.43907 22.0047 4.44027C22.0028 4.44397 22.0009 4.44762 21.9987 4.45119L21.9886 4.45468L21.9887 4.44571C21.9908 4.44271 21.9927 4.43968 21.9946 4.43659ZM21.9946 4.43659C21.9927 4.43589 21.9908 4.43518 21.9889 4.43446L21.9887 4.44571C21.9866 4.44879 21.9843 4.45182 21.9819 4.4548L21.9813 4.45456L21.9816 4.43433L21.9991 4.42836C21.9977 4.43114 21.9962 4.43388 21.9946 4.43659ZM21.5061 4.51802C21.504 4.52274 21.5017 4.52732 21.4993 4.53175L21.4955 4.53291L21.4978 4.51334L21.5061 4.51802ZM21.0512 4.56472L21.0356 4.56791L21.0361 4.55688L21.0512 4.56472ZM21.4983 4.47343C21.4614 4.64203 21.2477 4.6638 21.0512 4.56472L21.4983 4.47343ZM21.4983 4.47343C21.4995 4.46832 21.5004 4.46307 21.5012 4.45769L21.5139 4.47026L21.4983 4.47343ZM23.8287 3.81863L22.8628 4.13044L22.8678 4.15129C22.9702 4.13413 23.1311 4.08673 23.345 4.01382C23.3746 4.00374 23.405 3.99321 23.4366 3.98216C23.5431 3.94493 23.8463 3.83516 23.8358 3.8389L23.829 3.81853L23.8289 3.81855L23.8287 3.81863ZM23.8287 3.81863C23.8188 3.82224 23.5323 3.92593 23.4296 3.96185C23.398 3.97288 23.3676 3.9834 23.3381 3.99345C23.1253 4.066 22.9651 4.11318 22.8643 4.13007L22.8694 4.15092L23.8355 3.839L23.8287 3.81863ZM21.0145 4.56164L21.0142 4.56636L21.0138 4.56612L21.0145 4.56164ZM17.2498 3.49353C17.3181 3.59309 17.4973 3.73907 17.6101 3.77456C17.6182 3.85359 17.6516 3.93016 17.7078 3.99187L17.1975 3.82816L17.1838 3.84118C17.1957 3.88578 17.2159 3.92506 17.242 3.9586L16.8905 3.81607C16.9196 3.81663 16.9515 3.81465 16.9863 3.81001L16.9921 3.79137L16.9102 3.71716L17.2498 3.49353ZM16.8793 3.56877L17.2498 3.49353L17.2652 3.47889L17.6082 3.7424L17.6084 3.75136C17.5901 3.7449 17.57 3.73555 17.549 3.72403L17.3333 3.55834C17.3065 3.53137 17.2837 3.50493 17.2675 3.48134L17.2521 3.49597L17.3333 3.55834C17.3948 3.62016 17.4774 3.68475 17.549 3.72403L17.6097 3.77066L17.6101 3.77456L17.6198 3.7774L17.6291 3.75846L17.6082 3.7424C17.6081 3.73414 17.6082 3.72586 17.6086 3.71759L17.624 3.70847L18.397 4.08588C18.3977 4.09079 18.3986 4.09565 18.3998 4.10047L18.3853 4.10407L17.6296 3.7351C17.6296 3.72963 17.6298 3.72416 17.63 3.7187L17.6146 3.72781L17.6296 3.7351C17.629 3.88573 17.7262 4.03505 17.9027 4.08823C18.0592 4.13539 18.2127 4.14124 18.3424 4.116C18.3093 4.12593 18.2763 4.13748 18.244 4.15029C18.1358 4.15748 18.017 4.14512 17.8965 4.10883C17.8367 4.09079 17.7854 4.0622 17.7434 4.02641L17.7485 4.02242L17.745 4.00381L17.7078 3.99187C17.714 3.9987 17.7205 4.00534 17.7272 4.01178L17.7187 4.01797L17.2103 3.85487C17.2082 3.84858 17.2063 3.84216 17.2045 3.83562L17.1909 3.84864L17.2103 3.85487C17.2324 3.92026 17.274 3.97235 17.326 4.00937L17.2769 3.99694L17.2765 3.99652L17.2812 3.99509L17.282 3.97484L17.242 3.9586C17.2475 3.96572 17.2533 3.97258 17.2594 3.97919L17.2454 3.98318L16.8263 3.81322L16.8275 3.81022C16.8468 3.81367 16.8678 3.81564 16.8905 3.81607L16.8247 3.78938L16.8109 3.79479L16.8062 3.80563C16.799 3.8038 16.792 3.80173 16.7853 3.79942L16.8085 3.78414C16.8487 3.79486 16.899 3.79769 16.9602 3.79144L16.9777 3.80733L16.9835 3.78869C16.9755 3.78975 16.9678 3.79066 16.9602 3.79144L16.8917 3.72936L16.9102 3.71716L16.7709 3.59078L16.8272 3.57935C16.8428 3.5818 16.8584 3.58397 16.8741 3.58585L16.8793 3.56877ZM16.875 3.56963L16.8793 3.56877L16.8802 3.56561L15.9043 3.06187L15.892 3.07924C16.1255 3.30105 16.3966 3.47051 16.682 3.54814C16.6734 3.5676 16.6678 3.58955 16.6657 3.61213L16.5353 3.63861L16.1286 3.49364L16.1182 3.51208C16.1949 3.57547 16.2993 3.62224 16.4327 3.65945L15.8334 3.78113L15.8333 3.7811L15.8272 3.80242L15.8273 3.80246L16.2246 3.92569C16.2207 3.96307 16.2421 4.00516 16.2923 4.04375C16.31 4.05733 16.3311 4.07033 16.3551 4.08274C16.3043 4.1071 16.2851 4.14693 16.2959 4.18958L15.4902 3.96139L15.4815 3.98081C15.6891 4.11295 15.9489 4.18349 16.3061 4.21586C16.3158 4.23419 16.3308 4.25257 16.351 4.27003C16.3268 4.29824 16.3174 4.32998 16.321 4.36229C16.273 4.36076 16.2044 4.37299 16.1595 4.3918L16.1652 4.41308L16.3263 4.38702C16.336 4.41801 16.3572 4.44884 16.3883 4.47694C16.6478 4.71174 17.2884 4.70721 17.8942 4.4963C17.9079 4.5269 17.9433 4.54795 17.9998 4.56377C18.0227 4.57021 18.0459 4.5757 18.0694 4.58026L17.3237 4.90276L17.3295 4.92328C17.5559 4.88999 17.874 4.74225 18.1089 4.58702C18.1713 4.59626 18.2352 4.59918 18.2996 4.59617C18.2721 4.6475 18.2672 4.71326 18.2872 4.76902L17.4983 5.04874L17.5049 5.06919C17.7647 4.99264 18.1042 4.87392 18.2958 4.7894C18.3194 4.83704 18.3633 4.87407 18.4291 4.88262L17.6377 5.22949L17.6446 5.24976C17.8296 5.2018 18.1962 5.04156 18.4769 4.88691C18.5573 4.89129 18.6461 4.88261 18.7377 4.86372C18.7205 4.89924 18.7104 4.93426 18.707 4.96755L17.9513 5.32217L17.9585 5.34232C18.1875 5.2836 18.3942 5.18012 18.7057 4.99368C18.706 5.04387 18.7223 5.08906 18.7537 5.12457L18.0623 5.47335L18.0693 5.49348C18.1444 5.47771 18.2341 5.4437 18.3358 5.3943C18.3916 5.36723 18.4501 5.33597 18.5112 5.30102C18.5983 5.25113 18.6668 5.20836 18.7704 5.14128C18.8054 5.17236 18.8543 5.19372 18.9161 5.20116C18.9232 5.20202 18.9304 5.20265 18.9377 5.20307L18.3718 5.4684L18.3786 5.48866C18.5042 5.46197 18.6243 5.41276 18.7536 5.34156C18.7828 5.32549 18.8423 5.29005 18.8953 5.25846L18.8953 5.25844C18.9366 5.23387 18.9739 5.21163 18.9901 5.20262C19.0546 5.19812 19.1266 5.17956 19.2025 5.14835C19.1687 5.20159 19.1505 5.24419 19.1477 5.28166L18.5696 5.57089L18.5779 5.59066C18.6795 5.55515 18.9731 5.4052 19.1481 5.30652C19.151 5.33148 19.1615 5.35452 19.1795 5.37758C19.1974 5.40059 19.2186 5.41308 19.2467 5.41529L18.8501 5.6L18.8586 5.61973C18.9949 5.5647 19.1806 5.47853 19.3377 5.39781C19.38 5.38236 19.432 5.35693 19.4973 5.32177C19.5486 5.29416 19.6091 5.25499 19.6784 5.20531C19.6966 5.19225 19.7153 5.17853 19.7347 5.16409C19.7199 5.21775 19.7192 5.26402 19.7308 5.3026L19.0954 5.6883L19.1048 5.70754C19.275 5.64212 19.5902 5.44475 19.7393 5.32478C19.7556 5.35987 19.7836 5.3874 19.8216 5.40707L19.3802 5.68842L19.3901 5.7074C19.5582 5.6361 19.7527 5.51034 19.8467 5.41832L19.8509 5.41993C19.949 5.45655 20.0478 5.45766 20.1403 5.40891L19.7613 5.69388L19.7731 5.71174C19.958 5.60196 20.1773 5.43969 20.2494 5.35344L20.2347 5.33792L20.2339 5.33858L20.2309 5.32205L19.784 5.12679C19.8087 5.10791 19.8343 5.08797 19.8623 5.06592L19.9529 4.99421L19.9444 4.97518L19.6516 5.02945L19.8563 4.87249L19.8438 4.85502C19.7784 4.89907 19.6793 4.97108 19.5866 5.04149L19.3223 5.09049C19.4792 5.0037 19.6454 4.87009 19.7951 4.70041L19.7855 4.68264L19.3992 4.7378L19.4507 4.70364L19.5678 4.62516C19.6122 4.59553 19.6477 4.57237 19.6815 4.55117L19.6703 4.53279L19.6701 4.53294L19.2999 4.75197L18.9582 4.80075C19.1686 4.72475 19.3693 4.60741 19.4922 4.48261C19.5445 4.47538 19.5984 4.46523 19.6533 4.45193L19.6561 4.45248L19.6561 4.45126L19.6607 4.45013L19.6601 4.42913L19.0187 4.30588C19.0596 4.30282 19.1016 4.29791 19.1445 4.291L19.1458 4.27006L18.4099 4.05414L18.3962 4.06394C18.3958 4.07135 18.3961 4.07866 18.397 4.08588L18.4212 4.09767L18.4219 4.10006L18.4189 4.09857L18.415 4.09809L18.415 4.09789L18.4146 4.09803L18.4117 4.09768L18.3998 4.10047L18.4002 4.10226L18.3883 4.10553L18.3853 4.10407C18.371 4.10772 18.3567 4.11171 18.3424 4.116C18.3581 4.11296 18.3734 4.10946 18.3883 4.10553L18.4036 4.113L18.4067 4.12092C18.3872 4.12559 18.3674 4.13094 18.3477 4.13688C18.3145 4.14339 18.2798 4.14791 18.244 4.15029C18.1995 4.16797 18.1564 4.18805 18.1167 4.20956L17.6238 4.08477C17.6667 4.07368 17.7075 4.0544 17.7434 4.02641L17.738 4.02166L17.735 4.00569L17.7272 4.01178L17.738 4.02166L17.7385 4.0243L17.7187 4.01797C17.6755 4.04832 17.6257 4.06609 17.5743 4.07224L17.326 4.00937C17.351 4.02712 17.3783 4.04141 17.407 4.05205L17.3168 4.02921C17.3028 4.01946 17.2894 4.0087 17.2769 3.99694L17.2759 3.99669L17.2765 3.99652L17.274 3.99419L17.2749 3.97453L17.2594 3.97919C17.2641 3.98435 17.269 3.98935 17.274 3.99419L17.274 3.99478L17.2454 3.98318L17.2344 3.98618L16.8136 3.87963C16.8126 3.85884 16.8167 3.83649 16.8263 3.81322L16.8166 3.80932L16.8187 3.80851L16.8275 3.81022L16.8303 3.80391L16.8187 3.80851L16.8062 3.80563C16.7963 3.82988 16.7915 3.85321 16.7916 3.8751C16.7584 3.86878 16.7267 3.86301 16.6966 3.85782L16.7853 3.79942C16.7401 3.78382 16.7075 3.75766 16.6873 3.72233L16.6829 3.714L16.6836 3.71412L16.689 3.69339L16.6726 3.68755C16.6655 3.66336 16.6634 3.63735 16.6657 3.61213L16.6878 3.60765C16.6833 3.64329 16.6885 3.68129 16.7059 3.71163C16.7256 3.74615 16.7595 3.77103 16.8085 3.78414L16.8917 3.72936L16.7448 3.59608L16.7709 3.59078L16.7398 3.56255C16.7688 3.56913 16.7979 3.57474 16.8272 3.57935L16.8507 3.57456L16.8704 3.58474L16.875 3.56963ZM16.8134 3.55528C16.8344 3.55889 16.8555 3.56196 16.8766 3.5645L16.875 3.56963L16.8507 3.57456L16.8134 3.55528ZM16.7065 3.53238C16.7419 3.54149 16.7776 3.54915 16.8134 3.55528L15.9656 3.11771C15.9457 3.10006 15.9261 3.08203 15.9068 3.06363L15.8945 3.081L15.9656 3.11771C16.1874 3.31465 16.4399 3.46329 16.7038 3.53168L16.6889 3.53417C16.6864 3.53865 16.6841 3.54332 16.682 3.54814L16.6961 3.5519L16.7015 3.55687C16.6947 3.57235 16.69 3.5897 16.6878 3.60765L16.7448 3.59608L16.7015 3.55687L16.703 3.55369C16.7152 3.55681 16.7275 3.55977 16.7398 3.56255L16.7065 3.53238ZM16.703 3.55369C16.7044 3.55058 16.706 3.54755 16.7076 3.54462L16.6911 3.54737L16.6961 3.5519L16.703 3.55369ZM16.7065 3.53238L16.7054 3.53141L16.7038 3.53168L16.7065 3.53238ZM16.6735 3.69053L16.6726 3.68755L16.5353 3.63861L16.4945 3.64689L16.1956 3.54035C16.1724 3.52638 16.1511 3.51146 16.1318 3.49548L16.1214 3.51391L16.1956 3.54035C16.2703 3.58539 16.3651 3.6206 16.4802 3.6498L16.4327 3.65945C16.507 3.68019 16.5903 3.69797 16.6829 3.714L16.6821 3.71244L16.6872 3.69292L16.6735 3.69053ZM16.547 3.66559L16.4945 3.64689L16.4802 3.6498C16.5017 3.65526 16.524 3.66052 16.547 3.66559ZM16.547 3.66559C16.587 3.67442 16.6291 3.68269 16.6735 3.69053C16.6759 3.69805 16.6787 3.70538 16.6821 3.71244L16.6818 3.71365L16.547 3.66559ZM16.6703 3.87519L16.6966 3.85782C16.4914 3.8224 16.3588 3.81372 16.2993 3.83991C16.264 3.85559 16.2405 3.87783 16.2302 3.90345C16.1843 3.88558 16.1409 3.87062 16.0933 3.85593C16.0744 3.85011 16.0547 3.84428 16.032 3.83778C16.0453 3.8416 15.8869 3.79706 15.8334 3.78114L15.8334 3.78113L15.8273 3.80246C15.8809 3.81839 16.0397 3.86306 16.0263 3.85919C16.0488 3.86566 16.0684 3.87145 16.0872 3.87723C16.1034 3.88223 16.1191 3.88726 16.1346 3.89243L16.2246 3.92569L16.2483 3.95424C16.255 3.97752 16.2736 4.0023 16.3053 4.02668L16.3137 4.03284L16.3551 4.08274C16.3627 4.08666 16.3706 4.09052 16.3788 4.09432L16.3783 4.09434L16.3794 4.09461L16.3809 4.09529C16.2965 4.12545 16.293 4.19714 16.37 4.25885L16.3678 4.25855L16.3588 4.26161C16.356 4.26438 16.3534 4.26719 16.351 4.27003C16.3562 4.27456 16.3618 4.27904 16.3678 4.28344C16.3224 4.33588 16.3382 4.40282 16.4027 4.46095C16.6498 4.6846 17.2634 4.68466 17.852 4.48798L17.8931 4.49373L17.8942 4.4963L17.9016 4.49371L17.8996 4.47291L17.8993 4.47287L17.9007 4.45369L17.8886 4.45067C17.8914 4.42933 17.9005 4.40468 17.9159 4.37607C17.9396 4.33219 17.9929 4.28506 18.062 4.24151C18.0815 4.23822 18.1002 4.23466 18.1177 4.23085L18.1181 4.20991L18.1167 4.20956L18.1131 4.2115L18.1132 4.20983C18.0983 4.21307 18.0826 4.21611 18.0662 4.21897L17.5728 4.09404C17.59 4.09218 17.6071 4.0891 17.6238 4.08477L17.5743 4.07224C17.5438 4.07589 17.5128 4.07544 17.4822 4.0711L17.407 4.05205C17.4313 4.06106 17.4566 4.06745 17.4822 4.0711L17.5728 4.09404C17.4838 4.10369 17.3908 4.08064 17.3168 4.02921L17.2345 4.00837C17.248 4.00484 17.2619 4.00095 17.2759 3.99669L17.2344 3.98618C17.2192 3.99026 17.2043 3.99389 17.1899 3.99707L16.817 3.90267C16.8151 3.89524 16.814 3.88755 16.8136 3.87963L16.8087 3.87838L16.8081 3.87825L16.7916 3.8751C16.7917 3.8827 16.7923 3.89012 16.7935 3.89734C16.7498 3.88899 16.7087 3.88159 16.6703 3.87519ZM16.3757 4.06919C16.3521 4.0576 16.3314 4.04548 16.3137 4.03284L16.2483 3.95424C16.2373 3.91576 16.2589 3.88136 16.308 3.85959C16.36 3.83667 16.483 3.84398 16.6703 3.87519L16.3757 4.06919ZM16.3858 4.07403L16.3835 4.07347L16.3775 4.07371C16.3695 4.07641 16.362 4.07943 16.3551 4.08274L16.3757 4.06919L16.3858 4.07403ZM16.3858 4.07403C16.5069 4.13106 16.6951 4.17486 16.907 4.20466L16.3858 4.07403ZM17.0737 4.24643L16.907 4.20466C17.306 4.26079 17.789 4.26727 18.0662 4.21897L18.0895 4.22485C18.0801 4.23034 18.0709 4.23589 18.062 4.24151C17.82 4.28223 17.4311 4.28293 17.0737 4.24643ZM16.9023 4.22566C16.9581 4.23356 17.0155 4.24049 17.0737 4.24643L17.8886 4.45067L17.8882 4.45425C17.8701 4.4559 17.8511 4.4573 17.8313 4.45848L16.9023 4.22566ZM16.3814 4.09511L16.3843 4.0941L16.3788 4.09432L16.3794 4.09461L16.3814 4.09511ZM16.3814 4.09511L16.9023 4.22566C16.6919 4.19585 16.5044 4.15217 16.3809 4.09529L16.3814 4.09511ZM17.8755 4.46955L17.8313 4.45848L17.8061 4.45983L16.37 4.25885C16.3818 4.26829 16.3954 4.27751 16.411 4.2863L16.3703 4.28061L16.374 4.27678L16.3649 4.27985L16.3703 4.28061L16.3678 4.28344C16.3923 4.30161 16.4228 4.31843 16.4591 4.33271C16.7092 4.4311 17.4013 4.50041 17.8051 4.4814L17.852 4.48798L17.8874 4.47592L17.8885 4.47582C17.8893 4.48212 17.8909 4.48808 17.8931 4.49373L17.8966 4.49421L17.8947 4.47523L17.8991 4.47482L17.8993 4.47287L17.8956 4.47237L17.897 4.45342L17.8882 4.45425C17.8876 4.46019 17.8876 4.46586 17.888 4.47129L17.8755 4.46955ZM17.8881 4.47271L17.8755 4.46955L17.8061 4.45983C17.7648 4.46181 17.7204 4.46285 17.6737 4.46302L16.411 4.2863C16.4275 4.29564 16.4462 4.30452 16.467 4.31269C16.6888 4.39996 17.2677 4.46449 17.6737 4.46302L17.8051 4.4814C17.8341 4.48004 17.8616 4.47822 17.8874 4.47592L17.8884 4.47555L17.8885 4.47582L17.8947 4.47523L17.8946 4.47434L17.8955 4.47455L17.8956 4.47237L17.888 4.47129L17.8881 4.47271ZM17.893 4.47394L17.8946 4.47434L17.8945 4.47341L17.893 4.47394ZM17.893 4.47394L17.8881 4.47271L17.8884 4.47555L17.893 4.47394ZM16.8038 3.89931L16.817 3.90267C16.8398 3.99302 16.9716 4.04506 17.1899 3.99707L17.2345 4.00837C16.9738 4.0763 16.8124 4.01099 16.7935 3.89734L16.8038 3.89931ZM16.8038 3.89931L16.8041 3.89937L16.8035 3.89924L16.8038 3.89931ZM18.0895 4.22485C18.0972 4.22035 18.1051 4.21589 18.1131 4.2115L18.1128 4.23076L18.0895 4.22485ZM16.2247 3.92505C16.1942 3.91312 16.1648 3.90251 16.1346 3.89243L15.8334 3.78114L16.2299 3.90413C16.2272 3.91089 16.2255 3.91788 16.2247 3.92505ZM16.2247 3.92505L16.2323 3.92803L16.2391 3.907L16.2299 3.90413L16.2302 3.90345L16.2399 3.90726L16.233 3.92829L16.2246 3.92569L16.2247 3.92505ZM18.4075 4.12256L18.4067 4.12092L18.4127 4.11951L18.4146 4.12048L18.4075 4.12256ZM18.6765 4.28482C18.5378 4.2534 18.4396 4.19468 18.4075 4.12256C18.3882 4.12807 18.3682 4.13285 18.3477 4.13688C18.1645 4.19206 17.9824 4.29826 17.9348 4.38632C17.8853 4.47798 17.9064 4.5153 18.0055 4.54306C18.294 4.62419 18.6374 4.5505 18.8998 4.36658L18.9105 4.37202C18.9122 4.37517 18.9141 4.37828 18.9161 4.38133C18.8092 4.45699 18.6889 4.51461 18.564 4.55122L18.3172 4.57523L18.3094 4.57988C18.3058 4.58512 18.3026 4.59056 18.2996 4.59617L18.3223 4.59486L18.3193 4.59663L18.3244 4.59613C18.2664 4.68773 18.2972 4.84422 18.4324 4.86137C18.4445 4.8629 18.4569 4.86408 18.4694 4.86492L18.4291 4.88262L18.4297 4.8827L18.4379 4.88369C18.3446 4.93421 18.243 4.98491 18.1426 5.03166L17.9108 5.13323C17.8039 5.17694 17.7085 5.21098 17.6393 5.22894L17.6462 5.2492L17.9108 5.13323C17.9842 5.10324 18.063 5.06869 18.1426 5.03166L18.4733 4.88671L18.4769 4.88691L18.4926 4.87817L18.4866 4.86586C18.568 4.86932 18.658 4.85934 18.7507 4.83898C18.746 4.84724 18.7416 4.85549 18.7377 4.86372L18.7647 4.85785C18.6805 5.01377 18.74 5.1583 18.9187 5.17981C18.9392 5.18229 18.961 5.18283 18.9837 5.18151L18.9377 5.20307L18.9458 5.20345L18.8832 5.24065C18.8511 5.25979 18.8168 5.28021 18.7885 5.2968L18.4945 5.43464C18.4546 5.44802 18.4146 5.45902 18.3741 5.46762L18.3809 5.48788L18.4945 5.43464C18.5761 5.40726 18.6576 5.3699 18.7433 5.32271C18.7545 5.31655 18.7702 5.30747 18.7885 5.2968L18.9892 5.20268L18.9901 5.20262L18.9949 5.20001L18.9857 5.1814C19.0569 5.17695 19.1382 5.15436 19.2244 5.11565C19.2165 5.12699 19.2092 5.13788 19.2025 5.14835C19.2145 5.14345 19.2265 5.13823 19.2387 5.1327C19.1611 5.24539 19.1501 5.30491 19.1963 5.36433C19.2212 5.3962 19.2573 5.40202 19.3208 5.38075L19.2467 5.41529L19.2548 5.41564C19.1162 5.48453 18.9656 5.55334 18.8506 5.59978L18.8592 5.61951L19.327 5.40159L19.3377 5.39781L19.3619 5.38532L19.3536 5.3684C19.3899 5.3534 19.4338 5.33158 19.4871 5.30281C19.5376 5.27571 19.5973 5.237 19.6659 5.18781C19.6899 5.17062 19.7148 5.15226 19.7409 5.13261L19.7461 5.12867C19.7416 5.14081 19.7378 5.15262 19.7347 5.16409L19.7537 5.1498L19.7641 5.14193C19.7163 5.27735 19.7565 5.36203 19.8583 5.39976C19.9789 5.44478 20.0992 5.43323 20.2074 5.33524L20.2223 5.34177L20.2191 5.32419L20.2074 5.33524L19.7644 5.14168L19.784 5.12679L19.7624 5.11732L19.7594 5.11857C19.7876 5.09713 19.8167 5.07448 19.8491 5.049L19.9057 5.00422L19.9482 4.99633L19.9397 4.97731L19.9057 5.00422L19.614 5.05829L19.6516 5.02945L19.6339 5.03273C19.7157 4.97125 19.7987 4.91127 19.8558 4.87288L19.8433 4.85541L19.605 5.03807L19.5866 5.04149L19.5489 5.07035L19.2559 5.12466C19.2778 5.11424 19.2999 5.10284 19.3223 5.09049L19.2495 5.10398C19.4146 5.02471 19.596 4.88817 19.7594 4.70809L19.7886 4.70393L19.779 4.68615L19.7594 4.70809L19.3565 4.76562L19.3992 4.7378L19.3555 4.74403L19.6812 4.55132L19.6701 4.53294C19.6362 4.55426 19.6005 4.57752 19.5559 4.60725L19.4389 4.68574C19.4071 4.70695 19.3772 4.72665 19.3488 4.74499L19.2999 4.75197L19.2515 4.7806L18.8354 4.84001C18.8764 4.82864 18.9175 4.81547 18.9582 4.80075L18.8311 4.81891C19.0683 4.75279 19.3104 4.62561 19.457 4.48708C19.4686 4.48574 19.4804 4.48425 19.4922 4.48261L19.4951 4.47973L19.4875 4.46395C19.5261 4.45857 19.5658 4.45153 19.6062 4.44274L19.6533 4.45193L19.6561 4.45126L19.6556 4.43116C19.639 4.43532 19.6225 4.43917 19.6062 4.44274L18.9241 4.30972C18.9548 4.30955 18.9864 4.30829 19.0187 4.30588L18.9269 4.28823C18.9797 4.28779 19.0351 4.28413 19.0924 4.2768L19.1398 4.2907L19.1411 4.26976C19.1248 4.2724 19.1085 4.27475 19.0924 4.2768L18.4178 4.07888C18.4174 4.07428 18.4174 4.06965 18.4176 4.06499L18.4039 4.07479L18.4178 4.07888C18.4184 4.08522 18.4195 4.09148 18.4212 4.09767L18.4229 4.0985L18.4227 4.1005L18.4219 4.10006L18.4226 4.10239L18.4213 4.11844L18.4146 4.12048L18.4364 4.13156C18.4758 4.19349 18.5742 4.24414 18.7092 4.26989L18.7707 4.30109C18.7531 4.29892 18.7359 4.29635 18.7192 4.2934L18.7112 4.2734L18.6765 4.28482ZM18.6856 4.28685L18.6765 4.28482L18.241 4.42807L18.2455 4.44969C18.4424 4.42471 18.5548 4.38268 18.7194 4.29385L18.7192 4.2934L18.717 4.29302L18.7095 4.27411L18.6856 4.28685ZM18.5679 4.34383L18.7177 4.29456L18.717 4.29302C18.7064 4.29112 18.6959 4.28905 18.6856 4.28685C18.644 4.30879 18.6056 4.3276 18.5679 4.34383ZM18.3916 4.40181C18.4547 4.38717 18.5105 4.36849 18.5679 4.34383L18.3916 4.40181ZM18.3916 4.40181C18.3467 4.41222 18.2982 4.42059 18.2429 4.4276L18.2474 4.44922L18.3916 4.40181ZM18.8293 4.30674C18.8093 4.30534 18.7897 4.30344 18.7707 4.30109L18.8998 4.36658L18.9059 4.36224C18.9072 4.36555 18.9088 4.36881 18.9105 4.37202L18.9156 4.37462L18.9142 4.35631L18.9059 4.36224C18.9033 4.35591 18.9014 4.34939 18.9002 4.34269L18.9253 4.35543L18.9267 4.37374L18.9161 4.38133C18.9428 4.42091 18.9987 4.45188 19.0752 4.47169L18.9915 4.50964L18.564 4.55122C18.4855 4.57424 18.4052 4.58896 18.3253 4.59465L18.3271 4.59197L18.3223 4.59486L18.3253 4.59465L18.3244 4.59613L18.9308 4.53714L18.5652 4.70292L18.5728 4.72298C18.7195 4.67669 18.881 4.60478 19.0237 4.52811L19.3682 4.49461C19.397 4.49306 19.4267 4.49057 19.457 4.48708L19.4583 4.48584L19.4884 4.48291L19.4799 4.46499L19.4875 4.46395L19.4864 4.46151L19.3228 4.47741C19.0742 4.4826 18.9023 4.41258 18.9219 4.30973L18.9241 4.30972L18.922 4.30932C18.9226 4.30621 18.9234 4.30307 18.9244 4.2999L18.9121 4.30739L18.922 4.30932L18.9219 4.30973L18.9001 4.30964C18.901 4.30436 18.9022 4.299 18.9039 4.29355L18.9127 4.28827L18.9269 4.28823L18.9161 4.28616L18.9127 4.28827C18.8651 4.28814 18.8198 4.28539 18.7773 4.28035L18.4227 4.1005L18.4226 4.10239C18.4258 4.11234 18.4304 4.12208 18.4364 4.13156L18.7092 4.26989C18.7309 4.27404 18.7537 4.27755 18.7773 4.28035L18.8293 4.30674ZM18.8293 4.30674C18.8523 4.30836 18.8759 4.30934 18.9001 4.30964C18.8983 4.32108 18.8983 4.33211 18.9002 4.34269L18.8293 4.30674ZM19.4794 4.46506L19.4797 4.46469L19.4799 4.46499L19.4794 4.46506ZM19.4794 4.46506C19.4248 4.47237 19.3723 4.47638 19.3228 4.47741L19.1847 4.49085C19.1584 4.48809 19.1336 4.48435 19.1102 4.47968L19.1127 4.47823L19.1029 4.45914L19.0752 4.47169L19.0793 4.47273C19.0592 4.48425 19.0385 4.49574 19.0174 4.50712L18.9915 4.50964L18.9308 4.53714L18.9671 4.53362C18.8375 4.60036 18.6959 4.66157 18.5663 4.70247L18.574 4.72252L18.9971 4.5307L19.0237 4.52811C19.0399 4.51941 19.0558 4.51065 19.0715 4.50186L19.1847 4.49085C19.2404 4.49671 19.3021 4.49814 19.3682 4.49461L19.4583 4.48584C19.4656 4.47894 19.4726 4.47201 19.4794 4.46506ZM19.0578 4.50319L19.0715 4.50186C19.0846 4.49448 19.0975 4.48709 19.1102 4.47968L19.1098 4.4796L19.1117 4.47874L19.1019 4.45965L19.0793 4.47273C19.0892 4.47521 19.0993 4.4775 19.1098 4.4796L19.0578 4.50319ZM19.0578 4.50319L19.0174 4.50712C19.0008 4.51603 18.9841 4.52487 18.9671 4.53362L18.9971 4.5307L19.0578 4.50319ZM18.7694 4.84943L18.7647 4.85785C18.7882 4.85253 18.8118 4.84657 18.8354 4.84001L18.7694 4.84943ZM18.7694 4.84943L18.772 4.84499L18.7643 4.85016L18.7694 4.84943ZM19.305 4.77297L19.2515 4.7806L18.9699 4.94725L18.9791 4.96658C19.0953 4.92291 19.2042 4.86377 19.3565 4.76562L19.3072 4.77266L19.3555 4.74403L19.3488 4.74499L19.305 4.77297ZM19.2753 4.79152L19.305 4.77297L19.3072 4.77266L19.2753 4.79152ZM19.2753 4.79152C19.2416 4.81232 19.21 4.83105 19.1798 4.84804L19.2753 4.79152ZM19.1798 4.84804C19.1057 4.88964 19.0398 4.9208 18.9716 4.94644L18.9808 4.96577L19.1798 4.84804ZM19.2425 5.12714L19.2387 5.1327L19.2559 5.12466L19.2425 5.12714ZM19.2425 5.12714L19.245 5.12356L19.2382 5.12794L19.2425 5.12714ZM19.5674 5.06692L19.5489 5.07035C19.4639 5.13581 19.3894 5.19622 19.3591 5.22677L19.3732 5.2429L19.614 5.05829L19.5955 5.06171L19.6339 5.03273L19.605 5.03807L19.5674 5.06692ZM19.5674 5.06692L19.3602 5.22581L19.3743 5.24194C19.4078 5.20813 19.4977 5.13614 19.5955 5.06171L19.5674 5.06692ZM19.7642 5.14158L19.7641 5.14193L19.7644 5.14168L19.7642 5.14158ZM19.7642 5.14158L19.7681 5.131L19.7538 5.13703L19.7642 5.14158ZM19.7594 5.11857L19.7461 5.12867L19.7481 5.12335L19.7594 5.11857ZM19.3532 5.36858L19.3536 5.3684L19.3524 5.36602L19.3208 5.38075L19.3304 5.37741C19.3058 5.39007 19.2805 5.40286 19.2548 5.41564C19.275 5.41584 19.2987 5.41113 19.327 5.40159L19.3614 5.38553L19.3532 5.36858ZM19.3532 5.36858L19.352 5.36623L19.3304 5.37741C19.3376 5.3748 19.3452 5.37185 19.3532 5.36858ZM19.2495 5.10398C19.2411 5.10802 19.2327 5.11191 19.2244 5.11565L19.2275 5.11118L19.2343 5.10679L19.2495 5.10398ZM18.9852 5.18143L18.9944 5.20023L18.9892 5.20268C18.9744 5.20369 18.9599 5.20395 18.9458 5.20345C18.9634 5.1931 18.977 5.18519 18.9839 5.1815L18.9852 5.18143ZM18.9852 5.18143L18.9857 5.1814L18.9854 5.18075L18.9837 5.18151L18.9839 5.1815L18.9849 5.18096L18.9852 5.18143ZM18.8311 4.81891C18.8042 4.82641 18.7773 4.83312 18.7507 4.83898L18.7535 4.83405L18.7613 4.82887L18.8311 4.81891ZM18.4854 4.8658L18.4917 4.87862L18.4733 4.88671C18.4613 4.886 18.4495 4.88499 18.4379 4.88369L18.472 4.86506L18.4854 4.8658ZM18.4854 4.8658L18.4866 4.86586L18.4832 4.85891L18.4694 4.86492L18.472 4.86506L18.4822 4.85936L18.4854 4.8658ZM18.4127 4.11951L18.4092 4.11776L18.4164 4.11865L18.4127 4.11951ZM18.4036 4.113C18.4023 4.10945 18.4012 4.10587 18.4002 4.10226L18.4146 4.09803L18.415 4.09809L18.4135 4.11783L18.4036 4.113ZM20.2335 5.34018L20.234 5.33963L20.2339 5.33858L20.1403 5.40891C20.1703 5.39314 20.1995 5.37216 20.2279 5.34547C20.153 5.43083 19.9409 5.58708 19.7622 5.69323L19.7741 5.71109L20.2476 5.35514L20.2335 5.34018ZM20.2335 5.34018L20.2279 5.34547L20.233 5.33962L20.2335 5.34018ZM19.845 5.41766L19.8467 5.41832L19.8524 5.4126L19.8391 5.39595L19.8216 5.40707L19.8254 5.40899C19.7882 5.44434 19.7365 5.48452 19.6774 5.52443L19.5911 5.57946C19.5227 5.62055 19.45 5.65865 19.3817 5.68759L19.3916 5.70657L19.5911 5.57946C19.621 5.56151 19.65 5.543 19.6774 5.52443L19.845 5.41766ZM19.845 5.41766L19.8506 5.4141L19.8372 5.39745L19.8254 5.40899C19.8317 5.41209 19.8382 5.41498 19.845 5.41766ZM19.7385 5.32309L19.7393 5.32478L19.7503 5.31578L19.738 5.29828L19.7308 5.3026L19.7312 5.3037C19.6712 5.35259 19.5813 5.41556 19.4846 5.4772L19.3346 5.56823C19.2459 5.61935 19.161 5.66293 19.0972 5.68746L19.1065 5.7067L19.3346 5.56823C19.3844 5.53958 19.4354 5.50856 19.4846 5.4772L19.7385 5.32309ZM19.7385 5.32309C19.7357 5.31686 19.7332 5.3104 19.7312 5.3037L19.7367 5.29917L19.749 5.31668L19.7385 5.32309ZM19.148 5.30552L19.1481 5.30652L19.1642 5.29739L19.1542 5.27841L19.1477 5.28166L19.1476 5.28211C18.9752 5.37997 18.6728 5.53472 18.5708 5.57035L18.5791 5.59013L19.148 5.30552ZM19.148 5.30552C19.1472 5.29791 19.147 5.29013 19.1476 5.28211L19.1536 5.27869L19.1637 5.29766L19.148 5.30552ZM18.7696 5.14061L18.7704 5.14128L18.7782 5.13621L18.7675 5.11757L18.7537 5.12457L18.7547 5.12579C18.6843 5.17143 18.63 5.20574 18.5746 5.23896L18.1785 5.43878C18.1375 5.45385 18.0995 5.46517 18.0649 5.47244L18.0719 5.49257L18.1785 5.43878C18.2242 5.42201 18.2737 5.40059 18.3265 5.37494C18.3818 5.3481 18.4399 5.31706 18.5005 5.28235C18.5264 5.26753 18.5506 5.25335 18.5746 5.23896L18.7696 5.14061ZM18.7696 5.14061C18.7643 5.13588 18.7594 5.13094 18.7547 5.12579L18.7665 5.11814L18.7772 5.13678L18.7696 5.14061ZM18.7057 4.9919L18.7057 4.99368L18.7199 4.98518L18.7099 4.96621L18.707 4.96755L18.707 4.96788C18.6319 5.01295 18.5629 5.05322 18.4983 5.08922L18.0961 5.27797C18.0486 5.29475 18.0014 5.30913 17.9532 5.32149L17.9604 5.34165L18.0961 5.27797C18.221 5.23383 18.3478 5.17312 18.4983 5.08922L18.7057 4.9919ZM18.7057 4.9919L18.719 4.98569L18.7089 4.96672L18.707 4.96788C18.7062 4.976 18.7058 4.98401 18.7057 4.9919ZM18.2955 4.78886L18.2958 4.7894L18.3034 4.78604L18.2955 4.76607L18.2872 4.76902L18.2874 4.76962C18.0968 4.85372 17.7579 4.97222 17.4989 5.04856L17.5055 5.06901L18.2955 4.78886ZM18.2955 4.78886C18.2925 4.78261 18.2898 4.77619 18.2874 4.76962L18.2947 4.76638L18.3026 4.78635L18.2955 4.78886ZM18.1082 4.58691L18.1089 4.58702L18.1116 4.58527L18.1014 4.56642L18.0694 4.58026L18.0776 4.58181C18.0451 4.60285 18.011 4.62371 17.976 4.64409L17.4281 4.88103C17.3926 4.89018 17.3585 4.89727 17.3264 4.902L17.3321 4.92251L17.4281 4.88103C17.5978 4.83727 17.7998 4.74658 17.976 4.64409L18.1082 4.58691ZM18.1082 4.58691C18.098 4.58538 18.0878 4.58368 18.0776 4.58181L18.0998 4.56732L18.1099 4.58617L18.1082 4.58691ZM16.3256 4.38469L16.3263 4.38702L16.3366 4.38534L16.3361 4.36331C16.3314 4.3628 16.3263 4.36246 16.321 4.36229L16.3214 4.36528L16.1619 4.39108L16.1676 4.41236C16.2114 4.39397 16.2808 4.38209 16.3256 4.38469ZM16.3256 4.38469C16.3237 4.37822 16.3222 4.37174 16.3214 4.36528L16.3333 4.36335L16.3339 4.38538L16.3256 4.38469ZM16.3055 4.21465L16.3061 4.21586L16.3124 4.21642L16.3163 4.19536L16.2959 4.18958L16.2969 4.19341C16.2601 4.18998 16.2244 4.18613 16.1897 4.18184L15.5654 4.00504C15.5406 3.99168 15.5164 3.97757 15.493 3.96265L15.4844 3.98208L15.5654 4.00504C15.7325 4.09476 15.9337 4.15023 16.1897 4.18184L16.3055 4.21465ZM16.3055 4.21465C16.3018 4.20755 16.299 4.20045 16.2969 4.19341L16.3143 4.195L16.3105 4.21606L16.3055 4.21465ZM17.6097 3.77066L17.6161 3.77554L17.6253 3.75661C17.6199 3.75516 17.6143 3.75341 17.6084 3.75136C17.6087 3.7578 17.6091 3.76424 17.6097 3.77066ZM20.2422 5.50095C20.198 5.56034 20.0866 5.69195 20.0158 5.76828L20.0318 5.78257L20.2589 5.51435L20.2422 5.50095ZM20.2426 5.50043L20.2593 5.51383C20.2146 5.57389 20.1028 5.70608 20.0315 5.78294L20.0155 5.76864L20.2426 5.50043Z" fill="black"/>
<path fill-rule="evenodd" clip-rule="evenodd" d="M20.1587 3.51855C20.116 3.62631 20.0922 3.85433 20.1049 3.94333C20.1073 3.96038 20.107 3.96469 20.0995 4.03628C20.0858 4.16684 20.0912 4.26586 20.1343 4.39376L20.1546 4.38687C20.1126 4.26237 20.1074 4.16627 20.1208 4.03853C20.1286 3.9637 20.1289 3.96008 20.1261 3.9403C20.1139 3.8549 20.1373 3.63067 20.1786 3.5265L20.1587 3.51855ZM19.8295 4.09364C19.8236 4.01269 19.832 3.90731 19.8539 3.83161L19.8745 3.83762C19.8533 3.91065 19.8451 4.01352 19.8509 4.09207L19.8295 4.09364ZM19.8442 4.22699C19.8266 4.30203 19.8396 4.47665 19.8636 4.57322L19.8844 4.56801C19.8611 4.47447 19.8484 4.30303 19.865 4.23191L19.8442 4.22699ZM19.92 4.80455C19.91 4.78871 19.9025 4.77379 19.8977 4.75978L19.9178 4.75227C19.922 4.76449 19.9288 4.77792 19.9379 4.79242C19.9493 4.81057 19.964 4.82989 19.9818 4.85055C19.9964 4.86763 20.0084 4.88047 20.0312 4.90428L20.016 4.91995C19.9929 4.89586 19.9808 4.8828 19.9658 4.86533C19.9474 4.8439 19.932 4.82374 19.92 4.80455ZM20.0033 4.3554C19.9935 4.48015 20.062 4.71692 20.1316 4.7972C20.1469 4.93 20.2389 5.12006 20.3688 5.25106L20.384 5.23589C20.2574 5.10827 20.1675 4.92257 20.1503 4.78877C20.0821 4.70739 20.0153 4.47634 20.0247 4.3571L20.0033 4.3554ZM19.9744 4.21633C19.9634 4.13749 19.9607 4.05843 19.9697 4.0082L19.9908 4.012C19.9823 4.05952 19.9849 4.13656 19.9957 4.21333L19.9744 4.21633ZM20.3082 4.3447C20.2625 4.19115 20.2609 3.82244 20.3081 3.62735L20.3289 3.63242C20.2825 3.82395 20.2842 4.18881 20.3287 4.33855L20.3082 4.3447ZM20.2499 4.40256C20.2241 4.5171 20.2268 4.6497 20.26 4.7495L20.2803 4.7427C20.2485 4.64685 20.2458 4.5182 20.2708 4.40731L20.2499 4.40256ZM20.639 4.22683C20.5105 4.08338 20.4328 3.86949 20.4381 3.70249L20.4595 3.70317C20.4543 3.86463 20.5302 4.07313 20.6549 4.21246L20.639 4.22683ZM20.4043 4.2384C20.3895 4.4237 20.4001 4.59389 20.4338 4.69114C20.4425 4.71623 20.4486 4.74673 20.4572 4.8026L20.4656 4.85702C20.469 4.87845 20.472 4.8965 20.4754 4.9138C20.4915 4.99816 20.5128 5.06025 20.5465 5.10825L20.564 5.09586C20.5324 5.05089 20.512 4.99137 20.4964 4.90973C20.4931 4.8927 20.4901 4.87487 20.4867 4.85365L20.4784 4.79932C20.4696 4.74216 20.4633 4.71082 20.4541 4.68407C20.4215 4.5902 20.4111 4.4227 20.4257 4.24012L20.4043 4.2384ZM20.5769 4.54053L20.5689 4.51007L20.5896 4.50454L20.5976 4.53513C20.6088 4.57824 20.6154 4.61074 20.6184 4.64318C20.6228 4.69002 20.6186 4.73044 20.6036 4.76501L20.584 4.75643C20.5973 4.72563 20.6012 4.68871 20.5971 4.6452C20.5942 4.61413 20.5878 4.58262 20.5769 4.54053ZM20.6946 4.36902C20.7303 4.48614 20.7525 4.62943 20.7473 4.69171L20.7687 4.69348C20.7741 4.62807 20.7515 4.48224 20.7151 4.36274L20.6946 4.36902ZM20.8454 5.31693C20.8013 5.23932 20.7613 5.11535 20.7522 5.01529L20.7735 5.01333C20.7823 5.11027 20.8214 5.23129 20.864 5.30627L20.8454 5.31693ZM20.5932 5.31018C20.6337 5.43215 20.7031 5.55807 20.766 5.60771L20.7792 5.59081C20.7205 5.5444 20.6528 5.42171 20.6136 5.30339L20.5932 5.31018ZM21.1876 5.6515C21.1447 5.52155 21.1165 5.45841 21.0487 5.36184L21.0663 5.34945C21.1355 5.44809 21.1644 5.51295 21.2079 5.64474L21.1876 5.6515Z" fill="black"/>
<path fill-rule="evenodd" clip-rule="evenodd" d="M20.2642 5.39052C20.2776 5.39195 20.2859 5.39248 20.3089 5.39363C20.3623 5.3963 20.381 5.40174 20.4051 5.42721C20.4209 5.444 20.4366 5.46938 20.4536 5.50632C20.5129 5.63527 20.675 5.83242 20.7697 5.89384L20.7696 5.89389C20.8951 6.11466 20.9508 6.40607 20.9119 6.56248C20.9007 6.49367 20.8617 6.44072 20.8016 6.39734C20.7782 6.38049 20.7633 6.37192 20.7228 6.35029C20.6691 6.39724 20.5908 6.45128 20.5513 6.45972L20.5558 6.48076C20.6004 6.47123 20.6822 6.41477 20.7257 6.36705C20.7454 6.38433 20.7584 6.39336 20.7729 6.40338L20.7891 6.41481C20.8451 6.45519 20.8807 6.50364 20.8908 6.56624L20.9118 6.56283L20.9104 6.56825L20.9311 6.57387C20.9727 6.41956 20.9224 6.13586 20.8038 5.91167C20.9499 5.97894 21.0433 6.05476 21.0615 6.16169L21.0819 6.16427L21.0924 6.14073C21.1411 6.031 21.1596 5.95559 21.141 5.87772L21.1429 5.87993L21.16 5.90057C21.2137 5.9653 21.2533 6.01293 21.2826 6.04893L21.2806 6.04921C21.2835 6.0697 21.2862 6.10089 21.2894 6.14845C21.2899 6.15694 21.2915 6.18153 21.2933 6.20947C21.2957 6.24744 21.2985 6.29161 21.2997 6.31001C21.3074 6.42298 21.3151 6.49825 21.3256 6.54734L21.3466 6.54282C21.3364 6.49509 21.3287 6.42047 21.3211 6.30855C21.3199 6.29022 21.3171 6.24618 21.3147 6.20825C21.3129 6.18023 21.3113 6.15554 21.3108 6.147C21.3088 6.11823 21.3071 6.09538 21.3053 6.07713C21.351 6.13442 21.3629 6.15448 21.3691 6.17617C21.371 6.18268 21.3723 6.18933 21.3739 6.19717L21.3739 6.19718L21.3739 6.19718L21.3757 6.20596C21.3935 6.29146 21.4622 6.40872 21.5312 6.48405L21.547 6.46951C21.4804 6.39679 21.4136 6.28278 21.3966 6.20154L21.3944 6.19027C21.3927 6.18177 21.3912 6.1746 21.3892 6.1676C21.3786 6.1302 21.3514 6.0975 21.1792 5.89009L21.1792 5.89009L21.1792 5.89009L21.1792 5.89009L21.1792 5.89008L21.1593 5.86617C21.1447 5.84854 21.1315 5.83239 21.119 5.8168L21.1009 5.82803C21.1435 5.92097 21.1316 5.99821 21.0752 6.12667C21.0433 6.02423 20.9457 5.9518 20.8012 5.88684C20.7177 5.84939 20.5355 5.63297 20.4731 5.49731C20.4552 5.45841 20.4383 5.43115 20.4206 5.41242C20.3918 5.38186 20.3684 5.37508 20.31 5.37215C20.2874 5.37103 20.2793 5.37051 20.2665 5.36914L20.2642 5.39052ZM21.3053 6.07713C21.3042 6.06488 21.303 6.0547 21.3018 6.04619L21.2826 6.04893C21.291 6.05924 21.2985 6.0686 21.3053 6.07713ZM20.9118 6.56283L20.9119 6.5628L20.9119 6.56248L20.9118 6.56283ZM20.8038 5.91167L20.7924 5.90647C20.7854 5.90333 20.7778 5.89908 20.7697 5.89384L20.7883 5.88324C20.7936 5.8926 20.7988 5.90208 20.8038 5.91167ZM20.4144 5.71647C20.452 5.82994 20.4818 5.96618 20.4849 6.04502L20.5063 6.04419C20.5032 5.963 20.4729 5.82492 20.4348 5.70969L20.4144 5.71647ZM20.7393 6.27588C20.7359 6.21224 20.696 6.04557 20.6562 5.93452L20.6764 5.92725C20.7168 6.0401 20.7572 6.20869 20.7607 6.27475L20.7393 6.27588ZM21.1136 6.23712C21.1447 6.31233 21.1644 6.43105 21.1581 6.5018L21.1795 6.50371C21.1861 6.42941 21.1658 6.30721 21.1334 6.22887L21.1136 6.23712Z" fill="black"/>
</g>
</svg>
