<svg width="28" height="20" viewBox="0 0 28 20" fill="none" xmlns="http://www.w3.org/2000/svg">
<rect width="28" height="20" rx="2" fill="white"/>
<mask id="mask0_14715_5103" style="mask-type:luminance" maskUnits="userSpaceOnUse" x="0" y="0" width="28" height="20">
<rect width="28" height="20" rx="2" fill="white"/>
</mask>
<g mask="url(#mask0_14715_5103)">
<rect width="28" height="20" fill="#05AB41"/>
<path fill-rule="evenodd" clip-rule="evenodd" d="M3.5317 10.56C3.1257 10.2973 3.1257 9.70332 3.5317 9.44061L13.6379 2.90134C13.8582 2.75873 14.1418 2.75873 14.3622 2.90134L24.4683 9.44061C24.8743 9.70332 24.8743 10.2973 24.4683 10.56L14.3622 17.0993C14.1418 17.2419 13.8582 17.2419 13.6379 17.0993L3.5317 10.56Z" fill="#FDD216"/>
<path fill-rule="evenodd" clip-rule="evenodd" d="M14 14.6663C16.5773 14.6663 18.6666 12.577 18.6666 9.99967C18.6666 7.42235 16.5773 5.33301 14 5.33301C11.4227 5.33301 9.33331 7.42235 9.33331 9.99967C9.33331 12.577 11.4227 14.6663 14 14.6663Z" fill="#053087"/>
<mask id="mask1_14715_5103" style="mask-type:luminance" maskUnits="userSpaceOnUse" x="9" y="5" width="10" height="10">
<path fill-rule="evenodd" clip-rule="evenodd" d="M14 14.6663C16.5773 14.6663 18.6666 12.577 18.6666 9.99967C18.6666 7.42235 16.5773 5.33301 14 5.33301C11.4227 5.33301 9.33331 7.42235 9.33331 9.99967C9.33331 12.577 11.4227 14.6663 14 14.6663Z" fill="white"/>
</mask>
<g mask="url(#mask1_14715_5103)">
<path d="M8.77993 8.78008C9.51263 8.18676 11.877 8.74883 14.084 9.33757C16.2911 9.92631 18.593 11.1603 19.1791 11.8841" stroke="white" stroke-width="1.33333" stroke-linecap="square"/>
</g>
</g>
</svg>
