<svg width="28" height="20" viewBox="0 0 28 20" fill="none" xmlns="http://www.w3.org/2000/svg">
<rect x="0.25" y="0.25" width="27.5" height="19.5" rx="1.75" fill="white" stroke="#F5F5F5" stroke-width="0.5"/>
<mask id="mask0_14715_5569" style="mask-type:luminance" maskUnits="userSpaceOnUse" x="0" y="0" width="28" height="20">
<rect x="0.25" y="0.25" width="27.5" height="19.5" rx="1.75" fill="white" stroke="white" stroke-width="0.5"/>
</mask>
<g mask="url(#mask0_14715_5569)">
<path fill-rule="evenodd" clip-rule="evenodd" d="M0 6.66667H28V0H0V6.66667Z" fill="#FF202D"/>
<path opacity="0.5" fill-rule="evenodd" clip-rule="evenodd" d="M10.6667 5.33366L11.3333 4.66699L12 5.33366V6.66699H10.6667V5.33366ZM13.3333 5.33366L14 4.66699L14.6667 5.33366V6.66699H13.3333V5.33366ZM16.6667 4.66699L16 5.33366V6.66699H17.3333V5.33366L16.6667 4.66699Z" fill="#1895DB"/>
<path opacity="0.5" fill-rule="evenodd" clip-rule="evenodd" d="M12.6667 4.66699L12 5.33366V6.66699H13.3333V5.33366L12.6667 4.66699ZM15.3333 4.66699L14.6667 5.33366V6.66699H16V5.33366L15.3333 4.66699Z" fill="#191F94"/>
<path fill-rule="evenodd" clip-rule="evenodd" d="M0 19.9997H28V13.333H0V19.9997Z" fill="#2027AC"/>
<path fill-rule="evenodd" clip-rule="evenodd" d="M12 6.66699H11.3333L10.6667 8.00033H12V9.33366H10.6667V10.667H12V12.0003H10.6667V13.3337H12V14.667H13.3333V13.3337H14.6667V14.667H16V13.3337H17.3333V12.0003H16V10.667H17.3333V9.33366H16V8.00033H17.3333L16.6667 6.66699H16V8.00033H14.6667V6.66699H13.3333V8.00033H12V6.66699ZM13.3333 9.33366V8.00033H14.6667V9.33366H13.3333ZM13.3333 10.667V9.33366H12V10.667H13.3333ZM14.6667 10.667H13.3333V12.0003H12V13.3337H13.3333V12.0003H14.6667V13.3337H16V12.0003H14.6667V10.667ZM14.6667 10.667H16V9.33366H14.6667V10.667Z" fill="url(#paint0_linear_14715_5569)"/>
</g>
<defs>
<linearGradient id="paint0_linear_14715_5569" x1="10.6667" y1="6.66699" x2="10.6667" y2="14.667" gradientUnits="userSpaceOnUse">
<stop stop-color="#FF212E"/>
<stop offset="1" stop-color="#FD0D1B"/>
</linearGradient>
</defs>
</svg>
