<svg width="28" height="20" viewBox="0 0 28 20" fill="none" xmlns="http://www.w3.org/2000/svg">
<rect width="28" height="20" rx="2" fill="white"/>
<mask id="mask0_14715_5816" style="mask-type:luminance" maskUnits="userSpaceOnUse" x="0" y="0" width="28" height="20">
<rect width="28" height="20" rx="2" fill="white"/>
</mask>
<g mask="url(#mask0_14715_5816)">
<path fill-rule="evenodd" clip-rule="evenodd" d="M0 4H28V0H0V4Z" fill="#1461B6"/>
<path fill-rule="evenodd" clip-rule="evenodd" d="M0 20H28V16H0V20Z" fill="#1461B6"/>
<path fill-rule="evenodd" clip-rule="evenodd" d="M0 16H28V4H0V16Z" fill="white"/>
<path fill-rule="evenodd" clip-rule="evenodd" d="M0 14.6663H28V5.33301H0V14.6663Z" fill="#F53846"/>
<path fill-rule="evenodd" clip-rule="evenodd" d="M13.3333 10.0003C13.3333 11.8413 11.8409 13.3337 9.99999 13.3337C8.15904 13.3337 6.66666 11.8413 6.66666 10.0003C6.66666 8.15938 8.15904 6.66699 9.99999 6.66699L9.21378 8.9182L6.8298 8.97027L8.72788 10.4137L8.04071 12.697L9.99999 11.3379L11.9593 12.697L11.2721 10.4137L13.1702 8.97027L10.7862 8.9182L9.99999 6.66699C11.8409 6.66699 13.3333 8.15938 13.3333 10.0003Z" fill="white"/>
</g>
</svg>
