<svg width="28" height="20" viewBox="0 0 28 20" fill="none" xmlns="http://www.w3.org/2000/svg">
<rect x="0.25" y="0.25" width="27.5" height="19.5" rx="1.75" fill="white" stroke="#F5F5F5" stroke-width="0.5"/>
<mask id="mask0_14715_5903" style="mask-type:luminance" maskUnits="userSpaceOnUse" x="0" y="0" width="28" height="20">
<rect x="0.25" y="0.25" width="27.5" height="19.5" rx="1.75" fill="white" stroke="white" stroke-width="0.5"/>
</mask>
<g mask="url(#mask0_14715_5903)">
<path fill-rule="evenodd" clip-rule="evenodd" d="M0 5.33333H28V0H0V5.33333Z" fill="#F03340"/>
<path fill-rule="evenodd" clip-rule="evenodd" d="M0 20.0003H28V14.667H0V20.0003Z" fill="#F03340"/>
<path fill-rule="evenodd" clip-rule="evenodd" d="M12.9428 12.3908C13.1585 12.1752 13.1585 11.8255 12.9428 11.6098L12.8661 11.5331C12.7424 11.4094 12.5628 11.3596 12.3931 11.4021L12.0138 11.4969C11.5701 11.6078 11.2948 11.0293 11.6606 10.7549L12.0033 10.4978C12.2158 10.3385 12.1031 10.0003 11.8375 10.0003C11.5458 10.0003 11.453 9.60715 11.7139 9.47672L12.2861 9.1906C12.547 9.06017 12.4542 8.66699 12.1625 8.66699C11.8969 8.66699 11.7842 8.32885 11.9967 8.16948L13.6 6.96699C13.837 6.78921 14.163 6.78921 14.4 6.96699L16.0033 8.16948C16.2158 8.32886 16.1031 8.66699 15.8375 8.66699C15.5458 8.66699 15.453 9.06017 15.7139 9.1906L16.2861 9.47672C16.547 9.60715 16.4542 10.0003 16.1625 10.0003C15.8969 10.0003 15.7842 10.3385 15.9967 10.4978L16.3394 10.7549C16.7052 11.0293 16.4299 11.6078 15.9862 11.4969L15.6069 11.4021C15.4372 11.3596 15.2576 11.4094 15.1339 11.5331L15.0572 11.6098C14.8415 11.8255 14.8415 12.1752 15.0572 12.3909C15.4051 12.7388 15.1587 13.3337 14.6667 13.3337H13.3333C12.8413 13.3337 12.5949 12.7388 12.9428 12.3908Z" fill="#1FC065"/>
</g>
</svg>
