<svg width="28" height="20" viewBox="0 0 28 20" fill="none" xmlns="http://www.w3.org/2000/svg">
<rect x="0.25" y="0.25" width="27.5" height="19.5" rx="1.75" fill="white" stroke="#F5F5F5" stroke-width="0.5"/>
<mask id="mask0_14715_6291" style="mask-type:luminance" maskUnits="userSpaceOnUse" x="0" y="0" width="28" height="20">
<rect x="0.25" y="0.25" width="27.5" height="19.5" rx="1.75" fill="white" stroke="white" stroke-width="0.5"/>
</mask>
<g mask="url(#mask0_14715_6291)">
<path fill-rule="evenodd" clip-rule="evenodd" d="M0 13.3337H28V6.66699H0V13.3337Z" fill="#17508F"/>
<path fill-rule="evenodd" clip-rule="evenodd" d="M0 6.66667H28V0H0V6.66667Z" fill="#E1444D"/>
<path fill-rule="evenodd" clip-rule="evenodd" d="M6 10.0003C6 9.35527 6.34366 7.91817 6.5375 7.15889C6.61181 6.86784 6.87495 6.66699 7.17534 6.66699H10.1592C10.459 6.66699 10.7218 6.86703 10.7964 7.15743C10.9903 7.91228 11.3333 9.34053 11.3333 10.0003C11.3333 10.7453 10.833 12.7011 10.6992 13.2108C10.6777 13.2927 10.6412 13.368 10.5872 13.4333C10.3317 13.7429 9.49918 14.667 8.66667 14.667C7.83364 14.667 7.00061 13.7417 6.74565 13.4328C6.69202 13.3678 6.65559 13.293 6.63405 13.2116C6.50018 12.7055 6 10.7638 6 10.0003Z" fill="white"/>
<mask id="mask1_14715_6291" style="mask-type:luminance" maskUnits="userSpaceOnUse" x="6" y="6" width="6" height="9">
<path fill-rule="evenodd" clip-rule="evenodd" d="M6 10.0003C6 9.35527 6.34366 7.91817 6.5375 7.15889C6.61181 6.86784 6.87495 6.66699 7.17534 6.66699H10.1592C10.459 6.66699 10.7218 6.86703 10.7964 7.15743C10.9903 7.91228 11.3333 9.34053 11.3333 10.0003C11.3333 10.7453 10.833 12.7011 10.6992 13.2108C10.6777 13.2927 10.6412 13.368 10.5872 13.4333C10.3317 13.7429 9.49918 14.667 8.66667 14.667C7.83364 14.667 7.00061 13.7417 6.74565 13.4328C6.69202 13.3678 6.65559 13.293 6.63405 13.2116C6.50018 12.7055 6 10.7638 6 10.0003Z" fill="white"/>
</mask>
<g mask="url(#mask1_14715_6291)">
<path d="M11.3333 7.33366L6.00001 14.0003" stroke="#E1444D" stroke-width="1.33333" stroke-linecap="square"/>
<path d="M6 7.33366L11.3333 14.0003" stroke="#E1444D" stroke-width="1.33333" stroke-linecap="square"/>
</g>
</g>
</svg>
