<svg width="20" height="20" viewBox="0 0 20 20" fill="none" xmlns="http://www.w3.org/2000/svg">
<circle cx="10" cy="10" r="10" fill="#7C509A"/>
<path d="M13.127 5.27296C11.2212 4.90901 9.24215 4.90901 7.33639 5.27296C6.49345 5.45493 5.43063 6.47397 5.24738 7.27464C4.91754 8.83959 4.91754 10.4409 5.24738 12.0059C5.46728 12.8066 6.5301 13.8256 7.33639 14.0076C7.37304 14.0076 7.40968 14.044 7.40968 14.0804V16.3732C7.40968 16.4824 7.55628 16.5552 7.62958 16.446L8.72906 15.3178C8.72906 15.3178 9.60864 14.4079 9.75523 14.2623C9.75523 14.2623 9.79189 14.2259 9.82854 14.2259C10.928 14.2623 12.0641 14.1532 13.1636 13.9712C14.0065 13.7892 15.0694 12.7702 15.2526 11.9695C15.5825 10.4045 15.5825 8.8032 15.2526 7.23825C15.0327 6.47397 13.9699 5.45493 13.127 5.27296ZM13.1636 12.1151C12.9804 12.479 12.7605 12.7702 12.394 12.9521C12.284 12.9885 12.1741 13.0249 12.0641 13.0613C11.9175 13.0249 11.8076 12.9885 11.6976 12.9521C10.5249 12.479 9.42539 11.8239 8.54581 10.8777C8.06937 10.3318 7.66623 9.71305 7.33639 9.05796C7.18979 8.73041 7.04319 8.43926 6.93325 8.11171C6.8233 7.82055 7.00654 7.5294 7.18979 7.31103C7.37304 7.09267 7.59293 6.94709 7.84948 6.83791C8.03272 6.72873 8.21597 6.80152 8.36257 6.94709C8.65576 7.31103 8.94895 7.67498 9.16885 8.07531C9.31544 8.33007 9.27879 8.62123 9.02225 8.8032C8.94895 8.83959 8.9123 8.87599 8.839 8.94878C8.80236 8.98517 8.72906 9.02156 8.69241 9.09435C8.61911 9.20354 8.61911 9.31272 8.65576 9.4219C8.94895 10.259 9.49869 10.9141 10.3416 11.278C10.4882 11.3508 10.5982 11.3872 10.7814 11.3872C11.038 11.3508 11.1479 11.0596 11.3312 10.9141C11.5144 10.7685 11.7343 10.7685 11.9542 10.8777C12.1374 10.9869 12.3207 11.1324 12.5406 11.278C12.7238 11.4236 12.9071 11.5328 13.0903 11.6783C13.2003 11.7511 13.2369 11.9331 13.1636 12.1151ZM11.6243 9.38551C11.551 9.38551 11.5877 9.38551 11.6243 9.38551C11.4777 9.38551 11.4411 9.31272 11.4044 9.20354C11.4044 9.13075 11.4044 9.02156 11.3678 8.94878C11.3312 8.8032 11.2579 8.65762 11.1113 8.54844C11.038 8.51204 10.9647 8.47565 10.8914 8.43926C10.7814 8.40286 10.7081 8.40286 10.5982 8.40286C10.4882 8.36647 10.4516 8.29368 10.4516 8.1845C10.4516 8.11171 10.5615 8.03892 10.6348 8.03892C11.2212 8.07531 11.661 8.40286 11.7343 9.09435C11.7343 9.13075 11.7343 9.20354 11.7343 9.23993C11.7343 9.31272 11.6976 9.38551 11.6243 9.38551ZM11.2579 7.78416C11.0746 7.71137 10.8914 7.63858 10.6715 7.60219C10.5982 7.60219 10.4882 7.56579 10.4149 7.56579C10.305 7.56579 10.2317 7.49301 10.2683 7.38382C10.2683 7.27464 10.3416 7.20185 10.4516 7.23825C10.8181 7.27464 11.1479 7.34743 11.4777 7.49301C12.1374 7.82055 12.5039 8.36647 12.6139 9.09435C12.6139 9.13075 12.6139 9.16714 12.6139 9.20354C12.6139 9.27632 12.6139 9.34911 12.6139 9.45829C12.6139 9.49469 12.6139 9.53108 12.6139 9.56748C12.5772 9.71306 12.3207 9.74945 12.284 9.56748C12.284 9.53108 12.2474 9.4583 12.2474 9.4219C12.2474 9.09435 12.1741 8.7668 12.0275 8.47565C11.8076 8.1481 11.551 7.92974 11.2579 7.78416ZM13.2369 9.96781C13.127 9.96781 13.0537 9.85863 13.0537 9.74945C13.0537 9.53108 13.017 9.31272 12.9804 9.09435C12.8338 7.92974 11.8809 6.98349 10.7448 6.80151C10.5615 6.76512 10.3783 6.76512 10.2317 6.72873C10.1217 6.72873 9.97513 6.72873 9.93848 6.58315C9.90183 6.47397 10.0118 6.36478 10.1217 6.36478C10.1584 6.36478 10.195 6.36478 10.195 6.36478C10.2683 6.36478 11.6976 6.40118 10.195 6.36478C11.7343 6.40118 13.017 7.42022 13.2736 8.94878C13.3102 9.20354 13.3469 9.4583 13.3469 9.74945C13.4202 9.85863 13.3469 9.96781 13.2369 9.96781Z" fill="white"/>
</svg>
