<svg width="82" height="82" viewBox="0 0 82 82" fill="none" xmlns="http://www.w3.org/2000/svg">
<g clip-path="url(#clip0_536_439)">
<mask id="mask0_536_439" style="mask-type:luminance" maskUnits="userSpaceOnUse" x="0" y="-1" width="82" height="83">
<path d="M59.7039 -0.00153041L0 21.9805L21.982 81.6844L81.6859 59.7024L59.7039 -0.00153041Z" fill="white"/>
</mask>
<g mask="url(#mask0_536_439)">
<path d="M35.0966 52.2795C34.2621 51.7393 33.2215 50.6394 31.4838 49.3724C30.5806 48.6456 28.2145 47.3981 27.38 46.8579C26.7321 46.249 26.5947 45.8758 26.5065 45.0608C26.2809 43.8727 27.0569 42.5276 28.3629 42.0468C29.2958 41.7033 30.5034 42.1061 31.4558 42.3911C31.9664 42.6268 32.8009 43.1671 33.3114 43.4028C33.8219 43.6386 33.8906 43.8252 34.4012 44.0609C34.9804 44.4833 35.3044 44.7877 34.843 44.1101C34.313 43.2459 33.5768 41.822 32.6541 40.4668C32.0554 39.4161 31.8001 39.2982 31.3388 38.6206C30.8087 37.7564 30.4161 37.2654 29.886 36.4012C29.4934 35.9102 28.7573 34.4863 28.2959 33.8086C27.7659 32.9445 27.1476 31.2653 27.6191 30.2442C27.9728 29.4784 29.0235 28.8797 29.9072 28.9781C31.0462 29.1943 32.0868 30.2942 32.4794 30.7853C33.196 31.5808 34.05 32.7494 34.7862 34.1733C35.8463 35.9017 37.4364 38.4942 37.6425 39.0539C37.3677 38.3076 36.7003 37.0703 36.6121 36.2553C36.5926 35.6269 36.6909 34.7432 37.3685 34.2819C37.8596 33.8892 38.4193 33.6831 38.979 33.477C39.6074 33.4575 40.3045 33.6246 40.8151 33.8604C41.9735 34.705 42.8666 37.1305 42.7979 36.9439C42.7097 36.1289 42.1601 34.6363 42.2585 33.7527C42.3077 33.3108 42.9166 32.6629 43.221 32.3389C43.7121 31.9463 44.4584 31.6715 45.0868 31.652C45.4599 31.5146 46.4123 31.7995 46.7363 32.104C47.3155 32.5263 48.189 34.3234 48.6504 35.001C48.7191 35.1876 48.5622 34.186 48.7292 33.4889C49.0634 32.0947 51.538 30.7598 52.6863 33.3032C53.1672 34.6092 53.0985 34.4226 53.442 35.3555C53.7854 36.2884 53.9915 36.8481 54.2663 37.5944C54.5411 38.3407 54.9727 40.0885 55.0609 40.9035C55.0804 41.532 55.0016 43.0441 54.7166 43.9964C54.7166 43.9964 53.4886 46.991 53.7142 48.1791C53.9398 49.3673 53.9398 49.3673 54.2146 50.1136C54.4893 50.8599 55.0194 51.724 55.0194 51.724C55.0194 51.724 53.5955 52.4602 52.7805 52.5484C51.9655 52.6366 50.5518 51.674 50.1591 51.183C49.5799 50.7606 49.0202 50.9667 48.8531 51.6638C48.7547 52.5475 48.3027 54.197 47.5564 54.4718C46.3191 55.1392 43.6383 55.9144 41.7726 56.6013C41.7726 56.6013 41.4588 54.5982 40.4377 54.1266C39.6719 53.773 38.3956 53.1836 37.6298 52.8299L35.0966 52.2795Z" fill="white"/>
</g>
<mask id="mask1_536_439" style="mask-type:luminance" maskUnits="userSpaceOnUse" x="0" y="-1" width="82" height="83">
<path d="M59.7039 -0.00153041L0 21.9805L21.982 81.6844L81.6859 59.7024L59.7039 -0.00153041Z" fill="white"/>
</mask>
<g mask="url(#mask1_536_439)">
<path d="M35.0966 52.2795C34.2621 51.7393 33.2215 50.6394 31.4838 49.3724C30.5806 48.6456 28.2145 47.3981 27.38 46.8579C26.7321 46.249 26.5947 45.8758 26.5065 45.0608C26.2809 43.8727 27.0569 42.5276 28.3629 42.0468C29.2958 41.7033 30.5034 42.1061 31.4558 42.3911C31.9664 42.6268 32.8009 43.1671 33.3114 43.4028C33.8219 43.6386 33.8906 43.8252 34.4012 44.0609C34.9804 44.4833 35.3044 44.7877 34.843 44.1101C34.313 43.2459 33.5768 41.822 32.6541 40.4668C32.0554 39.4161 31.8001 39.2982 31.3388 38.6206C30.8087 37.7564 30.4161 37.2654 29.886 36.4012C29.4934 35.9102 28.7573 34.4863 28.2959 33.8086C27.7659 32.9445 27.1476 31.2653 27.6191 30.2442C27.9728 29.4784 29.0235 28.8797 29.9072 28.9781C31.0462 29.1943 32.0868 30.2942 32.4794 30.7853C33.196 31.5808 34.05 32.7494 34.7862 34.1733C35.8463 35.9017 37.4364 38.4942 37.6425 39.0539C37.3677 38.3076 36.7003 37.0703 36.6121 36.2553C36.5926 35.6269 36.6909 34.7432 37.3685 34.2819C37.8596 33.8892 38.4193 33.6831 38.979 33.477C39.6074 33.4575 40.3045 33.6246 40.8151 33.8604C41.9735 34.705 42.8666 37.1305 42.7979 36.9439C42.7097 36.1289 42.1601 34.6363 42.2585 33.7527C42.3077 33.3108 42.9166 32.6629 43.221 32.3389C43.7121 31.9463 44.4584 31.6715 45.0868 31.652C45.4599 31.5146 46.4123 31.7995 46.7363 32.104C47.3155 32.5263 48.189 34.3234 48.6504 35.001C48.7191 35.1876 48.5622 34.186 48.7292 33.4889C49.0634 32.0947 51.538 30.7598 52.6863 33.3032C53.1672 34.6092 53.0985 34.4226 53.442 35.3555C53.7854 36.2884 53.9915 36.8481 54.2663 37.5944C54.5411 38.3407 54.9727 40.0885 55.0609 40.9035C55.0804 41.532 55.0016 43.0441 54.7166 43.9964C54.7166 43.9964 53.4886 46.991 53.7142 48.1791C53.9398 49.3673 53.9398 49.3673 54.2146 50.1136C54.4893 50.8599 55.0194 51.724 55.0194 51.724C55.0194 51.724 53.5955 52.4602 52.7805 52.5484C51.9655 52.6366 50.5518 51.674 50.1591 51.183C49.5799 50.7606 49.0202 50.9667 48.8531 51.6638C48.7547 52.5475 48.3027 54.197 47.5564 54.4718C46.3191 55.1392 43.6383 55.9144 41.7726 56.6013C41.7726 56.6013 41.4588 54.5982 40.4377 54.1266C39.6719 53.773 38.3956 53.1836 37.6298 52.8299L35.0966 52.2795Z" stroke="black" stroke-width="0.88364" stroke-linecap="round" stroke-linejoin="round"/>
</g>
<mask id="mask2_536_439" style="mask-type:luminance" maskUnits="userSpaceOnUse" x="0" y="-1" width="82" height="83">
<path d="M59.7039 -0.00153041L0 21.9805L21.982 81.6844L81.6859 59.7024L59.7039 -0.00153041Z" fill="white"/>
</mask>
<g mask="url(#mask2_536_439)">
<path d="M50.7887 47.1365L48.4531 40.793" stroke="black" stroke-width="0.88364" stroke-linecap="round"/>
</g>
<mask id="mask3_536_439" style="mask-type:luminance" maskUnits="userSpaceOnUse" x="0" y="-1" width="82" height="83">
<path d="M59.7039 -0.00153041L0 21.9805L21.982 81.6844L81.6859 59.7024L59.7039 -0.00153041Z" fill="white"/>
</mask>
<g mask="url(#mask3_536_439)">
<path d="M47.0573 48.5112L44.5352 42.2363" stroke="black" stroke-width="0.88364" stroke-linecap="round"/>
</g>
<mask id="mask4_536_439" style="mask-type:luminance" maskUnits="userSpaceOnUse" x="0" y="-1" width="82" height="83">
<path d="M59.7039 -0.00153041L0 21.9805L21.982 81.6844L81.6859 59.7024L59.7039 -0.00153041Z" fill="white"/>
</mask>
<g mask="url(#mask4_536_439)">
<path d="M40.9883 43.541L43.3239 49.8846" stroke="black" stroke-width="0.88364" stroke-linecap="round"/>
</g>
</g>
<defs>
<clipPath id="clip0_536_439">
<rect width="63.6221" height="63.6221" fill="white" transform="translate(0 21.9805) rotate(-20.2129)"/>
</clipPath>
</defs>
</svg>
